<svg width="246" height="114" viewBox="0 0 246 114" fill="none" xmlns="http://www.w3.org/2000/svg">
<g clip-path="url(#clip0_510_1289)">
<path d="M68.4527 72.5305C61.9822 59.6897 55.5051 46.849 49.0347 34.0082C48.9676 33.8811 48.9139 33.7607 48.8536 33.627H42.3362C39.6408 38.9973 36.9453 44.3677 34.2431 49.7315C30.1597 57.8506 26.0562 65.963 21.9593 74.0822C21.8185 74.363 21.6375 74.6172 21.4766 74.8847V75.1255C22.0867 76.5901 22.7036 78.0548 23.3004 79.5194C23.6021 80.2484 23.8569 80.9974 24.1318 81.7398H31.9701C32.587 80.4424 33.2039 79.1449 33.8274 77.8474C34.2297 77.0181 34.632 76.1889 35.0746 75.3796C35.1752 75.1991 35.4568 75.0184 35.6512 75.0184C42.2826 74.9984 48.9206 74.9984 55.552 75.0118C55.733 75.0118 56.0013 75.1321 56.075 75.2726C57.1411 77.3792 58.1804 79.506 59.2265 81.6261C59.2398 81.6595 59.2265 81.7063 59.2265 81.7464H66.9441C67.8693 79.5395 68.7946 77.3325 69.7133 75.1321V74.8913C69.2908 74.1022 68.8483 73.3331 68.446 72.5305H68.4527ZM38.5947 64.0703C40.9349 59.2617 43.2414 54.5066 45.615 49.6111C47.9954 54.5133 50.3019 59.2617 52.6353 64.0703H38.5947Z" fill="#EC641D"/>
<path d="M89.5198 66.5388L89.3394 64.7996H86.4233L86.2629 66.5388C86.2028 67.1385 85.9022 67.4334 85.366 67.4334H84.1234C83.8729 67.4334 83.6574 67.3585 83.4871 67.2085C83.3117 67.0586 83.2266 66.8636 83.2266 66.6238C83.2266 66.5538 83.2366 66.3589 83.2616 66.049L83.4971 63.2304C83.5221 62.9905 83.5672 62.7505 83.6424 62.5107L85.9773 54.3045C86.1577 53.6598 86.5485 53.335 87.1448 53.335H88.6379C89.2392 53.335 89.625 53.6598 89.8054 54.3045L92.1453 62.5207C92.2305 62.8205 92.2756 63.0605 92.2906 63.2403L92.5261 66.059C92.5511 66.3489 92.5611 66.5388 92.5611 66.6338C92.5611 66.8737 92.476 67.0686 92.3006 67.2185C92.1252 67.3684 91.9148 67.4434 91.6643 67.4434H90.4217C89.8805 67.4434 89.5799 67.1435 89.5248 66.5488L89.5198 66.5388ZM87.8863 56.7634L86.6287 62.3058H89.164L87.8863 56.7634Z" fill="#EC641D"/>
<path d="M100.043 66.5387V61.711C100.043 60.8714 99.9627 60.2767 99.7971 59.9169C99.6368 59.557 99.3315 59.3771 98.8904 59.3771C98.66 59.3771 98.4692 59.4371 98.3043 59.567C98.1441 59.692 98.0181 59.8469 97.9281 60.0318C97.838 60.2167 97.7678 60.4766 97.7228 60.8114C97.6724 61.1463 97.6427 61.4711 97.6328 61.781C97.6228 62.0908 97.6129 62.4857 97.6129 62.9654V66.5338C97.6129 66.7987 97.5274 67.0136 97.3618 67.1785C97.1968 67.3484 96.9764 67.4283 96.7158 67.4283H95.2778C95.0122 67.4283 94.7968 67.3434 94.6314 67.1785C94.4611 67.0136 94.3809 66.7936 94.3809 66.5338V58.0727C94.3809 57.8079 94.466 57.593 94.6314 57.428C94.7968 57.2631 95.0172 57.1781 95.2778 57.1781H96.6256C96.9012 57.1781 97.1217 57.2631 97.282 57.428C97.442 57.593 97.5229 57.8128 97.5229 58.0727V58.2176C98.1341 57.428 98.9805 57.0332 100.058 57.0332C101.33 57.0332 102.212 57.433 102.703 58.2376C102.944 57.9627 103.31 57.6929 103.801 57.428C104.292 57.1631 104.863 57.0332 105.509 57.0332C106.216 57.0332 106.797 57.1281 107.243 57.3181C107.694 57.508 108.029 57.8229 108.26 58.2526C108.486 58.6824 108.641 59.1572 108.721 59.677C108.802 60.1968 108.836 60.8764 108.836 61.716V66.5438C108.836 66.8086 108.751 67.0235 108.586 67.1885C108.421 67.3534 108.2 67.4384 107.939 67.4384H106.556C106.281 67.4384 106.06 67.3534 105.9 67.1885C105.74 67.0235 105.66 66.8037 105.66 66.5438V61.7011C105.66 60.8764 105.574 60.2817 105.409 59.9269C105.244 59.567 104.918 59.3871 104.437 59.3871C104.162 59.3871 103.941 59.467 103.771 59.627C103.6 59.7869 103.48 60.0568 103.4 60.4266C103.32 60.7965 103.275 61.1613 103.254 61.5111C103.234 61.866 103.23 62.3507 103.23 62.9754V66.5438C103.23 66.8086 103.144 67.0235 102.979 67.1885C102.808 67.3584 102.593 67.4384 102.332 67.4384H100.949C100.674 67.4384 100.453 67.3534 100.293 67.1885C100.133 67.0235 100.053 66.8037 100.053 66.5438L100.043 66.5387Z" fill="#EC641D"/>
<path d="M119.648 58.3926C120.379 59.3022 120.746 60.6066 120.746 62.3058C120.746 64.005 120.385 65.3094 119.658 66.219C118.932 67.1285 118.01 67.5833 116.897 67.5833C115.785 67.5833 114.938 67.2535 114.327 66.5988C114.327 66.8286 114.242 67.0236 114.076 67.1885C113.911 67.3534 113.69 67.4384 113.43 67.4384H112.082C111.817 67.4384 111.601 67.3534 111.436 67.1885C111.266 67.0236 111.186 66.8037 111.186 66.5438V54.2295C111.186 53.9647 111.27 53.7498 111.436 53.5849C111.601 53.4199 111.822 53.335 112.082 53.335H113.465C113.741 53.335 113.961 53.4199 114.121 53.5849C114.282 53.7548 114.362 53.9697 114.362 54.2295V57.8878C115.033 57.3131 115.845 57.0283 116.792 57.0283C117.969 57.0283 118.922 57.483 119.653 58.3926H119.648ZM117.473 62.3058C117.473 61.3862 117.353 60.6615 117.113 60.1418C116.873 59.622 116.441 59.3622 115.82 59.3622C115.294 59.3622 114.903 59.632 114.658 60.1718C114.412 60.7115 114.287 61.4212 114.287 62.3058C114.287 64.2649 114.798 65.2494 115.815 65.2494C116.461 65.2494 116.902 64.9945 117.127 64.4848C117.353 63.975 117.469 63.2503 117.469 62.3058H117.473Z" fill="#EC641D"/>
<path d="M125.912 58.0729V62.3059C125.912 63.3355 126.012 64.0801 126.217 64.5499C126.422 65.0146 126.788 65.2495 127.314 65.2495C127.841 65.2495 128.196 65.0146 128.422 64.5399C128.642 64.0651 128.752 63.3304 128.752 62.3259V58.0729C128.752 57.808 128.838 57.5931 129.003 57.4282C129.168 57.2633 129.389 57.1783 129.65 57.1783H131.087C131.353 57.1783 131.568 57.2633 131.734 57.4282C131.899 57.5931 131.984 57.813 131.984 58.0729V66.6139C131.984 66.8638 131.899 67.0637 131.734 67.2137C131.568 67.3636 131.348 67.4385 131.087 67.4385H129.664C129.414 67.4285 129.213 67.3385 129.063 67.1687C128.913 67.0037 128.837 66.7938 128.837 66.5389V66.3241C128.322 67.1637 127.505 67.5785 126.392 67.5785C123.947 67.5785 122.725 65.9992 122.725 62.8406V58.0679C122.725 57.8031 122.805 57.5882 122.97 57.4232C123.135 57.2582 123.351 57.1733 123.627 57.1733H125.01C125.275 57.1733 125.49 57.2582 125.656 57.4232C125.822 57.5882 125.906 57.808 125.906 58.0679L125.912 58.0729Z" fill="#EC641D"/>
<path d="M138.067 65.3344C138.368 65.3344 138.613 65.2744 138.804 65.1545C138.994 65.0345 139.089 64.8596 139.089 64.6347C139.089 64.3598 138.919 64.1199 138.578 63.91C138.237 63.7002 137.822 63.5102 137.335 63.3353C136.849 63.1604 136.363 62.9605 135.878 62.7256C135.392 62.4907 134.98 62.1508 134.635 61.6961C134.294 61.2413 134.124 60.6965 134.124 60.0618C134.124 59.0573 134.484 58.2777 135.201 57.7279C135.923 57.1782 136.884 56.9033 138.097 56.9033C138.819 56.9033 139.45 57.0083 139.996 57.2181C140.542 57.4281 140.958 57.6879 141.239 57.9978C141.519 58.3076 141.725 58.6075 141.86 58.8924C141.995 59.1772 142.056 59.4421 142.056 59.682C142.056 59.9669 142.005 60.1618 141.905 60.2568C141.805 60.3517 141.585 60.4017 141.249 60.4017H140.026C139.716 60.4017 139.505 60.3767 139.395 60.3217C139.285 60.2667 139.22 60.1518 139.2 59.9719C139.13 59.5071 138.798 59.2722 138.212 59.2722C137.886 59.2722 137.641 59.3372 137.476 59.4621C137.306 59.5871 137.226 59.747 137.226 59.9369C137.226 60.1868 137.401 60.4116 137.747 60.6115C138.092 60.8065 138.513 60.9964 139.004 61.1663C139.495 61.3413 139.991 61.5412 140.487 61.7761C140.983 62.011 141.409 62.3458 141.755 62.7906C142.101 63.2353 142.276 63.7651 142.276 64.3898C142.276 65.4293 141.94 66.2439 141.269 66.8287C140.597 67.4134 139.626 67.7083 138.353 67.7083C137.611 67.7083 136.945 67.6033 136.363 67.3934C135.782 67.1835 135.331 66.9186 135.015 66.5938C134.7 66.2689 134.46 65.9491 134.304 65.6243C134.149 65.2994 134.068 64.9945 134.068 64.7096C134.068 64.4248 134.124 64.2449 134.229 64.1449C134.334 64.045 134.535 63.99 134.82 63.99H136.043C136.343 63.99 136.559 64.03 136.689 64.1049C136.82 64.185 136.9 64.3248 136.925 64.5247C137.01 65.0645 137.386 65.3344 138.057 65.3344H138.067Z" fill="#EC641D"/>
<path d="M150.443 66.5388V61.5861C150.443 60.1268 150.007 59.3971 149.13 59.3971C148.805 59.3971 148.539 59.4771 148.318 59.642C148.102 59.802 147.947 60.0468 147.852 60.3766C147.757 60.7066 147.692 61.0414 147.652 61.3812C147.617 61.7211 147.596 62.1459 147.596 62.6457V66.5388C147.596 66.8037 147.512 67.0186 147.346 67.1835C147.181 67.3534 146.961 67.4334 146.7 67.4334H145.262C144.996 67.4334 144.781 67.3484 144.616 67.1835C144.445 67.0186 144.365 66.7987 144.365 66.5388V54.1596C144.365 53.9097 144.45 53.7098 144.616 53.5598C144.781 53.4099 145.001 53.335 145.262 53.335H146.775C147.026 53.345 147.226 53.435 147.376 53.6048C147.526 53.7698 147.602 53.9797 147.602 54.2346V58.0377C148.273 57.3681 149.095 57.0332 150.067 57.0332C151.375 57.0332 152.297 57.418 152.838 58.1827C153.379 58.9474 153.65 60.1418 153.65 61.771V66.5438C153.65 66.8087 153.564 67.0236 153.399 67.1885C153.234 67.3534 153.013 67.4384 152.752 67.4384H151.35C151.084 67.4384 150.869 67.3534 150.703 67.1885C150.533 67.0236 150.453 66.8037 150.453 66.5438L150.443 66.5388Z" fill="#EC641D"/>
<path d="M170.39 63.685C170.39 64.7245 170.014 65.6541 169.257 66.4737C168.501 67.2933 167.408 67.7032 165.985 67.7032C164.187 67.7032 162.909 67.0734 162.152 65.809C161.396 64.5496 161.02 62.6954 161.02 60.2566C161.02 57.8177 161.396 56.0386 162.142 54.8492C162.894 53.6597 164.171 53.0649 165.98 53.0649C167.384 53.0649 168.456 53.4497 169.192 54.2244C169.929 54.9941 170.3 55.8786 170.3 56.8682C170.3 57.4679 170.044 57.7627 169.528 57.7627H168.34C168.075 57.7627 167.854 57.6978 167.664 57.5679C167.478 57.4379 167.373 57.258 167.348 57.0281C167.323 56.8032 167.298 56.6283 167.278 56.5083C167.253 56.3884 167.213 56.2485 167.153 56.0885C167.093 55.9286 167.017 55.8037 166.927 55.7188C166.837 55.6338 166.712 55.5638 166.556 55.5038C166.401 55.4438 166.211 55.4139 165.98 55.4139C165.609 55.4139 165.304 55.5188 165.073 55.7287C164.838 55.9386 164.667 56.2734 164.552 56.7333C164.437 57.193 164.362 57.6878 164.327 58.2125C164.292 58.7373 164.271 59.422 164.271 60.2566C164.271 60.9613 164.282 61.556 164.306 62.0308C164.332 62.5105 164.377 62.9704 164.442 63.4201C164.507 63.8699 164.603 64.2197 164.728 64.4796C164.853 64.7395 165.018 64.9394 165.224 65.0893C165.429 65.2393 165.679 65.3143 165.98 65.3143C166.351 65.3143 166.646 65.2043 166.872 64.9844C167.093 64.7645 167.233 64.5446 167.288 64.3297C167.343 64.1148 167.388 63.8449 167.423 63.5201C167.468 62.9453 167.784 62.6604 168.36 62.6604H169.493C169.818 62.6604 170.048 62.7404 170.184 62.8953C170.325 63.0503 170.39 63.3152 170.39 63.685Z" fill="#EC641D"/>
<path d="M176.273 59.2922C175.552 59.2922 175.116 59.5071 174.961 59.9369C174.875 60.1868 174.62 60.3117 174.189 60.3117H173.112C172.766 60.3117 172.52 60.2568 172.385 60.1418C172.245 60.0268 172.18 59.8319 172.18 59.5571C172.18 59.3172 172.255 59.0573 172.405 58.7675C172.555 58.4776 172.781 58.1927 173.087 57.9078C173.393 57.623 173.838 57.3831 174.42 57.1882C175.001 56.9983 175.662 56.9033 176.409 56.9033C177.295 56.9033 178.037 57.0133 178.629 57.2332C179.219 57.453 179.67 57.7879 179.976 58.2377C180.282 58.6875 180.498 59.1823 180.613 59.727C180.733 60.2718 180.793 60.9264 180.793 61.6911V66.5338C180.793 66.7987 180.707 67.0136 180.543 67.1785C180.377 67.3484 180.156 67.4284 179.896 67.4284H178.473C177.932 67.4284 177.662 67.1285 177.662 66.5338V66.3739C176.99 67.1735 176.113 67.5784 175.036 67.5784C174.063 67.5784 173.272 67.2685 172.661 66.6438C172.049 66.0241 171.744 65.2494 171.744 64.3299C171.744 63.2753 172.139 62.4557 172.932 61.871C173.723 61.2863 174.72 60.9914 175.918 60.9914C176.649 60.9914 177.211 61.0714 177.606 61.2263V60.7416C177.606 60.2868 177.491 59.9319 177.256 59.6721C177.02 59.4172 176.694 59.2872 176.273 59.2872V59.2922ZM174.725 64.1699C174.725 64.5048 174.84 64.7596 175.076 64.9395C175.311 65.1195 175.607 65.2094 175.967 65.2094C176.414 65.2094 176.795 65.0196 177.11 64.6347C177.426 64.2499 177.591 63.8501 177.606 63.4303C177.305 63.2154 176.834 63.1054 176.183 63.1054C175.813 63.1054 175.477 63.1904 175.176 63.3553C174.875 63.5252 174.725 63.7901 174.725 64.1649V64.1699Z" fill="#EC641D"/>
<path d="M192.697 62.3058C192.697 63.99 192.336 65.2944 191.619 66.2089C190.903 67.1235 189.976 67.5833 188.848 67.5833C187.816 67.5833 186.99 67.2834 186.368 66.6887V70.387C186.368 70.6518 186.283 70.8667 186.118 71.0317C185.952 71.1966 185.732 71.2816 185.471 71.2816H184.033C183.768 71.2816 183.553 71.1966 183.387 71.0317C183.217 70.8667 183.137 70.6469 183.137 70.387V58.0727C183.137 57.8079 183.221 57.593 183.387 57.428C183.553 57.2631 183.772 57.1781 184.033 57.1781H185.381C185.647 57.1781 185.862 57.2581 186.028 57.418C186.193 57.5779 186.278 57.7729 186.278 58.0028C186.829 57.3581 187.686 57.0332 188.848 57.0332C190.011 57.0332 190.883 57.488 191.609 58.3975C192.336 59.3071 192.697 60.6115 192.697 62.3107V62.3058ZM189.42 62.3058C189.42 60.3467 188.869 59.3622 187.766 59.3622C186.749 59.3622 186.238 60.3417 186.238 62.3058C186.238 64.2698 186.749 65.2494 187.766 65.2494C188.403 65.2494 188.838 65.0045 189.069 64.5147C189.305 64.025 189.42 63.2903 189.42 62.3058Z" fill="#EC641D"/>
<path d="M194.762 66.5387V58.0726C194.762 57.8078 194.846 57.5929 195.012 57.428C195.178 57.2631 195.397 57.1781 195.658 57.1781H197.096C197.362 57.1781 197.577 57.2631 197.743 57.428C197.908 57.5929 197.993 57.8128 197.993 58.0726V66.5387C197.993 66.8036 197.908 67.0185 197.743 67.1834C197.577 67.3533 197.357 67.4333 197.096 67.4333H195.658C195.393 67.4333 195.178 67.3483 195.012 67.1834C194.842 67.0185 194.762 66.7986 194.762 66.5387ZM197.121 56.1136H195.684C195.408 56.1136 195.188 56.0336 195.027 55.8737C194.867 55.7137 194.786 55.4939 194.786 55.219V54.2345C194.786 53.9696 194.867 53.7547 195.027 53.5897C195.188 53.4248 195.408 53.3398 195.684 53.3398H197.121C197.397 53.3398 197.617 53.4248 197.778 53.5897C197.938 53.7597 198.018 53.9745 198.018 54.2345V55.219C198.018 55.4939 197.938 55.7137 197.778 55.8737C197.617 56.0336 197.397 56.1136 197.121 56.1136Z" fill="#EC641D"/>
<path d="M204.331 57.173H205.283C205.548 57.173 205.764 57.258 205.929 57.4229C206.095 57.5879 206.179 57.8077 206.179 58.0676V58.7673C206.179 59.0422 206.095 59.2621 205.929 59.422C205.764 59.5819 205.544 59.6619 205.283 59.6619H204.331V63.645C204.331 64.1448 204.411 64.4996 204.566 64.7045C204.722 64.9094 204.962 65.0294 205.288 65.0643C205.889 65.1493 206.185 65.4792 206.185 66.0489V66.6936C206.185 67.0534 206.075 67.2983 205.859 67.4282C205.644 67.5582 205.313 67.6231 204.872 67.6231C204.431 67.6231 203.99 67.5682 203.595 67.4532C203.199 67.3382 202.808 67.1484 202.427 66.8785C202.041 66.6086 201.74 66.1988 201.52 65.6491C201.3 65.0993 201.189 64.4346 201.189 63.655V59.6569H200.724C200.458 59.6569 200.242 59.5769 200.077 59.417C199.912 59.2571 199.826 59.0372 199.826 58.7623V58.0626C199.826 57.7977 199.912 57.5828 200.077 57.4179C200.242 57.253 200.463 57.1681 200.724 57.1681H201.189V55.6587C201.189 55.3939 201.275 55.179 201.44 55.0141C201.605 54.8491 201.826 54.7642 202.086 54.7642H203.434C203.71 54.7642 203.93 54.8491 204.091 55.0141C204.251 55.179 204.336 55.3989 204.336 55.6587V57.1681L204.331 57.173Z" fill="#EC641D"/>
<path d="M212.248 59.2922C211.527 59.2922 211.091 59.5071 210.935 59.9369C210.851 60.1868 210.595 60.3117 210.164 60.3117H209.086C208.741 60.3117 208.496 60.2568 208.361 60.1418C208.22 60.0268 208.155 59.8319 208.155 59.5571C208.155 59.3172 208.23 59.0573 208.38 58.7675C208.531 58.4776 208.756 58.1927 209.062 57.9078C209.367 57.623 209.814 57.3831 210.394 57.1882C210.976 56.9983 211.637 56.9033 212.384 56.9033C213.271 56.9033 214.012 57.0133 214.603 57.2332C215.195 57.453 215.646 57.7879 215.951 58.2377C216.257 58.6875 216.472 59.1823 216.587 59.727C216.708 60.2718 216.768 60.9264 216.768 61.6911V66.5338C216.768 66.7987 216.683 67.0136 216.517 67.1785C216.352 67.3484 216.132 67.4284 215.871 67.4284H214.448C213.907 67.4284 213.636 67.1285 213.636 66.5338V66.3739C212.965 67.1735 212.088 67.5784 211.011 67.5784C210.039 67.5784 209.247 67.2685 208.636 66.6438C208.025 66.0241 207.719 65.2494 207.719 64.3299C207.719 63.2753 208.115 62.4557 208.906 61.871C209.698 61.2863 210.695 60.9914 211.892 60.9914C212.624 60.9914 213.185 61.0714 213.581 61.2263V60.7416C213.581 60.2868 213.466 59.9319 213.23 59.6721C212.995 59.4172 212.669 59.2872 212.248 59.2872V59.2922ZM210.7 64.1699C210.7 64.5048 210.816 64.7596 211.051 64.9395C211.287 65.1195 211.582 65.2094 211.943 65.2094C212.389 65.2094 212.769 65.0196 213.085 64.6347C213.4 64.2499 213.566 63.8501 213.581 63.4303C213.281 63.2154 212.81 63.1054 212.158 63.1054C211.787 63.1054 211.451 63.1904 211.151 63.3553C210.851 63.5252 210.7 63.7901 210.7 64.1649V64.1699Z" fill="#EC641D"/>
<path d="M219.098 63.935V54.2295C219.098 53.9647 219.184 53.7498 219.349 53.5849C219.514 53.4199 219.735 53.335 219.996 53.335H221.398C221.664 53.335 221.879 53.4199 222.045 53.5849C222.21 53.7548 222.295 53.9697 222.295 54.2295V63.97C222.295 64.3299 222.336 64.5697 222.42 64.6947C222.506 64.8196 222.707 64.9045 223.032 64.9545C223.533 65.0145 223.789 65.3294 223.789 65.9041V66.6388C223.789 66.9986 223.683 67.2435 223.473 67.3734C223.262 67.5034 222.947 67.5683 222.531 67.5683C221.379 67.5683 220.522 67.2535 219.951 66.6188C219.379 65.9841 219.094 65.0894 219.094 63.93L219.098 63.935Z" fill="#EC641D"/>
</g>
<defs>
<clipPath id="clip0_510_1289">
<rect width="203" height="49" fill="white" transform="translate(21 33)"/>
</clipPath>
</defs>
</svg>
