<svg width="246" height="114" viewBox="0 0 246 114" fill="none" xmlns="http://www.w3.org/2000/svg">
<g clip-path="url(#clip0_510_1287)">
<path d="M87.8204 58.4132L85.7062 56.3455L87.5228 54.5688C87.8487 54.2501 87.9621 53.7733 87.809 53.3465L82.7645 39.1247C82.62 38.72 82.2658 38.4235 81.835 38.3487L77.9127 37.6724L78.3719 33.8446C78.4314 33.3457 78.1621 32.8634 77.7002 32.6444L67.9088 28.0018C67.7613 27.9325 67.5999 27.8909 67.4354 27.8854L60.6084 27.5943C60.2372 27.5777 59.8744 27.7329 59.6335 28.0101L56.4594 31.6771H54.1554L50.9813 28.0073C50.7404 27.7274 50.3834 27.5749 50.0064 27.5916L43.1822 27.8826C43.0178 27.8881 42.8563 27.9297 42.7089 27.999L32.9174 32.6417C32.4555 32.8606 32.1863 33.3429 32.2458 33.8418L32.7049 37.6696L28.7827 38.3459C28.3519 38.4207 27.9948 38.7173 27.8531 39.122L22.8058 53.3465C22.6556 53.7733 22.7661 54.2473 23.092 54.5688L24.9086 56.3455L22.7944 58.4132C22.4288 58.7707 22.3382 59.314 22.5649 59.7658L25.977 66.587C26.0875 66.8088 26.2661 66.9917 26.4899 67.1081L30.9479 69.4558L29.4798 70.4758C29.2021 70.6698 29.0179 70.9692 28.9782 71.3017C28.9385 71.6343 29.0462 71.9669 29.2701 72.2192L35.7996 79.4756C35.896 79.5809 36.0093 79.6696 36.134 79.7361L39.1352 81.3104L42.8477 86.3495C43.0745 86.6571 43.4401 86.84 43.8283 86.84H49.7627C50.1878 86.84 50.5789 86.6238 50.7971 86.2663L54.2262 80.6785H56.3886L59.8177 86.2663C60.0359 86.6211 60.4298 86.84 60.8521 86.84H66.7865C67.1748 86.84 67.5403 86.6571 67.767 86.3495L71.4796 81.3104L74.4808 79.7361C74.6083 79.6696 74.7217 79.5809 74.8152 79.4756L81.3447 72.2192C81.5714 71.9669 81.6763 71.6343 81.6366 71.3017C81.5969 70.9692 81.4156 70.6698 81.135 70.4758L79.667 69.4558L84.1248 67.1081C84.3459 66.9917 84.5273 66.8088 84.6378 66.587L88.0499 59.7658C88.2767 59.314 88.1832 58.768 87.8204 58.4132ZM47.0308 30.0861L49.4736 29.9836L47.1044 41.5694L36.7717 38.2738L47.0308 30.0861ZM42.2782 30.8317L35.0118 36.6329L34.7425 34.4073L42.2782 30.8345V30.8317ZM33.728 42.6171L38.2567 62.0026L27.8786 55.8854L33.7251 42.6171H33.728ZM29.9021 40.555L32.1834 40.1613L26.0365 54.106L25.3365 53.4213L29.9021 40.555ZM27.9778 65.2095L25.1155 59.4886L26.694 57.9448L37.9648 64.5886L33.147 67.9313L27.9778 65.2095ZM38.7697 78.4362L37.4688 77.7543L31.9709 71.6427L38.9056 66.8282L38.7697 78.4362ZM35.6891 40.4108L46.4951 43.856L40.4048 60.5917L35.6891 40.408V40.4108ZM41.3231 66.5676L46.325 69.5167L41.204 76.6152L41.3202 66.5676H41.3231ZM49.0797 84.4786H44.4461L42.2413 81.4878L51.1344 81.1275L49.0769 84.4813L49.0797 84.4786ZM52.1177 78.7216L42.3547 79.118L48.0907 71.1659L52.1177 76.1994V78.7216ZM52.1177 72.3661L49.5445 69.1509L52.1177 65.5837V72.3689V72.3661ZM52.1177 61.4842L47.7194 67.5821L41.7113 64.0398L48.6461 44.9842L52.1177 47.1295V61.487V61.4842ZM52.1177 44.3356L49.3489 42.6254L51.4745 32.2342L52.1177 32.9798V44.3356ZM56.0853 78.3143H54.5323V76.6789H56.0853V78.3143ZM56.0853 74.3174H54.5323V63.6185H56.0853V74.3174ZM56.0853 61.257H54.5323V47.6561H56.0853V61.257ZM56.0853 45.2946H54.5323V34.0414H56.0853V45.2973V45.2946ZM80.7184 40.5522L85.284 53.4185L84.5839 54.1032L78.437 40.1586L80.7184 40.5522ZM82.739 55.8826L72.361 61.9998L76.8897 42.6143L82.7362 55.8826H82.739ZM75.8751 34.4017L75.6059 36.6274L68.3395 30.8262L75.8751 34.399V34.4017ZM63.5869 30.0834L73.846 38.2711L63.5132 41.5666L61.144 29.9808L63.5841 30.0834H63.5869ZM58.4999 32.977L59.1432 32.2314L61.2687 42.6226L58.4999 44.3328V32.977ZM58.4999 47.1267L61.9715 44.9814L68.9063 64.037L62.8983 67.5793L58.4999 61.4815V47.1239V47.1267ZM58.4999 65.5809L61.0732 69.1481L58.4999 72.3633V65.5781V65.5809ZM58.4999 76.1966L62.527 71.1631L68.263 79.1152L58.4999 78.7189V76.1966ZM66.1715 84.4758H61.5379L59.4804 81.122L68.3735 81.4823L66.1687 84.473L66.1715 84.4758ZM64.2926 69.514L69.2946 66.5649L69.4136 76.6124L64.2926 69.514ZM70.2156 60.589L64.1254 43.8533L74.9314 40.408L70.2156 60.5917V60.589ZM73.1488 77.7488L71.848 78.4306L71.712 66.8226L78.6467 71.6371L73.1488 77.7488ZM82.6427 65.2039L77.4735 67.9258L72.6557 64.583L83.9265 57.9392L85.505 59.4831L82.6427 65.2039Z" fill="#EC641D"/>
<path d="M112.358 53.5174C113.386 52.7653 113.901 51.702 113.901 50.3378C113.901 49.4145 113.689 48.6416 113.264 48.0192C112.84 47.3967 112.246 46.9298 111.488 46.6135C111.18 46.4838 110.841 46.3904 110.485 46.3178C110.56 46.2919 110.639 46.266 110.708 46.2348C111.424 45.9288 111.986 45.4723 112.405 44.8758C112.819 44.2741 113.031 43.5375 113.031 42.6609C113.031 41.3382 112.522 40.3163 111.509 39.5953C110.496 38.8744 109.069 38.5112 107.229 38.5112H100.111V54.6482H107.701C109.775 54.6482 111.329 54.2696 112.358 53.5174ZM107.112 39.9169C108.433 39.9169 109.456 40.1608 110.188 40.6431C110.92 41.1255 111.286 41.8621 111.286 42.8425C111.286 43.8228 110.92 44.5386 110.188 45.0314C109.456 45.5241 108.433 45.768 107.112 45.768H101.857V39.9118H107.112V39.9169ZM101.857 53.2425V47.1788H107.68C109.122 47.1788 110.231 47.4227 111.005 47.905C111.779 48.3874 112.161 49.1551 112.161 50.1977C112.161 51.2403 111.774 52.0288 111.005 52.5163C110.236 53.0039 109.128 53.2425 107.68 53.2425H101.857Z" fill="#EC641D"/>
<path d="M119.629 38.5112H117.885V54.6482H119.629V38.5112Z" fill="#EC641D"/>
<path d="M138.293 46.5773H136.622V51.9978C136.108 52.3713 135.561 52.6566 134.983 52.8485C134.145 53.1234 133.249 53.2635 132.31 53.2635C131.302 53.2635 130.374 53.0975 129.515 52.7655C128.656 52.4335 127.914 51.9667 127.277 51.3598C126.64 50.7529 126.148 50.0423 125.792 49.2279C125.437 48.4135 125.262 47.5318 125.262 46.5773C125.262 45.6229 125.437 44.7204 125.792 43.9164C126.148 43.1072 126.64 42.4018 127.277 41.7949C127.914 41.188 128.662 40.7211 129.515 40.3892C130.369 40.0572 131.308 39.8912 132.332 39.8912C133.291 39.8912 134.182 40.0365 135.02 40.3269C135.853 40.6174 136.617 41.105 137.306 41.7793L138.388 40.6952C137.651 39.912 136.76 39.3258 135.715 38.942C134.67 38.5581 133.52 38.3662 132.262 38.3662C131.006 38.3662 129.844 38.5685 128.784 38.9783C127.722 39.3881 126.8 39.9587 126.015 40.6952C125.23 41.4318 124.62 42.3032 124.19 43.2991C123.756 44.3002 123.543 45.3895 123.543 46.5722C123.543 47.7548 123.761 48.8493 124.19 49.8452C124.62 50.8463 125.224 51.7125 126.004 52.4491C126.784 53.1857 127.702 53.7615 128.762 54.166C129.822 54.5706 130.979 54.7781 132.236 54.7781C133.382 54.7781 134.484 54.6069 135.535 54.2594C136.585 53.9119 137.508 53.4035 138.293 52.7292V46.5722V46.5773Z" fill="#EC641D"/>
<path d="M161.638 53.5174C162.668 52.7653 163.182 51.702 163.182 50.3378C163.182 49.4145 162.97 48.6416 162.546 48.0192C162.121 47.3967 161.527 46.9298 160.768 46.6135C160.461 46.4838 160.122 46.3904 159.766 46.3178C159.84 46.2919 159.92 46.266 159.989 46.2348C160.705 45.9288 161.268 45.4723 161.686 44.8758C162.1 44.2741 162.312 43.5375 162.312 42.6609C162.312 41.3382 161.803 40.3163 160.79 39.5953C159.777 38.8744 158.35 38.5112 156.51 38.5112H149.393V54.6482H156.982C159.056 54.6482 160.61 54.2696 161.638 53.5174ZM156.394 39.9169C157.714 39.9169 158.738 40.1608 159.47 40.6431C160.202 41.1255 160.567 41.8621 160.567 42.8425C160.567 43.8228 160.202 44.5386 159.47 45.0314C158.738 45.5241 157.714 45.768 156.394 45.768H151.138V39.9118H156.394V39.9169ZM151.138 53.2425V47.1788H156.961C158.404 47.1788 159.512 47.4227 160.286 47.905C161.06 48.3874 161.442 49.1551 161.442 50.1977C161.442 51.2403 161.055 52.0288 160.286 52.5163C159.517 53.0039 158.408 53.2425 156.961 53.2425H151.138Z" fill="#EC641D"/>
<path d="M178.43 54.6484H180.34L176.304 49.1138C176.526 49.0412 176.738 48.9633 176.946 48.8752C177.953 48.4395 178.722 47.8066 179.268 46.9871C179.81 46.1676 180.08 45.1872 180.08 44.0461C180.08 42.9049 179.81 41.883 179.268 41.0635C178.728 40.2439 177.953 39.6111 176.946 39.1754C175.938 38.7397 174.74 38.5166 173.339 38.5166H167.166V54.6536H168.911V49.534H173.339C173.806 49.534 174.246 49.5081 174.67 49.4613L178.43 54.6536V54.6484ZM173.292 48.0816H168.906V39.9897H173.292C174.941 39.9897 176.192 40.3425 177.052 41.0479C177.906 41.7533 178.335 42.7544 178.335 44.0461C178.335 45.3376 177.906 46.3128 177.052 47.0183C176.198 47.7237 174.941 48.0764 173.292 48.0764V48.0816Z" fill="#EC641D"/>
<path d="M185.352 50.3378H194.559L196.532 54.6482H198.373L190.831 38.5112H189.112L181.57 54.6482H183.384L185.357 50.3378H185.352ZM189.955 40.2748L193.928 48.9528H185.988L189.961 40.2748H189.955Z" fill="#EC641D"/>
<path d="M202.849 38.5112H201.104V54.6482H202.849V38.5112Z" fill="#EC641D"/>
<path d="M209.966 41.5613L220.568 54.6482H222.005V38.5112H220.287V51.5983L209.658 38.5112H208.221V54.6482H209.966V41.5613Z" fill="#EC641D"/>
<path d="M111.185 66.6047H104.137V60.624H100.547V75.7962H104.137V69.5769H111.185V75.7962H114.776V60.624H111.185V66.6047Z" fill="#EC641D"/>
<path d="M132.029 62.5951C131.265 61.8896 130.374 61.3398 129.345 60.9455C128.316 60.5565 127.192 60.3594 125.966 60.3594C124.741 60.3594 123.633 60.5565 122.598 60.9455C121.564 61.3346 120.663 61.8844 119.894 62.5951C119.125 63.3056 118.531 64.1356 118.112 65.09C117.693 66.0444 117.48 67.0818 117.48 68.2126C117.48 69.3434 117.693 70.3808 118.112 71.3352C118.531 72.2896 119.125 73.1196 119.883 73.8302C120.642 74.5408 121.543 75.0855 122.588 75.4797C123.628 75.8687 124.762 76.0659 125.988 76.0659C127.213 76.0659 128.316 75.8687 129.345 75.4797C130.374 75.0907 131.265 74.546 132.029 73.8406C132.787 73.1403 133.386 72.3104 133.811 71.3456C134.24 70.386 134.452 69.3382 134.452 68.2126C134.452 67.087 134.24 66.0288 133.811 65.0796C133.381 64.1356 132.787 63.3056 132.029 62.6002V62.5951ZM130.453 70.1837C130.209 70.775 129.865 71.2885 129.424 71.7243C128.979 72.1599 128.47 72.4919 127.886 72.7202C127.303 72.9484 126.661 73.0677 125.972 73.0677C125.282 73.0677 124.635 72.9536 124.041 72.7202C123.452 72.4867 122.938 72.1548 122.503 71.7243C122.068 71.2885 121.729 70.775 121.485 70.1733C121.241 69.5716 121.119 68.918 121.119 68.2126C121.119 67.5072 121.241 66.8329 121.485 66.2416C121.729 65.6502 122.074 65.1367 122.514 64.701C122.959 64.2652 123.468 63.9333 124.052 63.7051C124.635 63.4769 125.277 63.3575 125.966 63.3575C126.656 63.3575 127.303 63.4717 127.897 63.7051C128.486 63.9384 129 64.2704 129.435 64.701C129.87 65.1367 130.209 65.6502 130.453 66.2416C130.697 66.8329 130.819 67.4916 130.819 68.2126C130.819 68.9336 130.697 69.5924 130.453 70.1837Z" fill="#EC641D"/>
<path d="M140.748 60.624H137.158V75.7962H148.529V72.9381H140.748V60.624Z" fill="#EC641D"/>
<path d="M162.048 61.5681C160.765 60.9405 159.279 60.624 157.593 60.624H150.545V75.7962H157.593C159.279 75.7962 160.765 75.4798 162.048 74.8521C163.331 74.2245 164.339 73.3427 165.061 72.2068C165.782 71.0708 166.148 69.7377 166.148 68.2075C166.148 66.6773 165.787 65.3235 165.061 64.1979C164.334 63.0724 163.331 62.1905 162.048 61.5629V61.5681ZM161.883 70.7025C161.465 71.4131 160.871 71.9578 160.113 72.3416C159.349 72.7255 158.453 72.9174 157.418 72.9174H154.141V63.508H157.418C158.453 63.508 159.349 63.7 160.113 64.0838C160.871 64.4676 161.465 65.0071 161.883 65.7074C162.303 66.4076 162.515 67.2428 162.515 68.2127C162.515 69.1827 162.303 69.997 161.883 70.7077V70.7025Z" fill="#EC641D"/>
<path d="M172.442 60.624H168.852V75.7962H172.442V60.624Z" fill="#EC641D"/>
<path d="M186.799 69.8311L179.087 60.624H176.117V75.7962H179.665V66.5892L187.398 75.7962H190.347V60.624H186.799V69.8311Z" fill="#EC641D"/>
<path d="M198.09 64.7007C198.541 64.2649 199.076 63.933 199.697 63.7048C200.318 63.4714 201.007 63.3572 201.76 63.3572C202.513 63.3572 203.266 63.4973 203.929 63.7774C204.592 64.0575 205.207 64.488 205.77 65.0689L208.077 62.9889C207.323 62.1383 206.395 61.4847 205.298 61.0386C204.195 60.5925 202.959 60.3643 201.585 60.3643C200.344 60.3643 199.204 60.5562 198.175 60.9401C197.14 61.3239 196.239 61.8686 195.47 62.574C194.701 63.2846 194.107 64.1145 193.688 65.0689C193.269 66.0233 193.057 67.0712 193.057 68.2123C193.057 69.3535 193.269 70.4012 193.688 71.3556C194.107 72.3101 194.701 73.14 195.46 73.8506C196.218 74.5613 197.114 75.1059 198.143 75.4846C199.172 75.8684 200.296 76.0603 201.522 76.0603C202.63 76.0603 203.744 75.8944 204.857 75.5624C205.971 75.2304 206.953 74.7532 207.795 74.1308V67.9737H204.518V72.419C204.279 72.5383 204.041 72.6473 203.797 72.7303C203.123 72.9533 202.434 73.0674 201.723 73.0674C201.012 73.0674 200.307 72.9533 199.697 72.7199C199.082 72.4864 198.552 72.1545 198.1 71.7136C197.65 71.2727 197.305 70.754 197.061 70.1627C196.817 69.5713 196.695 68.9177 196.695 68.2123C196.695 67.5069 196.817 66.8326 197.061 66.2413C197.305 65.6499 197.65 65.1364 198.1 64.7007H198.09Z" fill="#EC641D"/>
<path d="M222.291 69.3797C221.957 68.861 221.527 68.4408 220.997 68.1244C220.467 67.808 219.878 67.5539 219.236 67.3671C218.595 67.1804 217.953 67.0144 217.306 66.8692C216.664 66.7239 216.075 66.5787 215.545 66.4335C215.015 66.2883 214.585 66.0963 214.262 65.8577C213.938 65.6191 213.774 65.3027 213.774 64.9137C213.774 64.5817 213.869 64.2912 214.06 64.037C214.251 63.7829 214.569 63.5806 215.015 63.4198C215.46 63.2589 216.028 63.1811 216.722 63.1811C217.417 63.1811 218.128 63.2797 218.849 63.4717C219.571 63.6688 220.297 63.9644 221.019 64.369L222.127 61.7028C221.4 61.2568 220.568 60.9196 219.623 60.6965C218.679 60.4735 217.72 60.3594 216.744 60.3594C215.28 60.3594 214.066 60.5721 213.1 60.9974C212.13 61.4227 211.408 61.9934 210.931 62.7091C210.448 63.425 210.21 64.2134 210.21 65.0849C210.21 65.894 210.374 66.5579 210.708 67.0766C211.042 67.5954 211.472 68.0155 212.002 68.3319C212.532 68.6484 213.122 68.9077 213.763 69.11C214.405 69.3123 215.046 69.4835 215.694 69.6183C216.335 69.7532 216.924 69.8984 217.454 70.054C217.985 70.2044 218.414 70.4015 218.738 70.6402C219.061 70.8787 219.226 71.2004 219.226 71.6049C219.226 71.9214 219.12 72.2066 218.918 72.4505C218.711 72.6942 218.388 72.8861 217.953 73.0262C217.518 73.1662 216.945 73.2337 216.234 73.2337C215.306 73.2337 214.384 73.0833 213.476 72.7876C212.57 72.4919 211.78 72.1133 211.116 71.6516L209.896 74.297C210.592 74.8158 211.509 75.2411 212.644 75.5627C213.779 75.8895 214.972 76.0503 216.213 76.0503C217.693 76.0503 218.913 75.8324 219.883 75.4019C220.849 74.9662 221.581 74.3956 222.069 73.6901C222.557 72.9847 222.801 72.2015 222.801 71.3508C222.801 70.5572 222.636 69.8984 222.302 69.3797H222.291Z" fill="#EC641D"/>
</g>
<defs>
<clipPath id="clip0_510_1287">
<rect width="201" height="60" fill="white" transform="translate(22 27)"/>
</clipPath>
</defs>
</svg>
