<svg width="246" height="114" viewBox="0 0 246 114" fill="none" xmlns="http://www.w3.org/2000/svg">
<g clip-path="url(#clip0_510_1273)">
<path d="M97.9977 57.2934C97.9527 58.9427 97.5716 59.9256 96.7587 60.729C95.4839 61.9894 94.2174 63.2575 92.9336 64.5074C90.8963 66.4906 88.8464 68.4605 86.8028 70.4367C85.5403 71.6589 84.2793 72.8825 83.0175 74.1054C80.9427 76.1163 78.8714 78.1307 76.7924 80.1375C75.7526 81.1407 74.7114 82.1423 73.6487 83.121C72.4764 84.2006 71.1237 84.5616 69.5546 84.1449C68.5682 83.8834 67.8391 83.2866 67.1649 82.5728C66.6009 81.9767 66.0272 81.3896 65.4563 80.7998C64.7003 80.0193 63.9407 79.243 63.1874 78.4598C62.6192 77.8692 62.0622 77.2675 61.4954 76.6756C61.0932 76.254 61.0848 76.1817 61.5017 75.7803C62.6594 74.6674 63.8262 73.5628 64.9819 72.4478C65.8559 71.6053 66.7175 70.7498 67.5873 69.9039C67.9855 69.5172 68.0868 69.5366 68.4531 69.929C69.1633 70.6892 69.8897 71.4343 70.6089 72.1855C70.7803 72.3643 70.9163 72.349 71.1001 72.1674C72.7532 70.5341 74.4117 68.9078 76.0772 67.2878C77.4112 65.9905 78.759 64.7085 80.0957 63.4147C81.449 62.1035 82.7948 60.7847 84.1454 59.4714C84.717 58.9156 85.2885 58.3598 85.872 57.8159C86.078 57.6238 86.0946 57.491 85.8865 57.2774C84.3139 55.6637 82.7531 54.0394 81.1889 52.4173C80.0576 51.2445 78.9276 50.0711 77.7969 48.8976C75.8407 46.8664 73.8887 44.8304 71.9256 42.8055C71.2846 42.1447 71.4227 42.1698 70.781 42.761C69.9319 43.545 69.0975 44.3449 68.2692 45.151C67.133 46.255 66.0175 47.3804 64.8785 48.4809C62.6504 50.6331 60.4112 52.7734 58.179 54.92C57.5457 55.5294 56.9262 56.152 56.2852 56.7522C56.0883 56.9366 56.0633 57.0528 56.261 57.2573C57.3764 58.412 58.4794 59.5778 59.5858 60.7415C59.8126 60.9801 59.8167 61.2145 59.5608 61.4698C59.2674 61.7634 58.9385 62.0214 58.641 62.3115C56.8694 64.0387 55.099 65.7672 53.3372 67.5041C53.1026 67.735 52.9244 67.7448 52.6982 67.509C50.858 65.5898 49.0134 63.6755 47.1696 61.7598C46.5044 61.0685 45.8274 60.3875 45.1782 59.6814C44.6037 59.0568 44.3325 58.2847 44.2264 57.4548C44.0564 56.1179 44.4796 54.9479 45.3571 53.9733C46.0362 53.22 46.8159 52.5585 47.5498 51.8546C47.9341 51.4866 48.317 51.1179 48.6971 50.7472C50.2697 49.2134 51.8388 47.6754 53.4142 46.1444C54.782 44.8158 56.1583 43.4948 57.5283 42.1684C58.8407 40.8975 60.1484 39.6225 61.4608 38.3523C62.8308 37.0258 64.2029 35.7014 65.5757 34.3777C66.5996 33.3906 67.597 32.3743 68.6584 31.4311C69.565 30.6256 70.6589 30.2868 71.8881 30.4009C73.0251 30.506 73.9421 31.013 74.7218 31.8227C76.3581 33.5207 78.0015 35.2124 79.64 36.9089C80.7963 38.106 81.9492 39.3067 83.1035 40.5059C85.2206 42.704 87.3391 44.9007 89.4548 47.0995C90.6971 48.3905 91.9353 49.6857 93.1777 50.976C94.3806 52.2246 95.6069 53.451 96.7841 54.7225C97.5779 55.5795 98.0413 56.5992 97.9977 57.2934Z" fill="#EC641D"/>
<path d="M77.2248 58.1363C77.0548 59.1492 76.5589 59.9366 75.8458 60.6301C74.2385 62.1938 72.6389 63.7651 71.0338 65.3316C70.3886 65.9611 69.7379 66.5858 69.0907 67.2125C67.0645 69.1727 65.039 71.1336 63.0134 73.0945C62.3572 73.7296 61.7017 74.3653 61.0462 75.0011C59.0047 76.9794 56.968 78.9626 54.9189 80.9325C54.1448 81.6767 53.3741 82.4308 52.5424 83.1069C51.6205 83.8561 50.5287 84.0418 49.3515 83.8874C48.028 83.7142 47.1296 82.9004 46.273 81.9877C45.7118 81.3895 45.1367 80.8045 44.5672 80.214C43.2027 78.7991 41.8376 77.3842 40.4745 75.9687C39.2481 74.6951 38.0251 73.4179 36.7973 72.1457C35.4239 70.7239 34.0435 69.309 32.672 67.8851C31.4214 66.5878 30.181 65.2801 28.9311 63.9821C27.6006 62.5993 26.2604 61.2262 24.9306 59.8427C24.1329 59.0121 23.5842 58.0487 23.528 56.8724C23.4677 55.6169 23.8228 54.4838 24.7301 53.5899C26.6169 51.7327 28.528 49.9005 30.4266 48.0557C32.1761 46.3557 33.9214 44.6514 35.6715 42.9522C37.0394 41.6228 38.4115 40.2977 39.7829 38.9712C41.0537 37.7421 42.3245 36.5137 43.5974 35.2859C45.0368 33.8975 46.47 32.5029 47.9204 31.1263C48.7272 30.3611 49.7198 30.0391 50.8415 30.0112C51.9687 30.0453 52.9843 30.4015 53.8028 31.2417C55.5196 33.0072 57.2379 34.7726 58.9533 36.5394C59.3321 36.929 59.7012 37.3276 60.0778 37.7198C60.3581 38.012 60.3712 38.1456 60.0917 38.4168C58.2 40.2525 56.3049 42.084 54.4111 43.9169C54.228 44.0936 54.0456 44.271 53.8653 44.4505C53.5898 44.7232 53.4026 44.7378 53.1285 44.4567C52.4425 43.7535 51.7711 43.0363 51.0885 42.3303C50.7042 41.9331 50.6438 41.9275 50.2484 42.3122C49.0803 43.4495 47.9246 44.5993 46.7565 45.7359C45.3059 47.1473 43.8472 48.5482 42.3939 49.9568C41.0579 51.252 39.7254 52.5507 38.3907 53.8473C37.7026 54.5158 37.0172 55.187 36.3249 55.8513C36.0926 56.0739 35.8477 56.2854 35.5973 56.4885C35.3621 56.6784 35.4072 56.8543 35.5931 57.0387C35.8304 57.2752 36.0718 57.5089 36.3055 57.7489C37.2094 58.6761 38.1147 59.602 39.013 60.534C40.2629 61.832 41.5046 63.1384 42.7546 64.4364C44.0942 65.8269 45.4426 67.2084 46.7793 68.6009C47.8275 69.6923 48.8694 70.7893 49.9016 71.8953C50.0965 72.1039 50.2151 72.0845 50.4045 71.8974C51.4818 70.8331 52.5674 69.7765 53.6544 68.722C54.9231 67.4908 56.1967 66.2644 57.4668 65.0346C58.8702 63.6754 60.2707 62.3127 61.6753 60.9549C62.822 59.8468 63.9756 58.7457 65.1222 57.6376C65.4705 57.3017 65.4635 57.2314 65.1209 56.8836C64.0824 55.8291 63.0447 54.7738 62.0083 53.7172C61.5949 53.2957 61.581 53.2386 62.0062 52.8241C63.3055 51.5581 64.6193 50.3067 65.9234 49.0456C66.6386 48.3541 67.3447 47.6551 68.0558 46.9602C68.4234 46.6006 68.5989 46.602 68.9485 46.9609C70.8194 48.8835 72.6965 50.8013 74.5597 52.7309C75.209 53.4035 75.877 54.0685 76.4465 54.8065C77.1957 55.7783 77.4322 56.8989 77.2248 58.1363Z" fill="#EC641D"/>
<path d="M201.559 45.8633C201.56 46.1131 201.462 46.2132 201.207 46.2125C199.139 46.2062 197.071 46.209 195.003 46.209V46.2035C192.97 46.2035 190.937 46.2035 188.904 46.2042C188.424 46.2042 188.336 46.1214 188.333 45.64C188.33 44.8408 188.337 44.0416 188.326 43.2423C188.322 42.9599 188.454 42.8333 188.715 42.8243C188.98 42.8152 189.246 42.8215 189.511 42.8215C193.405 42.8194 197.298 42.8194 201.191 42.811C201.47 42.811 201.56 42.9342 201.559 43.1874C201.556 44.0798 201.554 44.9715 201.559 45.8633Z" fill="#EC641D"/>
<path d="M221.611 60.1008C220.595 58.9078 219.572 57.719 218.541 56.5386C217.986 55.9042 217.412 55.2866 216.847 54.6612C216.677 54.4734 216.703 54.3649 216.953 54.2585C217.53 54.0143 218.105 53.7625 218.657 53.4676C219.695 52.9125 220.22 51.9234 220.627 50.8918C220.834 50.3673 220.862 49.7684 220.946 49.1994C221.071 48.3452 220.866 47.5153 220.625 46.7161C220.471 46.2041 220.158 45.7276 219.858 45.2748C219.218 44.3045 218.307 43.638 217.243 43.2103C216.483 42.9042 215.665 42.8228 214.845 42.8221C212.107 42.8193 209.37 42.8214 206.632 42.8145C206.319 42.8138 206.2 42.939 206.201 43.2499C206.207 46.0762 206.205 48.9024 206.205 51.7285H206.209C206.209 54.543 206.209 57.3581 206.21 60.1725C206.21 60.6246 206.26 60.6656 206.709 60.6635C207.518 60.6586 208.326 60.6573 209.135 60.6622C209.574 60.6649 209.596 60.6482 209.596 60.1947C209.594 58.5267 209.596 56.8586 209.592 55.1913C209.592 54.9568 209.627 54.7753 209.922 54.7774C210.754 54.7837 211.585 54.7753 212.417 54.7906C212.567 54.7934 212.752 54.8407 212.86 54.9367C213.073 55.1266 213.246 55.3631 213.432 55.5836C214.08 56.3501 214.723 57.1202 215.372 57.8853C216.036 58.6686 216.693 59.4574 217.378 60.2218C217.549 60.4124 217.811 60.6336 218.039 60.6426C219.146 60.6865 220.256 60.6684 221.365 60.6552C221.495 60.6538 221.687 60.5801 221.734 60.4826C221.777 60.3937 221.696 60.1995 221.611 60.1008ZM215.859 51.2966C215.48 51.4803 215.118 51.5136 214.727 51.5143C214.011 51.5157 213.296 51.5143 212.58 51.5143V51.5206C211.702 51.5206 210.825 51.5143 209.947 51.5241C209.671 51.5275 209.587 51.4072 209.589 51.1464C209.597 49.6411 209.596 48.1358 209.596 46.6312C209.596 46.0636 209.607 46.0595 210.168 46.0609C211.692 46.0636 213.218 46.0136 214.74 46.0706C215.982 46.1172 216.77 46.5116 217.291 47.7616C217.463 48.1748 217.422 48.6971 217.403 49.1667C217.36 50.2052 216.773 50.8535 215.859 51.2966Z" fill="#EC641D"/>
<path d="M182.7 60.2574C182.701 60.578 182.596 60.6789 182.274 60.6706C181.443 60.649 180.611 60.6518 179.78 60.6706C179.481 60.6775 179.364 60.5906 179.365 60.2818C179.375 58.1274 179.369 55.9732 179.379 53.8189C179.38 53.5254 179.27 53.4405 178.988 53.4419C176.494 53.4503 173.999 53.4489 171.503 53.4489C170.883 53.4489 170.889 53.4468 170.89 54.0457C170.891 56.0609 170.89 58.076 170.886 60.0912C170.886 60.6101 170.82 60.6657 170.305 60.6636C169.496 60.6594 168.688 60.6587 167.879 60.6636C167.482 60.6664 167.444 60.6371 167.444 60.2365V44.5313C167.444 44.0799 167.444 43.6284 167.439 43.1763C167.437 42.9154 167.547 42.8083 167.819 42.8125C168.674 42.8264 169.529 42.8201 170.383 42.8195C170.804 42.8188 170.889 42.907 170.889 43.3224C170.886 45.4766 170.886 47.6309 170.886 49.7851C170.886 50.1879 170.974 50.2763 171.377 50.2763C173.803 50.2763 176.229 50.2637 178.654 50.2804C179.398 50.2853 179.369 50.3388 179.37 49.5355C179.37 47.4389 179.368 45.3423 179.368 43.2466C179.368 42.8647 179.425 42.8181 179.813 42.8201C180.633 42.8257 181.454 42.8361 182.273 42.8125C182.601 42.8035 182.701 42.9223 182.701 43.2319C182.695 46.07 182.698 48.9073 182.698 51.7446H182.695C182.695 54.5827 182.691 57.4201 182.7 60.2574Z" fill="#EC641D"/>
<path d="M162.189 46.8172C161.989 46.3331 161.799 45.8308 161.509 45.4024C160.913 44.5245 160.141 43.8449 159.158 43.3781C158.401 43.0185 157.627 42.846 156.812 42.8245C155.911 42.8008 155.009 42.821 154.108 42.8217C152.155 42.8224 150.203 42.8217 148.25 42.8238C147.826 42.8245 147.77 42.8843 147.77 43.2669C147.77 46.0937 147.77 48.9207 147.77 51.7476H147.773C147.773 54.5508 147.772 57.3548 147.773 60.1587C147.773 60.6061 147.828 60.6589 148.273 60.661C149.105 60.6637 149.937 60.6644 150.769 60.6624C151.219 60.661 151.304 60.5803 151.305 60.1414C151.307 58.6931 151.311 57.2449 151.297 55.7974C151.294 55.4871 151.411 55.3863 151.702 55.3883C153.009 55.396 154.314 55.3807 155.62 55.3987C156.771 55.4148 157.89 55.3626 158.975 54.8652C159.769 54.5015 160.445 54.0249 161.024 53.3927C161.423 52.9586 161.759 52.4849 161.956 51.9187C162.098 51.5124 162.372 51.1257 162.409 50.7146C162.525 49.4097 162.713 48.0859 162.189 46.8172ZM159.094 49.9453C158.929 50.7362 158.45 51.4255 157.656 51.8283C157.038 52.142 156.384 52.2067 155.72 52.2164C154.38 52.2366 153.039 52.2241 151.7 52.2366C151.347 52.2401 151.306 52.0244 151.305 51.7601C151.304 50.8794 151.304 49.9989 151.304 49.1182C151.304 48.2376 151.302 47.4036 151.305 46.5466C151.307 46.1126 151.387 46.0499 151.811 46.0541C152.805 46.0624 153.799 46.0374 154.792 46.0652C155.563 46.0861 156.343 46.1014 157.098 46.2391C157.698 46.3484 158.194 46.7434 158.576 47.2429C159.198 48.056 159.286 49.0222 159.094 49.9453Z" fill="#EC641D"/>
<path d="M123.722 58.6561C123.056 59.1249 122.416 59.6404 121.705 60.0293C121.142 60.3374 120.476 60.4508 119.883 60.7123C119.042 61.0831 118.155 60.9433 117.29 61.0066C116.673 61.0525 116.037 61.0232 115.425 60.928C114.821 60.8333 114.228 60.6365 113.644 60.4424C113.195 60.2936 112.762 60.0932 112.333 59.8908C111.433 59.4637 110.677 58.8265 110.078 58.0496C109.557 57.3741 109.131 56.618 108.721 55.8668C108.534 55.5253 108.517 55.0961 108.371 54.726C107.913 53.556 108.042 52.3339 108.05 51.1284C108.055 50.4216 108.109 49.7184 108.315 49.0103C108.552 48.1992 108.812 47.3986 109.258 46.7057C109.747 45.9476 110.333 45.2255 110.992 44.6127C111.58 44.0659 112.283 43.5951 113.013 43.2625C113.739 42.9322 114.502 42.6149 115.344 42.6003C115.869 42.5913 116.394 42.4188 116.917 42.4313C117.756 42.4515 118.611 42.4793 119.424 42.6615C120.252 42.8473 121.081 43.1172 121.79 43.6381C122.344 44.0458 122.919 44.4256 123.462 44.8472C123.783 45.0968 123.776 45.2812 123.484 45.5657C122.896 46.1368 122.294 46.6925 121.703 47.2595C121.53 47.4243 121.374 47.3972 121.217 47.2504C120.394 46.4832 119.422 46.0749 118.316 45.8648C117.345 45.6798 116.395 45.7709 115.48 45.9851C114.283 46.2655 113.294 46.9715 112.551 47.9766C112.12 48.5581 111.864 49.2175 111.627 49.9048C111.264 50.9545 111.301 52.0292 111.464 53.0572C111.674 54.3858 112.272 55.5774 113.369 56.4713C114.503 57.3957 115.789 57.7484 117.272 57.6656C118.028 57.7463 118.813 57.6113 119.553 57.3039C120.231 57.0229 120.884 56.6723 121.402 56.1311C121.582 55.9433 121.72 55.9412 121.892 56.1228C122.518 56.7857 123.145 57.4479 123.777 58.1052C123.983 58.3195 123.938 58.5038 123.722 58.6561Z" fill="#EC641D"/>
<path d="M143.713 42.957C143.655 43.1009 143.619 43.2616 143.534 43.3875C142.932 44.273 142.314 45.1453 141.715 46.0314C141.026 47.0519 140.358 48.0863 139.671 49.1074C139.176 49.8406 138.663 50.5612 138.16 51.2888C137.763 51.8648 137.358 52.4366 136.98 53.0257C136.895 53.1592 136.886 53.3582 136.886 53.5272C136.881 55.694 136.884 57.8601 136.884 60.0269C136.884 60.6161 136.835 60.6634 136.255 60.662C135.446 60.6613 134.638 60.662 133.828 60.6606C133.396 60.6599 133.347 60.614 133.346 60.1862C133.344 59.0739 133.345 57.9617 133.345 56.8494C133.345 55.8533 133.324 54.8566 133.354 53.8611C133.366 53.4445 133.266 53.0973 133.039 52.7614C132.414 51.8383 131.792 50.9132 131.183 49.9804C130.581 49.0587 130.002 48.1217 129.4 47.2001C128.735 46.181 128.055 45.1717 127.382 44.1575C127.173 43.8424 126.965 43.5273 126.758 43.2108C126.618 42.9952 126.705 42.8116 126.962 42.8116C128.128 42.8108 129.296 42.8234 130.462 42.8206C130.816 42.8199 130.923 43.1051 131.062 43.3263C131.515 44.0441 131.946 44.7766 132.38 45.5063C132.707 46.0579 133.02 46.6178 133.352 47.1674C133.659 47.6773 133.98 48.1781 134.295 48.6831C134.503 49.0156 134.706 49.3495 134.918 49.6792C135.055 49.8927 135.168 49.9053 135.318 49.6618C135.823 48.841 136.354 48.0362 136.866 47.2196C137.274 46.5685 137.663 45.9056 138.072 45.2552C138.468 44.625 138.933 44.0316 139.268 43.3715C139.533 42.8533 139.902 42.8011 140.393 42.8137C141.34 42.8387 142.288 42.815 143.235 42.8276C143.394 42.8296 143.553 42.9118 143.713 42.957Z" fill="#EC641D"/>
<path d="M201.557 60.2811C201.561 60.558 201.474 60.6728 201.177 60.6713C199.122 60.6616 197.066 60.6658 195.011 60.6658V60.6637H188.878C188.423 60.6637 188.333 60.5774 188.333 60.1114C188.332 57.0076 188.331 53.9039 188.335 50.8008C188.335 50.1135 188.342 50.1149 189.043 50.1149C192.993 50.1149 196.943 50.1149 200.893 50.1094C201.147 50.1094 201.281 50.174 201.277 50.46C201.265 51.2703 201.272 52.0807 201.267 52.8911C201.264 53.3238 201.194 53.3933 200.76 53.394C197.919 53.394 195.077 53.394 192.237 53.3926C191.865 53.3926 191.791 53.4649 191.791 53.8343C191.793 54.7838 191.792 55.7333 191.791 56.6828C191.791 57.0521 191.865 57.1231 192.239 57.1224C195.103 57.121 197.967 57.1189 200.832 57.1217C201.553 57.1224 201.554 57.1294 201.554 57.8493C201.554 58.6597 201.547 59.47 201.558 60.2811H201.557Z" fill="#EC641D"/>
<path d="M221.783 67.5137C221.777 67.7691 221.778 68.0236 221.781 68.2782C221.788 68.7686 221.754 68.8041 221.25 68.8048C220.51 68.8055 219.771 68.8055 219.031 68.8055C216.062 68.8055 213.093 68.8055 210.124 68.8048H199.066C198.544 68.8048 198.517 68.7735 198.522 68.256C198.525 67.9896 198.535 67.7217 198.514 67.4567C198.491 67.1611 198.619 67.0574 198.899 67.0727C199.117 67.0853 199.337 67.0762 199.557 67.0762C206.824 67.0762 214.092 67.0762 221.359 67.0762C221.757 67.0762 221.79 67.1123 221.783 67.5137Z" fill="#EC641D"/>
<path d="M131.184 67.4974C131.158 67.7958 131.173 68.0991 131.184 68.4003C131.194 68.6966 131.06 68.8142 130.767 68.8135C128.861 68.8058 126.954 68.8058 125.048 68.8058C119.515 68.8058 113.981 68.8079 108.448 68.8128C108.155 68.8128 108.021 68.6987 108.03 68.401C108.038 68.0775 108.04 67.7527 108.026 67.4292C108.015 67.1697 108.137 67.0703 108.377 67.0731C108.632 67.0752 108.885 67.0765 109.139 67.0765C112.628 67.0765 116.117 67.0765 119.606 67.0765V67.0738C123.326 67.0738 127.046 67.0752 130.766 67.0703C131.073 67.0696 131.213 67.1649 131.185 67.4967L131.184 67.4974Z" fill="#EC641D"/>
<path d="M186.647 71.2505C186.444 70.8171 186.242 70.3817 186.055 69.9407C185.745 69.2068 185.454 68.4653 185.142 67.7314C184.875 67.104 184.591 66.4835 184.315 65.8609C184.214 65.6328 184.109 65.4061 184.005 65.1793C183.843 64.8273 183.65 64.4865 183.527 64.122C183.437 63.8549 183.295 63.7387 183.031 63.7387C182.684 63.7387 182.336 63.7638 181.992 63.731C181.662 63.6997 181.488 63.8827 181.366 64.1241C181.162 64.5282 180.985 64.9463 180.81 65.3643C180.59 65.8888 180.387 66.4217 180.17 66.9482C180.071 67.1888 179.955 67.4233 179.846 67.6598C179.696 67.9805 179.542 68.2991 179.394 68.6211C179.142 69.1693 178.887 69.716 178.65 70.2697C178.497 70.6272 178.361 70.9938 178.24 71.3631C178.164 71.5955 178.282 71.7151 178.522 71.7151C178.845 71.7151 179.173 71.743 179.491 71.6991C179.645 71.6775 179.823 71.5496 179.916 71.4174C180.052 71.224 180.102 70.9715 180.224 70.7663C180.365 70.5305 180.452 70.2301 180.829 70.2335C181.891 70.244 182.953 70.2404 184.016 70.2342C184.307 70.2328 184.497 70.3712 184.614 70.6196C184.722 70.8477 184.826 71.08 184.902 71.3193C184.996 71.6115 185.198 71.7137 185.479 71.7165C185.617 71.7179 185.757 71.7165 185.895 71.7165V71.713C186.057 71.713 186.219 71.7221 186.38 71.711C186.735 71.6873 186.795 71.5677 186.647 71.2505ZM183.506 68.7435C183.172 68.7505 182.837 68.7456 182.502 68.7456C182.179 68.7449 181.857 68.7491 181.533 68.7442C181.275 68.7401 181.167 68.6246 181.283 68.3658C181.543 67.785 181.808 67.2056 182.061 66.622C182.129 66.4647 182.143 66.2818 182.223 66.1323C182.277 66.0335 182.404 65.9743 182.497 65.8978C182.563 65.9925 182.644 66.0801 182.689 66.1845C182.815 66.4759 182.916 66.7785 183.045 67.0685C183.258 67.5464 183.49 68.016 183.708 68.491C183.8 68.6934 183.661 68.7408 183.506 68.7435Z" fill="#EC641D"/>
<path d="M152.209 71.2278C152.027 70.7033 151.812 70.1885 151.583 69.6821C151.258 68.9573 150.905 68.2457 150.568 67.5258C150.457 67.2893 150.36 67.0472 150.26 66.8058C150.12 66.4691 149.988 66.129 149.844 65.7938C149.606 65.2359 149.346 64.6863 149.125 64.1215C149.027 63.869 148.886 63.7382 148.621 63.7382C148.229 63.7382 147.834 63.7181 147.444 63.7473C147.304 63.757 147.118 63.8495 147.048 63.9636C146.888 64.2244 146.782 64.5194 146.662 64.8039C146.44 65.3305 146.235 65.8647 146.002 66.3863C145.684 67.0973 145.341 67.7957 145.02 68.5052C144.751 69.0992 144.491 69.6974 144.24 70.2998C144.092 70.658 143.955 71.0232 143.854 71.3968C143.832 71.4774 143.98 71.6903 144.062 71.6973C144.416 71.7285 144.776 71.7202 145.133 71.6952C145.245 71.6875 145.393 71.6096 145.451 71.5178C145.596 71.2868 145.718 71.0372 145.813 70.7818C145.93 70.4633 146.176 70.2358 146.444 70.2365C147.505 70.2393 148.567 70.2198 149.628 70.2539C149.827 70.2602 150.073 70.4334 150.202 70.6031C150.362 70.8131 150.39 71.1192 150.535 71.3473C150.632 71.5018 150.815 71.6291 150.988 71.7C151.126 71.7571 151.307 71.7119 151.468 71.7119V71.7168C151.595 71.7168 151.722 71.7181 151.849 71.7168C152.24 71.7119 152.34 71.6047 152.209 71.2278ZM149.105 68.7375C148.761 68.7604 148.414 68.7473 148.068 68.7473V68.743C147.733 68.743 147.399 68.7486 147.064 68.741C146.828 68.7361 146.734 68.6652 146.855 68.3953C147.184 67.6572 147.476 66.9025 147.801 66.1624C147.846 66.0601 147.99 65.9808 148.104 65.9432C148.14 65.9315 148.252 66.0852 148.294 66.1784C148.467 66.5596 148.622 66.9491 148.791 67.3317C148.967 67.7351 149.161 68.1316 149.323 68.5399C149.337 68.574 149.186 68.7326 149.105 68.7375Z" fill="#EC641D"/>
<path d="M160.995 64.5819C160.608 64.1701 160.145 63.7938 159.602 63.7687C158.207 63.7034 156.807 63.743 155.41 63.7416C155.159 63.7416 155.04 63.8438 155.043 64.1221C155.056 65.2921 155.049 66.4614 155.049 67.6313H155.052V71.1407C155.052 71.5907 155.178 71.7167 155.629 71.7159C155.814 71.7159 156.001 71.693 156.183 71.718C156.535 71.7667 156.634 71.5935 156.629 71.2805C156.622 70.7824 156.624 70.2844 156.627 69.7864C156.629 69.5742 156.672 69.4038 156.951 69.3954C157.743 69.3725 158.539 69.2675 159.327 69.3127C160.347 69.371 161.446 68.2087 161.564 67.4519C161.718 66.4572 161.782 65.4194 160.995 64.5819ZM159.433 67.6947C159.011 67.9312 158.6 67.9013 158.171 67.9096C157.778 67.918 157.385 67.9013 156.994 67.9193C156.7 67.9326 156.604 67.8095 156.62 67.5271C156.637 67.2161 156.624 66.9031 156.624 66.5908H156.627C156.627 66.2555 156.624 65.9202 156.629 65.5842C156.632 65.3324 156.735 65.2163 157.015 65.2295C157.556 65.2545 158.098 65.2518 158.64 65.242C159.089 65.2336 159.48 65.3575 159.782 65.6956C160.337 66.3188 160.15 67.2926 159.433 67.6947Z" fill="#EC641D"/>
<path d="M141.748 70.8191C141.406 71.0646 141.062 71.3123 140.695 71.5147C139.712 72.0559 138.634 71.9063 137.624 71.7415C136.619 71.5773 135.832 70.9255 135.279 70.0178C134.68 69.0335 134.588 67.9455 134.767 66.8813C134.978 65.6341 135.616 64.5865 136.819 63.9897C137.669 63.5689 138.566 63.3894 139.495 63.5431C140.327 63.6809 141.076 64.0523 141.698 64.6387C141.749 64.6867 141.725 64.8933 141.664 64.9663C141.458 65.2139 141.23 65.447 140.991 65.6619C140.803 65.8302 140.591 65.7642 140.424 65.6167C139.771 65.0408 138.968 65.0011 138.207 65.1569C137.575 65.2863 137.043 65.7022 136.67 66.2949C136.21 67.0267 136.241 67.828 136.43 68.5716C136.631 69.3667 137.146 70.0087 138.051 70.1757C138.351 70.2313 138.648 70.3057 138.947 70.3711C139.584 70.2654 140.154 70.104 140.634 69.6721C140.707 69.6067 140.938 69.6129 141.017 69.6797C141.282 69.9009 141.505 70.1701 141.755 70.4101C141.909 70.559 141.905 70.7071 141.748 70.8191Z" fill="#EC641D"/>
<path d="M175.95 64.2898V64.3246C175.943 64.8593 175.666 65.1268 175.117 65.1273C174.701 65.1273 174.285 65.1307 173.869 65.1217C173.594 65.1154 173.482 65.2233 173.484 65.5141C173.495 67.413 173.494 69.312 173.494 71.211C173.494 71.5581 173.362 71.6979 173.019 71.7132C172.788 71.7236 172.554 71.691 172.327 71.7195C171.973 71.764 171.879 71.5922 171.881 71.2805C171.886 70.3192 171.882 69.3579 171.882 68.3973H171.888C171.888 67.4249 171.882 66.4517 171.892 65.4793C171.895 65.2031 171.782 65.1134 171.518 65.1197C170.941 65.1336 170.363 65.1169 169.787 65.1329C169.479 65.1412 169.36 65.0202 169.4 64.719C169.415 64.6049 169.41 64.4873 169.405 64.3719C169.379 63.718 169.37 63.7382 170.049 63.7396C171.839 63.7438 173.628 63.7396 175.418 63.7396C175.939 63.7396 175.959 63.7618 175.95 64.2898Z" fill="#EC641D"/>
<path d="M194.959 71.3148C194.952 71.593 194.825 71.7238 194.525 71.7217C193.025 71.7113 191.524 71.7154 190.024 71.7161C189.566 71.7161 189.439 71.5951 189.439 71.1492V67.6427H189.435C189.435 66.463 189.439 65.2825 189.432 64.1021C189.43 63.867 189.523 63.7515 189.749 63.7453C190.083 63.7369 190.418 63.7327 190.752 63.7342C190.988 63.7349 191.024 63.89 191.024 64.0875C191.018 65.6728 191.017 67.258 191.015 68.8433C191.015 69.1556 191.022 69.4686 191.008 69.7803C190.996 70.0453 191.096 70.1573 191.37 70.1545C192.432 70.142 193.493 70.1489 194.555 70.1378C194.826 70.1357 194.971 70.2268 194.963 70.5162C194.955 70.7826 194.966 71.049 194.959 71.3148Z" fill="#EC641D"/>
<path d="M166.339 67.7105H166.335V71.1482C166.335 71.7012 166.317 71.7178 165.782 71.7109C165.62 71.7088 165.458 71.7172 165.296 71.7158C164.893 71.7123 164.758 71.5781 164.758 71.1719C164.757 70.0958 164.76 69.019 164.759 67.9429C164.759 66.6699 164.763 65.3963 164.75 64.1233C164.747 63.8472 164.861 63.7428 165.114 63.7407C165.402 63.7387 165.692 63.7477 165.979 63.7317C166.252 63.7171 166.345 63.8312 166.343 64.0997C166.334 65.3038 166.339 66.5072 166.339 67.7105Z" fill="#EC641D"/>
</g>
<defs>
<clipPath id="clip0_510_1273">
<rect width="199" height="55" fill="white" transform="translate(23 30)"/>
</clipPath>
</defs>
</svg>
