<svg width="274" height="101" viewBox="0 0 274 101" fill="none" xmlns="http://www.w3.org/2000/svg">
<g clip-path="url(#clip0_899_3153)">
<path d="M274 75.7227V73.377H255.313V75.7227H263.269V99.667H266.012V75.7227H274ZM271.898 56.3221L251.567 23.2912L271.601 1.14395H262.604L236.665 30.6363V1.13237H229.413V56.3105H236.665V39.3668L246.644 28.4088L263.426 56.3037L271.898 56.3221ZM203.933 99.6554H220.099V97.319H206.669V87.5329H217.579V85.1662H206.669V75.7227H219.56V73.377H203.933V99.6554ZM217.395 56.3105L205.073 33.4732C210.894 31.6345 216.184 26.2691 216.184 17.9928C216.184 7.41714 209.004 1.13237 197.058 1.13237H179.443V56.3105H186.701V34.698H198.041L209.305 56.3105H217.395ZM197.435 28.6449H186.699V7.34073H196.828C204.389 7.34073 208.935 11.326 208.935 17.9928C208.935 24.6597 204.626 28.6449 197.445 28.6449H197.435ZM181.502 94.0353C180.277 90.9694 179.089 88.3409 177.687 85.0203L172.789 73.377H169.835L181.465 100.093H181.538L193.205 73.377H190.217L185.319 85.0203C183.914 88.3409 182.726 90.9694 181.502 94.0353ZM162.74 56.3105H170.45L145.351 0.213046H145.2L120.101 56.3105H127.811L133.104 44.0491H157.371L162.74 56.3105ZM154.726 37.9934H135.749C139.455 29.5642 142.251 22.9738 145.275 15.1585C148.225 22.9738 151.021 29.5642 154.726 37.9934ZM122.516 73.377H119.774V99.6554H122.516V73.377ZM98.23 49.7872C98.23 22.3371 76.1989 0 49.115 0C22.0309 0 0 22.3325 0 49.7872C0 77.2418 22.0309 99.5744 49.115 99.5744C76.1989 99.5744 98.23 77.2418 98.23 49.7872ZM44.939 3.02429L7.96119 71.309C4.55697 64.6602 2.7822 57.2784 2.78698 49.7872C2.78698 25.3197 21.3455 5.17554 44.939 3.02891V3.02429ZM47.7171 48.956L11.879 69.9337L47.7171 3.76298V48.956ZM47.7171 96.7052C40.0625 96.4694 32.5848 94.3135 25.9538 90.4309C19.3224 86.5482 13.7441 81.0596 9.71791 74.4562L47.7171 52.2256V96.7052ZM60.1144 25.4007C60.1026 29.4872 59.2408 33.5252 57.5848 37.2508C55.9289 40.9767 53.5159 44.3062 50.5039 47.0223V3.77457C53.5374 6.47387 55.9645 9.80086 57.6225 13.5313C59.2802 17.2619 60.13 21.3093 60.1144 25.4007ZM88.4938 25.0927L57.4259 43.2709C60.973 38.0038 62.8773 31.7781 62.8925 25.4007C62.9079 21.2554 62.1146 17.1479 60.5577 13.3148C59.0007 9.4816 56.7113 5.99849 53.8208 3.06598C60.8756 3.80697 67.6685 6.17787 73.6776 9.99637C79.6869 13.8149 84.7524 18.9794 88.4846 25.0927H88.4938ZM89.8942 72.034L51.8861 49.7872L89.8942 27.5334C93.5316 34.37 95.4362 42.016 95.4362 49.7837C95.4362 57.5513 93.5316 65.1973 89.8942 72.034ZM88.4915 74.4746C84.464 81.0729 78.8866 86.5567 72.2575 90.4359C65.6285 94.3153 58.1548 96.4691 50.5039 96.7052V52.2301L88.4915 74.4746ZM139.121 72.944H139.084V99.6554H141.826V82.2069C141.826 81.3686 141.792 80.5998 141.792 79.8703C142.006 80.1619 142.294 80.4907 142.545 80.7826L159.073 100.091H159.11V73.377H156.368V90.8235C156.368 91.6987 156.405 92.4281 156.405 93.1599L155.649 92.2453L139.121 72.944ZM243.575 93.3823C243.575 96.0475 240.98 97.5806 237.596 97.5806C234.751 97.5806 232.087 96.5941 230.396 95.7558V98.5346C232.712 99.5602 235.211 100.094 237.74 100.102C242.818 100.102 246.274 97.5551 246.274 93.2041C246.274 89.3714 244.113 87.2549 238.928 85.3932C234.283 83.6772 233.025 82.0352 233.025 79.6642C233.025 77.1168 235.437 75.4659 238.75 75.4659C240.898 75.5187 243.011 76.0416 244.943 76.9986V74.2893C242.952 73.4166 240.81 72.9591 238.643 72.944C233.998 72.944 230.325 75.424 230.325 79.7683C230.325 83.5636 232.448 85.7891 237.598 87.6415C242.166 89.2858 243.577 90.7099 243.577 93.373L243.575 93.3823Z" fill="#5E5E5E"/>
</g>
<defs>
<clipPath id="clip0_899_3153">
<rect width="274" height="101" fill="white"/>
</clipPath>
</defs>
</svg>
