<svg width="421" height="54" viewBox="0 0 421 54" fill="none" xmlns="http://www.w3.org/2000/svg">
<g clip-path="url(#clip0_541_6926)">
<mask id="mask0_541_6926" style="mask-type:luminance" maskUnits="userSpaceOnUse" x="0" y="0" width="419" height="54">
<path d="M418.99 0H0.605469V53.5532H418.99V0Z" fill="white"/>
</mask>
<g mask="url(#mask0_541_6926)">
<path d="M6.99972 0C7.43355 2.6676 8.97148 5.01668 8.97148 5.01668C6.76313 4.41943 5.30405 2.58796 5.30405 2.58796C5.56693 3.58333 6.52653 6.01206 8.26166 7.76392C5.30405 7.28611 3.37171 5.77317 3.37171 5.77317C4.90967 9.23705 8.97148 10.1528 8.97148 10.1528C5.65897 11.9047 0.605469 9.76116 0.605469 9.76116C1.07869 10.9158 4.09731 12.8283 9.68131 13.338C9.24753 13.9883 7.49518 15.4431 2.63677 16.1757C4.58224 16.6136 9.08981 17.3195 11.8503 16.2047L11.8474 16.2112C11.4123 17.2097 10.4517 19.4139 5.72988 20.9633C7.07068 21.0429 10.5095 21.1019 13.7432 18.3945C13.1779 19.204 12.15 21.9225 12.6548 26.5412C13.4829 24.1123 14.2558 22.6546 16.6219 20.2658C16.4247 21.5 16.2695 24.975 17.5945 28.4468C17.4631 27.2523 17.5762 24.1438 19.1852 21.6593C19.7767 22.6148 20.4915 25.5551 19.0719 28.7721C21.5513 26.1623 22.1102 24.1616 22.2846 23.5259C23.4997 24.6075 22.6939 26.7708 21.7914 28.2863C20.5858 30.3111 19.4218 31.9663 18.2387 33.2802C18.4359 33.068 19.1458 32.476 20.4077 31.807C20.3814 32.1522 20.25 33.2802 18.988 35.7488C20.1711 34.7933 21.2752 33.4395 21.5513 32.7228C21.4856 33.3201 21.1491 35.1197 20.3288 37.5403C20.8546 36.9035 22.0088 35.3029 22.4189 33.9969C22.6949 35.1782 23.2707 38.05 23.3654 40.0886C23.46 38.05 24.0357 35.1782 24.3117 33.9969C24.7218 35.3029 25.8761 36.9035 26.4018 37.5403C25.5816 35.1197 25.2451 33.3201 25.1795 32.7228C25.4553 33.4395 26.5596 34.7933 27.7427 35.7488C26.4808 33.2802 26.3492 32.1522 26.323 31.807C27.5849 32.476 28.2947 33.068 28.492 33.2802C27.3089 31.9663 26.323 30.4889 25.0438 28.2863C24.2383 26.7708 23.4997 24.6075 24.446 23.5259C24.8421 24.501 26.051 27.4469 27.7226 28.707C26.3398 25.5154 26.9579 22.6084 27.5454 21.6593C29.1545 24.1438 29.2676 27.2523 29.1362 28.4468C30.4611 24.975 30.3058 21.5 30.1088 20.2658C32.4747 22.6546 33.2477 24.1123 34.0758 26.5412C34.5807 21.9225 33.5527 19.204 32.9875 18.3945C36.2212 21.1019 39.66 21.0429 41.0006 20.9633C36.279 19.4139 35.3184 17.2097 34.8833 16.2112L34.8804 16.2047C37.6408 17.3195 42.1485 16.6136 44.094 16.1757C39.2354 15.4431 37.4831 13.9883 37.0493 13.338C42.6333 12.8283 45.6522 10.9158 46.1252 9.76116C46.1252 9.76116 41.0716 11.9047 37.7591 10.1528C37.7591 10.1528 41.8209 9.23705 43.359 5.77317C43.359 5.77317 41.4266 7.28611 38.4689 7.76392C40.204 6.01206 41.1638 3.58333 41.4266 2.58796C41.4266 2.58796 39.9675 4.41943 37.7591 5.01668C37.7591 5.01668 39.2972 2.6676 39.731 0C39.205 0.836113 37.8223 2.72334 36.4973 3.58333C36.5892 2.76049 36.4272 1.34026 35.6297 1.11481C34.6437 0.836113 34.223 1.67222 34.1311 1.95093C34.8804 2.01729 35.9767 2.47648 34.3676 3.78242C34.8146 5.41481 34.3676 9.31462 31.1341 10.75C29.5173 11.4677 26.7173 12.5417 26.9146 14.0148L27.1116 15.2889C27.1645 15.7155 26.8575 16.3603 26.2275 16.3869C25.5978 16.4135 25.3966 16.1473 25.3042 15.9613L23.827 12.6612C23.6793 12.3265 24.0116 12.0801 24.1963 12.0104C24.3195 11.9639 24.741 11.8059 25.4428 11.5456C26.1445 11.2853 26.2275 12.0259 26.1814 12.4288C26.8831 11.276 26.5509 10.2906 26.0892 10.0117L23.3192 8.61724C21.7495 7.78056 20.3645 8.33837 19.9952 8.71023C21.2878 8.41274 22.4112 8.86515 22.8113 9.12856C19.5797 8.52428 18.8797 10.7089 18.841 10.7554C19.8752 9.49112 21.2724 9.5469 21.8418 9.73282C20.3276 10.4765 20.3491 12.3358 20.5492 13.1725C20.66 12.689 20.9647 12.4753 21.1032 12.4288C20.5861 13.8046 20.7339 15.0782 20.8723 15.5431C20.8723 15.0782 21.3802 14.7529 21.5648 14.7529C21.611 16.3151 21.0638 16.3904 20.78 16.4546C20.0392 16.577 19.5585 15.7779 19.619 15.2889L19.8162 14.0148C20.0133 12.5417 17.2134 11.4677 15.5966 10.75C12.3629 9.31462 11.916 5.41481 12.3629 3.78242C10.754 2.47648 11.8503 2.01729 12.5996 1.95093C12.5075 1.67222 12.0868 0.836113 11.101 1.11481C10.3035 1.34026 10.1414 2.76049 10.2334 3.58333C8.9084 2.72334 7.52555 0.836113 6.99972 0Z" fill="#EC641D"/>
<path d="M97.6457 3.41602V3.74142L94.0906 6.50737V36.0106L97.9692 38.9935V39.3189H84.7722V38.9935L88.7041 36.0106V11.1173L75.3995 36.2817H74.8606L61.61 11.2799V36.0106L65.5419 38.9935V39.3189H55.4688V38.9935L59.4013 36.0106V7.97167C58.6474 6.67004 57.1389 4.60916 56.3847 3.74142V3.41602H63.3333L76.8537 29.1228L90.1583 3.41602H97.6457Z" fill="#EC641D"/>
<path d="M103.486 20.7681L100.523 19.0868V18.7072C100.739 18.5987 104.456 17.1886 108.28 16.1582V32.591C108.28 34.7604 109.627 36.7129 112.643 36.7129C114.852 36.7129 116.629 35.4113 117.922 34.2724V20.8223L114.474 19.0326V18.6529C114.69 18.5987 118.838 17.1886 122.716 16.1582V35.7366L126.271 37.3093V37.6891C126.271 37.6891 118.514 39.6415 117.922 39.8042V35.9535C116.252 37.6891 113.397 39.75 110.219 39.75C106.503 39.75 103.486 37.1466 103.486 33.6215V20.7681Z" fill="#EC641D"/>
<path d="M135.804 0V36.6078L138.982 38.9941V39.3196H127.886V38.9941L131.01 36.6078V4.93528L127.832 3.09134V2.71169C128.263 2.549 132.088 1.03044 135.804 0Z" fill="#EC641D"/>
<path d="M157.451 19.6863H148.456V32.8108C148.456 34.9802 149.802 36.77 153.089 36.77C155.027 36.77 156.805 36.2275 157.774 35.7395L157.99 36.1191C156.697 37.5835 154.112 39.8071 150.395 39.8071C145.44 39.8071 143.662 36.6615 143.662 34.1124V19.6863H140.699V19.3066L148.456 13.2324V16.9746H159.121L157.451 19.6863Z" fill="#EC641D"/>
<path d="M163.082 7.75421C163.082 6.18142 164.267 4.98828 165.775 4.98828C167.337 4.98828 168.469 6.18142 168.469 7.75421C168.469 9.27274 167.337 10.4117 165.775 10.4117C164.267 10.4117 163.082 9.27274 163.082 7.75421ZM171.593 39.3182H160.496V38.9929L163.62 36.6067V20.7704L160.658 19.0349V18.7094C160.873 18.601 164.59 17.1367 168.415 16.1063V36.6067L171.593 38.9929V39.3182Z" fill="#EC641D"/>
<path d="M186.308 16.3242C189.055 16.3242 191.802 16.9208 192.825 17.1377V22.6153H192.502C191.048 20.7714 188.409 18.3851 185.23 18.3851C181.406 18.3851 178.659 22.2899 178.659 26.954C178.659 33.0825 182.483 36.4992 187.654 36.4992C190.509 36.4992 192.502 35.7399 193.849 34.8723L194.064 35.2519C192.61 37.2043 189.701 39.8617 185.015 39.8617C179.036 39.8617 173.973 35.6856 173.973 28.4727C173.973 22.0188 178.551 16.3242 186.308 16.3242Z" fill="#EC641D"/>
<path d="M196.008 28.3642C196.008 21.4222 201.395 16.3242 207.374 16.3242C213.406 16.3242 218.793 20.8798 218.793 27.876C218.793 34.9265 213.406 39.8617 207.374 39.8617C201.395 39.8617 196.008 35.3603 196.008 28.3642ZM201.233 28.0929C201.233 33.7876 204.034 37.9092 207.374 37.9092C210.713 37.9092 213.622 33.7876 213.622 28.0929C213.622 22.5069 210.767 18.2766 207.374 18.2766C204.088 18.2766 201.233 22.5069 201.233 28.0929Z" fill="#EC641D"/>
<path d="M223.781 7.75421C223.781 6.18142 224.965 4.98828 226.474 4.98828C228.036 4.98828 229.167 6.18142 229.167 7.75421C229.167 9.27274 228.036 10.4117 226.474 10.4117C224.965 10.4117 223.781 9.27274 223.781 7.75421ZM232.291 39.3182H221.195V38.9929L224.321 36.6067V20.7704L221.357 19.0349V18.7094C221.573 18.601 225.289 17.1367 229.114 16.1063V36.6067L232.291 38.9929V39.3182Z" fill="#EC641D"/>
<path d="M245.503 39.3195H234.406V38.9941L237.532 36.6079V20.7715L234.569 19.036V18.7106C234.783 18.6022 238.501 17.1379 242.325 16.1074V20.1207C244.048 18.4395 247.065 16.3244 250.352 16.3244C254.176 16.3244 257.193 19.036 257.193 21.9104V36.6079L260.371 38.9941V39.3195H249.328V38.9941L252.398 36.6079V23.5376C252.398 21.4223 250.889 19.4157 247.658 19.4157C245.289 19.4157 243.457 20.7715 242.325 21.8562V36.6079L245.503 38.9941V39.3195Z" fill="#EC641D"/>
<path d="M289.674 39.7737C278.6 39.7737 270.266 32.4782 270.266 21.5082C270.266 11.673 277.631 2.81055 289.73 2.81055C294.514 2.81055 298.707 3.8373 300.697 4.37771V10.6463H300.374C298.116 7.566 294.407 4.86404 289.353 4.86404C281.342 4.86404 276.232 12.1594 276.232 20.9138C276.232 30.8571 282.416 37.7201 289.891 37.7201C295.911 37.7201 299.568 33.559 301.128 31.5595H301.396V37.3419C299.729 38.1524 295.429 39.7737 289.674 39.7737Z" fill="#EC641D"/>
<path d="M318.001 22.8564C318.001 20.5868 316.818 18.8576 314.237 18.8576C312.355 18.8576 311.226 19.9924 310.903 20.3707V23.8293L306.333 22.4242V22.154C308.107 20.0465 311.226 16.1016 316.441 16.1016C320.636 16.1016 322.678 18.8576 322.678 21.4515C322.678 24.6937 322.464 33.7186 322.464 35.1774C323.646 35.9881 324.936 36.6905 326.389 37.015V37.3392L322.894 40.0412C320.957 39.3385 319.076 38.0956 318.215 36.9608C316.711 38.2039 314.29 39.771 312.409 39.771C308.43 39.771 305.902 37.285 305.902 34.2048C305.902 32.0972 307.087 30.6924 307.946 30.4221C308.915 30.0979 313.377 28.8008 318.001 27.3959V22.8564ZM310.365 33.3401C310.365 35.1234 311.711 36.7988 314.237 36.7988C316.064 36.7988 317.463 36.0421 317.947 35.6099C318.001 33.9346 318.001 31.5568 318.001 29.2873C315.85 29.9897 311.173 31.5568 310.849 31.773C310.582 31.9352 310.365 32.5837 310.365 33.3401Z" fill="#EC641D"/>
<path d="M334.832 50.8465L339.616 53.224V53.5485H326.875V53.224L330.046 50.8465V20.6923L327.089 19.0171V18.6389C327.25 18.5308 330.907 17.0717 334.832 16.0449V19.8277C336.392 18.0444 338.971 16.2611 341.874 16.2611C347.79 16.2611 350.963 20.9085 350.963 26.7989C350.963 32.9593 346.931 39.6601 338.65 39.6601C337.358 39.6601 336.283 39.6061 334.832 39.4441V50.8465ZM339.616 19.5035C337.09 19.5035 335.638 20.4222 334.832 21.2328V36.6882C335.908 37.3366 337.09 37.6068 338.543 37.6068C343.003 37.6068 345.962 33.4997 345.962 28.0418C345.962 22.3136 343.22 19.5035 339.616 19.5035Z" fill="#EC641D"/>
<path d="M356.15 7.72864C356.15 6.16149 357.332 4.97266 358.839 4.97266C360.398 4.97266 361.527 6.16149 361.527 7.72864C361.527 9.24176 360.398 10.3766 358.839 10.3766C357.332 10.3766 356.15 9.24176 356.15 7.72864ZM364.645 39.1797H353.57V38.8555L356.688 36.4777V20.6981L353.731 18.9688V18.6447C353.945 18.5365 357.656 17.0775 361.474 16.0507V36.4777L364.645 38.8555V39.1797Z" fill="#EC641D"/>
<path d="M383.093 19.6182H374.114V32.6959C374.114 34.8574 375.457 36.6407 378.737 36.6407C380.672 36.6407 382.448 36.1003 383.414 35.6138L383.631 35.9923C382.339 37.4514 379.759 39.6669 376.049 39.6669C371.102 39.6669 369.328 36.5325 369.328 33.9927V19.6182H366.371V19.2399L374.114 13.1875V16.9162H384.76L383.093 19.6182Z" fill="#EC641D"/>
<path d="M398.288 22.8564C398.288 20.5868 397.105 18.8576 394.526 18.8576C392.642 18.8576 391.513 19.9924 391.192 20.3707V23.8293L386.622 22.4242V22.154C388.396 20.0465 391.513 16.1016 396.73 16.1016C400.923 16.1016 402.967 18.8576 402.967 21.4515C402.967 24.6937 402.751 33.7186 402.751 35.1774C403.933 35.9881 405.225 36.6905 406.676 37.015V37.3392L403.181 40.0412C401.247 39.3385 399.363 38.0956 398.504 36.9608C396.998 38.2039 394.579 39.771 392.696 39.771C388.717 39.771 386.191 37.285 386.191 34.2048C386.191 32.0972 387.374 30.6924 388.233 30.4221C389.202 30.0979 393.664 28.8008 398.288 27.3959V22.8564ZM390.654 33.3401C390.654 35.1234 391.997 36.7988 394.526 36.7988C396.353 36.7988 397.75 36.0421 398.234 35.6099C398.288 33.9346 398.288 31.5568 398.288 29.2873C396.137 29.9897 391.46 31.5568 391.138 31.773C390.868 31.9352 390.654 32.5837 390.654 33.3401Z" fill="#EC641D"/>
<path d="M415.817 0V36.4766L418.99 38.8544V39.1786H407.913V38.8544L411.03 36.4766V4.91761L407.859 3.08025V2.70198C408.288 2.53985 412.106 1.02675 415.817 0Z" fill="#EC641D"/>
</g>
</g>
<defs>
<clipPath id="clip0_541_6926">
<rect width="419.5" height="53.5532" fill="white" transform="translate(0.605469)"/>
</clipPath>
</defs>
</svg>
