<svg width="246" height="114" viewBox="0 0 246 114" fill="none" xmlns="http://www.w3.org/2000/svg">
<g clip-path="url(#clip0_510_1278)">
<path d="M26.6914 48.8027L28.4476 51.5277V75.2914H26.6914V48.8027Z" fill="#EC641D"/>
<path d="M29.7539 53.5532L31.5101 56.2738V78.7778H29.7539V53.5532Z" fill="#EC641D"/>
<path d="M32.8184 58.3076L34.5746 61.0282V73.5421H32.8184V58.3076Z" fill="#EC641D"/>
<path d="M58.8644 43.5193V75.2961H48.5395C47.1779 75.2961 45.9116 74.6006 45.1701 73.4503L25.3832 42.7626V71.81H23.627V40.0376H33.9519C35.3135 40.0376 36.5797 40.7331 37.3212 41.879L49.6712 61.0414L50.9808 63.0665L52.7371 65.7915L54.0424 67.8123L57.1082 72.5711V43.5193H58.8644Z" fill="#EC641D"/>
<path d="M55.7972 66.5263L54.041 63.8013V40.0332H55.7972V66.5263Z" fill="#EC641D"/>
<path d="M52.7367 61.7759L50.9805 59.0553V36.5513H52.7367V61.7759Z" fill="#EC641D"/>
<path d="M49.6703 57.0216L47.9141 54.301V41.7827H49.6703V57.0216Z" fill="#EC641D"/>
<path d="M78.4188 71.5041C77.7727 70.8568 77.0616 70.5331 76.2897 70.5331C75.5178 70.5331 74.8761 70.8131 74.3427 71.3686C73.8093 71.9284 73.5448 72.6064 73.5448 73.4112C73.5448 74.216 73.8136 74.8896 74.36 75.4495C74.9064 76.0093 75.5655 76.2892 76.3417 76.2892C76.7407 76.2892 77.1006 76.2149 77.4259 76.0705C77.7511 75.9262 78.0806 75.6901 78.4232 75.3576V76.4074L78.3061 76.4686C78.1674 76.5473 78.0459 76.6217 77.9332 76.6873C77.8204 76.7529 77.7207 76.8054 77.6296 76.8447C77.3044 77.0153 76.8751 77.1028 76.3461 77.1028C75.3053 77.1028 74.4294 76.7485 73.7225 76.04C73.0114 75.3313 72.6602 74.4566 72.6602 73.4243C72.6602 72.3921 73.0201 71.491 73.7356 70.7693C74.4511 70.0477 75.3314 69.6846 76.3808 69.6846C76.7667 69.6846 77.0789 69.7239 77.3131 69.7983C77.5472 69.8727 77.8812 70.0477 78.3148 70.3188L78.4319 70.3888V71.5085L78.4188 71.5041Z" fill="#EC641D"/>
<path d="M101.208 69.5923L104.495 76.9668H103.528L102.743 75.0859H99.6684L98.8704 76.9624H97.9121L101.208 69.5879V69.5923ZM102.392 74.3249L101.442 72.0504L101.334 71.7836C101.286 71.6655 101.256 71.5561 101.234 71.4556C101.217 71.3549 101.204 71.215 101.204 71.0269C101.204 71.1975 101.195 71.3331 101.173 71.4293C101.152 71.5255 101.117 71.6436 101.065 71.7792L100.956 72.046L100.015 74.3249H102.392Z" fill="#EC641D"/>
<path d="M124.42 69.8418H126.432C127.061 69.8418 127.56 70.0211 127.933 70.3842C128.305 70.7472 128.492 71.2327 128.492 71.8451C128.492 72.265 128.397 72.6411 128.205 72.9691C128.015 73.2972 127.754 73.5422 127.429 73.6996C127.265 73.7653 127.095 73.8134 126.922 73.8484C126.748 73.8833 126.527 73.8965 126.258 73.8965H125.305V76.9626H124.42V69.8374V69.8418ZM125.3 73.166H126.094C126.566 73.166 126.927 73.0523 127.182 72.8292C127.438 72.6061 127.564 72.2781 127.564 71.8451C127.564 71.4514 127.447 71.1408 127.213 70.9178C126.978 70.6947 126.658 70.581 126.25 70.581H125.3V73.166Z" fill="#EC641D"/>
<path d="M148.865 69.8418H149.749V76.967H148.865V69.8418Z" fill="#EC641D"/>
<path d="M174.153 69.8418V70.6335H172.475V76.967H171.591V70.6335H169.951V69.8418H174.153Z" fill="#EC641D"/>
<path d="M196.694 69.5923L199.981 76.9668H199.014L198.23 75.0859H195.155L194.357 76.9624H193.398L196.694 69.5879V69.5923ZM197.878 74.3249L196.928 72.0504L196.82 71.7836C196.773 71.6655 196.742 71.5561 196.72 71.4556C196.703 71.3549 196.69 71.215 196.69 71.0269C196.69 71.1975 196.681 71.3331 196.659 71.4293C196.638 71.5255 196.603 71.6436 196.551 71.7792L196.443 72.046L195.502 74.3249H197.878Z" fill="#EC641D"/>
<path d="M219.908 69.8418H220.793V76.1753H222.901V76.967H219.908V69.8418Z" fill="#EC641D"/>
<path d="M72.3184 38.3579L90.1841 56.4617C90.5529 56.8335 90.8476 57.1834 91.0688 57.5115C91.29 57.8395 91.4635 58.1107 91.5894 58.3338C91.7152 58.5569 91.8841 58.9112 92.092 59.401C92.0013 58.8412 91.9317 58.2507 91.8841 57.6339C91.8364 57.0172 91.8145 56.3918 91.8145 55.7619V39.2808H94.937V65.4109L77.0363 47.2239L76.2037 46.1742L74.8854 44.1446C75.2541 45.3344 75.4405 46.1611 75.4405 46.6291V64.4748H72.3184V38.3579Z" fill="#EC641D"/>
<path d="M99.3438 39.2808H112.04V42.0801H102.466V49.9182H111.902V52.7175H102.466V61.6755H112.04V64.4748H99.3438V39.2808Z" fill="#EC641D"/>
<path d="M116.038 39.2763L121.437 55.4468C121.506 55.5649 121.563 55.7399 121.61 55.9717C121.658 56.2035 121.701 56.4484 121.749 56.7065C121.797 56.9646 121.84 57.3014 121.888 57.7212C121.936 58.1412 121.957 58.5829 121.957 59.0509C121.957 58.631 121.97 58.2811 121.992 58.0012C122.014 57.7212 122.096 57.2576 122.239 56.6016C122.382 55.9498 122.486 55.5649 122.556 55.4468L129.277 38.2178L135.963 55.4468C136.059 55.6087 136.15 55.9367 136.246 56.4266C136.341 56.9165 136.414 57.3757 136.475 57.8087C136.536 58.2417 136.562 58.6529 136.562 59.0509C136.562 58.5173 136.579 58.1062 136.614 57.8263C136.649 57.5463 136.727 57.1045 136.848 56.4965L137.1 55.4468L142.485 39.2719H145.863L136.844 65.4763L130.01 48.0592C129.962 47.9674 129.906 47.7968 129.836 47.5518C129.767 47.3068 129.685 47.0007 129.593 46.642C129.503 46.279 129.424 45.9466 129.368 45.6404C129.312 45.3386 129.281 44.9056 129.281 44.3413C129.234 44.9974 129.19 45.4829 129.142 45.7979C129.095 46.1128 129.034 46.4233 128.952 46.7251C128.869 47.0313 128.808 47.2763 128.761 47.46C128.713 47.648 128.635 47.8449 128.518 48.0548L121.684 65.4719L112.699 39.2719H116.038V39.2763Z" fill="#EC641D"/>
<path d="M150.686 38.2222L159.376 56.5403L159.91 57.5813C160.027 57.9356 160.118 58.2593 160.187 58.5567C160.257 58.8541 160.313 59.2828 160.361 59.847C160.361 59.3746 160.395 58.9854 160.465 58.6661C160.534 58.3511 160.651 57.9794 160.812 57.5551L161.297 56.4966L170.005 38.2222L175.208 64.4747H171.956L169.237 48.9733L169.033 47.8536L168.964 47.1888L169.103 45.8591C168.942 46.4408 168.782 46.9964 168.621 47.5256C168.461 48.0505 168.314 48.466 168.174 48.7678L160.382 65.3626L152.568 48.7241L152.217 47.7443C152.03 47.2544 151.831 46.6289 151.618 45.8591L151.757 47.1888C151.757 47.4468 151.718 47.6655 151.64 47.8536L151.454 48.969L148.7 64.4747H145.482L150.686 38.2222Z" fill="#EC641D"/>
<path d="M187.98 38.3975L199.602 64.475L196.184 64.4837L193.409 57.8266H182.533L179.715 64.4706H176.328L187.984 38.3975H187.98ZM183.774 55.1322H192.169L188.812 47.0841L188.431 46.135C188.271 45.7151 188.153 45.3302 188.084 44.9759C188.015 44.626 187.98 44.123 187.98 43.4669C187.98 44.0749 187.945 44.5473 187.876 44.8884C187.806 45.2296 187.676 45.6407 187.49 46.135L187.108 47.0798L183.774 55.1322Z" fill="#EC641D"/>
<path d="M200.328 38.3579L218.194 56.4617C218.563 56.8335 218.858 57.1834 219.079 57.5115C219.3 57.8395 219.474 58.1107 219.6 58.3338C219.725 58.5569 219.894 58.9112 220.102 59.401C220.012 58.8412 219.942 58.2507 219.894 57.6339C219.847 57.0172 219.825 56.3918 219.825 55.7619V39.2808H222.947V65.4109L205.047 47.2239L204.214 46.1742L202.896 44.1446C203.264 45.3344 203.451 46.1611 203.451 46.6291V64.4748H200.328V38.3579Z" fill="#EC641D"/>
</g>
<defs>
<clipPath id="clip0_510_1278">
<rect width="200" height="43" fill="white" transform="translate(23 36)"/>
</clipPath>
</defs>
</svg>
