<?xml version="1.0" encoding="UTF-8"?>
<svg id="Ebene_1" xmlns="http://www.w3.org/2000/svg" version="1.1" viewBox="0 0 182 114">
  <!-- Generator: Adobe Illustrator 29.8.2, SVG Export Plug-In . SVG Version: 2.1.1 Build 3)  -->
  <defs>
    <style>
      .st0 {
        fill: #ec641d;
      }
    </style>
  </defs>
  <path class="st0" d="M166.5,42.2c0,2,0,4.1,0,6.1,0,1.1-.3,1.4-1.4,1.4-4.1,0-8.3,0-12.4,0-1.1,0-1.4-.3-1.4-1.4,0-4.1,0-8.2,0-12.3,0-1.1.3-1.4,1.4-1.4,4.1,0,8.3,0,12.4,0,1.1,0,1.4.3,1.4,1.4,0,2.1,0,4.1,0,6.2Z"/>
  <path class="st0" d="M166.5,78.6c0,1-.3,1.4-1.4,1.4-4.2,0-8.3,0-12.5,0-1.1,0-1.4-.3-1.4-1.4,0-2.1,0-4.1,0-6.2s0-4.1,0-6.1c0-1.1.3-1.4,1.4-1.4,4.2,0,8.3,0,12.5,0,1,0,1.4.3,1.4,1.4,0,4.1,0,8.3,0,12.4h0Z"/>
  <path class="st0" d="M58,34.6c-14.1,0-28.2,0-42.3,0-1.5,0-1.7.2-1.7,1.7v42.1c0,1.4.2,1.7,1.7,1.7h42.3c1.4,0,1.7-.2,1.7-1.6,0-7,0-14.1,0-21.1s0-14,0-21c0-1.5-.2-1.7-1.8-1.7ZM44.5,57.3c0,2,0,4,0,6,0,1.2-.3,1.5-1.4,1.5-4.1,0-8.3,0-12.4,0-1.1,0-1.4-.3-1.4-1.4,0-4.1,0-8.2,0-12.3,0-1.1.3-1.4,1.4-1.4,4.2,0,8.4,0,12.6,0,1,0,1.3.3,1.3,1.3,0,2.1,0,4.2,0,6.3h0Z"/>
  <path class="st0" d="M97.9,63.3c0,1.2-.2,1.5-1.5,1.5-4.2,0-8.3,0-12.5,0h-1.2v1.2c0,4.1,0,8.2,0,12.3,0,1.4-.2,1.6-1.6,1.6-4,0-8,0-12,0-1.3,0-1.6-.2-1.6-1.5v-42.2c0-1.4.2-1.6,1.6-1.6,4,0,8,0,12,0,1.4,0,1.6.2,1.6,1.6,0,4.1,0,8.2,0,12.3v1.2h2.1c3.9,0,7.8,0,11.7,0,1.2,0,1.5.3,1.5,1.4,0,4.1,0,8.1,0,12.2Z"/>
  <path class="st0" d="M136,48.3c0,1-.3,1.4-1.4,1.4-4.2,0-8.3,0-12.5,0-1.1,0-1.4-.3-1.4-1.5,0-2,0-4.1,0-6.1s0-4.1,0-6.2c0-1.1.3-1.4,1.4-1.4,4.2,0,8.3,0,12.5,0,1.1,0,1.4.3,1.4,1.4,0,4.1,0,8.3,0,12.4Z"/>
  <path class="st0" d="M136,66.2c0,4.1,0,8.2,0,12.3,0,1.1-.3,1.4-1.4,1.4-4.1,0-8.3,0-12.4,0-1.1,0-1.4-.3-1.4-1.4,0-2.1,0-4.1,0-6.2s0-4.1,0-6.1c0-1.1.3-1.4,1.4-1.4,4.1,0,8.3,0,12.4,0,1.1,0,1.4.3,1.4,1.4Z"/>
  <path class="st0" d="M113.1,72.3c0,2.1,0,4.2,0,6.3,0,1.1-.3,1.4-1.4,1.4-4.2,0-8.3,0-12.5,0-1.1,0-1.4-.3-1.4-1.4,0-4.1,0-8.3,0-12.4,0-1.1.3-1.4,1.4-1.4,4.2,0,8.3,0,12.5,0,1.1,0,1.4.3,1.4,1.4,0,2,0,4.1,0,6.1Z"/>
  <path class="st0" d="M113.1,48.2c0,1.2-.3,1.5-1.5,1.5-2.1,0-4.1,0-6.2,0s-4,0-6.1,0c-1.2,0-1.5-.3-1.5-1.5,0-4.1,0-8.1,0-12.2,0-1.2.3-1.5,1.5-1.5,4.1,0,8.2,0,12.3,0,1.2,0,1.5.3,1.5,1.4,0,4.1,0,8.1,0,12.2Z"/>
  <path class="st0" d="M151.3,63.5c0,1-.3,1.4-1.4,1.4-4.2,0-8.3,0-12.5,0-1.1,0-1.4-.3-1.4-1.4,0-2.1,0-4.2,0-6.3s0-4,0-6c0-1.1.3-1.4,1.4-1.4,4.2,0,8.3,0,12.5,0,1.1,0,1.4.3,1.4,1.4,0,4.1,0,8.3,0,12.4Z"/>
</svg>