<svg width="381" height="29" viewBox="0 0 381 29" fill="none" xmlns="http://www.w3.org/2000/svg">
<path d="M88.3659 28.9272H83.1569L79.8509 22.5055H60.508L57.1965 28.9272H51.993L67.1867 0.210853H73.1764L88.3659 28.9272ZM77.5408 18.2174L70.2246 4.30306L62.8167 18.2174H77.5408ZM146.812 28.9272H140.891L118.964 5.37682V28.9272H114.207V0.210853H120.115L142.055 23.7709V0.212242H146.812V28.9272ZM204.944 4.49059V0.212242H172.735V4.49059H186.462V8.80227H177.493V13.0862H186.462V28.9272H191.221V13.0862H200.185V8.80227H191.221V4.49059H204.944ZM260.933 4.49475H235.624V12.4152H252.442V16.7033H235.624V24.653H260.957V28.9313H230.865V0.210853H260.933V4.49475ZM380.606 28.9272H375.393L372.087 22.5055H352.738L349.432 28.9272H344.223L359.418 0.210853H365.407L380.606 28.9272ZM369.782 18.2174L362.461 4.30306L355.053 18.2174H369.782ZM23.4253 0.191406H0V28.9258H4.75757V17.959H23.4267C28.3329 17.959 32.3098 13.9627 32.3098 9.05508C32.3098 4.15026 28.3329 0.191406 23.4253 0.191406ZM23.4253 13.6654H4.75757V4.48364H23.4267C24.0275 4.48273 24.6226 4.60032 25.1778 4.82968C25.7331 5.05904 26.2377 5.39567 26.6627 5.82029C27.0877 6.24492 27.4248 6.7492 27.6547 7.30427C27.8846 7.85934 28.0027 8.4543 28.0023 9.05508C28.0065 11.586 25.9562 13.6654 23.4253 13.6654ZM319.462 28.9258L311.857 17.7993C316.025 17.0673 319.208 13.4348 319.208 9.05508C319.208 4.14887 315.231 0.191406 310.323 0.191406H286.898V28.9258H291.655V17.959H306.16L313.926 28.9258H319.462ZM291.651 4.48503H310.319C310.919 4.4843 311.514 4.60197 312.069 4.83131C312.625 5.06065 313.129 5.39716 313.554 5.8216C313.979 6.24604 314.316 6.75009 314.546 7.30491C314.776 7.85974 314.895 8.45446 314.895 9.05508C314.895 11.586 312.844 13.6654 310.319 13.6654H291.651V4.48364V4.48503Z" fill="#EC641D"/>
</svg>
