<svg width="246" height="114" viewBox="0 0 246 114" fill="none" xmlns="http://www.w3.org/2000/svg">
<g clip-path="url(#clip0_510_1272)">
<path d="M187.706 71.1603C190.355 71.1603 193.003 71.1666 195.651 71.165C195.94 71.165 196.232 71.1429 196.519 71.1081C196.952 71.0559 197.159 70.833 197.133 70.3651C197.068 69.1367 196.763 67.9858 196.101 66.9393C195.012 65.2145 193.309 64.541 191.391 64.4873C188.811 64.4129 186.635 65.4058 185.433 67.9463C184.773 69.3454 184.78 70.8251 185.037 72.2732C185.392 74.2699 186.433 75.816 188.477 76.5132C191.053 77.3907 193.531 76.9559 195.961 75.9552C196.684 75.658 196.898 75.1331 196.581 74.5134C196.227 73.8194 195.724 74.0407 195.175 74.2936C193.482 75.0746 191.712 75.3987 189.848 75.0888C188.036 74.7869 186.731 73.0779 186.96 71.1982C187.237 71.184 187.472 71.1603 187.706 71.1603ZM191.106 66.2484C193.353 66.2895 194.856 67.4673 194.958 69.3406H187.108C187.297 67.4862 188.986 66.2104 191.106 66.2484Z" fill="#EC641D"/>
<path d="M210.278 65.7599C210.341 65.4294 210.313 65.1576 210.434 65.039C210.687 64.7939 211.029 64.4698 211.319 64.4825C211.604 64.4951 212.075 64.8619 212.108 65.1196C212.215 65.948 212.199 66.8017 212.143 67.6396C212.124 67.9241 211.894 68.362 211.674 68.4221C211.39 68.498 210.867 68.3715 210.715 68.1502C209.411 66.2484 207.482 66.1503 205.483 66.3132C204.992 66.3527 204.445 66.5898 204.062 66.9029C203.144 67.6506 203.411 68.8758 204.564 69.1209C206.084 69.4434 207.638 69.6141 209.173 69.8734C209.689 69.9604 210.206 70.0868 210.7 70.2592C212.074 70.7444 212.792 71.7484 212.805 73.1854C212.819 74.7568 211.88 76.0389 210.283 76.5496C207.954 77.2942 205.704 77.2294 203.683 75.6405C203.629 75.5979 203.551 75.5837 203.426 75.533C203.392 75.7402 203.349 75.9109 203.341 76.0832C203.311 76.7393 202.985 77.0049 202.319 76.9796C201.646 76.9543 201.463 76.6049 201.476 76.0105C201.495 75.0888 201.436 74.164 201.508 73.2486C201.531 72.9341 201.778 72.5008 202.045 72.3712C202.43 72.1847 202.813 72.3633 203.087 72.8076C204.475 75.0572 207.206 75.8887 209.61 74.8343C210.445 74.4675 210.908 73.8099 210.818 73.0763C210.714 72.1989 210.022 71.9238 209.314 71.7895C208.121 71.5634 206.905 71.4638 205.709 71.2488C204.909 71.1049 204.106 70.9168 203.344 70.6401C202.105 70.1911 201.547 69.2031 201.541 67.9383C201.535 66.5598 202.435 65.3678 203.77 64.8872C205.838 64.1458 207.818 64.3355 209.702 65.4706C209.854 65.5622 210.017 65.6303 210.275 65.7583L210.278 65.7599Z" fill="#EC641D"/>
<path d="M173.089 37.7604C171.971 37.7604 170.864 37.7351 169.761 37.7699C169.118 37.7904 168.808 37.5296 168.819 36.9051C168.829 36.3123 169.153 36.1004 169.745 36.1115C171.174 36.1399 172.604 36.151 174.032 36.1115C174.799 36.0894 175.055 36.3897 175.051 37.1312C175.031 41.6052 175.058 46.0791 175.023 50.5531C175.017 51.312 175.218 51.5775 175.996 51.5332C177.077 51.4732 178.167 51.5332 179.252 51.519C179.805 51.5127 180.078 51.7182 180.09 52.3016C180.103 52.9229 179.818 53.1379 179.226 53.1363C175.892 53.1268 172.555 53.1268 169.22 53.1411C168.64 53.1442 168.291 52.9371 168.281 52.3443C168.272 51.7071 168.63 51.4938 169.253 51.5127C170.365 51.5459 171.477 51.508 172.588 51.5238C173.03 51.5301 173.199 51.361 173.197 50.9214C173.185 46.6324 173.183 42.3418 173.177 38.0528C173.177 38.0023 173.148 37.9532 173.091 37.762L173.089 37.7604Z" fill="#EC641D"/>
<path d="M173.346 67.8216C174.496 66.8494 175.474 65.8534 176.616 65.104C177.786 64.3357 179.133 64.195 180.465 64.8717C181.118 65.2036 181.328 65.6685 181.07 66.2786C180.795 66.9268 180.355 67.0138 179.727 66.7466C178.477 66.2154 177.331 66.579 176.296 67.311C174.369 68.6722 173.448 70.5756 173.427 72.9074C173.408 75.0796 173.425 75.078 175.649 75.078C176.417 75.078 177.186 75.0875 177.953 75.0859C178.501 75.0859 178.676 75.3642 178.677 75.8859C178.678 76.4139 178.483 76.689 177.95 76.689C175.116 76.689 172.282 76.689 169.448 76.6842C168.957 76.6842 168.747 76.4218 168.742 75.9349C168.737 75.4479 168.857 75.0954 169.423 75.0843C169.926 75.0748 170.43 75.0654 170.932 75.0828C171.385 75.097 171.615 74.9484 171.613 74.4536C171.599 71.9779 171.6 69.5037 171.608 67.028C171.608 66.5569 171.411 66.3561 170.939 66.3767C170.595 66.3909 170.25 66.3624 169.907 66.3641C169.388 66.3641 169.123 66.1158 169.116 65.5973C169.108 65.0503 169.379 64.7547 169.929 64.7468C170.75 64.7341 171.571 64.7436 172.392 64.7389C173.063 64.7341 173.346 65.0977 173.348 65.7269C173.349 66.4462 173.348 67.1671 173.348 67.828L173.346 67.8216Z" fill="#EC641D"/>
<path d="M95.7041 37.947C92.8621 37.5771 89.9424 37.7968 87.0593 37.762C86.5217 37.7557 86.2419 37.9992 86.2402 38.5794C86.2386 39.1738 86.5741 39.3714 87.0766 39.403C87.4981 39.4299 87.926 39.4394 88.3474 39.4046C89.0104 39.3524 89.227 39.6307 89.214 40.2788C89.1805 41.9894 89.2032 43.6999 89.2032 45.4121H89.1935C89.1935 47.2017 89.1822 48.9928 89.2 50.7824C89.2065 51.3168 89.0217 51.5618 88.4619 51.527C87.9881 51.4986 87.5094 51.5396 87.0339 51.5207C86.4293 51.497 86.25 51.8211 86.2548 52.357C86.2608 52.874 86.4774 53.1317 87.021 53.1301C89.4048 53.1221 91.7875 53.119 94.1713 53.1348C94.7737 53.1395 94.9601 52.836 94.9634 52.3048C94.9677 51.7405 94.7008 51.5017 94.1329 51.5176C93.3376 51.5381 92.5428 51.497 91.7491 51.5254C91.1942 51.546 90.9873 51.3089 90.997 50.7808C91.0143 49.9129 91.0192 49.0434 91.0035 48.1739C90.9938 47.6411 91.205 47.4277 91.7572 47.4372C92.8686 47.4578 93.9881 47.4973 95.092 47.393C97.0273 47.208 98.6336 46.4049 99.3128 44.4619C100.289 41.67 99.2063 38.4023 95.7041 37.947ZM97.7189 42.9348C97.5698 44.5442 96.447 45.6255 94.7278 45.7789C93.6764 45.8721 92.6109 45.8057 91.5519 45.8263C91.0592 45.8357 90.997 45.5369 90.9986 45.156C91.0035 44.3133 91.0003 43.4707 91.0003 42.6281H91.0035C91.0035 41.7855 90.9765 40.9413 91.0208 40.1018C91.0332 39.8726 91.2672 39.4631 91.3963 39.4631C92.767 39.4726 94.1778 39.3667 95.4993 39.6512C97.2645 40.0306 97.8415 41.6116 97.7189 42.9348Z" fill="#EC641D"/>
<path d="M164.081 51.5131C163.056 51.483 162.804 51.1874 162.798 50.1456C162.785 48.356 162.834 46.5632 162.751 44.7752C162.66 42.7706 161.63 41.547 159.843 41.1249C157.553 40.5827 155.387 41.038 153.282 41.9517C152.66 42.2205 152.44 42.6695 152.742 43.286C153.057 43.9279 153.545 43.7966 154.083 43.5548C155.474 42.9271 156.925 42.5952 158.471 42.7011C160.391 42.8338 161.433 44.4132 160.767 46.315C160.575 46.2692 160.376 46.2249 160.177 46.1759C158.227 45.6827 156.268 45.5009 154.31 46.0906C152.744 46.5616 151.814 47.6794 151.686 49.0184C151.477 51.2364 152.392 52.3146 153.684 52.9232C154.953 53.5208 156.311 53.6362 157.626 53.2078C158.813 52.822 159.931 52.2324 161.142 51.7059C161.591 52.9596 162.723 53.192 164.03 53.1478C164.63 53.1287 164.913 52.9106 164.91 52.3083C164.907 51.747 164.652 51.5305 164.081 51.5131ZM160.765 49.6413C159.509 51.0182 157.124 52.0948 155.204 51.581C154.212 51.3155 153.596 50.6151 153.558 49.6365C153.523 48.7449 154.056 48.0446 155.021 47.7268C155.32 47.6288 155.624 47.526 155.934 47.4849C156.351 47.4296 156.777 47.4327 157.198 47.4122C157.203 47.3853 157.21 47.3584 157.216 47.3332C158.2 47.5039 159.188 47.6525 160.166 47.8533C160.931 48.0114 161.3 49.0563 160.765 49.6413Z" fill="#EC641D"/>
<path d="M106.703 71.1587C108.135 71.1777 109.564 71.165 110.995 71.165V71.146C112.454 71.146 113.911 71.1524 115.368 71.1429C115.905 71.1397 116.521 71.0164 116.376 70.3509C116.128 69.2126 115.865 68.0269 115.323 67.012C114.332 65.156 112.492 64.5189 110.517 64.4809C108.427 64.4383 106.57 65.0959 105.279 66.8997C103.881 68.8505 103.857 70.9642 104.501 73.1459C105.166 75.3908 106.799 76.5275 109.051 76.8658C111.177 77.1851 113.209 76.7946 115.169 75.9757C115.935 75.6548 116.14 75.2201 115.873 74.6414C115.568 73.9759 115.22 73.9031 114.377 74.2952C112.836 75.0114 111.22 75.3513 109.52 75.1457C107.538 74.907 106.449 73.8272 106.108 71.8764C106.017 71.3516 106.158 71.1508 106.703 71.1587ZM110.525 66.2547C112.686 66.3606 114.068 67.51 114.188 69.3533H106.301C106.621 67.3282 108.265 66.144 110.525 66.2547Z" fill="#EC641D"/>
<path d="M89.8759 62.9522C91.2434 66.8872 92.5445 70.6307 93.8455 74.3743C93.9298 74.3917 94.0141 74.4075 94.1 74.4249C95.4248 70.675 96.7507 66.9235 98.1247 63.0345C97.673 63.0092 97.2996 62.9855 96.9241 62.9665C96.3946 62.9396 96.0051 62.791 96.0002 62.146C95.9953 61.5199 96.3325 61.3129 96.8874 61.3113C98.2916 61.3081 99.6958 61.3113 101.1 61.3081C101.678 61.3081 101.91 61.6496 101.905 62.165C101.9 62.6677 101.59 62.9981 101.103 62.938C100.172 62.8226 99.9298 63.3348 99.6677 64.0937C98.2948 68.0586 96.8604 72.003 95.4372 75.9505C95.2049 76.594 94.7851 76.9828 94.0173 76.9797C93.2776 76.9765 92.8276 76.6951 92.5828 76.0043C91.1991 72.0962 89.79 68.1977 88.4241 64.285C88.1534 63.5087 87.9692 62.8005 86.8816 62.9254C86.4218 62.9776 86.1387 62.6471 86.1387 62.1049C86.1387 61.5484 86.4234 61.3255 86.9102 61.3207C88.5527 61.3065 90.1958 61.3129 91.8383 61.3207C92.3202 61.3239 92.5347 61.5911 92.5428 62.0685C92.5526 62.5586 92.3921 62.9143 91.8604 62.9412C91.2645 62.9728 90.6631 62.9491 89.8792 62.9491L89.8759 62.9522Z" fill="#EC641D"/>
<path d="M123.272 67.1811C123.622 66.7828 123.8 66.5757 123.983 66.3717C125.286 64.911 126.862 64.168 128.851 64.6059C130.504 64.9711 131.571 66.2753 131.649 68.1692C131.731 70.1675 131.722 72.1705 131.679 74.1704C131.663 74.9102 131.893 75.1805 132.618 75.0825C133.239 74.9972 133.589 75.2643 133.574 75.9094C133.56 76.5149 133.21 76.7077 132.635 76.6983C131.311 76.6777 129.987 76.684 128.662 76.6983C128.107 76.703 127.837 76.4943 127.824 75.9125C127.811 75.345 128.035 75.1095 128.603 75.0747C129.825 75.0003 129.823 74.9814 129.825 73.7546C129.825 72.2022 129.825 70.6481 129.828 69.0957C129.829 68.057 129.691 67.0499 128.643 66.5314C127.492 65.9607 126.391 66.3386 125.44 67.0231C124.201 67.9131 123.511 69.1668 123.452 70.7066C123.406 71.916 123.436 73.1285 123.385 74.3364C123.36 74.9498 123.624 75.1142 124.187 75.0904C124.516 75.0762 124.95 75.073 125.154 75.2612C125.348 75.4414 125.411 75.9078 125.327 76.1876C125.263 76.4026 124.887 76.6587 124.64 76.6666C123.237 76.714 121.833 76.6903 120.43 76.6935C119.869 76.6935 119.597 76.4042 119.607 75.8635C119.616 75.315 119.909 75.0873 120.469 75.0747C121.545 75.0494 121.547 75.0288 121.548 73.9806C121.55 71.8227 121.548 69.6632 121.552 67.5052C121.552 66.7759 121.193 66.3996 120.475 66.3765C120.316 66.3717 120.106 66.4144 120.011 66.3306C119.763 66.1172 119.376 65.8326 119.395 65.6034C119.419 65.3094 119.758 64.8319 120.006 64.8019C120.839 64.7007 121.7 64.7118 122.536 64.7972C122.778 64.8224 123.096 65.2145 123.171 65.4928C123.293 65.9481 123.244 66.4492 123.279 67.1859L123.272 67.1811Z" fill="#EC641D"/>
<path d="M161.891 74.3948C161.166 75.0588 160.681 75.6927 160.04 76.0437C159.253 76.4737 158.35 76.861 157.472 76.9258C155.185 77.095 153.633 75.6358 153.552 73.3498C153.482 71.3499 153.487 69.3454 153.512 67.3455C153.52 66.6499 153.347 66.3053 152.584 66.3622C152.058 66.4017 151.554 66.3179 151.553 65.5907C151.553 64.8493 152.036 64.7402 152.616 64.7339C153.12 64.7275 153.622 64.7228 154.126 64.7307C155.15 64.7465 155.317 64.9046 155.33 65.9433C155.357 68.2878 155.333 70.6323 155.4 72.9752C155.457 74.9766 157.058 75.5125 158.663 74.9545C160.603 74.281 161.515 72.7443 161.718 70.8172C161.854 69.5399 161.791 68.2371 161.756 66.9487C161.751 66.7543 161.432 66.4523 161.214 66.4065C160.782 66.3164 160.319 66.3733 159.868 66.3638C159.406 66.3543 159.108 66.1488 159.083 65.6603C159.059 65.1765 159.248 64.7892 159.767 64.7702C160.824 64.7323 161.885 64.7275 162.943 64.7702C163.57 64.7955 163.652 65.2904 163.652 65.8057C163.647 68.5455 163.678 71.2867 163.634 74.0265C163.622 74.8201 163.795 75.2232 164.668 75.0904C165.241 75.0035 165.506 75.3102 165.512 75.8588C165.521 76.4405 165.255 76.7361 164.637 76.7014C164.161 76.6745 163.682 76.6966 163.205 76.695C162.025 76.6918 161.958 76.6239 161.936 75.4445C161.931 75.1663 161.912 74.8896 161.891 74.3995V74.3948Z" fill="#EC641D"/>
<path d="M109.337 40.8799C105.802 40.8815 103.09 43.5817 103.057 47.1324C103.022 50.7068 105.728 53.407 109.354 53.4149C112.939 53.4228 115.612 50.7685 115.622 47.1925C115.633 43.6054 112.915 40.8783 109.337 40.8799ZM109.428 51.5937C106.874 51.6585 105.123 49.9195 105.048 47.2447C104.976 44.6456 106.727 42.7738 109.276 42.7201C111.795 42.6679 113.648 44.4512 113.661 47.0929C113.672 49.5986 112.167 51.5574 109.428 51.5937Z" fill="#EC641D"/>
<path d="M138.707 47.0895C138.707 46.2991 138.664 45.507 138.72 44.7197C138.767 44.0336 138.484 43.8423 137.848 43.8866C137.268 43.9277 136.683 43.9088 136.101 43.8866C135.566 43.866 135.197 43.6779 135.213 43.0313C135.227 42.4179 135.582 42.2709 136.088 42.2646C136.724 42.2551 137.36 42.2314 137.995 42.2582C138.555 42.282 138.735 42.0512 138.717 41.5089C138.685 40.4829 138.733 39.4537 138.701 38.4277C138.679 37.7321 139.049 37.4586 139.662 37.457C140.259 37.457 140.577 37.7874 140.573 38.4072C140.566 39.4601 140.596 40.5145 140.568 41.5674C140.554 42.0828 140.741 42.2646 141.255 42.2582C142.764 42.2408 144.275 42.2599 145.786 42.2582C146.344 42.2582 146.815 42.3626 146.798 43.0566C146.784 43.7079 146.357 43.8945 145.783 43.8945C144.299 43.8945 142.815 43.9198 141.331 43.885C140.733 43.8708 140.549 44.0763 140.563 44.6581C140.598 46.0524 140.608 47.45 140.571 48.8459C140.505 51.4291 142.147 52.0109 144.321 51.4165C145.048 51.2173 145.731 50.8426 146.411 50.5027C146.918 50.2482 147.357 50.1344 147.71 50.7035C148.057 51.2631 147.939 51.7659 147.343 52.0947C145.896 52.893 144.38 53.4716 142.685 53.4084C139.66 53.2962 138.984 51.7121 138.742 49.6158C138.647 48.7843 138.726 47.9322 138.726 47.0895C138.718 47.0895 138.712 47.0895 138.704 47.0895H138.707Z" fill="#EC641D"/>
<path d="M139.557 70.6149C139.557 69.7992 139.532 68.9818 139.565 68.1677C139.589 67.6096 139.365 67.4167 138.821 67.4452C138.24 67.4768 137.657 67.4578 137.073 67.4484C136.529 67.4404 136.074 67.344 136.057 66.6389C136.041 65.9291 136.47 65.8121 137.032 65.8105C137.641 65.8105 138.25 65.7932 138.859 65.8121C139.366 65.8295 139.573 65.624 139.562 65.1133C139.54 64.0873 139.586 63.0598 139.546 62.0338C139.521 61.3713 139.789 61.0141 140.438 61.0093C141.116 61.0046 141.432 61.3729 141.418 62.0638C141.396 63.0629 141.44 64.0652 141.403 65.0643C141.383 65.6208 141.593 65.8089 142.134 65.8042C143.616 65.79 145.1 65.8105 146.582 65.8105C147.127 65.8105 147.618 65.8738 147.628 66.5741C147.638 67.2776 147.19 67.4531 146.58 67.4499C145.098 67.4436 143.614 67.4689 142.132 67.4389C141.58 67.4278 141.389 67.6049 141.403 68.1598C141.437 69.5541 141.455 70.9517 141.41 72.3444C141.324 74.9909 142.967 75.5363 145.114 74.9877C145.868 74.7949 146.571 74.3933 147.28 74.0503C147.782 73.8068 148.232 73.6708 148.557 74.2795C148.869 74.8612 148.786 75.3371 148.162 75.6659C146.726 76.4248 145.244 77.0002 143.577 76.9686C141.1 76.9211 139.713 75.6185 139.584 73.1396C139.541 72.3002 139.578 71.456 139.578 70.6134C139.572 70.6134 139.564 70.6134 139.557 70.6134V70.6149Z" fill="#EC641D"/>
<path d="M124.061 44.2754C125.199 43.3079 126.176 42.3103 127.314 41.5562C128.512 40.7626 129.886 40.644 131.238 41.3364C131.874 41.6621 132.046 42.1474 131.769 42.7703C131.488 43.4027 131.042 43.4296 130.47 43.1924C129.185 42.6581 128.022 43.0328 126.971 43.7821C125.079 45.1338 124.177 47.0293 124.137 49.32C124.097 51.5191 124.123 51.5191 126.332 51.5223C127.1 51.5223 127.868 51.5333 128.636 51.5254C129.174 51.5191 129.391 51.7689 129.393 52.2969C129.393 52.8391 129.216 53.1411 128.62 53.1379C125.813 53.1269 123.006 53.1253 120.198 53.1284C119.641 53.1284 119.469 52.8328 119.465 52.3285C119.46 51.8147 119.644 51.5206 120.195 51.5302C120.327 51.5317 120.459 51.5254 120.592 51.5238C121.743 51.508 122.32 50.9378 122.321 49.8133C122.321 47.8656 122.321 45.9164 122.321 43.9687C122.321 43.2046 121.948 42.8214 121.203 42.8193C120.991 42.8193 120.78 42.8083 120.568 42.8051C120.074 42.7972 119.848 42.5111 119.838 42.0558C119.827 41.5736 120.037 41.2163 120.563 41.202C121.463 41.1783 122.364 41.1752 123.264 41.1973C123.873 41.2115 124.062 41.6273 124.064 42.1648C124.067 42.8873 124.064 43.6098 124.064 44.2801L124.061 44.2754Z" fill="#EC641D"/>
<path d="M76.4398 56.7732C78.1841 49.8036 73.9289 41.8452 67.1532 39.4143C66.4133 39.149 65.6273 38.8042 65.0693 38.2808C59.3683 32.9415 50.2395 32.8089 44.4633 38.0107C44.1479 38.2953 43.7476 38.5341 43.3425 38.6571C36.2878 40.8131 31.9551 46.6347 32.3554 53.8985C32.4815 56.1968 32.3456 58.4323 32.1613 60.6993C31.6688 66.8344 35.9943 73.4013 41.6855 75.3716C42.5686 75.6779 43.4371 76.1915 44.1455 76.7993C46.9717 79.2278 50.1885 80.5807 53.9439 80.6096C56.8696 80.6506 59.8584 80.0453 62.214 78.3548C64.196 76.9343 66.3575 75.9914 68.5215 74.952C74.3049 72.1738 77.6649 65.1246 76.384 58.9026C76.2457 58.2226 76.2699 57.4484 76.4398 56.7732ZM74.4044 64.6881C72.7135 69.6175 69.1546 72.3908 64.0965 73.4591C61.5711 73.9945 59.0894 74.1826 56.5518 73.5267C52.1681 72.3956 49.388 69.5885 48.1532 65.373C47.6801 63.7645 47.6219 61.9581 47.7504 60.27C47.9494 57.6727 49.7179 56.1099 52.498 55.6469C51.4888 55.0151 49.5675 55.3551 48.0901 56.4331C46.5084 57.5883 45.7029 59.2137 45.3099 61.0731C44.1746 66.4221 47.4399 72.7863 52.3816 75.1835C55.055 76.4785 57.8836 76.8282 60.7827 76.9753C60.8166 77.1031 60.8481 77.2285 60.8821 77.3563C59.7371 77.6988 58.6138 78.169 57.4445 78.362C51.8891 79.2808 47.7335 76.8379 44.3784 72.7236C41.8166 69.5813 40.264 66.0386 41.1785 61.9099C42.1635 57.4846 44.8369 54.3326 49.1963 52.8808C51.3748 52.1549 53.449 52.6397 54.8755 54.7667C54.9482 54.7016 55.021 54.6365 55.0938 54.5714C54.9264 54.2192 54.81 53.8334 54.5868 53.5199C52.7285 50.896 49.4414 50.2087 45.8727 51.6774C39.7497 54.1975 36.3072 61.9991 38.624 68.1777C39.2038 69.7284 39.8976 71.238 40.5381 72.767C40.4483 72.8514 40.3561 72.9358 40.264 73.0203C39.1505 71.8241 37.8865 70.7316 36.9525 69.4124C34.0462 65.3079 34.3034 60.8946 36.0258 56.4428C37.3892 52.9122 39.5677 50.0809 43.1557 48.4868C47.0518 46.7553 52.5029 47.6066 55.6251 50.4981C57.4591 52.1983 58.0171 54.2192 56.9036 56.7683C58.4998 55.2321 58.888 52.3864 57.92 50.4571C56.3723 47.3775 53.6916 45.7906 50.4603 45.0454C43.5948 43.4634 37.6269 46.9048 34.5436 52.7433C34.4902 52.8446 34.4053 52.9266 34.1166 53.3101C34.0851 52.6445 33.9953 52.249 34.0608 51.8848C35.0797 46.3598 38.9782 42.5663 44.536 41.387C47.4399 40.7696 50.2467 40.6008 53.1312 41.4497C58.7424 43.1017 62.5464 49.8783 60.8894 55.4444C60.2102 57.733 58.8079 58.8761 56.0569 59.1559C57.8788 59.8263 59.2325 59.2861 60.4891 58.5336C62.3426 57.4243 63.2741 55.618 63.6234 53.5922C64.7685 46.9506 60.3242 40.2029 53.7716 38.6088C52.2142 38.2302 50.5961 38.1048 49.0071 37.8564C48.7548 37.8178 48.5098 37.7431 47.9494 37.608C51.4209 36.0115 54.6984 35.6594 57.9128 37.0582C63.5628 39.518 67.1362 43.8107 67.9028 49.9531C68.4535 54.3712 65.5303 59.4645 60.8967 61.4638C59.1621 62.2138 57.4082 62.5852 55.6858 61.5747C54.9531 61.1454 54.3781 60.446 53.8226 59.9492C54.1283 61.8279 56.103 63.5401 58.444 63.7862C61.8476 64.1455 64.589 62.754 66.93 60.4678C71.5151 55.9918 72.2525 49.027 68.815 43.1716C68.6209 42.8364 68.4463 42.4891 68.4293 41.9682C68.6743 42.1033 68.9533 42.2021 69.1643 42.3782C73.7106 46.1644 75.0643 50.9322 73.451 56.5441C72.4806 59.9227 70.8843 62.9252 67.9271 65.0691C63.7908 68.0644 57.3548 67.8522 53.5 64.5241C51.5228 62.8167 50.8823 60.7402 51.6975 58.1526C51.4694 58.483 51.188 58.7869 51.0231 59.1438C49.8538 61.6712 50.5233 64.7122 52.6727 66.7428C58.136 71.9061 67.3958 71.0909 72.369 64.9823C73.1745 63.9936 73.861 62.9107 74.6033 61.8713C74.7222 61.893 74.8411 61.9147 74.9599 61.9389C74.7804 62.8577 74.7076 63.8103 74.4044 64.6881Z" fill="#EC641D"/>
</g>
<defs>
<clipPath id="clip0_510_1272">
<rect width="181" height="47" fill="white" transform="translate(32 34)"/>
</clipPath>
</defs>
</svg>
