<svg width="246" height="114" viewBox="0 0 246 114" fill="none" xmlns="http://www.w3.org/2000/svg">
<g clip-path="url(#clip0_510_1279)">
<path d="M157.346 49.0408C157.346 48.8886 157.293 48.7345 157.26 48.5472H151.363V51.1653C151.008 50.861 150.88 50.7654 150.77 50.6542C148.191 48.0887 145.083 47.5386 141.69 48.4906C138.273 49.4505 136.066 51.7623 135.389 55.1842C135.038 56.9537 135.034 58.9007 135.379 60.6721C136.048 64.1369 138.269 66.4702 141.734 67.4262C145.227 68.388 148.362 67.7539 150.889 64.9914C150.999 64.8705 151.181 64.8158 151.363 64.7124C151.743 68.7626 149.788 71.0256 145.807 71.1914C143.505 71.287 141.304 70.8383 139.227 69.8316C138.887 69.6678 138.538 69.5176 138.115 69.3244C137.426 70.8324 136.784 72.241 136.113 73.7062C136.257 73.7998 136.335 73.8583 136.422 73.9032C136.654 74.0202 136.888 74.1392 137.129 74.2446C140.255 75.6102 143.535 76.0882 146.927 75.8853C147.713 75.8385 148.499 75.7624 149.272 75.6298C154.302 74.7733 157.165 71.5855 157.279 66.3961C157.405 60.6136 157.334 54.8252 157.346 49.0408ZM146.23 62.9C143.255 62.9332 141.009 60.8126 141.005 57.9682C141.001 55.1237 143.226 52.9972 146.201 53.0011C149.209 53.005 151.422 55.0925 151.426 57.933C151.43 60.7736 149.238 62.8688 146.23 62.9Z" fill="#EC641D"/>
<path d="M105.868 56.3799C105.736 52.1425 103.584 49.3859 99.8315 48.6582C97.9907 48.3012 96.0516 48.2934 94.1654 48.3617C92.1019 48.4339 90.112 48.9899 88.1844 49.9633C88.6963 51.489 89.1843 52.9424 89.6826 54.4212C90.4625 54.1832 91.0806 53.9667 91.7127 53.8105C93.6062 53.3423 95.5259 53.0692 97.4516 53.5725C99.3178 54.0603 100.276 55.5157 100.03 57.49C99.5873 57.3788 99.2114 57.2773 98.8335 57.1876C95.9313 56.495 93.0397 56.4189 90.2237 57.5212C87.6214 58.5396 86.3574 60.5685 86.3692 63.5007C86.3811 66.2983 87.7198 68.4112 90.3047 69.3261C93.5808 70.4869 96.6931 70.1865 99.4535 67.8903C99.6094 67.7615 99.8 67.6757 100.094 67.4981C100.094 68.0991 100.04 68.5595 100.117 68.9984C100.153 69.2052 100.436 69.5213 100.613 69.5251C102.342 69.5642 104.07 69.5486 105.805 69.5486C105.854 69.3027 105.901 69.1799 105.901 69.0569C105.903 64.8313 106.002 60.6017 105.868 56.3799ZM100.198 62.3985C100.111 63.4715 99.6054 64.324 98.7151 64.9151C97.2703 65.8731 95.6777 66.0896 94.0176 65.6194C92.9487 65.319 92.2718 64.5933 92.1695 63.4656C92.0665 62.3302 92.4825 61.3587 93.5434 60.8885C94.4196 60.5003 95.4022 60.3461 96.1874 60.1315C97.2309 60.3091 98.0777 60.4066 98.9004 60.6056C100.253 60.9353 100.308 61.0465 100.198 62.3985Z" fill="#EC641D"/>
<path d="M111.271 48.4731C113.067 48.4731 114.772 48.4867 116.475 48.4653C117.056 48.4575 117.206 48.7248 117.182 49.2417C117.152 49.8524 117.176 50.465 117.176 51.0756C117.31 51.1829 117.446 51.2902 117.58 51.3955C117.739 51.0873 117.839 50.7205 118.07 50.4787C120.365 48.0731 123.557 47.3884 126.628 48.6779C129.047 49.6924 130.15 51.6901 130.522 54.1463C130.652 55.0106 130.682 55.8944 130.686 56.7703C130.703 60.6058 130.694 64.4433 130.694 68.2787V69.4883H124.721C124.7 69.1118 124.667 68.7684 124.665 68.4251C124.661 65.1417 124.665 61.8583 124.659 58.5749C124.659 58.0228 124.652 57.4687 124.598 56.9186C124.387 54.7901 123.145 53.565 121.149 53.4889C119.068 53.4089 117.676 54.519 117.306 56.6084C117.2 57.2113 117.182 57.8355 117.18 58.4501C117.166 61.9929 117.168 65.5377 117.162 69.0806C117.162 69.1762 117.129 69.2698 117.093 69.4591H111.271V48.4731Z" fill="#EC641D"/>
<path d="M181.613 61.1148C182.325 61.1187 182.654 60.9236 182.615 60.196C182.565 59.322 182.593 58.4421 182.507 57.572C181.802 50.4824 175.49 46.3894 168.771 48.6446C163.91 50.2775 160.97 55.5976 161.905 61.0875C163.463 70.2275 173.342 71.6517 178.612 68.5868C179.683 67.9664 180.589 67.069 181.676 66.2164C180.361 65.0596 179.266 64.0997 178.179 63.1438C173.512 67.2622 168.042 64.7357 167.877 61.1012H168.922C173.153 61.0992 177.382 61.0856 181.613 61.1148ZM167.775 57.3144C167.973 54.6027 170.072 52.7006 172.541 52.8566C174.85 53.003 176.722 55.0163 176.62 57.3144H167.775Z" fill="#EC641D"/>
<path d="M206.546 69.5058C206.212 69.5234 205.891 69.5526 205.568 69.5546C203.967 69.5604 202.365 69.5565 200.63 69.5565C200.63 69.0981 200.63 68.7528 200.63 68.4055C200.63 65.089 200.634 61.7724 200.626 58.4558C200.626 57.8725 200.623 57.2814 200.538 56.7039C200.244 54.6672 199.026 53.5454 197.099 53.4908C195.026 53.4322 193.683 54.4858 193.291 56.5322C193.183 57.1019 193.157 57.693 193.153 58.2764C193.138 61.9168 193.138 65.5591 193.13 69.1995C193.13 69.262 193.098 69.3244 193.057 69.4707H187.209C187.188 69.178 187.146 68.8698 187.146 68.5616C187.142 62.2211 187.161 55.8806 187.125 49.5421C187.121 48.6837 187.349 48.4145 188.221 48.4516C189.818 48.5198 191.421 48.4711 193.122 48.4711V51.0834C193.214 51.1419 193.305 51.2004 193.397 51.259C193.699 50.9019 193.97 50.5156 194.303 50.1898C197.555 47.0118 203.103 47.441 205.395 51.0385C206.281 52.4295 206.615 53.9863 206.625 55.5978C206.655 60.0517 206.639 64.5056 206.635 68.9596C206.635 69.1156 206.584 69.2736 206.542 69.5038L206.546 69.5058Z" fill="#EC641D"/>
<path d="M83.0539 64.1113C83.0539 65.5608 83.0775 66.9811 83.0282 68.3975C83.0204 68.6043 82.7093 68.8813 82.4751 68.9905C80.0791 70.1123 77.5925 70.2742 75.1178 69.3553C73.2199 68.6511 72.3733 67.0415 72.2552 65.1492C72.1115 62.8491 72.1608 60.5372 72.1371 58.2313C72.1253 57.0295 72.078 55.8219 72.1529 54.624C72.208 53.7325 71.8674 53.4593 71.0268 53.5569C70.5838 53.6076 70.129 53.5666 69.625 53.5666V48.4709C70.1979 48.4709 70.7157 48.4396 71.2276 48.4787C71.893 48.5274 72.1745 48.305 72.147 47.6007C72.0997 46.399 72.1608 45.1953 72.1253 43.9935C72.1056 43.3497 72.269 43.0492 72.9955 43.0688C74.663 43.1136 76.3325 43.0824 78.1162 43.0824V48.4396H83.048V53.5413H78.1438C78.1438 54.1207 78.1438 54.5635 78.1438 55.0064C78.1438 57.5094 78.1359 60.0124 78.1517 62.5155C78.1615 64.1249 78.8486 64.7824 80.4788 64.64C81.2839 64.5697 82.0734 64.3181 83.0558 64.1113H83.0539Z" fill="#EC641D"/>
<path d="M218.938 48.473C220.454 48.473 221.797 48.4418 223.137 48.4984C223.411 48.5101 223.893 48.8417 223.903 49.0427C223.97 50.4961 223.938 51.9554 223.938 53.5473H218.997C218.973 54.0233 218.944 54.3706 218.942 54.7159C218.938 57.2502 218.934 59.7844 218.942 62.3206C218.948 64.1739 219.714 64.8607 221.58 64.6227C222.287 64.5329 222.974 64.2988 223.832 64.0901C223.832 65.5825 223.85 67.0535 223.807 68.5225C223.801 68.6923 223.48 68.9088 223.259 69.0103C220.889 70.095 218.436 70.2764 215.993 69.3771C213.784 68.5655 213.057 66.675 213.004 64.5427C212.923 61.3276 212.972 58.1086 212.963 54.8915C212.959 53.5747 212.949 53.5122 211.634 53.5903C210.657 53.6469 210.291 53.3874 210.37 52.3651C210.466 51.1145 210.394 49.8523 210.394 48.473C211.067 48.473 211.616 48.4477 212.162 48.4808C212.758 48.5179 212.978 48.2779 212.967 47.6907C212.941 46.4558 212.99 45.2209 212.951 43.9859C212.929 43.3324 213.101 43.0456 213.819 43.067C215.26 43.1119 216.705 43.1002 218.147 43.0709C218.741 43.0592 218.959 43.268 218.948 43.8611C218.918 45.3477 218.938 46.8343 218.938 48.473Z" fill="#EC641D"/>
<path d="M41.656 38.7164C31.6075 38.6949 23.76 46.364 23.7364 56.2278C23.7128 65.9062 31.5917 73.7645 41.341 73.784C51.2202 73.8035 59.1011 66.0057 59.1188 56.1966C59.1365 46.6176 51.2655 38.7359 41.656 38.7164ZM41.4335 69.2618C34.1806 69.2716 28.3019 63.4364 28.2921 56.22C28.2842 49.0698 34.1688 43.221 41.3646 43.2249C48.6786 43.2288 54.5454 49.0016 54.5553 56.2024C54.5651 63.409 48.6943 69.252 41.4335 69.2618Z" fill="#EC641D"/>
<path d="M22.6289 38.1235V46.6724L31.2776 38.1021L22.6289 38.1235Z" fill="#EC641D"/>
</g>
<defs>
<clipPath id="clip0_510_1279">
<rect width="202" height="38" fill="white" transform="translate(22 38)"/>
</clipPath>
</defs>
</svg>
