<svg width="122" height="114" viewBox="0 0 122 114" fill="none" xmlns="http://www.w3.org/2000/svg">
<g clip-path="url(#clip0_510_1280)">
<path d="M92.0551 59.7636C85.335 59.6271 78.6085 59.6373 71.8849 59.7636C67.3922 59.8489 64.3292 62.4252 64.2187 66.4824C64.0149 73.9689 64.0322 81.4694 64.2187 88.9593C64.3119 92.7334 67.2851 95.4598 71.0595 95.5111C78.3561 95.6133 85.6564 95.6096 92.9531 95.5143C96.4926 95.4666 98.986 93.2074 99.718 89.8089L99.8113 66.2436C99.3934 62.3604 96.5548 59.8557 92.0551 59.7636ZM94.8625 86.8028C94.852 89.3757 93.7922 90.4265 91.2023 90.4606C88.0976 90.5014 84.9934 90.471 81.8887 90.471C78.843 90.4742 75.7973 90.4946 72.7481 90.4674C70.3032 90.4438 69.2224 89.4747 69.2051 87.0788C69.1568 80.8314 69.1568 74.5797 69.2051 68.3319C69.2258 66.0832 70.1789 65.0492 72.4719 65.0151C78.7914 64.9298 85.1178 64.923 91.4369 65.0151C93.8749 65.0492 94.8488 66.1753 94.8594 68.5708C94.8905 74.6483 94.8868 80.7256 94.8594 86.8028H94.8625Z" fill="#EC641D"/>
<path d="M27.7704 19.437C27.7704 20.198 27.7704 20.8634 27.7704 21.5253C27.7704 29.4829 27.7635 37.4369 27.7704 45.3944C27.7739 48.8852 28.7166 49.7963 32.2942 49.8031C37.8159 49.8099 43.3376 49.8168 48.8593 49.8031C52.0501 49.7929 53.0999 48.7453 53.0999 45.6094C53.1068 36.9729 53.0999 28.3397 53.0999 19.5564H58.2763C58.3039 20.1024 58.3626 20.6996 58.3626 21.2967C58.3695 29.4794 58.373 37.6655 58.3626 45.8482C58.3626 46.9845 58.3557 48.1311 58.1934 49.2503C57.6789 52.7889 55.5586 54.8294 51.9672 54.8806C44.7224 54.983 37.4706 55.0273 30.2292 54.8499C25.7261 54.7407 23.0671 52.2088 22.373 47.7625V19.437H27.7704Z" fill="#EC641D"/>
<path d="M58.3382 59.7296C53.2792 65.742 48.4447 71.4847 43.5342 77.3236C48.4102 83.2641 53.2516 89.1643 58.3796 95.4118C56.1834 95.4118 54.3359 95.4668 52.4953 95.3678C52.1017 95.3474 51.6838 94.8047 51.373 94.4291C47.7817 90.0684 44.2076 85.6936 40.4919 81.1521C40.0119 81.7016 39.5699 82.1757 39.159 82.6775C36.0614 86.4856 32.9259 90.2664 29.9008 94.129C29.0997 95.1494 28.2641 95.5449 26.9967 95.4532C25.643 95.3542 24.279 95.4291 22.4902 95.4291C27.5941 89.3178 32.4355 83.5203 37.3875 77.5929C32.4873 71.7168 27.6183 65.8751 22.4937 59.733C24.6485 59.733 26.4097 59.6716 28.1604 59.7739C28.6197 59.8013 29.148 60.2653 29.4761 60.6645C32.7083 64.5819 35.9061 68.5299 39.1141 72.4711C39.5078 72.9556 39.9049 73.4333 40.4436 74.0917C42.4914 71.5874 44.4562 69.1851 46.4142 66.7828C47.9647 64.8822 49.5843 63.0259 51.0312 61.0501C51.8012 59.9991 52.6404 59.6067 53.9146 59.7057C55.2648 59.8081 56.6289 59.7296 58.3347 59.7296H58.3382Z" fill="#EC641D"/>
<path d="M84.9453 54.8399H79.4684V24.4943C76.302 24.4943 73.3253 24.4431 70.3555 24.5216C69.2056 24.5523 68.4287 24.2042 67.7173 23.3273C66.7158 22.0886 65.5866 20.9523 64.3262 19.5703H99.5803C97.9781 21.1536 96.5346 22.6687 94.9804 24.0541C94.5867 24.4056 93.8272 24.467 93.2333 24.4772C90.5397 24.5182 87.8429 24.4943 84.9489 24.4943V54.8433L84.9453 54.8399Z" fill="#EC641D"/>
</g>
<defs>
<clipPath id="clip0_510_1280">
<rect width="78" height="77" fill="white" transform="translate(22 19)"/>
</clipPath>
</defs>
</svg>
