<?xml version="1.0" encoding="UTF-8"?>
<svg id="Ebene_1" xmlns="http://www.w3.org/2000/svg" version="1.1" viewBox="0 0 157 36">
  <!-- Generator: Adobe Illustrator 29.8.2, SVG Export Plug-In . SVG Version: 2.1.1 Build 3)  -->
  <path d="M30.7,5.7L21.7,0l-9,5.7,9,5.7,9-5.7Z"/>
  <path d="M12.8,30.3l9,5.7,9-5.7-9-5.7-9,5.7Z"/>
  <path d="M9,16.3L0,22.1l9,5.7,9-5.7-9-5.7Z"/>
  <path d="M34.5,16.3l-9,5.7,9,5.7,9-5.7-9-5.7Z"/>
  <path d="M61,8.6c-1.4,0-2.5.3-3.3.9-.8.6-1.2,1.4-1.2,2.5s0,.8.2,1.2c.2.4.4.7.7,1,.3.3.7.5,1.1.6.4.1,1,.2,1.5.2.8,0,1.6-.2,2.3-.5.7-.4,1.2-.8,1.6-1.4v1.8h1.9v-6.3c0-.6-.1-1.2-.3-1.7-.2-.5-.5-.9-.9-1.3-.4-.4-.9-.6-1.4-.8-.6-.2-1.2-.3-1.9-.3-1.1,0-2,.2-2.8.7-.8.4-1.4,1-1.9,1.6l1.8,1c.3-.5.7-.9,1.2-1.2.5-.3,1.1-.4,1.7-.4s1.6.2,2,.6c.4.4.6,1,.6,1.6v.2h-3,0ZM64,11.1c-.2.3-.4.6-.6.9-.3.3-.5.5-.9.7-.3.2-.6.3-1,.4-.3.1-.7.1-1.1.1-.7,0-1.2-.1-1.5-.4-.3-.2-.5-.6-.5-1s.2-.9.6-1.2c.4-.3,1.1-.4,2-.4h2.9v.8h0Z"/>
  <path d="M74.9,7c.4.5.7,1.2.7,2.1v5.7h2v-5.9c0-.7,0-1.3-.3-1.9-.2-.6-.5-1-.8-1.4-.4-.4-.8-.7-1.3-.9-.5-.2-1.1-.3-1.7-.3s-1.3.1-1.9.4c-.5.3-1,.7-1.3,1.2v-1.6l-2,.9v9.4h2v-5.6c0-.4,0-.9.2-1.2s.3-.7.6-.9c.2-.3.5-.5.9-.6.3-.1.7-.2,1.1-.2.8,0,1.5.3,1.9.8h0Z"/>
  <path d="M87.8,11c-.3.6-.6,1.1-1.1,1.5-.5.4-1.1.6-1.8.6s-.9,0-1.3-.3c-.4-.2-.8-.4-1.1-.7-.3-.3-.5-.7-.7-1.1-.2-.4-.3-.8-.3-1.3s0-.9.3-1.3c.2-.4.4-.8.7-1.1.3-.3.6-.5,1-.7.4-.2.8-.3,1.3-.3.7,0,1.3.2,1.8.5.5.3.9.8,1.2,1.5l1.8-.8c-.2-.4-.4-.9-.8-1.2-.3-.4-.7-.7-1.1-1-.4-.3-.9-.5-1.4-.6-.5-.1-1-.2-1.6-.2s-1.4.1-2.1.4c-.6.3-1.2.6-1.7,1.1-.5.5-.8,1-1.1,1.7-.3.6-.4,1.3-.4,2.1s.1,1.4.4,2.1c.3.6.6,1.2,1.1,1.7.5.5,1,.8,1.7,1.1.6.3,1.3.4,2.1.4,1.2,0,2.2-.3,3-.9.8-.6,1.4-1.4,1.8-2.3l-1.8-.8h0Z"/>
  <path d="M98.1,7c.4.5.6,1.2.6,2.1v5.7h2.1v-5.9c0-.7,0-1.3-.3-1.9-.2-.6-.5-1-.8-1.4-.4-.4-.8-.7-1.3-.9-.5-.2-1.1-.3-1.7-.3s-1.3.1-1.8.4c-.5.3-1,.7-1.4,1.1V0l-2,.9v13.9h2v-5.6c0-.4,0-.9.2-1.2.1-.4.3-.7.6-.9.2-.3.5-.5.9-.6.3-.1.7-.2,1.1-.2.9,0,1.5.3,1.9.8h0Z"/>
  <path d="M111.7,6c-.5-.5-1-.8-1.7-1.1-.6-.3-1.3-.4-2.1-.4s-1.4.1-2.1.4-1.2.6-1.7,1.1c-.5.5-.8,1-1.1,1.7-.3.6-.4,1.3-.4,2.1s.1,1.4.4,2.1c.3.6.6,1.2,1.1,1.7.5.5,1,.8,1.7,1.1.6.3,1.3.4,2.1.4s1.4-.1,2.1-.4c.6-.3,1.2-.6,1.7-1.1.5-.5.8-1,1.1-1.7.3-.6.4-1.3.4-2.1s-.1-1.4-.4-2.1c-.3-.6-.6-1.2-1.1-1.7h0ZM111,11c-.2.4-.4.8-.7,1.1-.3.3-.6.5-1,.7-.4.2-.8.3-1.3.3s-.9,0-1.3-.3c-.4-.2-.7-.4-1-.7-.3-.3-.5-.7-.7-1.1-.2-.4-.2-.8-.2-1.3s0-.9.2-1.3c.2-.4.4-.8.7-1.1.3-.3.6-.5,1-.7.4-.2.8-.3,1.3-.3s.9,0,1.3.3c.4.2.7.4,1,.7.3.3.5.7.7,1.1.2.4.3.8.3,1.3s0,.9-.3,1.3h0Z"/>
  <path d="M119.9,4.5c-.6,0-1.2.2-1.7.5-.5.3-.8.8-1,1.4v-1.9l-2,.9v9.4h2v-5.7c0-.9.2-1.6.6-1.9.4-.4,1-.6,1.7-.6s1,.1,1.3.3l.8-1.9c-.2-.1-.4-.2-.7-.3s-.6-.1-1-.1h0Z"/>
  <path d="M130.6,5.5c-.4-.4-.9-.6-1.4-.8-.6-.2-1.2-.3-1.9-.3-1.1,0-2,.2-2.8.7-.8.4-1.4,1-1.9,1.6l1.8,1c.3-.5.7-.9,1.2-1.2.5-.3,1.1-.4,1.7-.4s1.6.2,2,.6c.4.4.6,1,.6,1.6v.2h-3c-1.4,0-2.5.3-3.3.9-.8.6-1.2,1.4-1.2,2.5s0,.8.2,1.2c.2.4.4.7.7,1,.3.3.7.5,1.1.6.4.1,1,.2,1.5.2.8,0,1.6-.2,2.3-.5.7-.4,1.2-.8,1.6-1.4v1.8h1.9v-6.3c0-.6-.1-1.2-.3-1.7-.2-.5-.5-.9-.9-1.3h0ZM129.9,11.1c-.2.3-.4.6-.6.9-.3.3-.5.5-.9.7-.3.2-.6.3-1,.4-.3.1-.7.1-1.1.1-.7,0-1.2-.1-1.5-.4-.3-.2-.5-.6-.5-1s.2-.9.6-1.2c.4-.3,1.1-.4,2-.4h2.9v.8h0Z"/>
  <path d="M142.3,6.1c-.4-.5-.9-.9-1.5-1.2-.6-.3-1.3-.4-1.9-.4s-1.3.1-1.9.4-1.2.6-1.6,1.1c-.5.5-.8,1-1.1,1.7-.3.6-.4,1.4-.4,2.2s.1,1.5.4,2.2c.3.6.7,1.2,1.1,1.7.5.5,1,.8,1.6,1.1.6.3,1.2.4,1.9.4s1.3-.2,2-.5c.6-.3,1.1-.7,1.5-1.3v.8c0,.5,0,.9-.2,1.3-.2.4-.4.7-.7,1-.3.3-.6.5-1,.6-.4.1-.8.2-1.3.2-.8,0-1.5-.1-2-.4-.5-.3-1-.7-1.4-1.2l-1.6,1.3c.5.7,1.2,1.2,2,1.6.8.4,1.8.5,3,.5s1.4-.1,2-.4c.6-.2,1.2-.6,1.6-1,.5-.4.8-1,1.1-1.6.3-.6.4-1.3.4-2.1V4.6h-2v1.5h0ZM142.1,11c-.2.4-.4.8-.7,1.1-.3.3-.6.5-1,.7-.4.2-.8.3-1.3.3s-.9,0-1.3-.3c-.4-.2-.8-.4-1.1-.7-.3-.3-.5-.7-.7-1.1-.2-.4-.3-.9-.3-1.3s0-.9.3-1.3c.2-.4.4-.8.7-1.1.3-.3.7-.5,1.1-.7.4-.2.8-.3,1.3-.3s.9,0,1.3.3c.4.2.8.4,1,.7.3.3.5.7.7,1.1.2.4.3.9.3,1.3s0,.9-.3,1.3Z"/>
  <path d="M156.7,9.6c0-.7-.1-1.4-.4-2.1-.3-.6-.6-1.2-1.1-1.6-.5-.5-1-.8-1.6-1.1-.6-.3-1.3-.4-2.1-.4s-1.4.1-2.1.4c-.6.3-1.2.6-1.7,1.1-.5.5-.8,1-1.1,1.7-.3.6-.4,1.3-.4,2.1s.1,1.4.4,2.1c.3.6.6,1.2,1.1,1.7.5.5,1,.8,1.7,1.1.7.3,1.4.4,2.2.4s2-.2,2.8-.7c.8-.4,1.4-1,1.9-1.8l-1.7-1c-.3.5-.7.9-1.2,1.2-.5.3-1.1.4-1.8.4s-1.7-.2-2.3-.7c-.6-.5-1-1.2-1.1-2h8.5v-.8h0ZM148.3,8.7c.2-.7.6-1.3,1.2-1.8.6-.5,1.3-.7,2.1-.7s1.5.2,2.1.7c.6.4.9,1.1,1.1,1.9h-6.4Z"/>
  <path d="M64,23.1c-.4-.5-.9-.9-1.5-1.2-.6-.3-1.3-.4-1.9-.4s-1.3.1-1.9.4-1.2.6-1.6,1.1c-.5.5-.8,1-1.1,1.7-.3.6-.4,1.4-.4,2.2s.1,1.5.4,2.2c.3.6.7,1.2,1.1,1.7.5.5,1,.8,1.6,1.1.6.3,1.2.4,1.9.4s1.3-.1,1.9-.4,1.1-.7,1.5-1.2v1.5h2v-14.7l-2,.9v5.2h0ZM63.8,28c-.2.4-.4.8-.7,1.1-.3.3-.6.5-1,.7-.4.2-.8.3-1.3.3s-.9,0-1.3-.3c-.4-.2-.8-.4-1.1-.7-.3-.3-.5-.7-.7-1.1-.2-.4-.3-.9-.3-1.3s0-.9.3-1.3c.2-.4.4-.8.7-1.1.3-.3.7-.5,1.1-.7.4-.2.8-.3,1.3-.3s.9,0,1.3.3c.4.2.8.4,1,.7.3.3.5.7.7,1.1.2.4.3.9.3,1.3s0,.9-.3,1.3Z"/>
  <path d="M69.3,17.4c-.4,0-.7.1-.9.4-.2.2-.4.6-.4.9s.1.7.4.9c.2.2.5.4.9.4s.7-.1.9-.4c.2-.2.4-.6.4-.9s-.1-.7-.4-.9c-.2-.2-.5-.4-.9-.4h0Z"/>
  <path d="M86.1,17.4c-.4,0-.7.1-.9.4-.2.2-.4.6-.4.9s.1.7.4.9c.2.2.5.4.9.4s.7-.1.9-.4c.2-.2.4-.6.4-.9s-.1-.7-.4-.9c-.2-.2-.6-.4-.9-.4h0Z"/>
  <path d="M70.3,21.7h-2v10.1h2v-10.1Z"/>
  <path d="M80.7,23.1c-.4-.5-.9-.9-1.5-1.2-.6-.3-1.3-.4-1.9-.4s-1.3.1-1.9.4c-.6.3-1.2.6-1.6,1.1-.5.5-.8,1-1.1,1.7-.3.6-.4,1.4-.4,2.2s.1,1.5.4,2.2c.3.6.7,1.2,1.1,1.7.5.5,1,.8,1.6,1.1.6.3,1.2.4,1.9.4s1.3-.2,2-.5c.6-.3,1.1-.7,1.5-1.3v.8c0,.5,0,.9-.2,1.3-.2.4-.4.7-.7,1-.3.3-.6.5-1,.6-.4.1-.8.2-1.3.2-.8,0-1.5-.1-2-.4-.5-.3-1-.7-1.4-1.2l-1.6,1.3c.5.7,1.2,1.2,2,1.6.8.4,1.8.5,3,.5s1.4-.1,2-.4c.6-.2,1.2-.6,1.6-1,.5-.4.8-1,1.1-1.6.3-.6.4-1.3.4-2.1v-9.3h-2v1.5h0ZM80.6,28c-.2.4-.4.8-.7,1.1-.3.3-.6.5-1,.7-.4.2-.8.3-1.3.3s-.9,0-1.3-.3c-.4-.2-.8-.4-1.1-.7-.3-.3-.5-.7-.7-1.1-.2-.4-.3-.9-.3-1.3s0-.9.3-1.3c.2-.4.4-.8.7-1.1.3-.3.7-.5,1.1-.7.4-.2.8-.3,1.3-.3s.9,0,1.3.3c.4.2.8.4,1,.7.3.3.5.7.7,1.1.2.4.3.9.3,1.3s0,.9-.3,1.3Z"/>
  <path d="M87.1,21.7h-2v10.1h2v-10.1Z"/>
  <path d="M94,30c-.4,0-.7-.1-1-.4-.2-.3-.4-.7-.4-1.2v-5h2.8v-1.8h-2.8v-3.5l-2,.9v2.6h-2v1.8h2v5c0,1.2.3,2.1.8,2.7.5.5,1.3.8,2.3.8s.8,0,1.2-.2c.4-.1.7-.3,1-.5l-1-1.7c-.3.3-.6.4-1,.4h0Z"/>
  <path d="M105.2,22.6c-.4-.4-.9-.6-1.4-.8-.6-.2-1.2-.3-1.9-.3-1.1,0-2,.2-2.8.7-.8.4-1.4,1-1.9,1.6l1.8,1c.3-.5.7-.9,1.2-1.2.5-.3,1.1-.4,1.7-.4s1.6.2,2,.6c.4.4.6,1,.6,1.6v.2h-3c-1.4,0-2.5.3-3.3.9-.8.6-1.2,1.4-1.2,2.5s0,.8.2,1.2c.2.4.4.7.7,1,.3.3.7.5,1.1.6.4.1,1,.2,1.5.2.8,0,1.6-.2,2.3-.5.7-.4,1.2-.8,1.6-1.4v1.8h1.9v-6.3c0-.6,0-1.2-.3-1.7-.2-.5-.5-.9-.9-1.3h0ZM104.5,28.1c-.2.3-.4.6-.6.9-.3.3-.5.5-.9.7-.3.2-.6.3-1,.4-.3.1-.7.1-1.1.1-.7,0-1.2-.1-1.5-.4-.3-.2-.5-.6-.5-1s.2-.9.6-1.2c.4-.3,1.1-.4,2-.4h2.9v.8h0Z"/>
  <path d="M108.7,31.8h2v-14.7l-2,.9v13.9Z"/>
</svg>