<?xml version="1.0" encoding="UTF-8"?>
<svg id="Ebene_1" xmlns="http://www.w3.org/2000/svg" xmlns:xlink="http://www.w3.org/1999/xlink" version="1.1" viewBox="0 0 284 98">
  <!-- Generator: Adobe Illustrator 29.8.2, SVG Export Plug-In . SVG Version: 2.1.1 Build 3)  -->
  <defs>
    <style>
      .st0 {
        fill: url(#Unbenannter_Verlauf);
      }

      .st1 {
        fill: url(#Unbenannter_Verlauf_2);
      }

      .st2 {
        fill: url(#Unbenannter_Verlauf_3);
      }

      .st3 {
        fill: #fff;
      }
    </style>
    <linearGradient id="Unbenannter_Verlauf" data-name="Unbenannter Verlauf" x1="39.3" y1="3.7" x2="58" y2="92.2" gradientTransform="translate(0 97.9) scale(1 -1)" gradientUnits="userSpaceOnUse">
      <stop offset="0" stop-color="#842c00"/>
      <stop offset=".1" stop-color="#842c00"/>
      <stop offset=".6" stop-color="#fc5a00"/>
      <stop offset="1" stop-color="#f7941d"/>
      <stop offset="1" stop-color="#f7941d"/>
    </linearGradient>
    <linearGradient id="Unbenannter_Verlauf_2" data-name="Unbenannter Verlauf 2" x1="46.5" y1="18.9" x2="59.8" y2="81.7" gradientTransform="translate(0 97.9) scale(1 -1)" gradientUnits="userSpaceOnUse">
      <stop offset="0" stop-color="#842c00"/>
      <stop offset=".1" stop-color="#842c00"/>
      <stop offset=".6" stop-color="#fc5a00"/>
      <stop offset="1" stop-color="#f7941d"/>
      <stop offset="1" stop-color="#f7941d"/>
    </linearGradient>
    <linearGradient id="Unbenannter_Verlauf_3" data-name="Unbenannter Verlauf 3" x1="62.3" y1="23" x2="77.5" y2="48.3" gradientTransform="translate(0 97.9) scale(1 -1)" gradientUnits="userSpaceOnUse">
      <stop offset="0" stop-color="#842c00"/>
      <stop offset=".1" stop-color="#842c00"/>
      <stop offset=".6" stop-color="#fc5a00"/>
      <stop offset="1" stop-color="#f7941d"/>
      <stop offset="1" stop-color="#f7941d"/>
    </linearGradient>
  </defs>
  <path class="st0" d="M0,48.6c0,26.8,21.9,48.6,48.9,48.6s48.9-21.8,48.9-48.6S75.9,0,48.9,0,0,21.8,0,48.6ZM3.1,48.6C3.1,23.5,23.7,3.1,48.9,3.1s45.8,20.4,45.8,45.5-20.5,45.5-45.8,45.5S3.1,73.7,3.1,48.6Z"/>
  <path class="st1" d="M46.1,14.3c-2.2.5-4.1,1.9-5.5,3.7-.1.1-.2.3-.3.4,0,0-.1.2-.2.2l-1.3,2.3-.2.4-1.6,2.7-.2.3-4,7v.2c-.1,0-1.6,2.6-1.6,2.6l-.2.3-1.5,2.5-.2.4-5.1,8.8-.2.3-1.2,2.1v.3c-.1,0-2.4,4-2.4,4l-1.1,1.9-1.2,2.1-.2.3-3.3,5.6-.3.6-.4.7-.2.4-1,1.8c0,0,0,.2-.1.2,0,0,0,0,0,0-.2.5-.4,1-.4,1.5-.2,2.1,1.3,4.1,3.6,4.5,0,0,.2,0,.3,0,.1,0,.2,0,.3,0h4.4v-.2c.1,0,.3-.2.3-.2l2.7-3.9.2-.2,2.4-3.4v-.2c.1,0,1.4-1.8,1.4-1.8l.2-.2.7-1.1c1-1.4,2.5-2.1,4.1-2,0,0,.2,0,.3,0,.6,0,1.2.2,1.8.5,0,0,.2,0,.2.1,0,0,.2.1.2.2,1.3.9,2,2.4,2,3.9h0c0,.1,0,.3,0,.4,0,.8-.3,1.6-.8,2.3l-2,2.8v.2c-.1,0-1.2,1.4-1.2,1.4l-.2.3-.3.4-.4.5-.2.3h6.3c.1,0,.2,0,.3,0,2.2-.1,4.3-1.2,5.6-3l3.7-5.2,2.4-3.5,4.1-5.8c.2-.3.5-.6.9-.9.2-.1.4-.2.5-.3.1,0,.2-.1.3-.2h0c0,0,.1,0,.2,0,.1,0,.2,0,.3,0,0,0,.2,0,.3,0,0,0,0,0,0,0,0,0,.2,0,.3,0h0c.1,0,.2,0,.3,0,.8,0,1.6.3,2.3.8,0,0,.2.1.3.2,0,0,.1.1.2.2,0,0,.2.2.3.3,0,0,.1.2.2.3.1.2.3.4.4.6,0,0,0,.1,0,.2,0,0,0,.1,0,.2,0,.1,0,.3.1.4,0,.1,0,.3,0,.4,0,.6,0,1.1-.3,1.7-.1.3-.3.5-.4.8h-.1v.2l-1.8,2.5-2.2,3.2-.8,1.2c-.2.3-.3.5-.4.8,0,.2-.1.4-.2.5,0,0,0,.2,0,.3,0,.2,0,.5,0,.7,0,0,0,.1,0,.2,0,.2,0,.4,0,.5,0,0,0,.1,0,.1,0,.2.2.5.3.7,0,0,0,0,0,.1,0,.1.1.2.2.3,0,0,0,0,0,0,0,0,.1.2.2.2,0,0,0,0,.1.1,0,0,.1.1.2.2,0,0,0,0,0,0,0,0,.2.1.2.2,0,0,0,0,0,0,0,0,0,0,.1.1,0,0,0,0,.1,0,0,0,.2.1.3.1,0,0,.2,0,.2.1,0,0,0,0,0,0,0,0,.2,0,.3.1.2,0,.3.1.5.1,0,0,.1,0,.2,0,.1,0,.2,0,.3,0,0,0,.2,0,.3,0h21.7c.3,0,.6,0,.9,0,0,0,.1,0,.2,0,.2,0,.4-.1.6-.2,0,0,.2,0,.2-.1,0,0,.1,0,.2-.1,0,0,0,0,0,0,.2,0,.3-.2.5-.3,0,0,0,0,0,0,0,0,.1-.1.2-.2,0,0,.2-.2.2-.2,0,0,.1-.1.2-.2,0-.1.2-.2.3-.4,0,0,0-.1,0-.2,0-.1.1-.3.2-.4,0,0,0-.1,0-.2,0-.1.1-.3.2-.4,0,0,0-.1,0-.2,0,0,0-.1,0-.2,0,0,0,0,0,0h0c0-.1,0-.2,0-.3,0,0,0-.2,0-.3,0-.8-.2-1.6-.6-2.3l-5-8.4-.2-.3-.6-1-1-1.7h0s0,0,0,0v-.2c-.1,0-4.2-6.9-4.2-6.9l-.2-.3v-.2c-.1,0-2.6-4.2-2.6-4.2v-.2c-.1,0-.8-1.1-.8-1.1l-.3-.4-.3-.5-1.7-2.8-.4-.7-.3-.5-6.8-11.4v-.2c-.1,0-2.4-3.8-2.4-3.8v-.2c-.1,0-1.4-2.1-1.4-2.1-.2-.3-.4-.6-.6-.9-.1-.1-.2-.3-.3-.4,0,0,0,0,0-.1,0,0-.2-.2-.3-.3-.6-.6-1.3-1.2-2-1.6,0,0,0,0-.1,0-.2-.1-.4-.2-.6-.3-.7-.3-1.5-.6-2.3-.8-.6-.1-1.2-.2-1.8-.2s-1.6,0-2.3.3Z"/>
  <path class="st2" d="M58.3,48.7c0,0-.1.2-.2.2-1.3,1.7-2,3.6-2.3,4.5,0,0,0,.2,0,.2,0,.3-.1.5-.1.5.2-.1.4-.2.5-.3.1,0,.2-.1.3-.2h0c0,0,.1,0,.2,0,.1,0,.2,0,.3,0,0,0,.2,0,.3,0,0,0,0,0,0,0,0,0,.2,0,.3,0h0c.1,0,.2,0,.3,0,.8,0,1.6.3,2.3.8,0,0,.2.1.3.2,0,0,.1.1.2.2,0,0,.2.2.3.3,0,0,.1.2.2.3.1.2.3.4.4.6,0,0,0,.1,0,.2,0,0,0,.1,0,.2,0,.1,0,.3.1.4,0,.1,0,.3,0,.4,0,.6,0,1.1-.3,1.7-.1.3-.3.5-.4.8h-.1v.2l-1.8,2.5-2.2,3.2-.8,1.2c-.2.3-.3.5-.4.8,0,.2-.1.4-.2.5,0,0,0,.2,0,.3,0,.2,0,.5,0,.7,0,0,0,.1,0,.2,0,.2,0,.4,0,.5,0,0,0,.1,0,.1,0,.2.2.5.3.7,0,0,0,0,0,.1h0c0,.1.1.2.2.3,0,0,0,0,0,0,0,0,.1.2.2.2,0,0,0,0,.1.1,0,0,.1.1.2.2,0,0,0,0,0,0,0,0,.2.1.2.2,0,0,0,0,0,0,0,0,0,0,.1.1,0,0,0,0,.1,0,0,0,.2.1.3.1,0,0,.2,0,.2.1,0,0,0,0,0,0,0,0,.2,0,.3.1.2,0,.3.1.5.1,0,0,.1,0,.2,0,.1,0,.2,0,.3,0,0,0,.2,0,.3,0h21.7c.3,0,.6,0,.9,0,0,0,.1,0,.2,0,.2,0,.4-.1.6-.2,0,0,.2,0,.2-.1,0,0,.1,0,.2-.1h0c.2-.1.3-.2.5-.4,0,0,0,0,0,0,0,0,.1-.1.2-.2,0,0,.2-.2.2-.2,0,0,.1-.1.2-.2,0-.1.2-.2.3-.4,0,0,0-.1,0-.2,0-.1.1-.3.2-.4,0,0,0-.1,0-.2,0-.1.1-.3.2-.4,0,0,0-.1,0-.2,0,0,0-.1,0-.2,0,0,0,0,0-.1h0c0,0,0-.2,0-.3,0,0,0-.2,0-.3,0-.8-.2-1.6-.6-2.3l-5-8.4-.2-.3-.6-1-1-1.7h0s0,0,0,0v-.2c-.1,0-4.2-6.9-4.2-6.9-.1,0-.2-.1-.3-.2,0,0-.2,0-.2-.1-1.8-1.1-4.1-2-6.9-2.1,0,0-.2,0-.3,0-.2,0-.4,0-.6,0-3.3,0-5.5,1.8-7.1,3.8Z"/>
  <path class="st3" d="M37.3,63.9c0,.9-.3,1.9-.8,2.7l-4.1,5.9h-11.6l7.9-11.3c1.5-2.1,4.5-2.7,6.6-1.2,1.3.9,2,2.4,2,3.9Z"/>
  <path d="M33.7,64.5c0,1-.8,1.8-1.8,1.8s-1.8-.8-1.8-1.8.8-1.8,1.8-1.8,1.8.8,1.8,1.8Z"/>
  <path d="M137.4,35l-7.5,16.7h14.9l-7.5-16.7ZM147,56.7h-19.1l-3.3,7.4h-6l15.8-35.1h6.1l15.8,35.1h-6l-3.4-7.4Z"/>
  <path d="M175.9,45.5c-1.7-1.5-3.9-2.3-6.7-2.3s-2.8.3-3.7.8c-.9.5-1.4,1.2-1.4,2.2,0,1,.5,1.7,1.4,2.2.9.5,2.2.8,4,1,1.1.1,2.1.2,2.9.4.8.1,1.7.4,2.8.7,1,.4,1.9.8,2.5,1.3.7.5,1.2,1.2,1.7,2.2.5.9.7,2,.7,3.2,0,2.3-1,4.2-2.9,5.6-1.9,1.5-4.5,2.2-7.7,2.2-4.8,0-8.6-1.5-11.3-4.6l2.7-3.7c2.2,2.4,5.1,3.6,8.7,3.7,1.4,0,2.6-.3,3.7-.8s1.6-1.4,1.6-2.5-.5-1.8-1.4-2.3c-1-.5-2.4-.9-4.3-1.1-6.8-.6-10.1-3-10.1-7.4s1-4.4,3.1-5.6c2.1-1.2,4.5-1.9,7.2-1.9,3.8,0,7,1.1,9.6,3.3l-2.9,3.4Z"/>
  <path d="M190.3,64.1h-5.2v-24.8h5.2v24.8ZM185.5,34.5c-.6-.6-1-1.4-1-2.4s.3-1.8,1-2.3c.6-.6,1.4-.8,2.3-.8s1.6.3,2.3.8c.6.6,1,1.3,1,2.3s-.3,1.8-1,2.4c-.6.6-1.4.9-2.3.9s-1.6-.3-2.3-.9Z"/>
  <path d="M209.3,43.7c-2.3,0-4.2.7-5.8,2-1.6,1.3-2.4,3.2-2.4,5.6s.8,4.2,2.3,5.6c1.6,1.3,3.5,2,5.9,2s4.2-.7,5.8-2.1c1.5-1.4,2.3-3.2,2.3-5.4s-.8-4.2-2.3-5.6c-1.6-1.4-3.5-2.1-5.7-2.1ZM218.7,37.3l3.8,2.9-3,3.5c2,2.3,3,4.9,3,7.7,0,4.7-2.2,7.9-6.6,9.6,4.4,1.5,6.5,4.2,6.5,8.1s-1.3,5.6-4,7.4c-2.6,1.8-5.8,2.7-9.3,2.7s-7.3-1-9.7-2.9c-2.4-2-3.5-4.6-3.4-8h5.2c0,1.8.7,3.2,2.3,4.3,1.6,1.1,3.5,1.6,5.6,1.6s4-.4,5.5-1.3c1.6-.9,2.4-2.1,2.4-3.7s-.7-3-2.1-4c-1.4-.9-3.3-1.4-5.7-1.4-4.1,0-7.3-1.1-9.8-3.3-2.5-2.2-3.7-5.2-3.7-9s1.3-7,4-9.1c2.7-2.2,5.8-3.3,9.4-3.3s5.1.6,6.7,1.7l2.7-3.3Z"/>
  <path d="M247.1,64.1v-13.2c0-2.2-.6-3.9-1.8-5.2-1.2-1.3-2.8-2-4.9-2s-3.7.7-5,2.2c-1.3,1.5-1.9,3.2-1.9,5.3v12.9h-5.2v-24.7h4.7l.3,3.6c2.4-2.7,5.1-4.1,8.4-4.1s5.7,1.1,7.7,3.2c2,2.1,3,5,3,8.8v13.3h-5.2Z"/>
  <path d="M270.8,43.6c-2.3,0-4.2.8-5.7,2.3-1.5,1.5-2.3,3.5-2.3,5.9s.8,4.5,2.3,6c1.5,1.5,3.5,2.3,5.7,2.3s4.5-.8,5.9-2.4c1.4-1.6,2.1-3.5,2.1-5.8s-.7-4.1-2.1-5.7c-1.4-1.6-3.4-2.4-5.9-2.4ZM279,39.4h5v24.7h-4.9l-.3-4c-.7,1.5-1.9,2.7-3.6,3.5-1.6.8-3.3,1.2-5,1.2-3.8,0-6.8-1.1-9.2-3.4-2.4-2.3-3.5-5.5-3.5-9.6s1.2-7.2,3.7-9.4c2.4-2.3,5.5-3.4,9.2-3.4s3.5.4,5,1.2c1.5.8,2.7,1.9,3.5,3.3l.2-3.9Z"/>
</svg>