<?xml version="1.0" encoding="UTF-8"?>
<svg id="Ebene_1" xmlns="http://www.w3.org/2000/svg" version="1.1" viewBox="0 0 175 28">
  <!-- Generator: Adobe Illustrator 29.8.2, SVG Export Plug-In . SVG Version: 2.1.1 Build 3)  -->
  <defs>
    <style>
      .st0 {
        fill: #7994ff;
      }

      .st1 {
        fill: #5cd1fa;
      }

      .st2 {
        fill: #486dff;
      }
    </style>
  </defs>
  <path d="M56.8,5.5V1.4h-13.9v21.9h4.6v-8.5h9v-4.1h-9v-5.2h9.3Z"/>
  <path d="M72,23.8c7,0,12.6-5,12.6-11.4S78.9.9,72,.9s-12.5,5-12.5,11.4,5.6,11.4,12.5,11.4ZM72,19.5c-4.4,0-7.8-3-7.8-7.2s3.4-7.2,7.8-7.2,7.8,3,7.8,7.2-3.4,7.2-7.8,7.2Z"/>
  <path d="M101,23.3h5l-5.2-8.3c2.7-1.2,4.5-3.6,4.5-6.4,0-4-3.5-7.3-7.8-7.3h-9.4v21.9h4.6v-7.6h3.5l4.7,7.6ZM92.7,5.4h4.8c1.7,0,3.2,1.4,3.2,3.2s-1.4,3.3-3.2,3.3h-4.8v-6.5Z"/>
  <path d="M118.7,1.4h-9.5v21.9h9.5c6.6,0,11.5-4.8,11.5-11s-4.9-11-11.5-11ZM118.7,19.2h-4.8V5.5h4.8c4.1,0,7,2.8,7,6.8s-2.9,6.8-7,6.8Z"/>
  <path d="M138.5,19.2v-4.9h9v-4.1h-9v-4.7h9.9V1.4h-14.6v21.9h14.8v-4.1h-10.1Z"/>
  <path d="M166.5,5.5V1.4h-14.3v21.9h4.7v-8.5h9.3v-4.1h-9.3v-5.2h9.6Z"/>
  <path d="M170.5,1.4v21.9h4.5V1.4h-4.5Z"/>
  <path class="st0" d="M14.3,19.7H0v3.5c0,2.5,2,4.5,4.5,4.5h5.8l4-8.1Z"/>
  <path class="st2" d="M0,10.3h27.3l-3.2,6.7H0v-6.7Z"/>
  <path class="st1" d="M9.6,0H0v7.6h32.7S32.7,0,32.7,0h-9.6v5.7h-2V0h-9.6v5.7h-2V0Z"/>
</svg>