<svg width="216" height="96" viewBox="0 0 216 96" fill="none" xmlns="http://www.w3.org/2000/svg">
<mask id="mask0_393_205" style="mask-type:luminance" maskUnits="userSpaceOnUse" x="6" y="26" width="205" height="45">
<path d="M210.286 26H6V71H210.286V26Z" fill="white"/>
</mask>
<g mask="url(#mask0_393_205)">
<path d="M72.894 58.5146H75.9963L80.3183 43.7052L84.6402 58.5146H87.716L93.231 39.4584H90.0228L86.1516 54.1317L82.0418 39.4584H78.5683L74.4849 54.1317L70.5872 39.4584H67.3789L72.894 58.5146ZM98.7315 58.7868C100.773 58.7868 102.205 58.0518 102.974 56.8812C103.054 57.6162 103.213 58.1607 103.451 58.5146H106.129C105.838 57.7796 105.705 56.8812 105.705 55.7923V48.5237C105.705 45.5019 103.716 43.8685 100.19 43.8685C97.6179 43.8685 95.5497 44.9574 94.4626 46.5092L96.2391 48.2242C97.1672 46.9992 98.4133 46.373 100.031 46.373C101.966 46.373 102.947 47.0264 102.947 48.197C102.947 49.422 101.966 50.0209 99.2883 50.0209C97.7504 50.0209 96.4513 50.3749 95.4172 51.0826C94.383 51.8177 93.8528 52.9066 93.8528 54.3767C93.8528 57.1807 95.8414 58.7868 98.7315 58.7868ZM99.1823 56.4185C97.6179 56.4185 96.6898 55.629 96.6898 54.3222C96.6898 52.9883 97.6974 52.226 99.4209 52.226C101.569 52.226 102.444 52.0355 102.947 51.4094V52.9339C102.947 55.0028 101.542 56.4185 99.1823 56.4185ZM114.464 58.7868C118.096 58.7868 120.271 56.7996 120.271 54.3222C120.271 51.8994 118.786 50.7015 115.683 50.1299C113.032 49.667 111.866 49.1225 111.866 48.0064C111.866 46.9992 112.926 46.3458 114.543 46.3458C115.948 46.3458 117.089 46.8358 117.911 47.843L119.793 46.1824C118.627 44.7396 116.797 43.8685 114.49 43.8685C111.468 43.8685 109.134 45.5836 109.134 48.0337C109.134 50.3204 110.698 51.736 113.853 52.2805C116.426 52.7161 117.433 53.2061 117.433 54.3222C117.433 55.4384 116.346 56.2551 114.517 56.2551C112.846 56.2551 111.627 55.5745 110.911 54.1861L108.445 55.4384C108.869 56.4457 109.665 57.2351 110.805 57.8613C111.945 58.4874 113.165 58.7868 114.464 58.7868ZM127.447 58.7868C129.489 58.7868 130.921 58.0518 131.69 56.8812C131.77 57.6162 131.929 58.1607 132.168 58.5146H134.845C134.554 57.7796 134.421 56.8812 134.421 55.7923V48.5237C134.421 45.5019 132.432 43.8685 128.906 43.8685C126.334 43.8685 124.266 44.9574 123.179 46.5092L124.956 48.2242C125.883 46.9992 127.129 46.373 128.746 46.373C130.682 46.373 131.664 47.0264 131.664 48.197C131.664 49.422 130.682 50.0209 128.005 50.0209C126.467 50.0209 125.168 50.3749 124.133 51.0826C123.099 51.8177 122.569 52.9066 122.569 54.3767C122.569 57.1807 124.558 58.7868 127.447 58.7868ZM127.898 56.4185C126.334 56.4185 125.406 55.629 125.406 54.3222C125.406 52.9883 126.414 52.226 128.137 52.226C130.285 52.226 131.16 52.0355 131.664 51.4094V52.9339C131.664 55.0028 130.259 56.4185 127.898 56.4185ZM145.599 43.8685C143.611 43.8685 141.94 44.7396 141.013 45.9102V39.1861H138.149V58.5146H140.721L141.251 57.1262C142.232 58.1879 143.69 58.7868 145.387 58.7868C149.497 58.7868 152.176 55.6834 152.176 51.3005C152.176 46.9175 149.524 43.8685 145.599 43.8685ZM145.123 56.2551C142.497 56.2551 140.8 54.0227 140.8 51.3005C140.8 48.5781 142.497 46.4003 145.123 46.4003C146.422 46.4003 147.456 46.863 148.198 47.7887C148.94 48.7414 149.312 49.912 149.312 51.3005C149.312 52.7161 148.94 53.8866 148.198 54.8395C147.456 55.7923 146.422 56.2551 145.123 56.2551ZM155.421 58.5146H158.284V44.1407H155.421V58.5146ZM155.315 42.0717H158.417V38.8594H155.315V42.0717Z" fill="black"/>
<path d="M210.256 56.1309V58.4496H198.211V56.4703L204.487 48.4683C204.79 48.0913 205.091 47.7049 205.393 47.309C205.713 46.9132 206.033 46.5267 206.354 46.1497C205.845 46.1686 205.336 46.1779 204.827 46.1779C204.318 46.1779 203.809 46.1779 203.3 46.1779H198.436V43.8594H209.917V45.8387L203.64 53.8406C203.337 54.2176 203.027 54.6041 202.706 54.9999C202.405 55.3958 202.094 55.7822 201.773 56.1593C202.282 56.1404 202.792 56.1309 203.3 56.1309C203.809 56.1309 204.318 56.1309 204.827 56.1309H210.256Z" fill="black"/>
<path d="M196.535 43.8594L190.597 60.2874C190.352 61.0226 190.06 61.6258 189.721 62.0971C189.4 62.5872 189.024 62.9737 188.59 63.2564C188.156 63.5579 187.656 63.7653 187.091 63.8785C186.544 64.0104 185.912 64.0764 185.197 64.0764C184.913 64.0764 184.659 64.0669 184.433 64.048C184.207 64.048 183.972 64.0293 183.727 63.9915V61.7012H185.14C185.856 61.7012 186.403 61.5504 186.78 61.2489C187.176 60.9472 187.478 60.5137 187.685 59.9482C187.816 59.59 187.949 59.2224 188.081 58.8454L182.68 43.8594H185.762L187.458 48.8642C187.836 50.0328 188.203 51.2016 188.561 52.3703C188.938 53.5202 189.296 54.6795 189.636 55.8481C189.994 54.6795 190.352 53.5202 190.71 52.3703C191.087 51.2016 191.464 50.0328 191.841 48.8642L193.538 43.8594H196.535Z" fill="black"/>
<path d="M181.754 58.4496H178.473L177.795 57.4882L174.628 53.0206C174.119 53.7369 173.591 54.4721 173.045 55.2261C172.498 55.9802 171.961 56.7436 171.433 57.5164L170.755 58.4496H167.531L173.016 50.9565L167.814 43.8594H171.093L172.083 45.2166C172.517 45.8198 172.951 46.4324 173.384 47.0545C173.818 47.6766 174.251 48.2987 174.684 48.9207C175.118 48.2987 175.552 47.6766 175.985 47.0545C176.419 46.4324 176.853 45.8198 177.286 45.2166L178.248 43.8594H181.471L176.268 50.9565L181.754 58.4496Z" fill="black"/>
<path d="M162.121 55.0859H165.543V58.4507H162.121V55.0859Z" fill="black"/>
<path d="M35.7849 51.0256C33.5884 51.0264 31.4305 50.4488 29.5281 49.3508L28.0352 48.4872L29.5281 47.622C31.1273 46.699 32.4554 45.3711 33.3787 43.772C34.3021 42.173 34.7882 40.3589 34.7882 38.5123C34.7882 36.6658 34.3021 34.8519 33.3787 33.2528C32.4554 31.6537 31.1273 30.3259 29.5281 29.4028L28.0352 28.5404L29.5281 27.6764C31.1903 26.7168 33.0509 26.1523 34.9661 26.0268C36.8813 25.9013 38.7996 26.218 40.5728 26.9524C42.3461 27.6869 43.9265 28.8194 45.192 30.2624C46.4575 31.7054 47.3741 33.4202 47.8709 35.274C48.3676 37.128 48.4313 39.0712 48.0569 40.9537C47.6825 42.8361 46.8801 44.6071 45.7118 46.1299C44.5434 47.6525 43.0404 48.8861 41.319 49.735C39.5977 50.584 37.7041 51.0255 35.7849 51.0256ZM32.0218 48.3353C33.6143 48.9447 35.3312 49.1577 37.0243 48.9559C38.7176 48.7542 40.3363 48.1437 41.7411 47.1771C43.1458 46.2105 44.2944 44.9169 45.088 43.4077C45.8816 41.8984 46.2962 40.2188 46.2962 38.5136C46.2962 36.8085 45.8816 35.1289 45.088 33.6196C44.2944 32.1103 43.1458 30.8167 41.7411 29.8501C40.3363 28.8836 38.7176 28.2731 37.0243 28.0713C35.3312 27.8695 33.6143 28.0825 32.0218 28.6919C33.5066 29.8624 34.7067 31.3544 35.5319 33.0556C36.357 34.7568 36.7857 36.6229 36.7857 38.5136C36.7857 40.4044 36.357 42.2705 35.5319 43.9716C34.7067 45.6729 33.5066 47.1648 32.0218 48.3353Z" fill="black"/>
<path d="M24.2703 70.9693C22.3518 70.9682 20.459 70.5258 18.7386 69.6764C17.0182 68.8271 15.5162 67.5935 14.3487 66.0709C13.1812 64.5484 12.3795 62.7778 12.0056 60.8958C11.6316 59.014 11.6955 57.0713 12.1922 55.2182C12.6889 53.3649 13.6052 51.6507 14.8701 50.2082C16.1351 48.7655 17.7148 47.6332 19.4873 46.8987C21.2597 46.1641 23.1774 45.847 25.092 45.9718C27.0066 46.0967 28.8668 46.6603 30.5288 47.6189L32.0218 48.4829L30.5288 49.3477C28.9293 50.2706 27.6011 51.5984 26.6776 53.1975C25.7541 54.7966 25.2679 56.6107 25.2679 58.4574C25.2679 60.3039 25.7541 62.118 26.6776 63.7172C27.6011 65.3162 28.9293 66.644 30.5288 67.5669L32.0218 68.4305L30.5288 69.2945C28.626 70.3927 26.4674 70.9703 24.2703 70.9693ZM24.2703 47.9411C22.7277 47.9417 21.204 48.2818 19.8075 48.9372C18.4109 49.5926 17.1756 50.5472 16.1892 51.7333C15.2028 52.9194 14.4895 54.3081 14.0998 55.8007C13.71 57.2934 13.6535 58.8535 13.9341 60.3704C14.2148 61.8874 14.8258 63.324 15.7237 64.5785C16.6217 65.8329 17.7846 66.8744 19.13 67.6291C20.4756 68.3838 21.9706 68.8333 23.5092 68.9456C25.0478 69.0579 26.5923 68.8303 28.0331 68.279C26.5484 67.1084 25.3484 65.6164 24.5233 63.9152C23.6983 62.2141 23.2696 60.348 23.2696 58.4574C23.2696 56.5666 23.6983 54.7005 24.5233 52.9994C25.3484 51.2982 26.5484 49.8062 28.0331 48.6356C26.8317 48.1764 25.5565 47.941 24.2703 47.9411Z" fill="black"/>
<path d="M29.0287 50.2157V48.4857C29.0283 46.6399 28.5423 44.8267 27.6193 43.2283C26.6963 41.6299 25.369 40.3024 23.7706 39.3794C22.1723 38.4562 20.3592 37.97 18.5134 37.9694C16.6677 37.9689 14.8542 38.454 13.2553 39.376L11.7578 40.2425V38.512C11.759 36.5892 12.2034 34.6923 13.0565 32.969C13.9096 31.2457 15.1484 29.7422 16.6768 28.5752C18.205 27.4083 19.9818 26.6093 21.869 26.2403C23.7561 25.8713 25.703 25.9423 27.5583 26.4477C29.4136 26.9531 31.1275 27.8793 32.5669 29.1545C34.0061 30.4296 35.1322 32.0193 35.8575 33.8002C36.5829 35.5811 36.888 37.5052 36.7491 39.423C36.6103 41.341 36.0313 43.2011 35.0571 44.859C33.9583 46.72 32.3986 48.2664 30.5283 49.3493L29.0287 50.2157ZM18.5126 35.9733C21.5182 35.9736 24.4233 37.0555 26.6972 39.021C28.9709 40.9866 30.4616 43.7047 30.8968 46.6787C32.1128 45.6935 33.0932 44.449 33.7662 43.0361C34.4393 41.6232 34.788 40.0778 34.7869 38.5128C34.7853 35.8678 33.7874 33.3203 31.9917 31.3782C30.1959 29.4361 27.7344 28.2418 25.0975 28.0335C22.4606 27.8251 19.8421 28.6179 17.7636 30.2539C15.6852 31.8899 14.2995 34.249 13.8826 36.861C15.3558 36.2748 16.927 35.9736 18.5126 35.9733Z" fill="black"/>
<path d="M13.753 60.1924L12.2552 59.3263C10.3528 58.2281 8.77321 56.6484 7.67516 54.7461C6.57712 52.8436 5.99936 50.6857 6 48.4891C5.9999 46.0143 6.73365 43.5952 8.10848 41.5375C9.48331 39.4798 11.4375 37.8761 13.7238 36.929C16.0101 35.982 18.5259 35.7342 20.9531 36.217C23.3802 36.6998 25.6097 37.8916 27.3596 39.6415C28.525 40.8008 29.449 42.1795 30.078 43.6983C30.7069 45.217 31.0285 46.8454 31.024 48.4891V50.2191L29.5265 49.3527C27.9277 48.4301 26.1141 47.9447 24.2683 47.9451C22.4223 47.9456 20.609 48.4318 19.0105 49.3549C17.412 50.2781 16.0847 51.6057 15.1618 53.2043C14.239 54.803 13.7531 56.6164 13.753 58.4623V60.1924ZM18.5119 37.9729C16.6591 37.9733 14.8391 38.4632 13.2363 39.393C11.6336 40.3228 10.3049 41.6595 9.38471 43.2679C8.46456 44.8762 7.9856 46.699 7.99633 48.552C8.00704 50.4048 8.50705 52.2221 9.44576 53.8196C10.0842 54.902 10.9105 55.8618 11.8858 56.654C12.1599 54.7841 12.8538 53.0006 13.9155 51.437C14.9771 49.8734 16.379 48.5706 18.016 47.626C19.653 46.6815 21.4826 46.1198 23.3674 45.9831C25.2525 45.8465 27.1439 46.1383 28.9 46.8369C28.5053 44.3655 27.2428 42.1157 25.339 40.4912C23.4351 38.8667 21.0147 37.9738 18.5119 37.9729Z" fill="black"/>
<path d="M35.7848 70.9748C33.0299 70.9753 30.3518 70.0667 28.166 68.3898C25.9802 66.7129 24.4089 64.3616 23.6959 61.7005C22.9829 59.0394 23.168 56.2175 24.2225 53.6724C25.2769 51.1272 27.1419 49.0013 29.5281 47.6242L31.0255 46.7578V48.4883C31.0258 50.3341 31.5117 52.1475 32.4347 53.7461C33.3577 55.3446 34.685 56.6723 36.2834 57.5955C37.8817 58.5187 39.695 59.0051 41.5409 59.0058C43.3867 59.0064 45.2003 58.5213 46.7994 57.5991L48.2968 56.7327V58.4627C48.2968 61.7811 46.9786 64.9636 44.6322 67.3101C42.2857 69.6565 39.1033 70.9748 35.7848 70.9748ZM29.1587 50.2962C27.4708 51.665 26.2485 53.5231 25.6598 55.6151C25.0711 57.707 25.1452 59.93 25.8716 61.9781C26.5981 64.0263 27.9412 65.799 29.7164 67.0525C31.4916 68.3061 33.6116 68.9787 35.7848 68.9781C38.2874 68.9768 40.7076 68.0836 42.611 66.459C44.5145 64.8344 45.7767 62.5845 46.1712 60.1133C44.4153 60.8118 42.524 61.1036 40.6392 60.967C38.7544 60.8304 36.925 60.2687 35.2882 59.3242C33.6514 58.3798 32.2496 57.077 31.1881 55.5136C30.1265 53.9502 29.4328 52.1659 29.1587 50.2962Z" fill="black"/>
<path d="M41.5418 60.9969C39.8986 60.9972 38.2713 60.6737 36.753 60.045C35.2347 59.4164 33.8551 58.4949 32.6931 57.333C31.5309 56.171 30.6091 54.7917 29.9801 53.2736C29.3512 51.7554 29.0274 50.1282 29.0273 48.4849V46.7544L30.5268 47.6196C32.1256 48.5417 33.9389 49.0268 35.7844 49.0264C37.63 49.0258 39.4429 48.5395 41.0411 47.6166C42.6393 46.6936 43.9665 45.3664 44.8894 43.7682C45.8122 42.1699 46.2983 40.3569 46.2987 38.5113V36.7812L47.7965 37.6477C49.699 38.7457 51.2788 40.3254 52.3768 42.2278C53.4749 44.1302 54.0525 46.2883 54.0517 48.4849C54.0516 51.8029 52.7337 54.9851 50.3877 57.3314C48.0417 59.6777 44.8598 60.9963 41.5418 60.9969ZM31.1517 50.1369C31.3952 51.6639 31.9724 53.1187 32.8423 54.3974C33.7122 55.6758 34.8534 56.747 36.1845 57.5341C37.5157 58.3214 39.0041 58.8053 40.5436 58.9515C42.0832 59.0977 43.636 58.9026 45.0915 58.3801C46.547 57.8577 47.8695 57.0205 48.9645 55.9285C50.0596 54.8366 50.9004 53.5166 51.4269 52.0625C51.9536 50.6084 52.153 49.056 52.0111 47.5161C51.8692 45.9761 51.3894 44.4865 50.606 43.1531C49.9674 42.0709 49.1411 41.1111 48.1659 40.3187C47.8919 42.1887 47.1982 43.9724 46.1365 45.536C45.0749 47.0997 43.6731 48.4027 42.036 49.3473C40.3991 50.292 38.5695 50.8537 36.6845 50.9903C34.7994 51.1271 32.9079 50.8353 31.1517 50.1369Z" fill="black"/>
</g>
</svg>
