<svg width="600" height="112" viewBox="0 0 600 112" fill="none" xmlns="http://www.w3.org/2000/svg">
<g clip-path="url(#clip0_3329_190714)">
<mask id="mask0_3329_190714" style="mask-type:luminance" maskUnits="userSpaceOnUse" x="0" y="0" width="600" height="112">
<path d="M600 0H0V111.166H600V0Z" fill="white"/>
</mask>
<g mask="url(#mask0_3329_190714)">
<path d="M147.719 106.788L112.123 5.52056C111.743 4.37845 112.504 3.23633 113.837 3.23633H138.582C139.344 3.23633 139.915 3.80739 140.296 4.37845L156.856 57.4868L161.615 74.0474C161.615 74.2378 161.805 74.2378 161.805 74.2378C161.996 74.2378 161.996 74.2378 161.996 74.0474C162.948 69.6693 164.47 64.1491 166.564 57.4868L183.506 4.37845C183.696 3.61704 184.457 3.23633 185.219 3.23633H209.584C210.726 3.23633 211.678 4.37845 211.297 5.52056L175.32 106.788C175.13 107.549 174.369 107.93 173.607 107.93H149.242C148.481 107.93 147.91 107.549 147.719 106.788Z" fill="#0F0F0F"/>
<path d="M267.83 111.166C250.889 111.166 237.564 106.027 227.856 95.5571C218.148 85.0877 213.389 71.763 213.389 55.3927C213.389 39.2127 218.148 26.4591 227.856 15.9897C237.564 5.32995 249.937 0.19043 265.165 0.19043C281.726 0.19043 294.479 5.90101 303.426 17.3222C312.182 28.553 316.751 43.2101 316.941 61.6743C316.941 62.6261 316.179 63.3875 315.228 63.3875H242.703C241.561 63.3875 240.8 64.3393 240.99 65.4814C242.323 72.9051 244.988 78.6157 249.175 82.8034C253.744 87.3719 259.835 89.6561 267.64 89.6561C277.538 89.6561 284.01 85.6587 287.436 77.6639C287.627 77.0929 288.388 76.7122 288.959 76.7122H313.134C314.276 76.7122 315.037 77.8543 314.847 78.806C312.563 87.7526 307.423 95.1764 299.809 101.268C291.434 107.93 280.774 111.166 267.83 111.166ZM265.736 21.5099C252.792 21.5099 244.797 28.3626 241.752 42.068C241.561 43.2101 242.323 44.1619 243.465 44.1619H286.104C287.056 44.1619 288.007 43.2101 287.817 42.2584C287.056 36.3574 284.962 31.5986 281.155 27.7916C277.157 23.6038 271.827 21.5099 265.736 21.5099Z" fill="#0F0F0F"/>
<path d="M387.376 25.5075C387.376 26.4593 386.615 27.2207 385.663 27.2207H357.491C356.539 27.2207 355.778 27.9821 355.778 28.9339V106.407C355.778 107.359 355.016 108.12 354.065 108.12H330.651C329.699 108.12 328.938 107.359 328.938 106.407V36.548C328.938 18.0838 343.976 3.23633 362.25 3.23633H385.473C386.424 3.23633 387.186 3.99774 387.186 4.9495L387.376 25.5075Z" fill="#0F0F0F"/>
<path d="M443.14 111.166C427.911 111.166 416.11 107.93 407.544 101.268C399.549 94.9859 396.123 86.6104 394.98 75.9507C394.98 74.9989 395.742 74.0471 396.694 74.0471H419.346C420.107 74.0471 420.868 74.6182 421.059 75.3796C423.153 86.0393 429.434 91.3692 442.569 91.3692C448.85 91.3692 453.609 90.2271 457.035 88.1332C460.462 85.849 462.175 82.9937 462.175 79.377C462.175 78.0445 461.985 76.7121 461.413 75.7603C460.842 74.6182 460.081 73.6664 458.939 72.7147C457.797 71.7629 456.655 71.1918 455.893 70.6208C454.941 70.0497 453.419 69.4787 451.325 68.9076C449.041 68.3365 447.518 67.9558 446.185 67.7655C445.043 67.5751 442.949 67.1944 440.094 66.6234C437.239 66.0523 435.335 65.862 434.193 65.4813C428.482 64.3391 423.724 63.197 420.107 62.0549C416.49 60.9128 412.683 59.1996 408.686 56.9154C404.688 54.6312 401.643 51.5855 399.739 47.7785C397.645 43.9714 396.694 39.2126 396.694 33.6924C396.694 22.8423 400.691 14.4668 408.876 8.75622C417.061 3.04564 427.15 0 439.713 0C453.419 0 464.078 3.04564 471.883 9.32727C479.116 15.2282 482.352 23.0327 483.685 32.931C483.875 33.8827 482.923 34.8345 481.972 34.8345H459.891C459.129 34.8345 458.368 34.2635 458.177 33.3117C456.655 23.9844 451.134 19.416 439.333 19.416C433.622 19.416 429.244 20.3677 426.008 22.4616C422.772 24.5555 421.059 27.4108 421.059 31.0275C421.059 32.1696 421.249 33.3117 421.82 34.4538C422.391 35.5959 423.153 36.3573 424.295 37.1187C425.437 37.8801 426.579 38.4512 427.721 39.0223C428.863 39.5933 430.386 39.974 432.48 40.5451C434.574 41.1161 436.287 41.4968 437.81 41.6872C439.333 42.0679 441.426 42.4486 444.091 42.8293C446.756 43.4004 448.85 43.5907 450.373 43.9714C454.751 44.9232 458.368 45.875 461.223 46.446C464.078 47.2074 467.314 48.3495 471.121 50.0627C474.928 51.7759 477.784 53.6794 479.878 55.7733C481.972 57.8672 483.875 60.7224 485.398 64.3391C486.921 67.9558 487.682 72.1436 487.682 76.9024C487.682 87.3718 483.494 95.557 475.309 101.648C467.314 108.12 456.464 111.166 443.14 111.166Z" fill="#0F0F0F"/>
<path d="M550.888 111.166C533.947 111.166 520.622 106.027 510.914 95.5571C501.206 85.0877 496.447 71.763 496.447 55.3927C496.447 39.2127 501.206 26.4591 510.914 15.9897C520.622 5.32995 532.995 0.19043 548.223 0.19043C564.784 0.19043 577.537 5.90101 586.484 17.3222C595.24 28.553 599.809 43.2101 599.999 61.6743C599.999 62.6261 599.238 63.3875 598.286 63.3875H525.762C524.619 63.3875 523.858 64.3393 524.048 65.4814C525.381 72.9051 528.046 78.6157 532.233 82.8034C536.802 87.3719 542.893 89.6561 550.698 89.6561C560.596 89.6561 567.068 85.6587 570.494 77.6639C570.685 77.0929 571.446 76.7122 572.017 76.7122H596.192C597.334 76.7122 598.095 77.8543 597.905 78.806C595.621 87.7526 590.481 95.1764 582.867 101.268C574.492 107.93 563.832 111.166 550.888 111.166ZM548.604 21.5099C535.66 21.5099 527.665 28.3626 524.619 42.068C524.429 43.2101 525.19 44.1619 526.333 44.1619H568.972C569.923 44.1619 570.875 43.2101 570.685 42.2584C569.923 36.3574 567.829 31.5986 564.022 27.7916C560.215 23.6038 554.885 21.5099 548.604 21.5099Z" fill="#0F0F0F"/>
<path d="M105.075 106.217V87.1816C105.075 86.4202 104.694 85.6588 104.313 85.0878L23.0327 3.61688C22.4616 3.04582 21.7002 2.85547 20.9388 2.85547H1.90353C0.951763 2.85547 0.190353 3.61688 0.190353 4.56864V22.2714C0.190353 23.0329 0.571058 23.7943 0.951763 24.3653L30.0757 53.4893C30.8371 54.2507 30.8371 55.2024 30.0757 55.9638L0.571057 85.4685C0.190352 85.8492 0 86.2299 0 86.6106V106.026C0 106.978 0.76141 107.74 1.71317 107.74H33.6924C34.6442 107.74 35.4056 106.978 35.4056 106.026V94.6054C35.4056 94.2247 35.5959 93.6536 35.9766 93.4633L51.7759 77.664C52.5373 76.9026 53.4891 76.9026 54.2505 77.664L83.5648 106.978C84.1358 107.549 84.8972 107.74 85.6586 107.74H103.361C104.313 107.93 105.075 107.168 105.075 106.217Z" fill="#0F0F0F"/>
<path d="M62.2486 27.982H78.2382C79.19 27.982 79.9514 28.7434 79.9514 29.6952V45.6848C79.9514 47.2076 81.8549 47.969 82.8067 46.8269L104.698 24.9364C105.078 24.5557 105.269 24.175 105.269 23.7943V4.56864C105.269 3.61688 104.507 2.85547 103.555 2.85547H84.1392C83.7585 2.85547 83.1874 3.04582 82.9971 3.42652L61.1065 25.1267C59.9644 26.0785 60.7258 27.982 62.2486 27.982Z" fill="#EE7A30"/>
</g>
</g>
<defs>
<clipPath id="clip0_3329_190714">
<rect width="600" height="112" fill="white"/>
</clipPath>
</defs>
</svg>
