<svg width="897" height="690" viewBox="0 0 897 690" fill="none" xmlns="http://www.w3.org/2000/svg">
<path d="M554.569 873.994H514.625C510.446 873.994 506.52 871.884 504.291 868.317L311.385 560.676C306.851 553.492 299.784 552.713 296.947 552.713C294.136 552.713 286.968 553.467 282.51 560.676L89.6039 868.317C87.3749 871.884 83.4489 873.994 79.2696 873.994H39.3258C29.7767 873.994 23.951 863.569 28.9915 855.531L233.093 530.181C246.923 508.076 270.833 494.963 297.023 494.963C323.239 494.963 347.124 508.076 360.954 530.181L565.055 855.531C570.096 863.569 564.295 873.994 554.721 873.994H554.569Z" fill="#F3EFD7"/>
<path d="M666.206 873.996H626.077C621.878 873.996 617.934 871.878 615.695 868.297L323.37 402.476C317.543 393.221 308.026 387.951 297.033 387.951C286.066 387.951 276.447 393.221 270.696 402.476L-21.6288 868.297C-23.868 871.878 -27.8122 873.996 -32.0108 873.996H-72.1394C-81.7326 873.996 -87.5852 863.53 -82.5214 855.461L220.975 371.887C237.438 345.635 265.836 329.975 297.033 329.975C312.632 329.975 327.467 333.884 340.597 341.122C353.625 348.334 364.873 358.799 373.092 371.887L676.562 855.461C681.651 863.53 675.799 873.996 666.206 873.996Z" fill="#F3EFD7"/>
<path d="M773.154 873.998H733.294C729.124 873.998 725.206 871.875 722.982 868.287L334.821 244.229C326.48 230.861 312.679 223.205 296.907 223.205C281.135 223.205 267.36 230.861 258.993 244.229L-129.143 868.287C-131.367 871.875 -135.285 873.998 -139.455 873.998H-179.315C-188.844 873.998 -194.658 863.511 -189.628 855.424L209.68 213.476C228.157 183.759 259.853 165.691 294.784 165.009C331.585 164.251 365.834 183.835 385.322 215.093L783.619 855.349C788.648 863.435 782.86 873.922 773.306 873.922L773.154 873.998Z" fill="#F3EFD7"/>
<path d="M884.642 873.999H844.655C840.471 873.999 836.541 871.874 834.31 868.281L346.734 85.8787C335.806 68.3182 317.676 58.2475 296.909 58.2475C276.142 58.2475 258.038 68.3182 247.084 85.8787L-240.466 868.281C-242.697 871.874 -246.627 873.999 -250.811 873.999H-290.798C-300.357 873.999 -306.189 863.499 -301.143 855.401L197.64 55.0846C219.167 20.6469 256.263 -0.000610352 297.011 -0.000610352C337.784 -0.000610352 374.854 20.5456 396.382 55.0846L895.139 855.401C900.185 863.499 894.379 873.999 884.819 873.999H884.642Z" fill="#F3EFD7"/>
</svg>
