<svg width="32" height="32" viewBox="0 0 32 32" fill="none" xmlns="http://www.w3.org/2000/svg">
<mask id="mask0_433_451" style="mask-type:alpha" maskUnits="userSpaceOnUse" x="3" y="3" width="26" height="26">
<rect x="3" y="3" width="26" height="26" fill="#D9D9D9"/>
</mask>
<g mask="url(#mask0_433_451)">
<path d="M25.4257 26.5833L21.959 23.1166V25.9124H20.334V20.3333H25.9132V21.9583H23.0903L26.5569 25.4249L25.4257 26.5833ZM16.0007 26.2916C14.577 26.2916 13.2391 26.0215 11.9869 25.4813C10.7347 24.941 9.64555 24.2079 8.7193 23.2818C7.79305 22.3557 7.05981 21.2667 6.51959 20.0148C5.97919 18.7628 5.70898 17.4251 5.70898 16.0018C5.70898 14.5783 5.9791 13.2403 6.51932 11.9878C7.05954 10.7353 7.79269 9.64581 8.71876 8.71938C9.64482 7.79295 10.7338 7.05944 11.9858 6.51886C13.2378 5.97845 14.5754 5.70825 15.9988 5.70825C17.4223 5.70825 18.7603 5.97845 20.0128 6.51886C21.2653 7.05908 22.3548 7.79232 23.2812 8.71856C24.2076 9.64481 24.9411 10.734 25.4817 11.9862C26.0221 13.2383 26.2923 14.5762 26.2923 15.9999C26.2923 16.3264 26.2769 16.6527 26.246 16.979C26.2151 17.3054 26.1687 17.6319 26.1068 17.9583H24.4382C24.5146 17.6319 24.5718 17.3054 24.6099 16.979C24.6482 16.6527 24.6673 16.3264 24.6673 15.9999C24.6673 15.6063 24.6413 15.2128 24.5893 14.8194C24.5371 14.4257 24.4555 14.0346 24.3445 13.6458H20.3172C20.3853 14.0346 20.4346 14.4257 20.4653 14.8194C20.4959 15.2128 20.5111 15.6063 20.5111 15.9999C20.5111 16.3264 20.5002 16.6527 20.4783 16.979C20.4563 17.3054 20.4235 17.6319 20.3798 17.9583H18.7548C18.7986 17.6319 18.8315 17.3054 18.8533 16.979C18.8752 16.6527 18.8861 16.3264 18.8861 15.9999C18.8861 15.6063 18.8709 15.2128 18.8403 14.8194C18.8096 14.4257 18.7604 14.0346 18.6925 13.6458H13.3088C13.2409 14.0346 13.1917 14.426 13.161 14.8202C13.1304 15.2143 13.1152 15.6085 13.1152 16.0026C13.1152 16.3966 13.1304 16.7898 13.161 17.1821C13.1917 17.5746 13.2409 17.9653 13.3088 18.354H17.2923V19.979H13.6818C13.9219 20.8312 14.2319 21.6489 14.6118 22.4319C14.9919 23.2148 15.4548 23.952 16.0007 24.6436C16.3271 24.6436 16.6535 24.6245 16.9797 24.5864C17.3062 24.5481 17.6326 24.5109 17.959 24.4748V26.1229C17.6326 26.159 17.3062 26.1961 16.9797 26.2342C16.6535 26.2724 16.3271 26.2916 16.0007 26.2916ZM7.65682 18.354H11.6841C11.616 17.9653 11.5667 17.5738 11.536 17.1797C11.5054 16.7855 11.4902 16.3914 11.4902 15.9972C11.4902 15.6032 11.5054 15.2101 11.536 14.8177C11.5667 14.4252 11.616 14.0346 11.6841 13.6458H7.65682C7.54578 14.0346 7.46417 14.426 7.41198 14.8202C7.35998 15.2143 7.33398 15.6085 7.33398 16.0026C7.33398 16.3966 7.35998 16.7898 7.41198 17.1821C7.46417 17.5746 7.54578 17.9653 7.65682 18.354ZM8.33823 12.0208H12.0083C12.1948 11.2347 12.443 10.4743 12.7528 9.7396C13.0625 9.00474 13.4458 8.30265 13.9028 7.63334C12.6875 7.90272 11.5975 8.42074 10.633 9.18738C9.6683 9.95402 8.90337 10.8985 8.33823 12.0208ZM13.9028 24.3665C13.4667 23.6901 13.0921 22.9846 12.7788 22.2499C12.4656 21.5153 12.2103 20.7583 12.0132 19.979H8.33823C8.90337 21.0943 9.67001 22.0353 10.6382 22.8019C11.6063 23.5687 12.6945 24.0903 13.9028 24.3665ZM13.6818 12.0208H18.3195C18.089 11.1681 17.7784 10.354 17.3879 9.57873C16.9973 8.80361 16.5349 8.06279 16.0007 7.35627C15.4617 8.0478 14.9981 8.78492 14.6099 9.56763C14.2217 10.3503 13.9123 11.1681 13.6818 12.0208ZM19.9881 12.0208H23.6631C23.0979 10.8985 22.333 9.9523 21.3683 9.18223C20.4038 8.41198 19.3138 7.89568 18.0985 7.63334C18.5346 8.3097 18.904 9.01693 19.2068 9.75504C19.5096 10.4933 19.77 11.2486 19.9881 12.0208Z" fill="#3E3A8E"/>
</g>
</svg>
