<svg width="19" height="19" viewBox="0 0 19 19" fill="none" xmlns="http://www.w3.org/2000/svg">
<mask id="mask0_388_182" style="mask-type:alpha" maskUnits="userSpaceOnUse" x="0" y="0" width="19" height="19">
<rect width="19" height="19" fill="#D9D9D9"/>
</mask>
<g mask="url(#mask0_388_182)">
<path d="M7.91732 12.6666C9.23676 12.6666 10.3583 12.2048 11.2819 11.2812C12.2055 10.3576 12.6673 9.23603 12.6673 7.91658C12.6673 6.59714 12.2055 5.47561 11.2819 4.552C10.3583 3.62839 9.23676 3.16659 7.91732 3.16659C6.59787 3.16659 5.47635 3.62839 4.55273 4.552C3.62912 5.47561 3.16732 6.59714 3.16732 7.91658C3.16732 9.23603 3.62912 10.3576 4.55273 11.2812C5.47635 12.2048 6.59787 12.6666 7.91732 12.6666ZM7.91732 14.2499C6.14926 14.2499 4.65169 13.6364 3.42461 12.4093C2.19753 11.1822 1.58398 9.68464 1.58398 7.91658C1.58398 6.14853 2.19753 4.65096 3.42461 3.42388C4.65169 2.19679 6.14926 1.58325 7.91732 1.58325C9.68537 1.58325 11.1829 2.19679 12.41 3.42388C13.6371 4.65096 14.2507 6.14853 14.2507 7.91658C14.2507 8.65547 14.1352 9.35148 13.9043 10.0046C13.6734 10.6577 13.3468 11.2548 12.9246 11.7958L17.4173 16.3083L16.309 17.4166L11.7965 12.9239C11.2555 13.3461 10.6585 13.6727 10.0053 13.9036C9.35221 14.1345 8.65621 14.2499 7.91732 14.2499Z" fill="black" fill-opacity="0.72"/>
</g>
</svg>
