<svg width="25" height="25" viewBox="0 0 25 25" fill="none" xmlns="http://www.w3.org/2000/svg">
<path d="M21.5105 0.696289C22.9833 0.696289 24.1775 1.89052 24.1775 3.36328V22.0293C24.1775 23.5021 22.9833 24.6963 21.5105 24.6963H2.84448C1.37172 24.6963 0.17749 23.5021 0.17749 22.0293V3.36328C0.17749 1.89052 1.37172 0.696289 2.84448 0.696289H21.5105ZM3.85522 21.3633H7.43433V9.80762H3.85522V21.3633ZM16.6394 9.4541C14.1872 9.4541 13.155 11.3643 13.155 11.3643V9.80762H9.72241V21.3633H13.155V15.2969C13.155 13.6717 13.9029 12.7042 15.3347 12.7041C16.6511 12.7041 17.2829 13.6338 17.283 15.2969V21.3633H20.8445V14.0469C20.8445 10.9515 19.0902 9.45427 16.6394 9.4541ZM5.62769 4.0293C4.4587 4.02943 3.51147 4.98464 3.51147 6.16211C3.5116 7.33947 4.45878 8.29382 5.62769 8.29395C6.79671 8.29395 7.74377 7.33955 7.7439 6.16211C7.7439 4.98456 6.79678 4.0293 5.62769 4.0293Z" fill="white"/>
</svg>
