<?xml version="1.0" encoding="UTF-8"?>
<svg id="Ebene_1" xmlns="http://www.w3.org/2000/svg" version="1.1" viewBox="0 0 20 15">
  <!-- Generator: Adobe Illustrator 29.8.1, SVG Export Plug-In . SVG Version: 2.1.1 Build 2)  -->
  <defs>
    <style>
      .st0 {
        fill: #fff;
      }
    </style>
  </defs>
  <path class="st0" d="M16.7,1.2c-1.3-.5-2.6-1-3.9-1.2h0c-.2.3-.4.7-.5,1-1.5-.2-2.9-.2-4.4,0,0-.3-.3-.7-.5-1h-.2c-1.4.2-2.7.7-3.9,1.2h0C.8,5,.1,8.6.5,12.2h0c1.7,1.2,3.2,1.9,4.8,2.4h0c.4-.5.7-1,1-1.6h0c-.5-.2-1-.4-1.5-.7h0c0-.1.2-.3.3-.3h0c3.2,1.4,6.6,1.4,9.7,0h0c.1,0,.2.2.3.2h0c-.5.4-1,.6-1.5.8h0c.3.6.6,1.1,1,1.6h0c1.6-.5,3.2-1.2,4.8-2.4h0c.4-4.2-.7-7.8-2.8-11h0ZM6.8,10c-.9,0-1.7-.9-1.7-1.9s.8-1.9,1.7-1.9,1.7.9,1.7,1.9-.8,1.9-1.7,1.9ZM13.2,10c-.9,0-1.7-.9-1.7-1.9s.8-1.9,1.7-1.9,1.7.9,1.7,1.9-.8,1.9-1.7,1.9Z"/>
</svg>