<svg width="25" height="25" viewBox="0 0 25 25" fill="none" xmlns="http://www.w3.org/2000/svg">
<path d="M4.67749 0.696289C2.46835 0.696289 0.67749 2.48715 0.67749 4.69629V20.6963C0.67749 22.9054 2.46835 24.6963 4.67749 24.6963H20.6775C22.8866 24.6963 24.6775 22.9054 24.6775 20.6963V4.69629C24.6775 2.48715 22.8866 0.696289 20.6775 0.696289H4.67749ZM5.86946 5.83915H10.4052L13.6262 10.4162L17.5346 5.83915H18.9632L14.2712 11.3324L20.057 19.5534H15.5224L11.7846 14.2432L7.24892 19.5534H5.82035L11.1395 13.3269L5.86946 5.83915ZM8.05695 6.982L16.1183 18.4106H17.8695L9.80807 6.982H8.05695Z" fill="white"/>
</svg>
