<svg width="25" height="18" viewBox="0 0 25 18" fill="none" xmlns="http://www.w3.org/2000/svg">
<path d="M10.2221 12.2822V5.11281L16.4948 8.6979L10.2221 12.2822ZM24.1742 2.85596C23.8909 1.80994 23.0907 1.0011 22.0737 0.714876L22.0521 0.710052C19.4971 0.383623 16.542 0.197093 13.5429 0.197093C13.238 0.197093 12.934 0.198701 12.6307 0.202721L12.6771 0.201917C12.4194 0.198701 12.1162 0.196289 11.8113 0.196289C8.81219 0.196289 5.8555 0.382819 2.95322 0.74382L3.3005 0.708444C2.26266 1.0003 1.46247 1.80833 1.18481 2.83344L1.18001 2.85435C0.859933 4.55001 0.67749 6.50134 0.67749 8.49529C0.67749 8.56604 0.67749 8.63679 0.67829 8.70674V8.69549C0.67829 8.75498 0.67749 8.82573 0.67749 8.89649C0.67749 10.8904 0.860733 12.841 1.21041 14.7328L1.18001 14.5366C1.46327 15.5826 2.26346 16.3915 3.2805 16.6777L3.3021 16.6825C5.8571 17.009 8.81219 17.1955 11.8113 17.1955C12.1154 17.1955 12.4194 17.1939 12.7235 17.1899L12.6771 17.1907C12.9348 17.1939 13.2388 17.1963 13.5429 17.1963C16.5428 17.1963 19.4987 17.0098 22.401 16.6488L22.0537 16.6841C23.0923 16.3931 23.8925 15.5842 24.171 14.5591L24.1758 14.5382C24.495 12.8426 24.6775 10.8912 24.6775 8.8981C24.6775 8.82734 24.6775 8.75659 24.6767 8.68664V8.69709C24.6767 8.6376 24.6775 8.56684 24.6775 8.49609C24.6775 6.50214 24.4942 4.55161 24.1446 2.65978L24.1742 2.85596Z" fill="white"/>
</svg>
