<svg width="1184" height="356" viewBox="0 0 1184 356" fill="none" xmlns="http://www.w3.org/2000/svg">
<line x1="1066" y1="296.5" x2="76" y2="296.5" stroke="#595959" stroke-width="3"/>
<line x1="1118" y1="60.5" x2="76" y2="60.4999" stroke="#595959" stroke-width="3"/>
<rect x="711" y="236" width="120" height="120" rx="10.4348" fill="#595959"/>
<rect x="361" y="236" width="120" height="120" rx="10.4348" fill="#595959"/>
<rect x="972" y="50" width="20" height="20" rx="4" fill="#F87317"/>
<rect x="684" y="50" width="20" height="20" rx="4" fill="#F87317"/>
<rect x="396" y="50" width="20" height="20" rx="4" fill="#F87317"/>
<rect x="940" y="50" width="20" height="20" rx="4" fill="#F87317"/>
<rect x="652" y="50" width="20" height="20" rx="4" fill="#F87317"/>
<rect x="364" y="50" width="20" height="20" rx="4" fill="#F87317"/>
<rect x="76" y="50" width="20" height="20" rx="4" fill="#F87317"/>
<rect x="908" y="50" width="20" height="20" rx="4" fill="#F87317"/>
<rect x="620" y="50" width="20" height="20" rx="4" fill="#F87317"/>
<rect x="332" y="50" width="20" height="20" rx="4" fill="#F87317"/>
<rect x="876" y="50" width="20" height="20" rx="4" fill="#F87317"/>
<rect x="588" y="50" width="20" height="20" rx="4" fill="#F87317"/>
<rect x="300" y="50" width="20" height="20" rx="4" fill="#F87317"/>
<rect x="844" y="50" width="20" height="20" rx="4" fill="#F87317"/>
<rect x="1100" y="50" width="20" height="20" rx="4" fill="#F87317"/>
<rect x="556" y="50" width="20" height="20" rx="4" fill="#F87317"/>
<rect x="268" y="50" width="20" height="20" rx="4" fill="#F87317"/>
<rect x="812" y="50" width="20" height="20" rx="4" fill="#F87317"/>
<rect x="1068" y="50" width="20" height="20" rx="4" fill="#F87317"/>
<rect x="524" y="50" width="20" height="20" rx="4" fill="#F87317"/>
<rect x="236" y="50" width="20" height="20" rx="4" fill="#F87317"/>
<rect x="780" y="50" width="20" height="20" rx="4" fill="#F87317"/>
<rect x="1036" y="50" width="20" height="20" rx="4" fill="#F87317"/>
<rect x="492" y="50" width="20" height="20" rx="4" fill="#F87317"/>
<rect x="204" y="50" width="20" height="20" rx="4" fill="#F87317"/>
<rect x="748" y="50" width="20" height="20" rx="4" fill="#F87317"/>
<rect x="1004" y="50" width="20" height="20" rx="4" fill="#F87317"/>
<rect x="460" y="50" width="20" height="20" rx="4" fill="#F87317"/>
<rect x="172" y="50" width="20" height="20" rx="4" fill="#F87317"/>
<rect x="716" y="50" width="20" height="20" rx="4" fill="#F87317"/>
<rect x="428" y="50" width="20" height="20" rx="4" fill="#F87317"/>
<rect x="140" y="50" width="20" height="20" rx="4" fill="#F87317"/>
<path d="M886 70C886 147.561 1124 168.213 1124 236" stroke="#F87317" stroke-width="3" stroke-linecap="round"/>
<path d="M533 70C533 147.561 771 168.213 771 236" stroke="#F87317" stroke-width="3" stroke-linecap="round"/>
<path d="M181 70C181 147.561 419 168.213 419 236" stroke="#F87317" stroke-width="3" stroke-linecap="round"/>
<path d="M855 70C855 147.561 1124 168.213 1124 236" stroke="#F87317" stroke-width="3" stroke-linecap="round"/>
<path d="M502 70C502 147.561 771 168.213 771 236" stroke="#F87317" stroke-width="3" stroke-linecap="round"/>
<path d="M150 70C150 147.561 419 168.213 419 236" stroke="#F87317" stroke-width="3" stroke-linecap="round"/>
<path d="M822 70C822 147.561 1124 168.213 1124 236" stroke="#F87317" stroke-width="3" stroke-linecap="round"/>
<path d="M469 70C469 147.561 771 168.213 771 236" stroke="#F87317" stroke-width="3" stroke-linecap="round"/>
<path d="M790 70C790 147.561 1124 168.213 1124 236" stroke="#F87317" stroke-width="3" stroke-linecap="round"/>
<path d="M437 70C437 147.561 771 168.213 771 236" stroke="#F87317" stroke-width="3" stroke-linecap="round"/>
<path d="M918 70C918 147.561 1124 168.213 1124 236" stroke="#F87317" stroke-width="3" stroke-linecap="round"/>
<path d="M565 70C565 147.561 771 168.213 771 236" stroke="#F87317" stroke-width="3" stroke-linecap="round"/>
<path d="M213 70C213 147.561 419 168.213 419 236" stroke="#F87317" stroke-width="3" stroke-linecap="round"/>
<path d="M950 70C950 147.561 1124 168.213 1124 236" stroke="#F87317" stroke-width="3" stroke-linecap="round"/>
<path d="M597 70C597 147.561 771 168.213 771 236" stroke="#F87317" stroke-width="3" stroke-linecap="round"/>
<path d="M245 70C245 147.561 419 168.213 419 236" stroke="#F87317" stroke-width="3" stroke-linecap="round"/>
<path d="M982 70C982 147.561 1124 168.213 1124 236" stroke="#F87317" stroke-width="3" stroke-linecap="round"/>
<path d="M629 70C629 147.561 771 168.213 771 236" stroke="#F87317" stroke-width="3" stroke-linecap="round"/>
<path d="M277 70C277 147.561 419 168.213 419 236" stroke="#F87317" stroke-width="3" stroke-linecap="round"/>
<path d="M1014 70C1014 147.561 1124 168.213 1124 236" stroke="#F87317" stroke-width="3" stroke-linecap="round"/>
<path d="M661 70C661 147.561 771 168.213 771 236" stroke="#F87317" stroke-width="3" stroke-linecap="round"/>
<path d="M309 70C309 147.561 419 168.213 419 236" stroke="#F87317" stroke-width="3" stroke-linecap="round"/>
<path d="M1046 70C1046 147.561 1124 168.213 1124 236" stroke="#F87317" stroke-width="3" stroke-linecap="round"/>
<path d="M693 70C693 147.561 771 168.213 771 236" stroke="#F87317" stroke-width="3" stroke-linecap="round"/>
<path d="M341 70C341 147.561 419 168.213 419 236" stroke="#F87317" stroke-width="3" stroke-linecap="round"/>
<path d="M1078 70C1078 147.561 1124 168.213 1124 236" stroke="#F87317" stroke-width="3" stroke-linecap="round"/>
<path d="M725 70C725 147.561 771 168.213 771 236" stroke="#F87317" stroke-width="3" stroke-linecap="round"/>
<path d="M373 70C373 147.561 419 168.213 419 236" stroke="#F87317" stroke-width="3" stroke-linecap="round"/>
<path d="M1111 70C1111 147.561 1124 168.213 1124 236" stroke="#F87317" stroke-width="3" stroke-linecap="round"/>
<path d="M758 70C758 147.561 771 168.213 771 236" stroke="#F87317" stroke-width="3" stroke-linecap="round"/>
<path d="M406 70C406 147.561 419 168.213 419 236" stroke="#F87317" stroke-width="3" stroke-linecap="round"/>
<rect x="1064" y="236" width="120" height="120" rx="10.4348" fill="#595959"/>
<g filter="url(#filter0_ii_269_8075)">
<rect y="236" width="120" height="120" rx="13.9535" fill="#FF9417"/>
<rect x="1.25" y="237.25" width="117.5" height="117.5" rx="12.7035" stroke="white" stroke-opacity="0.42" stroke-width="2.5"/>
<path d="M83.8202 288.715C84.9428 281.21 79.2286 277.175 71.4148 274.484L73.9497 264.317L67.7607 262.775L65.2931 272.674C63.6661 272.268 61.9952 271.886 60.3346 271.507L62.8201 261.542L56.635 260L54.0988 270.164C52.7524 269.857 51.43 269.554 50.147 269.235L50.1541 269.203L41.6195 267.072L39.9731 273.682C39.9731 273.682 44.5648 274.734 44.468 274.799C46.9742 275.425 47.4274 277.084 47.3522 278.399L44.4647 289.981C44.6373 290.025 44.8611 290.088 45.1082 290.188C44.9017 290.136 44.682 290.08 44.454 290.026L40.4068 306.251C40.1005 307.013 39.3231 308.155 37.5709 307.721C37.6329 307.811 33.0727 306.599 33.0727 306.599L30 313.683L38.0539 315.691C39.5522 316.067 41.0204 316.46 42.4663 316.83L39.9053 327.113L46.0871 328.655L48.6233 318.481C50.3121 318.939 51.951 319.362 53.5554 319.761L51.0277 329.887L57.2169 331.429L59.7777 321.165C70.3311 323.162 78.2665 322.357 81.6066 312.812C84.298 305.126 81.4726 300.693 75.9205 297.803C79.9644 296.87 83.0103 294.21 83.8224 288.716L83.8205 288.715L83.8202 288.715ZM69.68 308.544C67.7673 316.229 54.8277 312.074 50.6324 311.033L54.031 297.409C58.2259 298.456 71.6789 300.529 69.6803 308.544H69.68ZM71.594 288.604C69.8492 295.594 59.0794 292.043 55.5858 291.172L58.667 278.816C62.1606 279.687 73.4115 281.312 71.5946 288.604H71.594Z" fill="white"/>
</g>
<g filter="url(#filter1_ii_269_8075)">
<rect width="120" height="120" rx="13.9535" fill="#F97316"/>
<rect x="1.25" y="1.25" width="117.5" height="117.5" rx="12.7035" stroke="white" stroke-opacity="0.42" stroke-width="2.5"/>
<path d="M77.4878 87.2381H74.7211C74.4314 87.2381 74.1595 87.0903 74.0058 86.842L60.6449 65.3569C60.3316 64.8544 59.8409 64.8012 59.6458 64.8012C59.4507 64.8012 58.9541 64.8544 58.6467 65.3569L45.2859 86.842C45.1322 87.0903 44.8602 87.2381 44.5705 87.2381H41.8038C41.1417 87.2381 40.7397 86.5109 41.0885 85.9492L55.2237 63.2285C56.1815 61.6854 57.8368 60.769 59.6517 60.769C61.4667 60.769 63.122 61.6854 64.0797 63.2285L78.215 85.9492C78.5638 86.5109 78.1618 87.2381 77.4997 87.2381H77.4878Z" fill="white"/>
<path d="M85.0966 87.2387H82.3299C82.0402 87.2387 81.7683 87.0909 81.6145 86.8426L61.461 54.4377C61.0589 53.7932 60.4027 53.4267 59.646 53.4267C58.8893 53.4267 58.2271 53.7932 57.8311 54.4377L37.6775 86.8426C37.5238 87.0909 37.2518 87.2387 36.9621 87.2387H34.1954C33.5333 87.2387 33.1313 86.5115 33.4801 85.9499L54.4022 52.3093C55.5373 50.4824 57.4941 49.3945 59.646 49.3945C60.722 49.3945 61.7447 49.6665 62.6492 50.169C63.5478 50.6716 64.3223 51.3988 64.8898 52.3093L85.812 85.9499C86.1608 86.5115 85.7588 87.2387 85.0966 87.2387Z" fill="white"/>
<path d="M92.6995 87.2384H89.9327C89.643 87.2384 89.3711 87.0906 89.2173 86.8423L62.2769 43.5175C61.6976 42.5892 60.7398 42.0571 59.6461 42.0571C58.5525 42.0571 57.5948 42.5892 57.0154 43.5175L30.075 86.8423C29.9213 87.0906 29.6493 87.2384 29.3596 87.2384H26.5929C25.9308 87.2384 25.5287 86.5112 25.8775 85.9496L53.5924 41.3831C54.8753 39.3198 57.0745 38.0664 59.4984 38.0191C62.0523 37.9659 64.4289 39.3257 65.7827 41.4955L93.4266 85.9437C93.7754 86.5053 93.3734 87.2325 92.7113 87.2325L92.6995 87.2384Z" fill="white"/>
<path d="M100.307 87.2385H97.5405C97.2508 87.2385 96.9789 87.0907 96.8251 86.8424L63.092 32.5977C62.3353 31.3797 61.0819 30.6821 59.6454 30.6821C58.2088 30.6821 56.9555 31.3797 56.1988 32.5977L22.4656 86.8424C22.3119 87.0907 22.0399 87.2385 21.7503 87.2385H18.9835C18.3214 87.2385 17.9194 86.5113 18.2682 85.9497L52.7758 30.4634C54.2656 28.0748 56.8313 26.644 59.6513 26.644C62.4712 26.644 65.037 28.0689 66.5268 30.4634L101.034 85.9497C101.383 86.5113 100.981 87.2385 100.319 87.2385H100.307Z" fill="white"/>
</g>
<path d="M140.905 273V257.271H146.555C150.321 257.271 152.27 258.578 152.27 261.524C152.27 263.319 151.185 264.604 149.346 264.869C151.606 265.135 152.935 266.575 152.935 268.68C152.935 271.56 150.941 273 147.396 273H140.905ZM143.298 263.983H146.51C148.615 263.983 149.811 263.164 149.811 261.701C149.811 260.151 148.681 259.42 146.51 259.42H143.298V263.983ZM143.298 270.851H147.33C149.302 270.851 150.476 270.031 150.476 268.458C150.476 266.908 149.302 266.021 147.33 266.021H143.298V270.851ZM154.811 259.508V257.16H157.247V259.508H154.811ZM154.855 273V261.214H157.203V273H154.855ZM163.356 273C161.118 273 160.077 272.025 160.077 269.81V263.141H158.283V261.214H160.077V258.445H162.425V261.214H165.549V263.141H162.425V269.633C162.425 270.74 162.891 271.073 163.865 271.073H165.549V273H163.356ZM171.564 273.266C168.175 273.266 165.981 270.829 165.981 267.107C165.981 263.385 168.175 260.948 171.564 260.948C174.422 260.948 176.438 262.499 176.837 265.224L174.378 265.357C174.134 263.828 173.049 262.986 171.564 262.986C169.57 262.986 168.418 264.515 168.418 267.107C168.418 269.699 169.57 271.228 171.564 271.228C173.071 271.228 174.156 270.386 174.378 268.68L176.837 268.813C176.46 271.516 174.444 273.266 171.564 273.266ZM182.945 273.266C179.578 273.266 177.362 270.851 177.362 267.107C177.362 263.363 179.578 260.948 182.945 260.948C186.312 260.948 188.528 263.363 188.528 267.107C188.528 270.851 186.312 273.266 182.945 273.266ZM182.945 271.228C184.939 271.228 186.091 269.699 186.091 267.107C186.091 264.515 184.939 262.986 182.945 262.986C180.951 262.986 179.799 264.515 179.799 267.107C179.799 269.699 180.951 271.228 182.945 271.228ZM189.971 259.508V257.16H192.408V259.508H189.971ZM190.015 273V261.214H192.363V273H190.015ZM194.927 273V261.214H197.076L197.12 263.274C197.74 261.657 199.092 260.948 200.709 260.948C203.345 260.948 204.697 262.853 204.697 265.423V273H202.348V266.132C202.348 264.05 201.706 262.92 200.067 262.92C198.405 262.92 197.275 264.05 197.275 266.132V273H194.927Z" fill="white"/>
<path d="M216.172 273.266C212.738 273.266 211.077 271.604 210.9 269.278L213.314 269.167C213.536 270.474 214.289 271.294 216.172 271.294C217.634 271.294 218.454 270.851 218.454 269.81C218.454 268.946 218.011 268.569 215.773 268.17C212.34 267.528 211.321 266.531 211.321 264.604C211.321 262.455 212.982 260.948 216.061 260.948C219.318 260.948 220.714 262.765 220.935 264.825L218.521 264.958C218.432 263.85 217.745 262.92 216.017 262.92C214.489 262.92 213.757 263.585 213.757 264.515C213.757 265.556 214.333 265.977 216.239 266.287C219.806 266.885 220.891 267.86 220.891 269.788C220.891 272.003 218.986 273.266 216.172 273.266ZM227.279 273.266C223.845 273.266 221.696 270.829 221.696 267.107C221.696 263.385 223.845 260.948 227.213 260.948C230.425 260.948 232.596 263.23 232.596 267.196V267.794H224.133C224.244 270.098 225.418 271.25 227.301 271.25C228.675 271.25 229.605 270.563 229.982 269.455L232.419 269.61C231.798 271.804 229.871 273.266 227.279 273.266ZM224.133 266.021H230.115C229.96 263.939 228.808 262.942 227.213 262.942C225.529 262.942 224.399 264.028 224.133 266.021ZM238.176 273C235.938 273 234.897 272.025 234.897 269.81V263.141H233.103V261.214H234.897V258.445H237.246V261.214H242.053V258.445H244.401V261.214H247.525V263.141H244.401V269.633C244.401 270.74 244.867 271.073 245.841 271.073H247.525V273H245.31C243.072 273 242.053 272.025 242.053 269.81V263.141H237.246V269.633C237.246 270.74 237.711 271.073 238.686 271.073H240.369V273H238.176ZM251.566 273C250.016 273 248.997 272.247 248.997 270.497V257.271H251.345V270.275C251.345 270.829 251.633 271.073 252.165 271.073H253.095V273H251.566ZM259.063 273.266C255.629 273.266 253.48 270.829 253.48 267.107C253.48 263.385 255.629 260.948 258.997 260.948C262.209 260.948 264.38 263.23 264.38 267.196V267.794H255.917C256.028 270.098 257.202 271.25 259.085 271.25C260.459 271.25 261.389 270.563 261.766 269.455L264.203 269.61C263.583 271.804 261.655 273.266 259.063 273.266ZM255.917 266.021H261.899C261.744 263.939 260.592 262.942 258.997 262.942C257.313 262.942 256.183 264.028 255.917 266.021ZM270.415 273.266C266.981 273.266 265.32 271.604 265.142 269.278L267.557 269.167C267.779 270.474 268.532 271.294 270.415 271.294C271.877 271.294 272.697 270.851 272.697 269.81C272.697 268.946 272.254 268.569 270.016 268.17C266.582 267.528 265.563 266.531 265.563 264.604C265.563 262.455 267.225 260.948 270.304 260.948C273.561 260.948 274.957 262.765 275.178 264.825L272.763 264.958C272.675 263.85 271.988 262.92 270.26 262.92C268.731 262.92 268 263.585 268 264.515C268 265.556 268.576 265.977 270.482 266.287C274.048 266.885 275.134 267.86 275.134 269.788C275.134 272.003 273.229 273.266 270.415 273.266ZM283.758 275.437C281.742 272.358 280.701 269.145 280.701 265.911C280.701 262.676 281.742 259.464 283.758 256.384H285.84C284.002 259.552 283.071 262.743 283.071 265.911C283.071 269.079 284.002 272.247 285.84 275.437H283.758ZM292.997 267.749C292 267.749 291.513 267.417 290.671 266.465C289.829 265.445 289.652 265.379 289.209 265.379C288.5 265.379 288.101 266.132 288.101 267.55H286.151C286.151 265.135 287.326 263.496 289.098 263.496C290.161 263.496 290.715 263.895 291.446 264.803C292.177 265.711 292.399 265.866 292.93 265.866C293.639 265.866 294.016 265.135 294.016 263.695H295.966C295.966 266.132 294.791 267.749 292.997 267.749ZM300.162 273V261.79H296.839V259.863H298.191C299.985 259.863 300.672 259.242 300.672 257.271H302.555V273H300.162ZM311.273 273.354C307.352 273.354 304.893 270.209 304.893 265.157C304.893 260.106 307.352 256.916 311.273 256.916C315.217 256.916 317.676 260.084 317.676 265.157C317.676 270.186 315.217 273.354 311.273 273.354ZM311.273 271.161C313.799 271.161 315.195 269.034 315.195 265.157C315.195 261.258 313.799 259.109 311.273 259.109C308.77 259.109 307.374 261.258 307.374 265.157C307.374 269.034 308.77 271.161 311.273 271.161ZM319.511 273V261.214H321.66L321.705 263.23C322.281 261.79 323.499 260.948 324.983 260.948C326.734 260.948 327.952 261.857 328.462 263.385C328.993 261.812 330.19 260.948 331.873 260.948C334.355 260.948 335.772 262.543 335.772 265.423V273H333.424V265.999C333.424 263.961 332.693 262.92 331.187 262.92C329.702 262.92 328.75 264.094 328.75 266.088V273H326.512V266.088C326.512 264.094 325.892 262.92 324.319 262.92C322.812 262.92 321.86 264.116 321.86 266.088V273H319.511ZM338.957 275.437H336.875C338.714 272.247 339.644 269.079 339.644 265.911C339.644 262.743 338.714 259.552 336.875 256.384H338.957C340.996 259.464 342.015 262.676 342.015 265.911C342.015 269.145 340.996 272.358 338.957 275.437Z" fill="white" fill-opacity="0.5"/>
<path d="M139.443 31L145.115 15.2706H148.15L153.821 31H151.273L149.833 26.9015H143.409L141.991 31H139.443ZM144.162 24.7304H149.102L146.621 17.5525L144.162 24.7304ZM154.617 31V19.214H156.766L156.832 21.4516C157.275 19.9008 158.206 19.214 159.646 19.214H160.776V21.3187H159.646C157.851 21.3187 156.965 22.1827 156.965 24.0436V31H154.617ZM166.414 31.2658C163.025 31.2658 160.831 28.8289 160.831 25.107C160.831 21.3851 163.025 18.9482 166.414 18.9482C169.272 18.9482 171.288 20.499 171.687 23.2239L169.228 23.3569C168.984 21.8282 167.899 20.9864 166.414 20.9864C164.42 20.9864 163.268 22.515 163.268 25.107C163.268 27.699 164.42 29.2277 166.414 29.2277C167.921 29.2277 169.006 28.3858 169.228 26.68L171.687 26.8129C171.31 29.5157 169.294 31.2658 166.414 31.2658ZM172.943 31V15.2706H175.292V20.9199C175.912 19.5685 177.197 18.9482 178.748 18.9482C181.318 18.9482 182.713 20.787 182.713 23.4233V31H180.365V24.0436C180.365 21.939 179.634 20.9199 178.127 20.9199C176.399 20.9199 175.292 22.0276 175.292 24.0879V31H172.943Z" fill="white"/>
<path d="M194.499 31.2658C191.065 31.2658 188.916 28.8289 188.916 25.107C188.916 21.3851 191.065 18.9482 194.432 18.9482C197.645 18.9482 199.816 21.2301 199.816 25.1956V25.7938H191.353C191.464 28.0978 192.638 29.2498 194.521 29.2498C195.895 29.2498 196.825 28.5631 197.202 27.4554L199.639 27.6104C199.018 29.8037 197.091 31.2658 194.499 31.2658ZM191.353 24.0215H197.335C197.179 21.939 196.027 20.9421 194.432 20.9421C192.749 20.9421 191.619 22.0276 191.353 24.0215ZM199.715 31L203.991 24.9741L199.892 19.214H202.507L205.409 23.4455L208.222 19.214H210.903L206.849 25.0184L211.08 31H208.466L205.431 26.5027L202.374 31H199.715ZM216.568 31.2658C213.134 31.2658 210.985 28.8289 210.985 25.107C210.985 21.3851 213.134 18.9482 216.502 18.9482C219.714 18.9482 221.885 21.2301 221.885 25.1956V25.7938H213.422C213.533 28.0978 214.707 29.2498 216.59 29.2498C217.964 29.2498 218.894 28.5631 219.271 27.4554L221.708 27.6104C221.088 29.8037 219.16 31.2658 216.568 31.2658ZM213.422 24.0215H219.404C219.249 21.939 218.097 20.9421 216.502 20.9421C214.818 20.9421 213.688 22.0276 213.422 24.0215ZM228.23 31.2658C224.841 31.2658 222.647 28.8289 222.647 25.107C222.647 21.3851 224.841 18.9482 228.23 18.9482C231.088 18.9482 233.104 20.499 233.503 23.2239L231.044 23.3569C230.8 21.8282 229.714 20.9864 228.23 20.9864C226.236 20.9864 225.084 22.515 225.084 25.107C225.084 27.699 226.236 29.2277 228.23 29.2277C229.737 29.2277 230.822 28.3858 231.044 26.68L233.503 26.8129C233.126 29.5157 231.11 31.2658 228.23 31.2658ZM238.636 31.2658C236.243 31.2658 234.759 29.6043 234.759 26.7907V19.214H237.107V26.1926C237.107 28.3415 237.839 29.2941 239.345 29.2941C241.051 29.2941 242.07 28.1421 242.07 26.1261V19.214H244.418V31H242.225L242.203 29.0726C241.583 30.5126 240.342 31.2658 238.636 31.2658ZM250.789 31C248.552 31 247.51 30.0252 247.51 27.8098V21.1414H245.716V19.214H247.51V16.4448H249.859V19.214H252.982V21.1414H249.859V27.6326C249.859 28.7403 250.324 29.0726 251.299 29.0726H252.982V31H250.789ZM258.997 31.2658C255.564 31.2658 253.415 28.8289 253.415 25.107C253.415 21.3851 255.564 18.9482 258.931 18.9482C262.143 18.9482 264.314 21.2301 264.314 25.1956V25.7938H255.852C255.962 28.0978 257.136 29.2498 259.02 29.2498C260.393 29.2498 261.324 28.5631 261.7 27.4554L264.137 27.6104C263.517 29.8037 261.589 31.2658 258.997 31.2658ZM255.852 24.0215H261.833C261.678 21.939 260.526 20.9421 258.931 20.9421C257.247 20.9421 256.117 22.0276 255.852 24.0215ZM270.349 31.2658C266.915 31.2658 265.254 29.6043 265.077 27.2781L267.491 27.1673C267.713 28.4744 268.466 29.2941 270.349 29.2941C271.811 29.2941 272.631 28.8511 272.631 27.8098C272.631 26.9458 272.188 26.5692 269.951 26.1704C266.517 25.5279 265.498 24.531 265.498 22.6036C265.498 20.4547 267.159 18.9482 270.239 18.9482C273.495 18.9482 274.891 20.7648 275.112 22.8252L272.698 22.9581C272.609 21.8504 271.922 20.9199 270.194 20.9199C268.666 20.9199 267.934 21.5845 267.934 22.515C267.934 23.5562 268.51 23.9772 270.416 24.2873C273.983 24.8855 275.068 25.8603 275.068 27.7877C275.068 30.0031 273.163 31.2658 270.349 31.2658ZM283.692 33.4369C281.676 30.3575 280.635 27.1452 280.635 23.9107C280.635 20.6762 281.676 17.4639 283.692 14.3845H285.775C283.936 17.5525 283.005 20.7427 283.005 23.9107C283.005 27.0787 283.936 30.2468 285.775 33.4369H283.692ZM289.387 31V19.7901H286.063V17.8626H287.415C289.209 17.8626 289.896 17.2423 289.896 15.2706H291.779V31H289.387ZM299.793 31.3545C296.204 31.3545 293.722 29.7372 293.722 26.7021C293.722 24.6418 294.919 23.1796 296.824 22.5372C295.384 21.9833 294.476 20.8756 294.476 19.2362C294.476 16.7328 296.514 14.9162 299.793 14.9162C303.072 14.9162 305.11 16.7328 305.11 19.2362C305.11 20.8978 304.201 21.9833 302.761 22.5372C304.667 23.2018 305.863 24.6418 305.863 26.7021C305.863 29.7372 303.404 31.3545 299.793 31.3545ZM299.793 21.651C301.587 21.651 302.628 20.8978 302.628 19.347C302.628 17.9734 301.654 17.0873 299.793 17.0873C297.932 17.0873 296.957 17.9734 296.957 19.347C296.957 20.8978 297.998 21.651 299.793 21.651ZM299.793 29.1612C301.964 29.1612 303.382 28.2751 303.382 26.4584C303.382 24.7526 302.208 23.6227 299.793 23.6227C297.378 23.6227 296.204 24.7526 296.204 26.4584C296.204 28.2751 297.622 29.1612 299.793 29.1612ZM313.263 31.3545C309.342 31.3545 306.883 28.2086 306.883 23.1575C306.883 18.1063 309.342 14.9162 313.263 14.9162C317.206 14.9162 319.665 18.0842 319.665 23.1575C319.665 28.1864 317.206 31.3545 313.263 31.3545ZM313.263 29.1612C315.788 29.1612 317.184 27.0344 317.184 23.1575C317.184 19.2584 315.788 17.1094 313.263 17.1094C310.759 17.1094 309.364 19.2584 309.364 23.1575C309.364 27.0344 310.759 29.1612 313.263 29.1612ZM321.501 31V19.214H323.65L323.694 21.2301C324.27 19.7901 325.489 18.9482 326.973 18.9482C328.723 18.9482 329.942 19.8565 330.451 21.3851C330.983 19.8122 332.179 18.9482 333.863 18.9482C336.344 18.9482 337.762 20.5433 337.762 23.4233V31H335.414V23.9993C335.414 21.9611 334.683 20.9199 333.176 20.9199C331.692 20.9199 330.739 22.0941 330.739 24.0879V31H328.502V24.0879C328.502 22.0941 327.881 20.9199 326.308 20.9199C324.802 20.9199 323.849 22.1162 323.849 24.0879V31H321.501ZM344.498 31.2658C341.064 31.2658 339.402 29.6043 339.225 27.2781L341.64 27.1673C341.862 28.4744 342.615 29.2941 344.498 29.2941C345.96 29.2941 346.78 28.8511 346.78 27.8098C346.78 26.9458 346.337 26.5692 344.099 26.1704C340.665 25.5279 339.646 24.531 339.646 22.6036C339.646 20.4547 341.308 18.9482 344.387 18.9482C347.644 18.9482 349.039 20.7648 349.261 22.8252L346.846 22.9581C346.758 21.8504 346.071 20.9199 344.343 20.9199C342.814 20.9199 342.083 21.5845 342.083 22.515C342.083 23.5562 342.659 23.9772 344.564 24.2873C348.131 24.8855 349.217 25.8603 349.217 27.7877C349.217 30.0031 347.311 31.2658 344.498 31.2658ZM351.7 33.4369H349.618C351.457 30.2468 352.387 27.0787 352.387 23.9107C352.387 20.7427 351.457 17.5525 349.618 14.3845H351.7C353.739 17.4639 354.758 20.6762 354.758 23.9107C354.758 27.1452 353.739 30.3575 351.7 33.4369Z" fill="white" fill-opacity="0.5"/>
<defs>
<filter id="filter0_ii_269_8075" x="0" y="236" width="120" height="120" filterUnits="userSpaceOnUse" color-interpolation-filters="sRGB">
<feFlood flood-opacity="0" result="BackgroundImageFix"/>
<feBlend mode="normal" in="SourceGraphic" in2="BackgroundImageFix" result="shape"/>
<feColorMatrix in="SourceAlpha" type="matrix" values="0 0 0 0 0 0 0 0 0 0 0 0 0 0 0 0 0 0 127 0" result="hardAlpha"/>
<feOffset/>
<feGaussianBlur stdDeviation="19.7368"/>
<feComposite in2="hardAlpha" operator="arithmetic" k2="-1" k3="1"/>
<feColorMatrix type="matrix" values="0 0 0 0 0 0 0 0 0 0 0 0 0 0 0 0 0 0 0.04 0"/>
<feBlend mode="normal" in2="shape" result="effect1_innerShadow_269_8075"/>
<feColorMatrix in="SourceAlpha" type="matrix" values="0 0 0 0 0 0 0 0 0 0 0 0 0 0 0 0 0 0 127 0" result="hardAlpha"/>
<feOffset/>
<feGaussianBlur stdDeviation="6.71053"/>
<feComposite in2="hardAlpha" operator="arithmetic" k2="-1" k3="1"/>
<feColorMatrix type="matrix" values="0 0 0 0 0 0 0 0 0 0 0 0 0 0 0 0 0 0 0.05 0"/>
<feBlend mode="normal" in2="effect1_innerShadow_269_8075" result="effect2_innerShadow_269_8075"/>
</filter>
<filter id="filter1_ii_269_8075" x="0" y="0" width="120" height="120" filterUnits="userSpaceOnUse" color-interpolation-filters="sRGB">
<feFlood flood-opacity="0" result="BackgroundImageFix"/>
<feBlend mode="normal" in="SourceGraphic" in2="BackgroundImageFix" result="shape"/>
<feColorMatrix in="SourceAlpha" type="matrix" values="0 0 0 0 0 0 0 0 0 0 0 0 0 0 0 0 0 0 127 0" result="hardAlpha"/>
<feOffset/>
<feGaussianBlur stdDeviation="19.7368"/>
<feComposite in2="hardAlpha" operator="arithmetic" k2="-1" k3="1"/>
<feColorMatrix type="matrix" values="0 0 0 0 0 0 0 0 0 0 0 0 0 0 0 0 0 0 0.04 0"/>
<feBlend mode="normal" in2="shape" result="effect1_innerShadow_269_8075"/>
<feColorMatrix in="SourceAlpha" type="matrix" values="0 0 0 0 0 0 0 0 0 0 0 0 0 0 0 0 0 0 127 0" result="hardAlpha"/>
<feOffset/>
<feGaussianBlur stdDeviation="6.71053"/>
<feComposite in2="hardAlpha" operator="arithmetic" k2="-1" k3="1"/>
<feColorMatrix type="matrix" values="0 0 0 0 0 0 0 0 0 0 0 0 0 0 0 0 0 0 0.05 0"/>
<feBlend mode="normal" in2="effect1_innerShadow_269_8075" result="effect2_innerShadow_269_8075"/>
</filter>
</defs>
</svg>
