<svg width="1340" height="444" viewBox="0 0 1340 444" fill="none" xmlns="http://www.w3.org/2000/svg">
<path d="M313.65 339L319.321 323.271H322.356L328.028 339H325.48L324.04 334.902H317.615L316.197 339H313.65ZM318.369 332.73H323.309L320.828 325.552L318.369 332.73ZM328.823 339V327.214H330.972L331.039 329.452C331.482 327.901 332.412 327.214 333.852 327.214H334.982V329.319H333.852C332.058 329.319 331.172 330.183 331.172 332.044V339H328.823ZM340.621 339.266C337.231 339.266 335.038 336.829 335.038 333.107C335.038 329.385 337.231 326.948 340.621 326.948C343.479 326.948 345.495 328.499 345.894 331.224L343.434 331.357C343.191 329.828 342.105 328.986 340.621 328.986C338.627 328.986 337.475 330.515 337.475 333.107C337.475 335.699 338.627 337.228 340.621 337.228C342.127 337.228 343.213 336.386 343.434 334.68L345.894 334.813C345.517 337.516 343.501 339.266 340.621 339.266ZM347.15 339V323.271H349.498V328.92C350.119 327.569 351.403 326.948 352.954 326.948C355.524 326.948 356.92 328.787 356.92 331.423V339H354.572V332.044C354.572 329.939 353.84 328.92 352.334 328.92C350.606 328.92 349.498 330.028 349.498 332.088V339H347.15ZM363.373 339L357.702 323.271H360.249L364.88 336.342L369.51 323.271H372.057L366.364 339H363.373ZM372.989 339V323.271H376.268L380.943 336.186L385.617 323.271H388.896V339H386.503V327.48L382.272 338.978H379.613L375.382 327.48V339H372.989Z" fill="white"/>
<path d="M299.095 368.354C295.329 368.354 292.98 366.073 292.98 362.439V352.271H295.373V362.439C295.373 364.832 296.724 366.161 299.095 366.161C301.465 366.161 302.817 364.832 302.817 362.439V352.271H305.209V362.439C305.209 366.073 302.839 368.354 299.095 368.354ZM310.999 368V354.464H306.169V352.271H318.221V354.464H313.392V368H310.999ZM317.854 368L323.082 360.113L317.898 352.271H320.712L324.589 358.252L328.399 352.271H331.191L326.007 360.069L331.257 368H328.444L324.545 361.93L320.646 368H317.854ZM338.098 368.354C333.534 368.354 330.765 365.253 330.765 360.157C330.765 355.062 333.534 351.916 338.098 351.916C342.706 351.916 345.453 355.062 345.453 360.157C345.453 365.253 342.706 368.354 338.098 368.354ZM338.098 366.161C341.155 366.161 342.972 363.946 342.972 360.157C342.972 356.369 341.155 354.109 338.098 354.109C335.063 354.109 333.246 356.369 333.246 360.157C333.246 363.946 335.063 366.161 338.098 366.161ZM346.472 362.572V360.512H353.893V362.572H346.472ZM355.576 368V356.214H357.725L357.769 358.274C358.39 356.657 359.741 355.948 361.358 355.948C363.995 355.948 365.346 357.853 365.346 360.423V368H362.998V361.132C362.998 359.05 362.355 357.92 360.716 357.92C359.054 357.92 357.925 359.05 357.925 361.132V368H355.576ZM370.842 368.266C368.383 368.266 366.81 367.092 366.81 365.054C366.81 363.037 367.984 361.952 370.576 361.442L374.63 360.667C374.63 358.85 373.766 357.942 372.083 357.942C370.576 357.942 369.734 358.629 369.424 359.914L367.009 359.759C367.453 357.41 369.291 355.948 372.083 355.948C375.273 355.948 376.979 357.743 376.979 360.8V365.386C376.979 365.962 377.156 366.139 377.599 366.139H378.02V368C377.865 368.044 377.51 368.066 377.156 368.066C375.805 368.066 375.007 367.557 374.83 366.183C374.232 367.424 372.681 368.266 370.842 368.266ZM371.219 366.405C373.346 366.405 374.63 365.076 374.63 363.193V362.439L371.174 363.104C369.757 363.37 369.247 363.924 369.247 364.832C369.247 365.851 369.956 366.405 371.219 366.405ZM382.641 368C380.403 368 379.362 367.025 379.362 364.81V358.141H377.568V356.214H379.362V353.445H381.71V356.214H384.834V358.141H381.71V364.633C381.71 365.74 382.176 366.073 383.15 366.073H384.834V368H382.641ZM385.975 354.508V352.16H388.412V354.508H385.975ZM386.019 368V356.214H388.367V368H386.019ZM393.709 368L389.411 356.214H391.914L395.126 365.607L398.339 356.214H400.864L396.544 368H393.709ZM406.341 368.266C402.907 368.266 400.759 365.829 400.759 362.107C400.759 358.385 402.907 355.948 406.275 355.948C409.487 355.948 411.658 358.23 411.658 362.196V362.794H403.195C403.306 365.098 404.48 366.25 406.364 366.25C407.737 366.25 408.668 365.563 409.044 364.455L411.481 364.61C410.861 366.804 408.933 368.266 406.341 368.266ZM403.195 361.021H409.177C409.022 358.939 407.87 357.942 406.275 357.942C404.591 357.942 403.461 359.028 403.195 361.021Z" fill="white" fill-opacity="0.5"/>
<path d="M5.16481 437V423.464H0.335226V421.271H12.387V423.464H7.55745V437H5.16481ZM12.0199 437L17.2483 429.113L12.0642 421.271H14.8778L18.7548 427.252L22.5653 421.271H25.3567L20.1726 429.069L25.4231 437H22.6096L18.7105 430.93L14.8113 437H12.0199ZM26.5319 437V421.271H29.567L36.8335 434.098V421.271H39.2261V437H36.0803L28.9245 424.461V437H26.5319ZM46.2346 437.266C42.8007 437.266 41.1392 435.604 40.9619 433.278L43.3767 433.167C43.5983 434.474 44.3515 435.294 46.2346 435.294C47.6968 435.294 48.5165 434.851 48.5165 433.81C48.5165 432.946 48.0734 432.569 45.8358 432.17C42.402 431.528 41.3829 430.531 41.3829 428.604C41.3829 426.455 43.0444 424.948 46.1238 424.948C49.3805 424.948 50.7762 426.765 50.9977 428.825L48.5829 428.958C48.4943 427.85 47.8075 426.92 46.0795 426.92C44.5509 426.92 43.8198 427.585 43.8198 428.515C43.8198 429.556 44.3958 429.977 46.3011 430.287C49.8679 430.885 50.9534 431.86 50.9534 433.788C50.9534 436.003 49.0482 437.266 46.2346 437.266Z" fill="white" fill-opacity="0.5"/>
<path d="M834.802 299L840.473 283.271H843.508L849.18 299H846.632L845.192 294.902H838.767L837.349 299H834.802ZM839.52 292.73H844.461L841.98 285.552L839.52 292.73ZM849.975 299V287.214H852.124L852.191 289.452C852.634 287.901 853.564 287.214 855.004 287.214H856.134V289.319H855.004C853.21 289.319 852.324 290.183 852.324 292.044V299H849.975ZM861.773 299.266C858.383 299.266 856.19 296.829 856.19 293.107C856.19 289.385 858.383 286.948 861.773 286.948C864.631 286.948 866.647 288.499 867.046 291.224L864.586 291.357C864.343 289.828 863.257 288.986 861.773 288.986C859.779 288.986 858.627 290.515 858.627 293.107C858.627 295.699 859.779 297.228 861.773 297.228C863.279 297.228 864.365 296.386 864.586 294.68L867.046 294.813C866.669 297.516 864.653 299.266 861.773 299.266ZM868.302 299V283.271H870.65V288.92C871.271 287.569 872.555 286.948 874.106 286.948C876.676 286.948 878.072 288.787 878.072 291.423V299H875.724V292.044C875.724 289.939 874.992 288.92 873.486 288.92C871.758 288.92 870.65 290.028 870.65 292.088V299H868.302ZM891.497 299.354C887.243 299.354 884.319 296.275 884.319 291.157C884.319 286.084 887.199 282.916 891.519 282.916C895.418 282.916 897.501 284.999 898.165 288.433L895.662 288.565C895.241 286.416 893.912 285.109 891.519 285.109C888.661 285.109 886.8 287.413 886.8 291.157C886.8 294.924 888.683 297.161 891.497 297.161C894.045 297.161 895.396 295.721 895.773 293.373L898.276 293.506C897.678 297.073 895.374 299.354 891.497 299.354ZM899.87 299V283.271H902.218V288.92C902.838 287.569 904.123 286.948 905.674 286.948C908.244 286.948 909.64 288.787 909.64 291.423V299H907.291V292.044C907.291 289.939 906.56 288.92 905.054 288.92C903.326 288.92 902.218 290.028 902.218 292.088V299H899.87ZM915.136 299.266C912.676 299.266 911.104 298.092 911.104 296.054C911.104 294.037 912.278 292.952 914.87 292.442L918.924 291.667C918.924 289.85 918.06 288.942 916.376 288.942C914.87 288.942 914.028 289.629 913.718 290.914L911.303 290.759C911.746 288.41 913.585 286.948 916.376 286.948C919.566 286.948 921.272 288.743 921.272 291.8V296.386C921.272 296.962 921.449 297.139 921.893 297.139H922.313V299C922.158 299.044 921.804 299.066 921.449 299.066C920.098 299.066 919.301 298.557 919.123 297.183C918.525 298.424 916.974 299.266 915.136 299.266ZM915.512 297.405C917.639 297.405 918.924 296.076 918.924 294.193V293.439L915.468 294.104C914.05 294.37 913.54 294.924 913.54 295.832C913.54 296.851 914.249 297.405 915.512 297.405ZM923.258 285.508V283.16H925.695V285.508H923.258ZM923.302 299V287.214H925.65V299H923.302ZM928.214 299V287.214H930.363L930.407 289.274C931.027 287.657 932.379 286.948 933.996 286.948C936.632 286.948 937.984 288.853 937.984 291.423V299H935.635V292.132C935.635 290.05 934.993 288.92 933.354 288.92C931.692 288.92 930.562 290.05 930.562 292.132V299H928.214Z" fill="white"/>
<path d="M804.555 328.266C801.187 328.266 798.972 325.851 798.972 322.107C798.972 318.363 801.187 315.948 804.555 315.948C807.922 315.948 810.138 318.363 810.138 322.107C810.138 325.851 807.922 328.266 804.555 328.266ZM804.555 326.228C806.549 326.228 807.701 324.699 807.701 322.107C807.701 319.515 806.549 317.986 804.555 317.986C802.561 317.986 801.409 319.515 801.409 322.107C801.409 324.699 802.561 326.228 804.555 326.228ZM811.625 328V316.214H813.774L813.818 318.274C814.438 316.657 815.79 315.948 817.407 315.948C820.043 315.948 821.395 317.853 821.395 320.423V328H819.046V321.132C819.046 319.05 818.404 317.92 816.764 317.92C815.103 317.92 813.973 319.05 813.973 321.132V328H811.625ZM828.42 328.266C824.986 328.266 822.837 325.829 822.837 322.107C822.837 318.385 824.986 315.948 828.353 315.948C831.566 315.948 833.737 318.23 833.737 322.196V322.794H825.274C825.385 325.098 826.559 326.25 828.442 326.25C829.815 326.25 830.746 325.563 831.123 324.455L833.56 324.61C832.939 326.804 831.012 328.266 828.42 328.266ZM825.274 321.021H831.255C831.1 318.939 829.948 317.942 828.353 317.942C826.67 317.942 825.54 319.028 825.274 321.021ZM845.818 328.266C844.179 328.266 842.872 327.513 842.207 326.228L842.141 328H839.947V312.271H842.296V317.876C842.894 316.857 844.179 315.948 845.818 315.948C848.898 315.948 850.825 318.341 850.825 322.107C850.825 325.873 848.898 328.266 845.818 328.266ZM845.442 326.228C847.236 326.228 848.388 324.655 848.388 322.107C848.388 319.515 847.258 317.986 845.464 317.986C843.47 317.986 842.296 319.515 842.296 322.107C842.296 324.655 843.47 326.228 845.442 326.228ZM855.001 328C853.451 328 852.431 327.247 852.431 325.497V312.271H854.78V325.275C854.78 325.829 855.068 326.073 855.599 326.073H856.53V328H855.001ZM862.498 328.266C859.131 328.266 856.915 325.851 856.915 322.107C856.915 318.363 859.131 315.948 862.498 315.948C865.865 315.948 868.081 318.363 868.081 322.107C868.081 325.851 865.865 328.266 862.498 328.266ZM862.498 326.228C864.492 326.228 865.644 324.699 865.644 322.107C865.644 319.515 864.492 317.986 862.498 317.986C860.504 317.986 859.352 319.515 859.352 322.107C859.352 324.699 860.504 326.228 862.498 326.228ZM874.42 328.266C871.03 328.266 868.837 325.829 868.837 322.107C868.837 318.385 871.03 315.948 874.42 315.948C877.278 315.948 879.294 317.499 879.692 320.224L877.233 320.357C876.99 318.828 875.904 317.986 874.42 317.986C872.426 317.986 871.274 319.515 871.274 322.107C871.274 324.699 872.426 326.228 874.42 326.228C875.926 326.228 877.012 325.386 877.233 323.68L879.692 323.813C879.316 326.516 877.3 328.266 874.42 328.266ZM880.949 328V312.271H883.297V322.041L888.592 316.214H891.561L886.952 321.177L891.738 328H889.035L885.38 322.639L883.297 324.854V328H880.949ZM897.222 330.437L903.779 311.384H906.039L899.504 330.437H897.222ZM915.151 328V316.79H911.828V314.863H913.179C914.974 314.863 915.661 314.242 915.661 312.271H917.544V328H915.151ZM925.557 328.354C921.968 328.354 919.487 326.737 919.487 323.702C919.487 321.642 920.683 320.18 922.589 319.537C921.149 318.983 920.24 317.876 920.24 316.236C920.24 313.733 922.279 311.916 925.557 311.916C928.836 311.916 930.874 313.733 930.874 316.236C930.874 317.898 929.966 318.983 928.526 319.537C930.431 320.202 931.628 321.642 931.628 323.702C931.628 326.737 929.168 328.354 925.557 328.354ZM925.557 318.651C927.352 318.651 928.393 317.898 928.393 316.347C928.393 314.973 927.418 314.087 925.557 314.087C923.696 314.087 922.722 314.973 922.722 316.347C922.722 317.898 923.763 318.651 925.557 318.651ZM925.557 326.161C927.728 326.161 929.146 325.275 929.146 323.458C929.146 321.753 927.972 320.623 925.557 320.623C923.143 320.623 921.968 321.753 921.968 323.458C921.968 325.275 923.386 326.161 925.557 326.161ZM939.028 328.354C935.106 328.354 932.647 325.209 932.647 320.157C932.647 315.106 935.106 311.916 939.028 311.916C942.971 311.916 945.43 315.084 945.43 320.157C945.43 325.186 942.971 328.354 939.028 328.354ZM939.028 326.161C941.553 326.161 942.949 324.034 942.949 320.157C942.949 316.258 941.553 314.109 939.028 314.109C936.524 314.109 935.128 316.258 935.128 320.157C935.128 324.034 936.524 326.161 939.028 326.161ZM947.265 328V316.214H949.414L949.459 318.23C950.035 316.79 951.253 315.948 952.738 315.948C954.488 315.948 955.706 316.857 956.216 318.385C956.747 316.812 957.944 315.948 959.627 315.948C962.109 315.948 963.527 317.543 963.527 320.423V328H961.178V320.999C961.178 318.961 960.447 317.92 958.941 317.92C957.456 317.92 956.504 319.094 956.504 321.088V328H954.266V321.088C954.266 319.094 953.646 317.92 952.073 317.92C950.566 317.92 949.614 319.116 949.614 321.088V328H947.265ZM970.262 328.266C966.829 328.266 965.167 326.604 964.99 324.278L967.405 324.167C967.626 325.474 968.379 326.294 970.262 326.294C971.725 326.294 972.544 325.851 972.544 324.81C972.544 323.946 972.101 323.569 969.864 323.17C966.43 322.528 965.411 321.531 965.411 319.604C965.411 317.455 967.072 315.948 970.152 315.948C973.408 315.948 974.804 317.765 975.026 319.825L972.611 319.958C972.522 318.85 971.835 317.92 970.107 317.92C968.579 317.92 967.848 318.585 967.848 319.515C967.848 320.556 968.424 320.977 970.329 321.287C973.896 321.885 974.981 322.86 974.981 324.788C974.981 327.003 973.076 328.266 970.262 328.266Z" fill="white" fill-opacity="0.5"/>
<rect x="12" y="156" width="28" height="28" rx="5.56522" fill="#595959"/>
<rect x="12" y="104" width="28" height="28" rx="5.56522" fill="#595959"/>
<rect x="12" y="52" width="28" height="28" rx="5.56522" fill="#595959"/>
<rect x="12" width="28" height="28" rx="5.56522" fill="#595959"/>
<rect x="12" y="208" width="28" height="28" rx="5.56522" fill="#595959"/>
<rect x="12" y="260" width="28" height="28" rx="5.56522" fill="#595959"/>
<rect x="12" y="312" width="28" height="28" rx="5.56522" fill="#595959"/>
<rect x="12" y="364" width="28" height="28" rx="5.56522" fill="#595959"/>
<g filter="url(#filter0_ii_269_8804)">
<rect x="260" y="104" width="184" height="184" rx="21.3953" fill="#F97316"/>
<rect x="261.75" y="105.75" width="180.5" height="180.5" rx="19.6453" stroke="white" stroke-opacity="0.42" stroke-width="3.5"/>
<path d="M378.814 237.765H374.571C374.127 237.765 373.71 237.538 373.474 237.158L352.988 204.214C352.507 203.443 351.755 203.362 351.456 203.362C351.157 203.362 350.395 203.443 349.924 204.214L329.437 237.158C329.202 237.538 328.785 237.765 328.34 237.765H324.098C323.083 237.765 322.466 236.65 323.001 235.789L344.675 200.95C346.144 198.584 348.682 197.179 351.465 197.179C354.248 197.179 356.786 198.584 358.255 200.95L379.929 235.789C380.463 236.65 379.847 237.765 378.832 237.765H378.814Z" fill="white"/>
<path d="M390.48 237.766H386.238C385.794 237.766 385.377 237.539 385.141 237.159L354.239 187.471C353.622 186.483 352.616 185.921 351.456 185.921C350.296 185.921 349.28 186.483 348.673 187.471L317.771 237.159C317.535 237.539 317.118 237.766 316.674 237.766H312.432C311.416 237.766 310.8 236.651 311.335 235.79L343.415 184.208C345.156 181.406 348.156 179.738 351.456 179.738C353.106 179.738 354.674 180.155 356.061 180.926C357.439 181.696 358.626 182.811 359.496 184.208L391.577 235.79C392.112 236.651 391.495 237.766 390.48 237.766Z" fill="white"/>
<path d="M402.137 237.765H397.895C397.451 237.765 397.034 237.538 396.798 237.158L355.489 170.726C354.601 169.303 353.133 168.487 351.456 168.487C349.779 168.487 348.31 169.303 347.422 170.726L306.113 237.158C305.877 237.538 305.46 237.765 305.016 237.765H300.774C299.759 237.765 299.142 236.65 299.677 235.789L342.173 167.454C344.14 164.29 347.512 162.368 351.229 162.295C355.145 162.214 358.789 164.299 360.865 167.626L403.252 235.78C403.787 236.641 403.171 237.756 402.155 237.756L402.137 237.765Z" fill="white"/>
<path d="M413.803 237.766H409.56C409.116 237.766 408.699 237.539 408.464 237.158L356.739 153.983C355.579 152.115 353.657 151.046 351.455 151.046C349.252 151.046 347.33 152.115 346.17 153.983L294.446 237.158C294.21 237.539 293.793 237.766 293.349 237.766H289.106C288.091 237.766 287.475 236.651 288.01 235.789L340.921 150.71C343.206 147.048 347.14 144.854 351.464 144.854C355.788 144.854 359.722 147.039 362.006 150.71L414.918 235.789C415.453 236.651 414.836 237.766 413.821 237.766H413.803Z" fill="white"/>
</g>
<rect x="508" y="168" width="64" height="64" rx="5.56522" fill="#595959"/>
<rect x="636" y="168" width="64" height="64" rx="5.56522" fill="#595959"/>
<rect x="764" y="168" width="64" height="64" rx="5.56522" fill="#595959"/>
<rect x="1148" y="168" width="64" height="64" rx="5.56522" fill="#595959"/>
<rect x="892" y="168" width="64" height="64" rx="5.56522" fill="#595959"/>
<rect x="1276" y="168" width="64" height="64" rx="5.56522" fill="#595959"/>
<rect x="1020" y="168" width="64" height="64" rx="5.56522" fill="#595959"/>
<line x1="444" y1="198.5" x2="1308" y2="198.5" stroke="#595959" stroke-width="3"/>
<path d="M40 14C142.792 14 170.161 200 260 200" stroke="white" stroke-opacity="0.18" stroke-width="3" stroke-linecap="round"/>
<path d="M40 67C142.792 67 170.161 200 260 200" stroke="white" stroke-opacity="0.18" stroke-width="3" stroke-linecap="round"/>
<path d="M40 119C142.792 119 170.161 200 260 200" stroke="white" stroke-opacity="0.18" stroke-width="3" stroke-linecap="round"/>
<path d="M40 171C142.792 171 170.161 200 260 200" stroke="white" stroke-opacity="0.18" stroke-width="3" stroke-linecap="round"/>
<path d="M40 222C142.792 222 170.161 200 260 200" stroke="white" stroke-opacity="0.18" stroke-width="3" stroke-linecap="round"/>
<path d="M40 273C142.792 273 170.161 200 260 200" stroke="white" stroke-opacity="0.18" stroke-width="3" stroke-linecap="round"/>
<path d="M40 326C142.792 326 170.161 200 260 200" stroke="white" stroke-opacity="0.18" stroke-width="3" stroke-linecap="round"/>
<path d="M40 380C142.792 380 170.161 200 260 200" stroke="white" stroke-opacity="0.18" stroke-width="3" stroke-linecap="round"/>
<defs>
<filter id="filter0_ii_269_8804" x="260" y="104" width="184" height="184" filterUnits="userSpaceOnUse" color-interpolation-filters="sRGB">
<feFlood flood-opacity="0" result="BackgroundImageFix"/>
<feBlend mode="normal" in="SourceGraphic" in2="BackgroundImageFix" result="shape"/>
<feColorMatrix in="SourceAlpha" type="matrix" values="0 0 0 0 0 0 0 0 0 0 0 0 0 0 0 0 0 0 127 0" result="hardAlpha"/>
<feOffset/>
<feGaussianBlur stdDeviation="30.2632"/>
<feComposite in2="hardAlpha" operator="arithmetic" k2="-1" k3="1"/>
<feColorMatrix type="matrix" values="0 0 0 0 0 0 0 0 0 0 0 0 0 0 0 0 0 0 0.04 0"/>
<feBlend mode="normal" in2="shape" result="effect1_innerShadow_269_8804"/>
<feColorMatrix in="SourceAlpha" type="matrix" values="0 0 0 0 0 0 0 0 0 0 0 0 0 0 0 0 0 0 127 0" result="hardAlpha"/>
<feOffset/>
<feGaussianBlur stdDeviation="10.2895"/>
<feComposite in2="hardAlpha" operator="arithmetic" k2="-1" k3="1"/>
<feColorMatrix type="matrix" values="0 0 0 0 0 0 0 0 0 0 0 0 0 0 0 0 0 0 0.05 0"/>
<feBlend mode="normal" in2="effect1_innerShadow_269_8804" result="effect2_innerShadow_269_8804"/>
</filter>
</defs>
</svg>
