<svg width="1152" height="429" viewBox="0 0 1152 429" fill="none" xmlns="http://www.w3.org/2000/svg">
<line x1="636" y1="231.5" x2="1091" y2="231.5" stroke="#595959" stroke-width="3"/>
<line x1="516" y1="232.5" x2="60" y2="232.5" stroke="#595959" stroke-width="3"/>
<line x1="554.5" y1="185" x2="554.5" y2="120" stroke="#F97317" stroke-width="3"/>
<line x1="575.5" y1="271" x2="575.5" y2="120" stroke="#F97317" stroke-width="3"/>
<line x1="598.5" y1="230" x2="598.5" y2="120" stroke="#F77316" stroke-width="3"/>
<rect y="172" width="120" height="120" rx="10.4348" fill="#595959"/>
<rect x="172" y="172" width="120" height="120" rx="10.4348" fill="#595959"/>
<rect x="516" y="172" width="120" height="120" rx="10.4348" fill="#595959"/>
<rect x="522" y="179.739" width="18.3153" height="18.3153" rx="3.85586" fill="white" fill-opacity="0.2"/>
<rect x="522" y="201.054" width="18.3153" height="18.3153" rx="3.85586" fill="white" fill-opacity="0.2"/>
<rect x="522" y="222.369" width="18.3153" height="18.3153" rx="3.85586" fill="white" fill-opacity="0.2"/>
<rect x="522" y="243.685" width="18.3153" height="18.3153" rx="3.85586" fill="white" fill-opacity="0.2"/>
<rect x="522" y="265" width="18.3153" height="18.3153" rx="3.85586" fill="white" fill-opacity="0.2"/>
<rect x="544.315" y="179.739" width="18.3153" height="18.3153" rx="3.85586" fill="#F87317"/>
<rect x="544.315" y="201.054" width="18.3153" height="18.3153" rx="3.85586" fill="white" fill-opacity="0.2"/>
<rect x="544.315" y="222.369" width="18.3153" height="18.3153" rx="3.85586" fill="white" fill-opacity="0.2"/>
<rect x="544.315" y="243.685" width="18.3153" height="18.3153" rx="3.85586" fill="white" fill-opacity="0.2"/>
<rect x="566.631" y="265" width="18.3153" height="18.3153" rx="3.85586" fill="#F97316"/>
<rect x="566.631" y="179.739" width="18.3153" height="18.3153" rx="3.85586" fill="white" fill-opacity="0.2"/>
<rect x="566.631" y="201.054" width="18.3153" height="18.3153" rx="3.85586" fill="white" fill-opacity="0.2"/>
<rect x="566.631" y="222.369" width="18.3153" height="18.3153" rx="3.85586" fill="white" fill-opacity="0.2"/>
<rect x="566.631" y="243.685" width="18.3153" height="18.3153" rx="3.85586" fill="white" fill-opacity="0.2"/>
<rect x="544.315" y="265" width="18.3153" height="18.3153" rx="3.85586" fill="white" fill-opacity="0.2"/>
<rect x="588.946" y="179.739" width="18.3153" height="18.3153" rx="3.85586" fill="white" fill-opacity="0.2"/>
<rect x="588.946" y="201.054" width="18.3153" height="18.3153" rx="3.85586" fill="white" fill-opacity="0.2"/>
<rect x="588.946" y="222.369" width="18.3153" height="18.3153" rx="3.85586" fill="#F77317"/>
<rect x="588.946" y="243.685" width="18.3153" height="18.3153" rx="3.85586" fill="white" fill-opacity="0.2"/>
<rect x="588.946" y="265" width="18.3153" height="18.3153" rx="3.85586" fill="white" fill-opacity="0.2"/>
<rect x="611.261" y="179.739" width="18.3153" height="18.3153" rx="3.85586" fill="white" fill-opacity="0.2"/>
<rect x="611.261" y="201.054" width="18.3153" height="18.3153" rx="3.85586" fill="white" fill-opacity="0.2"/>
<rect x="611.261" y="222.369" width="18.3153" height="18.3153" rx="3.85586" fill="white" fill-opacity="0.2"/>
<rect x="611.261" y="243.685" width="18.3153" height="18.3153" rx="3.85586" fill="white" fill-opacity="0.2"/>
<rect x="611.261" y="265" width="18.3153" height="18.3153" rx="3.85586" fill="white" fill-opacity="0.2"/>
<rect x="344" y="172" width="120" height="120" rx="10.4348" fill="#595959"/>
<rect x="688" y="172" width="120" height="120" rx="10.4348" fill="#595959"/>
<rect x="860" y="172" width="120" height="120" rx="10.4348" fill="#595959"/>
<rect x="1032" y="172" width="120" height="120" rx="10.4348" fill="#595959"/>
<g filter="url(#filter0_ii_269_8889)">
<rect x="516" width="120" height="120" rx="13.9535" fill="#F97316"/>
<rect x="517.2" y="1.2" width="117.6" height="117.6" rx="12.7535" stroke="white" stroke-opacity="0.42" stroke-width="2.4"/>
<path d="M593.487 87.2381H590.721C590.431 87.2381 590.159 87.0903 590.005 86.842L576.645 65.3569C576.331 64.8544 575.841 64.8012 575.645 64.8012C575.45 64.8012 574.954 64.8544 574.646 65.3569L561.286 86.842C561.132 87.0903 560.86 87.2381 560.57 87.2381H557.803C557.141 87.2381 556.739 86.5109 557.088 85.9492L571.223 63.2285C572.181 61.6854 573.836 60.769 575.651 60.769C577.466 60.769 579.122 61.6854 580.079 63.2285L594.215 85.9492C594.563 86.5109 594.161 87.2381 593.499 87.2381H593.487Z" fill="white"/>
<path d="M601.096 87.2387H598.329C598.039 87.2387 597.768 87.0909 597.614 86.8426L577.46 54.4377C577.058 53.7932 576.402 53.4267 575.645 53.4267C574.889 53.4267 574.226 53.7932 573.83 54.4377L553.677 86.8426C553.523 87.0909 553.251 87.2387 552.961 87.2387H550.195C549.533 87.2387 549.131 86.5115 549.479 85.9499L570.401 52.3093C571.537 50.4824 573.493 49.3945 575.645 49.3945C576.721 49.3945 577.744 49.6665 578.649 50.169C579.547 50.6716 580.322 51.3988 580.889 52.3093L601.811 85.9499C602.16 86.5115 601.758 87.2387 601.096 87.2387Z" fill="white"/>
<path d="M608.698 87.2384H605.932C605.642 87.2384 605.37 87.0906 605.216 86.8423L578.276 43.5175C577.697 42.5892 576.739 42.0571 575.645 42.0571C574.551 42.0571 573.594 42.5892 573.014 43.5175L546.074 86.8423C545.92 87.0906 545.648 87.2384 545.359 87.2384H542.592C541.93 87.2384 541.528 86.5112 541.877 85.9496L569.591 41.3831C570.874 39.3198 573.074 38.0664 575.497 38.0191C578.051 37.9659 580.428 39.3257 581.782 41.4955L609.426 85.9437C609.774 86.5053 609.372 87.2325 608.71 87.2325L608.698 87.2384Z" fill="white"/>
<path d="M616.306 87.2385H613.54C613.25 87.2385 612.978 87.0907 612.824 86.8424L579.091 32.5977C578.334 31.3797 577.081 30.6821 575.645 30.6821C574.208 30.6821 572.955 31.3797 572.198 32.5977L538.465 86.8424C538.311 87.0907 538.039 87.2385 537.749 87.2385H534.983C534.321 87.2385 533.919 86.5113 534.267 85.9497L568.775 30.4634C570.265 28.0748 572.83 26.644 575.65 26.644C578.47 26.644 581.036 28.0689 582.526 30.4634L617.034 85.9497C617.382 86.5113 616.98 87.2385 616.318 87.2385H616.306Z" fill="white"/>
</g>
<path opacity="0.5" d="M6.92666 146V130.271H12.5759C16.3421 130.271 18.2917 131.578 18.2917 134.524C18.2917 136.319 17.2061 137.604 15.3673 137.869C17.6271 138.135 18.9563 139.575 18.9563 141.68C18.9563 144.56 16.9624 146 13.4178 146H6.92666ZM9.31929 136.983H12.5316C14.6363 136.983 15.8326 136.164 15.8326 134.701C15.8326 133.151 14.7027 132.42 12.5316 132.42H9.31929V136.983ZM9.31929 143.851H13.3513C15.323 143.851 16.4972 143.031 16.4972 141.458C16.4972 139.908 15.323 139.021 13.3513 139.021H9.31929V143.851ZM20.832 132.508V130.16H23.2689V132.508H20.832ZM20.8763 146V134.214H23.2246V146H20.8763ZM29.3774 146C27.1398 146 26.0986 145.025 26.0986 142.81V136.141H24.3041V134.214H26.0986V131.445H28.4469V134.214H31.5706V136.141H28.4469V142.633C28.4469 143.74 28.9121 144.073 29.8869 144.073H31.5706V146H29.3774ZM37.5856 146.266C34.196 146.266 32.0028 143.829 32.0028 140.107C32.0028 136.385 34.196 133.948 37.5856 133.948C40.4435 133.948 42.4595 135.499 42.8583 138.224L40.3992 138.357C40.1555 136.828 39.0699 135.986 37.5856 135.986C35.5917 135.986 34.4397 137.515 34.4397 140.107C34.4397 142.699 35.5917 144.228 37.5856 144.228C39.0921 144.228 40.1776 143.386 40.3992 141.68L42.8583 141.813C42.4817 144.516 40.4656 146.266 37.5856 146.266ZM48.9664 146.266C45.599 146.266 43.3836 143.851 43.3836 140.107C43.3836 136.363 45.599 133.948 48.9664 133.948C52.3338 133.948 54.5492 136.363 54.5492 140.107C54.5492 143.851 52.3338 146.266 48.9664 146.266ZM48.9664 144.228C50.9603 144.228 52.1123 142.699 52.1123 140.107C52.1123 137.515 50.9603 135.986 48.9664 135.986C46.9725 135.986 45.8205 137.515 45.8205 140.107C45.8205 142.699 46.9725 144.228 48.9664 144.228ZM55.992 132.508V130.16H58.4289V132.508H55.992ZM56.0363 146V134.214H58.3846V146H56.0363ZM60.9483 146V134.214H63.0972L63.1415 136.274C63.7618 134.657 65.1132 133.948 66.7305 133.948C69.3668 133.948 70.7182 135.853 70.7182 138.423V146H68.3699V139.132C68.3699 137.05 67.7274 135.92 66.088 135.92C64.4265 135.92 63.2966 137.05 63.2966 139.132V146H60.9483ZM80.2219 146C78.6712 146 77.6521 145.247 77.6521 143.497V130.271H80.0004V143.275C80.0004 143.829 80.2884 144.073 80.8201 144.073H81.7506V146H80.2219ZM87.7187 146.266C84.2848 146.266 82.1358 143.829 82.1358 140.107C82.1358 136.385 84.2848 133.948 87.6522 133.948C90.8645 133.948 93.0356 136.23 93.0356 140.196V140.794H84.5728C84.6836 143.098 85.8577 144.25 87.7408 144.25C89.1144 144.25 90.0448 143.563 90.4215 142.455L92.8584 142.61C92.2381 144.804 90.3107 146.266 87.7187 146.266ZM84.5728 139.021H90.5544C90.3993 136.939 89.2473 135.942 87.6522 135.942C85.9685 135.942 84.8386 137.028 84.5728 139.021ZM98.7161 146.266C95.681 146.266 93.7979 143.895 93.7979 140.107C93.7979 136.341 95.7031 133.948 98.7161 133.948C100.333 133.948 101.685 134.657 102.327 135.876V130.271H104.676V146H102.482L102.416 144.228C101.751 145.513 100.355 146.266 98.7161 146.266ZM99.3364 144.228C101.264 144.228 102.327 142.699 102.327 140.107C102.327 137.493 101.264 135.986 99.3364 135.986C97.4533 135.986 96.2348 137.537 96.2348 140.107C96.2348 142.633 97.4533 144.228 99.3364 144.228ZM111.646 149.589C108.832 149.589 107.016 148.238 106.506 146.199L108.943 146.044C109.253 147.041 109.984 147.639 111.646 147.639C113.595 147.639 114.681 146.842 114.681 145.136V143.43C114.105 144.626 112.776 145.402 111.247 145.402C108.278 145.402 106.174 143.076 106.174 139.686C106.174 136.319 108.234 133.948 111.159 133.948C112.842 133.948 114.194 134.768 114.77 136.075V134.214H117.029V145.07C117.029 147.972 114.947 149.589 111.646 149.589ZM111.624 143.408C113.463 143.408 114.659 141.99 114.681 139.664C114.725 137.36 113.485 135.942 111.624 135.942C109.719 135.942 108.611 137.382 108.611 139.664C108.611 141.968 109.763 143.408 111.624 143.408ZM124.111 146.266C120.677 146.266 118.528 143.829 118.528 140.107C118.528 136.385 120.677 133.948 124.045 133.948C127.257 133.948 129.428 136.23 129.428 140.196V140.794H120.965C121.076 143.098 122.25 144.25 124.133 144.25C125.507 144.25 126.437 143.563 126.814 142.455L129.251 142.61C128.63 144.804 126.703 146.266 124.111 146.266ZM120.965 139.021H126.947C126.792 136.939 125.64 135.942 124.045 135.942C122.361 135.942 121.231 137.028 120.965 139.021ZM130.921 146V134.214H133.07L133.137 136.452C133.58 134.901 134.51 134.214 135.95 134.214H137.08V136.319H135.95C134.156 136.319 133.27 137.183 133.27 139.044V146H130.921Z" fill="white"/>
<path d="M507.969 364V357.686L502.453 348.271H505.2L509.165 355.293L513.153 348.271H515.9L510.362 357.686V364H507.969ZM519.809 364.266C516.441 364.266 514.226 361.851 514.226 358.107C514.226 354.363 516.441 351.948 519.809 351.948C523.176 351.948 525.392 354.363 525.392 358.107C525.392 361.851 523.176 364.266 519.809 364.266ZM519.809 362.228C521.803 362.228 522.955 360.699 522.955 358.107C522.955 355.515 521.803 353.986 519.809 353.986C517.815 353.986 516.663 355.515 516.663 358.107C516.663 360.699 517.815 362.228 519.809 362.228ZM530.756 364.266C528.363 364.266 526.879 362.604 526.879 359.791V352.214H529.227V359.193C529.227 361.342 529.958 362.294 531.465 362.294C533.171 362.294 534.19 361.142 534.19 359.126V352.214H536.538V364H534.345L534.323 362.073C533.702 363.513 532.462 364.266 530.756 364.266ZM538.974 364V352.214H541.122L541.189 354.452C541.632 352.901 542.562 352.214 544.002 352.214H545.132V354.319H544.002C542.208 354.319 541.322 355.183 541.322 357.044V364H538.974ZM551.551 364V348.271H557.2C560.966 348.271 562.916 349.578 562.916 352.524C562.916 354.319 561.83 355.604 559.991 355.869C562.251 356.135 563.58 357.575 563.58 359.68C563.58 362.56 561.587 364 558.042 364H551.551ZM553.943 354.983H557.156C559.26 354.983 560.457 354.164 560.457 352.701C560.457 351.151 559.327 350.42 557.156 350.42H553.943V354.983ZM553.943 361.851H557.975C559.947 361.851 561.121 361.031 561.121 359.458C561.121 357.908 559.947 357.021 557.975 357.021H553.943V361.851ZM568.264 364V350.464H563.434V348.271H575.486V350.464H570.656V364H568.264ZM582.139 364.354C577.886 364.354 574.961 361.275 574.961 356.157C574.961 351.084 577.841 347.916 582.161 347.916C586.06 347.916 588.143 349.999 588.807 353.433L586.304 353.565C585.883 351.416 584.554 350.109 582.161 350.109C579.303 350.109 577.442 352.413 577.442 356.157C577.442 359.924 579.326 362.161 582.139 362.161C584.687 362.161 586.038 360.721 586.415 358.373L588.918 358.506C588.32 362.073 586.016 364.354 582.139 364.354ZM601.082 364.354C597.316 364.354 594.968 362.073 594.968 358.439V348.271H597.36V358.439C597.36 360.832 598.712 362.161 601.082 362.161C603.453 362.161 604.804 360.832 604.804 358.439V348.271H607.197V358.439C607.197 362.073 604.826 364.354 601.082 364.354ZM612.986 364V350.464H608.157V348.271H620.208V350.464H615.379V364H612.986ZM619.841 364L625.07 356.113L619.886 348.271H622.699L626.576 354.252L630.387 348.271H633.178L627.994 356.069L633.245 364H630.431L626.532 357.93L622.633 364H619.841ZM640.085 364.354C635.521 364.354 632.752 361.253 632.752 356.157C632.752 351.062 635.521 347.916 640.085 347.916C644.693 347.916 647.44 351.062 647.44 356.157C647.44 361.253 644.693 364.354 640.085 364.354ZM640.085 362.161C643.142 362.161 644.959 359.946 644.959 356.157C644.959 352.369 643.142 350.109 640.085 350.109C637.05 350.109 635.233 352.369 635.233 356.157C635.233 359.946 637.05 362.161 640.085 362.161Z" fill="white"/>
<path d="M466.731 393L472.402 377.271H475.438L481.109 393H478.561L477.121 388.902H470.697L469.279 393H466.731ZM471.45 386.73H476.39L473.909 379.552L471.45 386.73ZM486.838 393V381.214H488.987L489.054 383.452C489.497 381.901 490.427 381.214 491.867 381.214H492.997V383.319H491.867C490.073 383.319 489.187 384.183 489.187 386.044V393H486.838ZM498.636 393.266C495.202 393.266 493.053 390.829 493.053 387.107C493.053 383.385 495.202 380.948 498.569 380.948C501.782 380.948 503.953 383.23 503.953 387.196V387.794H495.49C495.601 390.098 496.775 391.25 498.658 391.25C500.031 391.25 500.962 390.563 501.339 389.455L503.775 389.61C503.155 391.804 501.228 393.266 498.636 393.266ZM495.49 386.021H501.471C501.316 383.939 500.164 382.942 498.569 382.942C496.886 382.942 495.756 384.028 495.49 386.021ZM508.985 393.266C506.526 393.266 504.953 392.092 504.953 390.054C504.953 388.037 506.127 386.952 508.719 386.442L512.773 385.667C512.773 383.85 511.909 382.942 510.226 382.942C508.719 382.942 507.877 383.629 507.567 384.914L505.152 384.759C505.595 382.41 507.434 380.948 510.226 380.948C513.416 380.948 515.122 382.743 515.122 385.8V390.386C515.122 390.962 515.299 391.139 515.742 391.139H516.163V393C516.008 393.044 515.653 393.066 515.299 393.066C513.947 393.066 513.15 392.557 512.973 391.183C512.375 392.424 510.824 393.266 508.985 393.266ZM509.362 391.405C511.488 391.405 512.773 390.076 512.773 388.193V387.439L509.317 388.104C507.899 388.37 507.39 388.924 507.39 389.832C507.39 390.851 508.099 391.405 509.362 391.405ZM519.678 393C518.127 393 517.108 392.247 517.108 390.497V377.271H519.456V390.275C519.456 390.829 519.744 391.073 520.276 391.073H521.207V393H519.678ZM531.827 393.266C528.437 393.266 526.244 390.829 526.244 387.107C526.244 383.385 528.437 380.948 531.827 380.948C534.685 380.948 536.701 382.499 537.1 385.224L534.641 385.357C534.397 383.828 533.311 382.986 531.827 382.986C529.833 382.986 528.681 384.515 528.681 387.107C528.681 389.699 529.833 391.228 531.827 391.228C533.333 391.228 534.419 390.386 534.641 388.68L537.1 388.813C536.723 391.516 534.707 393.266 531.827 393.266ZM543.208 393.266C539.84 393.266 537.625 390.851 537.625 387.107C537.625 383.363 539.84 380.948 543.208 380.948C546.575 380.948 548.791 383.363 548.791 387.107C548.791 390.851 546.575 393.266 543.208 393.266ZM543.208 391.228C545.202 391.228 546.354 389.699 546.354 387.107C546.354 384.515 545.202 382.986 543.208 382.986C541.214 382.986 540.062 384.515 540.062 387.107C540.062 389.699 541.214 391.228 543.208 391.228ZM550.233 379.508V377.16H552.67V379.508H550.233ZM550.278 393V381.214H552.626V393H550.278ZM555.19 393V381.214H557.339L557.383 383.274C558.003 381.657 559.355 380.948 560.972 380.948C563.608 380.948 564.96 382.853 564.96 385.423V393H562.611V386.132C562.611 384.05 561.969 382.92 560.329 382.92C558.668 382.92 557.538 384.05 557.538 386.132V393H555.19ZM571.849 379.508V377.16H574.286V379.508H571.849ZM571.893 393V381.214H574.242V393H571.893ZM576.805 393V381.214H578.954L578.999 383.274C579.619 381.657 580.97 380.948 582.588 380.948C585.224 380.948 586.575 382.853 586.575 385.423V393H584.227V386.132C584.227 384.05 583.585 382.92 581.945 382.92C580.284 382.92 579.154 384.05 579.154 386.132V393H576.805ZM598.029 393C595.791 393 594.75 392.025 594.75 389.81V383.141H592.955V381.214H594.75V378.445H597.098V381.214H600.222V383.141H597.098V389.633C597.098 390.74 597.563 391.073 598.538 391.073H600.222V393H598.029ZM601.407 393V377.271H603.755V382.92C604.375 381.569 605.66 380.948 607.211 380.948C609.781 380.948 611.177 382.787 611.177 385.423V393H608.828V386.044C608.828 383.939 608.097 382.92 606.591 382.92C604.863 382.92 603.755 384.028 603.755 386.088V393H601.407ZM618.202 393.266C614.768 393.266 612.619 390.829 612.619 387.107C612.619 383.385 614.768 380.948 618.135 380.948C621.348 380.948 623.519 383.23 623.519 387.196V387.794H615.056C615.167 390.098 616.341 391.25 618.224 391.25C619.598 391.25 620.528 390.563 620.905 389.455L623.342 389.61C622.721 391.804 620.794 393.266 618.202 393.266ZM615.056 386.021H621.038C620.882 383.939 619.73 382.942 618.135 382.942C616.452 382.942 615.322 384.028 615.056 386.021ZM634.581 393.266C631.192 393.266 628.998 390.829 628.998 387.107C628.998 383.385 631.192 380.948 634.581 380.948C637.439 380.948 639.455 382.499 639.854 385.224L637.395 385.357C637.151 383.828 636.065 382.986 634.581 382.986C632.587 382.986 631.435 384.515 631.435 387.107C631.435 389.699 632.587 391.228 634.581 391.228C636.088 391.228 637.173 390.386 637.395 388.68L639.854 388.813C639.477 391.516 637.461 393.266 634.581 393.266ZM641.11 393V377.271H643.458V382.92C644.079 381.569 645.364 380.948 646.915 380.948C649.484 380.948 650.88 382.787 650.88 385.423V393H648.532V386.044C648.532 383.939 647.801 382.92 646.294 382.92C644.566 382.92 643.458 384.028 643.458 386.088V393H641.11ZM656.376 393.266C653.917 393.266 652.344 392.092 652.344 390.054C652.344 388.037 653.518 386.952 656.11 386.442L660.164 385.667C660.164 383.85 659.3 382.942 657.617 382.942C656.11 382.942 655.268 383.629 654.958 384.914L652.543 384.759C652.986 382.41 654.825 380.948 657.617 380.948C660.807 380.948 662.513 382.743 662.513 385.8V390.386C662.513 390.962 662.69 391.139 663.133 391.139H663.554V393C663.399 393.044 663.044 393.066 662.69 393.066C661.339 393.066 660.541 392.557 660.364 391.183C659.766 392.424 658.215 393.266 656.376 393.266ZM656.753 391.405C658.879 391.405 660.164 390.076 660.164 388.193V387.439L656.708 388.104C655.291 388.37 654.781 388.924 654.781 389.832C654.781 390.851 655.49 391.405 656.753 391.405ZM664.498 379.508V377.16H666.935V379.508H664.498ZM664.542 393V381.214H666.891V393H664.542ZM669.454 393V381.214H671.603L671.648 383.274C672.268 381.657 673.619 380.948 675.237 380.948C677.873 380.948 679.224 382.853 679.224 385.423V393H676.876V386.132C676.876 384.05 676.234 382.92 674.594 382.92C672.933 382.92 671.803 384.05 671.803 386.132V393H669.454ZM680.926 393V390.209H683.784V393H680.926ZM477.919 422V406.271H480.954L488.221 419.098V406.271H490.614V422H487.468L480.312 409.461V422H477.919ZM497.932 422.266C494.565 422.266 492.349 419.851 492.349 416.107C492.349 412.363 494.565 409.948 497.932 409.948C501.3 409.948 503.515 412.363 503.515 416.107C503.515 419.851 501.3 422.266 497.932 422.266ZM497.932 420.228C499.926 420.228 501.078 418.699 501.078 416.107C501.078 413.515 499.926 411.986 497.932 411.986C495.938 411.986 494.786 413.515 494.786 416.107C494.786 418.699 495.938 420.228 497.932 420.228ZM509.089 422C506.851 422 505.81 421.025 505.81 418.81V412.141H504.016V410.214H505.81V407.445H508.158V410.214H511.282V412.141H508.158V418.633C508.158 419.74 508.624 420.073 509.598 420.073H511.282V422H509.089ZM520.572 422.266C518.113 422.266 516.54 421.092 516.54 419.054C516.54 417.037 517.714 415.952 520.306 415.442L524.36 414.667C524.36 412.85 523.496 411.942 521.812 411.942C520.306 411.942 519.464 412.629 519.154 413.914L516.739 413.759C517.182 411.41 519.021 409.948 521.812 409.948C525.003 409.948 526.708 411.743 526.708 414.8V419.386C526.708 419.962 526.886 420.139 527.329 420.139H527.75V422C527.595 422.044 527.24 422.066 526.886 422.066C525.534 422.066 524.737 421.557 524.559 420.183C523.961 421.424 522.411 422.266 520.572 422.266ZM520.948 420.405C523.075 420.405 524.36 419.076 524.36 417.193V416.439L520.904 417.104C519.486 417.37 518.977 417.924 518.977 418.832C518.977 419.851 519.686 420.405 520.948 420.405ZM533.412 422V410.214H535.561L535.627 412.452C536.071 410.901 537.001 410.214 538.441 410.214H539.571V412.319H538.441C536.647 412.319 535.76 413.183 535.76 415.044V422H533.412ZM545.209 422.266C541.776 422.266 539.627 419.829 539.627 416.107C539.627 412.385 541.776 409.948 545.143 409.948C548.355 409.948 550.526 412.23 550.526 416.196V416.794H542.064C542.174 419.098 543.349 420.25 545.232 420.25C546.605 420.25 547.536 419.563 547.912 418.455L550.349 418.61C549.729 420.804 547.801 422.266 545.209 422.266ZM542.064 415.021H548.045C547.89 412.939 546.738 411.942 545.143 411.942C543.459 411.942 542.329 413.028 542.064 415.021ZM556.871 422.266C553.482 422.266 551.289 419.829 551.289 416.107C551.289 412.385 553.482 409.948 556.871 409.948C559.729 409.948 561.745 411.499 562.144 414.224L559.685 414.357C559.441 412.828 558.356 411.986 556.871 411.986C554.878 411.986 553.726 413.515 553.726 416.107C553.726 418.699 554.878 420.228 556.871 420.228C558.378 420.228 559.463 419.386 559.685 417.68L562.144 417.813C561.768 420.516 559.751 422.266 556.871 422.266ZM568.252 422.266C564.818 422.266 562.669 419.829 562.669 416.107C562.669 412.385 564.818 409.948 568.186 409.948C571.398 409.948 573.569 412.23 573.569 416.196V416.794H565.106C565.217 419.098 566.391 420.25 568.274 420.25C569.648 420.25 570.578 419.563 570.955 418.455L573.392 418.61C572.772 420.804 570.844 422.266 568.252 422.266ZM565.106 415.021H571.088C570.933 412.939 569.781 411.942 568.186 411.942C566.502 411.942 565.372 413.028 565.106 415.021ZM575.018 408.508V406.16H577.455V408.508H575.018ZM575.063 422V410.214H577.411V422H575.063ZM579.975 425.323V410.214H582.19L582.234 412.009C582.921 410.657 584.228 409.948 585.801 409.948C589.257 409.948 590.852 412.784 590.852 416.107C590.852 419.43 589.235 422.266 585.801 422.266C584.295 422.266 582.965 421.557 582.323 420.405V425.323H579.975ZM585.38 420.228C587.263 420.228 588.415 418.699 588.415 416.107C588.415 413.515 587.263 411.986 585.38 411.986C583.497 411.986 582.323 413.382 582.323 416.107C582.323 418.832 583.475 420.228 585.38 420.228ZM596.437 422C594.2 422 593.158 421.025 593.158 418.81V412.141H591.364V410.214H593.158V407.445H595.507V410.214H598.63V412.141H595.507V418.633C595.507 419.74 595.972 420.073 596.947 420.073H598.63V422H596.437ZM605.815 422V412.141H604.176V410.214H605.815V409.461C605.815 407.511 606.879 406.271 609.183 406.271H611.288V408.198H609.515C608.585 408.198 608.164 408.708 608.164 409.594V410.214H611.11V412.141H608.164V422H605.815ZM616.784 422.266C613.417 422.266 611.202 419.851 611.202 416.107C611.202 412.363 613.417 409.948 616.784 409.948C620.152 409.948 622.367 412.363 622.367 416.107C622.367 419.851 620.152 422.266 616.784 422.266ZM616.784 420.228C618.778 420.228 619.93 418.699 619.93 416.107C619.93 413.515 618.778 411.986 616.784 411.986C614.79 411.986 613.638 413.515 613.638 416.107C613.638 418.699 614.79 420.228 616.784 420.228ZM623.854 422V410.214H626.003L626.07 412.452C626.513 410.901 627.443 410.214 628.883 410.214H630.013V412.319H628.883C627.089 412.319 626.203 413.183 626.203 415.044V422H623.854ZM641.04 422.266C637.672 422.266 635.457 419.851 635.457 416.107C635.457 412.363 637.672 409.948 641.04 409.948C644.407 409.948 646.622 412.363 646.622 416.107C646.622 419.851 644.407 422.266 641.04 422.266ZM641.04 420.228C643.033 420.228 644.185 418.699 644.185 416.107C644.185 413.515 643.033 411.986 641.04 411.986C639.046 411.986 637.894 413.515 637.894 416.107C637.894 418.699 639.046 420.228 641.04 420.228ZM648.109 422V410.214H650.258L650.303 412.274C650.923 410.657 652.274 409.948 653.892 409.948C656.528 409.948 657.879 411.853 657.879 414.423V422H655.531V415.132C655.531 413.05 654.889 411.92 653.249 411.92C651.588 411.92 650.458 413.05 650.458 415.132V422H648.109ZM664.904 422.266C661.471 422.266 659.322 419.829 659.322 416.107C659.322 412.385 661.471 409.948 664.838 409.948C668.05 409.948 670.221 412.23 670.221 416.196V416.794H661.759C661.869 419.098 663.044 420.25 664.927 420.25C666.3 420.25 667.231 419.563 667.607 418.455L670.044 418.61C669.424 420.804 667.497 422.266 664.904 422.266ZM661.759 415.021H667.74C667.585 412.939 666.433 411.942 664.838 411.942C663.154 411.942 662.024 413.028 661.759 415.021ZM671.2 422V419.209H674.058V422H671.2Z" fill="white" fill-opacity="0.5"/>
<line x1="575.5" y1="271" x2="575.5" y2="332" stroke="#F97317" stroke-width="3"/>
<defs>
<filter id="filter0_ii_269_8889" x="516" y="0" width="120" height="120" filterUnits="userSpaceOnUse" color-interpolation-filters="sRGB">
<feFlood flood-opacity="0" result="BackgroundImageFix"/>
<feBlend mode="normal" in="SourceGraphic" in2="BackgroundImageFix" result="shape"/>
<feColorMatrix in="SourceAlpha" type="matrix" values="0 0 0 0 0 0 0 0 0 0 0 0 0 0 0 0 0 0 127 0" result="hardAlpha"/>
<feOffset/>
<feGaussianBlur stdDeviation="19.7368"/>
<feComposite in2="hardAlpha" operator="arithmetic" k2="-1" k3="1"/>
<feColorMatrix type="matrix" values="0 0 0 0 0 0 0 0 0 0 0 0 0 0 0 0 0 0 0.04 0"/>
<feBlend mode="normal" in2="shape" result="effect1_innerShadow_269_8889"/>
<feColorMatrix in="SourceAlpha" type="matrix" values="0 0 0 0 0 0 0 0 0 0 0 0 0 0 0 0 0 0 127 0" result="hardAlpha"/>
<feOffset/>
<feGaussianBlur stdDeviation="6.71053"/>
<feComposite in2="hardAlpha" operator="arithmetic" k2="-1" k3="1"/>
<feColorMatrix type="matrix" values="0 0 0 0 0 0 0 0 0 0 0 0 0 0 0 0 0 0 0.05 0"/>
<feBlend mode="normal" in2="effect1_innerShadow_269_8889" result="effect2_innerShadow_269_8889"/>
</filter>
</defs>
</svg>
