<svg width="741" height="741" viewBox="0 0 741 741" fill="none" xmlns="http://www.w3.org/2000/svg">
<g clip-path="url(#clip0_281_9881)">
<circle cx="374.553" cy="377.447" r="358.9" transform="rotate(-45 374.553 377.447)" stroke="url(#paint0_linear_281_9881)" stroke-opacity="0.2" stroke-width="3.47344"/>
<path d="M120.843 123.595C173.546 70.8916 249.639 51.3752 330.224 62.6196C410.809 73.8641 495.776 115.87 565.953 186.047C636.129 256.224 678.136 341.19 689.38 421.776C700.624 502.36 681.107 578.453 628.404 631.156C575.7 683.86 499.607 703.377 419.023 692.133C338.437 680.889 253.471 638.882 183.294 568.706C113.118 498.529 71.1112 413.562 59.8666 332.977C48.6223 252.392 68.1392 176.299 120.843 123.595Z" stroke="url(#paint1_linear_281_9881)" stroke-opacity="0.2" stroke-width="3.47344"/>
<path d="M116.141 118.456C131.487 103.11 153.148 95.3502 179.383 94.6218C205.631 93.893 236.354 100.211 269.608 112.915C336.112 138.323 412.427 189.157 482.714 259.444C553.001 329.731 603.834 406.045 629.242 472.549C641.947 505.803 648.264 536.527 647.536 562.774C646.807 589.009 639.048 610.671 623.702 626.017C608.356 641.362 586.695 649.121 560.46 649.85C534.212 650.579 503.489 644.261 470.235 631.556C403.731 606.148 327.416 555.316 257.129 485.029C186.842 414.742 136.009 338.427 110.601 271.923C97.8964 238.668 91.5787 207.945 92.3075 181.697C93.036 155.463 100.795 133.801 116.141 118.456Z" stroke="black" stroke-opacity="0.2" stroke-width="3.47344"/>
<path d="M116.141 118.456C118.66 115.937 122.792 114.759 128.815 115.272C134.818 115.783 142.4 117.954 151.407 121.741C169.405 129.31 192.7 143.16 219.714 162.225C273.721 200.337 342.323 259.094 412.694 329.465C483.065 399.836 541.821 468.437 579.934 522.444C598.998 549.459 612.848 572.753 620.417 590.751C624.204 599.758 626.376 607.341 626.886 613.344C627.399 619.366 626.222 623.498 623.702 626.017C621.183 628.536 617.052 629.713 611.029 629.201C605.026 628.69 597.444 626.518 588.437 622.731C570.439 615.162 547.144 601.313 520.129 582.248C466.122 544.136 397.521 485.379 327.15 415.008C256.78 344.638 198.022 276.036 159.91 222.029C140.846 195.014 126.996 171.719 119.428 153.721C115.64 144.714 113.468 137.132 112.957 131.129C112.445 125.107 113.622 120.975 116.141 118.456Z" stroke="black" stroke-opacity="0.2" stroke-width="3.47344"/>
<g filter="url(#filter0_ii_281_9881)">
<rect width="203.091" height="203.091" rx="23.6152" fill="#F97316"/>
<rect x="2.02617" y="2.02617" width="199.039" height="199.039" rx="21.5891" stroke="white" stroke-opacity="0.42" stroke-width="4.05234"/>
<path d="M131.141 147.645H126.458C125.968 147.645 125.508 147.394 125.248 146.974L102.636 110.612C102.105 109.762 101.275 109.672 100.945 109.672C100.615 109.672 99.7741 109.762 99.2538 110.612L76.6416 146.974C76.3815 147.394 75.9212 147.645 75.4309 147.645H70.7484C69.6278 147.645 68.9475 146.414 69.5378 145.463L93.4607 107.01C95.0816 104.399 97.8831 102.848 100.955 102.848C104.026 102.848 106.828 104.399 108.449 107.01L132.372 145.463C132.962 146.414 132.282 147.645 131.161 147.645H131.141Z" fill="white"/>
<path d="M144.019 147.645H139.336C138.846 147.645 138.386 147.395 138.126 146.975L104.017 92.1318C103.337 91.0411 102.226 90.4208 100.946 90.4208C99.665 90.4208 98.5444 91.0411 97.874 92.1318L63.7656 146.975C63.5055 147.395 63.0452 147.645 62.555 147.645H57.8725C56.7518 147.645 56.0715 146.414 56.6618 145.464L92.0709 88.5296C93.9919 85.4378 97.3037 83.5967 100.946 83.5967C102.767 83.5967 104.498 84.057 106.028 84.9075C107.549 85.758 108.86 86.9887 109.82 88.5296L145.23 145.464C145.82 146.414 145.14 147.645 144.019 147.645Z" fill="white"/>
<path d="M156.886 147.644H152.203C151.713 147.644 151.253 147.394 150.993 146.974L105.398 73.6499C104.417 72.079 102.796 71.1785 100.945 71.1785C99.0945 71.1785 97.4736 72.079 96.4931 73.6499L50.8985 146.974C50.6384 147.394 50.1781 147.644 49.6878 147.644H45.0053C43.8847 147.644 43.2043 146.414 43.7946 145.463L90.7 70.0378C92.8711 66.5457 96.5931 64.4244 100.695 64.3443C105.018 64.2543 109.04 66.5557 111.331 70.2279L158.116 145.453C158.707 146.404 158.026 147.634 156.906 147.634L156.886 147.644Z" fill="white"/>
<path d="M169.762 147.645H165.079C164.589 147.645 164.129 147.395 163.868 146.975L106.778 55.1698C105.497 53.1086 103.376 51.9279 100.945 51.9279C98.5132 51.9279 96.3921 53.1086 95.1114 55.1698L38.0206 146.975C37.7604 147.395 37.3002 147.645 36.8099 147.645H32.1274C31.0068 147.645 30.3264 146.415 30.9167 145.464L89.3182 51.5576C91.8396 47.5152 96.1819 45.0938 100.955 45.0938C105.727 45.0938 110.069 47.5052 112.591 51.5576L170.992 145.464C171.583 146.415 170.902 147.645 169.782 147.645H169.762Z" fill="white"/>
</g>
<g filter="url(#filter1_ii_281_9881)">
<rect x="538.383" y="538.383" width="203.091" height="203.091" rx="23.6152" fill="#FF9417"/>
<rect x="540.409" y="540.409" width="199.039" height="199.039" rx="21.5891" stroke="white" stroke-opacity="0.42" stroke-width="4.05234"/>
<path d="M679.4 628.006C681.279 615.475 671.715 608.739 658.638 604.246L662.881 587.272L652.523 584.697L648.393 601.224C645.67 600.547 642.874 599.908 640.095 599.275L644.254 582.639L633.903 580.064L629.658 597.033C627.405 596.521 625.192 596.015 623.045 595.483L623.057 595.429L608.773 591.871L606.018 602.907C606.018 602.907 613.702 604.664 613.54 604.772C617.735 605.817 618.493 608.586 618.367 610.782L613.535 630.119C613.824 630.193 614.198 630.298 614.612 630.464C614.266 630.379 613.898 630.285 613.517 630.194L606.743 657.283C606.231 658.554 604.93 660.462 601.997 659.738C602.101 659.888 594.469 657.864 594.469 657.864L589.327 669.691L602.806 673.043C605.313 673.671 607.77 674.327 610.19 674.944L605.904 692.113L616.25 694.688L620.495 677.701C623.321 678.466 626.064 679.172 628.749 679.838L624.519 696.744L634.877 699.319L639.163 682.182C656.825 685.517 670.105 684.173 675.695 668.236C680.2 655.405 675.471 648.004 666.179 643.178C672.947 641.621 678.045 637.18 679.404 628.007L679.401 628.005L679.4 628.006ZM655.735 661.11C652.534 673.941 630.878 667.005 623.857 665.266L629.545 642.52C636.566 644.269 659.08 647.729 655.735 661.11H655.735ZM658.938 627.82C656.018 639.491 637.994 633.562 632.147 632.108L637.304 611.479C643.151 612.933 661.98 615.646 658.939 627.82H658.938Z" fill="white"/>
</g>
<rect x="101.888" y="478.177" width="40.5234" height="40.5234" rx="4.21023" fill="#CBCBCB"/>
<rect x="171.356" y="243.141" width="40.5234" height="40.5234" rx="4.21023" fill="#CBCBCB"/>
<rect x="639.112" y="302.189" width="40.5234" height="40.5234" rx="4.21023" fill="#CBCBCB"/>
<rect x="368.185" y="567.328" width="40.5234" height="40.5234" rx="4.21023" fill="#CBCBCB"/>
<rect x="389.025" y="169.041" width="40.5234" height="40.5234" rx="4.21023" fill="#CBCBCB"/>
<rect x="516.384" y="437.653" width="40.5234" height="40.5234" rx="4.21023" fill="#CBCBCB"/>
<path d="M564.414 66.208L571.582 46.328H575.418L582.586 66.208H579.366L577.546 61.028H569.426L567.634 66.208H564.414ZM570.378 58.284H576.622L573.486 49.212L570.378 58.284ZM584.152 66.208V51.312H586.868L586.952 54.14C587.512 52.18 588.688 51.312 590.508 51.312H591.936V53.972H590.508C588.24 53.972 587.12 55.064 587.12 57.416V66.208H584.152ZM599.623 66.544C595.339 66.544 592.567 63.464 592.567 58.76C592.567 54.056 595.339 50.976 599.623 50.976C603.235 50.976 605.783 52.936 606.287 56.38L603.179 56.548C602.871 54.616 601.499 53.552 599.623 53.552C597.103 53.552 595.647 55.484 595.647 58.76C595.647 62.036 597.103 63.968 599.623 63.968C601.527 63.968 602.899 62.904 603.179 60.748L606.287 60.916C605.811 64.332 603.263 66.544 599.623 66.544ZM608.435 66.208V46.328H611.403V53.468C612.187 51.76 613.811 50.976 615.771 50.976C619.019 50.976 620.783 53.3 620.783 56.632V66.208H617.815V57.416C617.815 54.756 616.891 53.468 614.987 53.468C612.803 53.468 611.403 54.868 611.403 57.472V66.208H608.435ZM638.338 59.572C637.078 59.572 636.462 59.152 635.398 57.948C634.334 56.66 634.11 56.576 633.55 56.576C632.654 56.576 632.15 57.528 632.15 59.32H629.686C629.686 56.268 631.17 54.196 633.41 54.196C634.754 54.196 635.454 54.7 636.378 55.848C637.302 56.996 637.582 57.192 638.254 57.192C639.15 57.192 639.626 56.268 639.626 54.448H642.09C642.09 57.528 640.606 59.572 638.338 59.572ZM651.314 66.656C646.722 66.656 644.174 64.332 644.006 60.86L647.114 60.692C647.338 62.96 648.962 63.884 651.314 63.884C653.694 63.884 655.682 62.96 655.682 60.552C655.682 58.172 653.918 57.052 651.286 57.052H649.634V54.42H651.286C653.414 54.42 655.01 53.636 655.01 51.536C655.01 49.688 653.806 48.652 651.37 48.652C648.962 48.652 647.786 49.66 647.562 51.256L644.454 51.088C644.818 47.98 647.254 45.88 651.37 45.88C655.626 45.88 658.146 47.98 658.146 51.312C658.146 53.412 656.942 54.868 654.702 55.568C657.278 56.268 658.818 58.116 658.818 60.664C658.818 64.444 655.794 66.656 651.314 66.656ZM667.442 66.544C663.102 66.544 661.002 64.444 660.778 61.504L663.83 61.364C664.11 63.016 665.062 64.052 667.442 64.052C669.29 64.052 670.326 63.492 670.326 62.176C670.326 61.084 669.766 60.608 666.938 60.104C662.598 59.292 661.31 58.032 661.31 55.596C661.31 52.88 663.41 50.976 667.302 50.976C671.418 50.976 673.182 53.272 673.462 55.876L670.41 56.044C670.298 54.644 669.43 53.468 667.246 53.468C665.314 53.468 664.39 54.308 664.39 55.484C664.39 56.8 665.118 57.332 667.526 57.724C672.034 58.48 673.406 59.712 673.406 62.148C673.406 64.948 670.998 66.544 667.442 66.544ZM689.234 64.976L696.458 57.724H681.562V54.812H696.514L689.262 47.56H692.762L701.442 56.268L692.734 64.976H689.234ZM566.262 102.208V82.328H573.402C578.162 82.328 580.626 83.98 580.626 87.704C580.626 89.972 579.254 91.596 576.93 91.932C579.786 92.268 581.466 94.088 581.466 96.748C581.466 100.388 578.946 102.208 574.466 102.208H566.262ZM569.286 90.812H573.346C576.006 90.812 577.518 89.776 577.518 87.928C577.518 85.968 576.09 85.044 573.346 85.044H569.286V90.812ZM569.286 99.492H574.382C576.874 99.492 578.358 98.456 578.358 96.468C578.358 94.508 576.874 93.388 574.382 93.388H569.286V99.492ZM584.397 85.156V82.188H587.477V85.156H584.397ZM584.453 102.208V87.312H587.421V102.208H584.453ZM595.757 102.208C592.929 102.208 591.613 100.976 591.613 98.176V89.748H589.345V87.312H591.613V83.812H594.581V87.312H598.529V89.748H594.581V97.952C594.581 99.352 595.169 99.772 596.401 99.772H598.529V102.208H595.757ZM606.692 102.544C602.408 102.544 599.636 99.464 599.636 94.76C599.636 90.056 602.408 86.976 606.692 86.976C610.304 86.976 612.852 88.936 613.356 92.38L610.248 92.548C609.94 90.616 608.568 89.552 606.692 89.552C604.172 89.552 602.716 91.484 602.716 94.76C602.716 98.036 604.172 99.968 606.692 99.968C608.596 99.968 609.968 98.904 610.248 96.748L613.356 96.916C612.88 100.332 610.332 102.544 606.692 102.544ZM621.636 102.544C617.38 102.544 614.58 99.492 614.58 94.76C614.58 90.028 617.38 86.976 621.636 86.976C625.892 86.976 628.692 90.028 628.692 94.76C628.692 99.492 625.892 102.544 621.636 102.544ZM621.636 99.968C624.156 99.968 625.612 98.036 625.612 94.76C625.612 91.484 624.156 89.552 621.636 89.552C619.116 89.552 617.66 91.484 617.66 94.76C617.66 98.036 619.116 99.968 621.636 99.968ZM631.075 85.156V82.188H634.155V85.156H631.075ZM631.131 102.208V87.312H634.099V102.208H631.131ZM637.899 102.208V87.312H640.615L640.671 89.916C641.455 87.872 643.163 86.976 645.207 86.976C648.539 86.976 650.247 89.384 650.247 92.632V102.208H647.279V93.528C647.279 90.896 646.467 89.468 644.395 89.468C642.295 89.468 640.867 90.896 640.867 93.528V102.208H637.899ZM667.803 95.572C666.543 95.572 665.927 95.152 664.863 93.948C663.799 92.66 663.575 92.576 663.015 92.576C662.119 92.576 661.615 93.528 661.615 95.32H659.151C659.151 92.268 660.635 90.196 662.875 90.196C664.219 90.196 664.919 90.7 665.843 91.848C666.767 92.996 667.047 93.192 667.719 93.192C668.615 93.192 669.091 92.268 669.091 90.448H671.555C671.555 93.528 670.071 95.572 667.803 95.572ZM677.419 102.208V88.04H673.219V85.604H674.927C677.195 85.604 678.063 84.82 678.063 82.328H680.443V102.208H677.419ZM692.022 102.656C687.066 102.656 683.958 98.68 683.958 92.296C683.958 85.912 687.066 81.88 692.022 81.88C697.006 81.88 700.114 85.884 700.114 92.296C700.114 98.652 697.006 102.656 692.022 102.656ZM692.022 99.884C695.214 99.884 696.978 97.196 696.978 92.296C696.978 87.368 695.214 84.652 692.022 84.652C688.858 84.652 687.094 87.368 687.094 92.296C687.094 97.196 688.858 99.884 692.022 99.884ZM702.994 102.208V87.312H705.71L705.766 89.86C706.494 88.04 708.034 86.976 709.91 86.976C712.122 86.976 713.662 88.124 714.306 90.056C714.978 88.068 716.49 86.976 718.618 86.976C721.754 86.976 723.546 88.992 723.546 92.632V102.208H720.578V93.36C720.578 90.784 719.654 89.468 717.75 89.468C715.874 89.468 714.67 90.952 714.67 93.472V102.208H711.842V93.472C711.842 90.952 711.058 89.468 709.07 89.468C707.166 89.468 705.962 90.98 705.962 93.472V102.208H702.994Z" fill="#8F8F8F"/>
<path d="M25.5643 662.481V642.601H38.4723V645.373H28.5883V651.421H37.9683V654.109H28.5883V662.481H25.5643ZM44.8917 662.817C41.7837 662.817 39.7957 661.333 39.7957 658.757C39.7957 656.209 41.2797 654.837 44.5557 654.193L49.6797 653.213C49.6797 650.917 48.5877 649.769 46.4597 649.769C44.5557 649.769 43.4917 650.637 43.0997 652.261L40.0477 652.065C40.6077 649.097 42.9317 647.249 46.4597 647.249C50.4917 647.249 52.6477 649.517 52.6477 653.381V659.177C52.6477 659.905 52.8717 660.129 53.4317 660.129H53.9637V662.481C53.7677 662.537 53.3197 662.565 52.8717 662.565C51.1637 662.565 50.1557 661.921 49.9317 660.185C49.1757 661.753 47.2157 662.817 44.8917 662.817ZM45.3677 660.465C48.0557 660.465 49.6797 658.785 49.6797 656.405V655.453L45.3117 656.293C43.5197 656.629 42.8757 657.329 42.8757 658.477C42.8757 659.765 43.7717 660.465 45.3677 660.465ZM61.5403 662.817C57.2003 662.817 55.1003 660.717 54.8763 657.777L57.9283 657.637C58.2083 659.289 59.1603 660.325 61.5403 660.325C63.3883 660.325 64.4243 659.765 64.4243 658.449C64.4243 657.357 63.8643 656.881 61.0363 656.377C56.6963 655.565 55.4083 654.305 55.4083 651.869C55.4083 649.153 57.5083 647.249 61.4003 647.249C65.5163 647.249 67.2803 649.545 67.5603 652.149L64.5083 652.317C64.3963 650.917 63.5283 649.741 61.3443 649.741C59.4123 649.741 58.4883 650.581 58.4883 651.757C58.4883 653.073 59.2163 653.605 61.6243 653.997C66.1323 654.753 67.5043 655.985 67.5043 658.421C67.5043 661.221 65.0963 662.817 61.5403 662.817ZM75.1711 662.481C72.3431 662.481 71.0271 661.249 71.0271 658.449V650.021H68.7591V647.585H71.0271V644.085H73.9951V647.585H77.9431V650.021H73.9951V658.225C73.9951 659.625 74.5831 660.045 75.8151 660.045H77.9431V662.481H75.1711ZM92.764 662.817C88.424 662.817 85.708 659.737 85.708 655.033C85.708 650.329 88.424 647.249 92.68 647.249C96.74 647.249 99.484 650.133 99.484 655.145V655.901H88.788C88.928 658.813 90.412 660.269 92.792 660.269C94.528 660.269 95.704 659.401 96.18 658.001L99.26 658.197C98.476 660.969 96.04 662.817 92.764 662.817ZM88.788 653.661H96.348C96.152 651.029 94.696 649.769 92.68 649.769C90.552 649.769 89.124 651.141 88.788 653.661ZM101.931 662.481V647.585H104.647L104.703 650.189C105.487 648.145 107.195 647.249 109.239 647.249C112.571 647.249 114.279 649.657 114.279 652.905V662.481H111.311V653.801C111.311 651.169 110.499 649.741 108.427 649.741C106.327 649.741 104.899 651.169 104.899 653.801V662.481H101.931ZM123.718 662.817C119.462 662.817 116.662 659.765 116.662 655.033C116.662 650.301 119.462 647.249 123.718 647.249C127.974 647.249 130.774 650.301 130.774 655.033C130.774 659.765 127.974 662.817 123.718 662.817ZM123.718 660.241C126.238 660.241 127.694 658.309 127.694 655.033C127.694 651.757 126.238 649.825 123.718 649.825C121.198 649.825 119.742 651.757 119.742 655.033C119.742 658.309 121.198 660.241 123.718 660.241ZM138.114 662.817C135.09 662.817 133.214 660.717 133.214 657.161V647.585H136.182V656.405C136.182 659.121 137.106 660.325 139.01 660.325C141.166 660.325 142.454 658.869 142.454 656.321V647.585H145.422V662.481H142.65L142.622 660.045C141.838 661.865 140.27 662.817 138.114 662.817ZM154.779 667.017C151.223 667.017 148.927 665.309 148.283 662.733L151.363 662.537C151.755 663.797 152.679 664.553 154.779 664.553C157.243 664.553 158.615 663.545 158.615 661.389V659.233C157.887 660.745 156.207 661.725 154.275 661.725C150.523 661.725 147.863 658.785 147.863 654.501C147.863 650.245 150.467 647.249 154.163 647.249C156.291 647.249 157.999 648.285 158.727 649.937V647.585H161.583V661.305C161.583 664.973 158.951 667.017 154.779 667.017ZM154.751 659.205C157.075 659.205 158.587 657.413 158.615 654.473C158.671 651.561 157.103 649.769 154.751 649.769C152.343 649.769 150.943 651.589 150.943 654.473C150.943 657.385 152.399 659.205 154.751 659.205ZM164.879 662.481V642.601H167.847V649.741C168.631 648.033 170.255 647.249 172.215 647.249C175.463 647.249 177.227 649.573 177.227 652.905V662.481H174.259V653.689C174.259 651.029 173.335 649.741 171.431 649.741C169.247 649.741 167.847 651.141 167.847 653.745V662.481H164.879ZM192.822 662.481C189.994 662.481 188.678 661.249 188.678 658.449V650.021H186.41V647.585H188.678V644.085H191.646V647.585H195.594V650.021H191.646V658.225C191.646 659.625 192.234 660.045 193.466 660.045H195.594V662.481H192.822ZM203.757 662.817C199.501 662.817 196.701 659.765 196.701 655.033C196.701 650.301 199.501 647.249 203.757 647.249C208.013 647.249 210.813 650.301 210.813 655.033C210.813 659.765 208.013 662.817 203.757 662.817ZM203.757 660.241C206.277 660.241 207.733 658.309 207.733 655.033C207.733 651.757 206.277 649.825 203.757 649.825C201.237 649.825 199.781 651.757 199.781 655.033C199.781 658.309 201.237 660.241 203.757 660.241ZM225.514 662.817C221.174 662.817 219.074 660.717 218.85 657.777L221.902 657.637C222.182 659.289 223.134 660.325 225.514 660.325C227.362 660.325 228.398 659.765 228.398 658.449C228.398 657.357 227.838 656.881 225.01 656.377C220.67 655.565 219.382 654.305 219.382 651.869C219.382 649.153 221.482 647.249 225.374 647.249C229.49 647.249 231.254 649.545 231.534 652.149L228.482 652.317C228.37 650.917 227.502 649.741 225.318 649.741C223.386 649.741 222.462 650.581 222.462 651.757C222.462 653.073 223.19 653.605 225.598 653.997C230.106 654.753 231.478 655.985 231.478 658.421C231.478 661.221 229.07 662.817 225.514 662.817ZM239.145 662.481C236.317 662.481 235.001 661.249 235.001 658.449V650.021H232.733V647.585H235.001V644.085H237.969V647.585H241.917V650.021H237.969V658.225C237.969 659.625 238.557 660.045 239.789 660.045H241.917V662.481H239.145ZM248.283 662.817C245.175 662.817 243.187 661.333 243.187 658.757C243.187 656.209 244.671 654.837 247.947 654.193L253.071 653.213C253.071 650.917 251.979 649.769 249.851 649.769C247.947 649.769 246.883 650.637 246.491 652.261L243.439 652.065C243.999 649.097 246.323 647.249 249.851 647.249C253.883 647.249 256.039 649.517 256.039 653.381V659.177C256.039 659.905 256.263 660.129 256.823 660.129H257.355V662.481C257.159 662.537 256.711 662.565 256.263 662.565C254.555 662.565 253.547 661.921 253.323 660.185C252.567 661.753 250.607 662.817 248.283 662.817ZM248.759 660.465C251.447 660.465 253.071 658.785 253.071 656.405V655.453L248.703 656.293C246.911 656.629 246.267 657.329 246.267 658.477C246.267 659.765 247.163 660.465 248.759 660.465ZM259.458 666.681V664.245H261.278C262.286 664.245 262.678 663.965 262.958 663.265L263.434 662.033H262.51L257.134 647.585H260.27L264.358 659.289L268.25 647.585H271.414L265.478 664.217C264.862 665.925 263.798 666.681 261.698 666.681H259.458ZM285.523 662.817C281.183 662.817 279.083 660.717 278.859 657.777L281.911 657.637C282.191 659.289 283.143 660.325 285.523 660.325C287.371 660.325 288.407 659.765 288.407 658.449C288.407 657.357 287.847 656.881 285.019 656.377C280.679 655.565 279.391 654.305 279.391 651.869C279.391 649.153 281.491 647.249 285.383 647.249C289.499 647.249 291.263 649.545 291.543 652.149L288.491 652.317C288.379 650.917 287.511 649.741 285.327 649.741C283.395 649.741 282.471 650.581 282.471 651.757C282.471 653.073 283.199 653.605 285.607 653.997C290.115 654.753 291.487 655.985 291.487 658.421C291.487 661.221 289.079 662.817 285.523 662.817ZM300.12 662.817C295.864 662.817 293.064 659.765 293.064 655.033C293.064 650.301 295.864 647.249 300.12 647.249C304.376 647.249 307.176 650.301 307.176 655.033C307.176 659.765 304.376 662.817 300.12 662.817ZM300.12 660.241C302.64 660.241 304.096 658.309 304.096 655.033C304.096 651.757 302.64 649.825 300.12 649.825C297.6 649.825 296.144 651.757 296.144 655.033C296.144 658.309 297.6 660.241 300.12 660.241ZM313.001 662.481C311.041 662.481 309.753 661.529 309.753 659.317V642.601H312.721V659.037C312.721 659.737 313.085 660.045 313.757 660.045H314.933V662.481H313.001ZM320.277 662.481L314.845 647.585H318.009L322.069 659.457L326.129 647.585H329.321L323.861 662.481H320.277ZM336.804 662.817C332.464 662.817 329.748 659.737 329.748 655.033C329.748 650.329 332.464 647.249 336.72 647.249C340.78 647.249 343.524 650.133 343.524 655.145V655.901H332.828C332.968 658.813 334.452 660.269 336.832 660.269C338.568 660.269 339.744 659.401 340.22 658.001L343.3 658.197C342.516 660.969 340.08 662.817 336.804 662.817ZM332.828 653.661H340.388C340.192 651.029 338.736 649.769 336.72 649.769C334.592 649.769 333.164 651.141 332.828 653.661ZM345.971 662.481V647.585H348.687L348.743 650.189C349.527 648.145 351.235 647.249 353.279 647.249C356.611 647.249 358.319 649.657 358.319 652.905V662.481H355.351V653.801C355.351 651.169 354.539 649.741 352.467 649.741C350.367 649.741 348.939 651.169 348.939 653.801V662.481H345.971ZM366.6 662.481C363.772 662.481 362.456 661.249 362.456 658.449V650.021H360.188V647.585H362.456V644.085H365.424V647.585H369.372V650.021H365.424V658.225C365.424 659.625 366.012 660.045 367.244 660.045H369.372V662.481H366.6ZM371.654 662.481V658.953H375.266V662.481H371.654Z" fill="#8F8F8F"/>
<path d="M25.5643 698.481V678.601H38.4723V681.373H28.5883V687.421H37.9683V690.109H28.5883V698.481H25.5643ZM40.8004 681.429V678.461H43.8804V681.429H40.8004ZM40.8564 698.481V683.585H43.8244V698.481H40.8564ZM47.6245 698.481V683.585H50.3405L50.3965 686.189C51.1805 684.145 52.8885 683.249 54.9325 683.249C58.2645 683.249 59.9725 685.657 59.9725 688.905V698.481H57.0045V689.801C57.0045 687.169 56.1925 685.741 54.1205 685.741C52.0205 685.741 50.5925 687.169 50.5925 689.801V698.481H47.6245ZM67.4787 698.817C64.3707 698.817 62.3827 697.333 62.3827 694.757C62.3827 692.209 63.8667 690.837 67.1427 690.193L72.2667 689.213C72.2667 686.917 71.1747 685.769 69.0467 685.769C67.1427 685.769 66.0787 686.637 65.6867 688.261L62.6347 688.065C63.1947 685.097 65.5187 683.249 69.0467 683.249C73.0787 683.249 75.2347 685.517 75.2347 689.381V695.177C75.2347 695.905 75.4587 696.129 76.0187 696.129H76.5507V698.481C76.3547 698.537 75.9067 698.565 75.4587 698.565C73.7507 698.565 72.7427 697.921 72.5187 696.185C71.7627 697.753 69.8027 698.817 67.4787 698.817ZM67.9547 696.465C70.6427 696.465 72.2667 694.785 72.2667 692.405V691.453L67.8987 692.293C66.1067 692.629 65.4627 693.329 65.4627 694.477C65.4627 695.765 66.3587 696.465 67.9547 696.465ZM81.5533 698.481C79.5933 698.481 78.3053 697.529 78.3053 695.317V678.601H81.2733V695.037C81.2733 695.737 81.6373 696.045 82.3093 696.045H83.4853V698.481H81.5533ZM98.0282 698.817C93.6882 698.817 90.9722 695.737 90.9722 691.033C90.9722 686.329 93.6882 683.249 97.9442 683.249C102.004 683.249 104.748 686.133 104.748 691.145V691.901H94.0522C94.1922 694.813 95.6762 696.269 98.0562 696.269C99.7923 696.269 100.968 695.401 101.444 694.001L104.524 694.197C103.74 696.969 101.304 698.817 98.0282 698.817ZM94.0522 689.661H101.612C101.416 687.029 99.9602 685.769 97.9442 685.769C95.8162 685.769 94.3882 687.141 94.0522 689.661ZM107.196 698.481V683.585H109.912L109.968 686.189C110.752 684.145 112.46 683.249 114.504 683.249C117.836 683.249 119.544 685.657 119.544 688.905V698.481H116.576V689.801C116.576 687.169 115.764 685.741 113.692 685.741C111.592 685.741 110.164 687.169 110.164 689.801V698.481H107.196ZM128.982 698.817C124.726 698.817 121.926 695.765 121.926 691.033C121.926 686.301 124.726 683.249 128.982 683.249C133.238 683.249 136.038 686.301 136.038 691.033C136.038 695.765 133.238 698.817 128.982 698.817ZM128.982 696.241C131.502 696.241 132.958 694.309 132.958 691.033C132.958 687.757 131.502 685.825 128.982 685.825C126.462 685.825 125.006 687.757 125.006 691.033C125.006 694.309 126.462 696.241 128.982 696.241ZM143.378 698.817C140.354 698.817 138.478 696.717 138.478 693.161V683.585H141.446V692.405C141.446 695.121 142.37 696.325 144.274 696.325C146.43 696.325 147.718 694.869 147.718 692.321V683.585H150.686V698.481H147.914L147.886 696.045C147.102 697.865 145.534 698.817 143.378 698.817ZM160.043 703.017C156.487 703.017 154.191 701.309 153.547 698.733L156.627 698.537C157.019 699.797 157.943 700.553 160.043 700.553C162.507 700.553 163.879 699.545 163.879 697.389V695.233C163.151 696.745 161.471 697.725 159.539 697.725C155.787 697.725 153.127 694.785 153.127 690.501C153.127 686.245 155.731 683.249 159.427 683.249C161.555 683.249 163.263 684.285 163.991 685.937V683.585H166.847V697.305C166.847 700.973 164.215 703.017 160.043 703.017ZM160.015 695.205C162.339 695.205 163.851 693.413 163.879 690.473C163.935 687.561 162.367 685.769 160.015 685.769C157.607 685.769 156.207 687.589 156.207 690.473C156.207 693.385 157.663 695.205 160.015 695.205ZM170.143 698.481V678.601H173.111V685.741C173.895 684.033 175.519 683.249 177.479 683.249C180.727 683.249 182.491 685.573 182.491 688.905V698.481H179.523V689.689C179.523 687.029 178.599 685.741 176.695 685.741C174.511 685.741 173.111 687.141 173.111 689.745V698.481H170.143ZM198.087 698.481C195.259 698.481 193.943 697.249 193.943 694.449V686.021H191.675V683.585H193.943V680.085H196.911V683.585H200.859V686.021H196.911V694.225C196.911 695.625 197.499 696.045 198.731 696.045H200.859V698.481H198.087ZM209.021 698.817C204.765 698.817 201.965 695.765 201.965 691.033C201.965 686.301 204.765 683.249 209.021 683.249C213.277 683.249 216.077 686.301 216.077 691.033C216.077 695.765 213.277 698.817 209.021 698.817ZM209.021 696.241C211.541 696.241 212.997 694.309 212.997 691.033C212.997 687.757 211.541 685.825 209.021 685.825C206.501 685.825 205.045 687.757 205.045 691.033C205.045 694.309 206.501 696.241 209.021 696.241ZM230.75 698.481C227.922 698.481 226.606 697.249 226.606 694.449V686.021H224.338V683.585H226.606V680.085H229.574V683.585H233.522V686.021H229.574V694.225C229.574 695.625 230.162 696.045 231.394 696.045H233.522V698.481H230.75ZM236.1 698.481V683.585H238.816L238.9 686.413C239.46 684.453 240.636 683.585 242.456 683.585H243.884V686.245H242.456C240.188 686.245 239.068 687.337 239.068 689.689V698.481H236.1ZM250.967 698.817C247.943 698.817 246.067 696.717 246.067 693.161V683.585H249.035V692.405C249.035 695.121 249.959 696.325 251.863 696.325C254.019 696.325 255.307 694.869 255.307 692.321V683.585H258.275V698.481H255.503L255.475 696.045C254.691 697.865 253.123 698.817 250.967 698.817ZM267.38 698.817C263.04 698.817 260.94 696.717 260.716 693.777L263.768 693.637C264.048 695.289 265 696.325 267.38 696.325C269.228 696.325 270.264 695.765 270.264 694.449C270.264 693.357 269.704 692.881 266.876 692.377C262.536 691.565 261.248 690.305 261.248 687.869C261.248 685.153 263.348 683.249 267.24 683.249C271.356 683.249 273.12 685.545 273.4 688.149L270.348 688.317C270.236 686.917 269.368 685.741 267.184 685.741C265.252 685.741 264.328 686.581 264.328 687.757C264.328 689.073 265.056 689.605 267.464 689.997C271.972 690.753 273.344 691.985 273.344 694.421C273.344 697.221 270.936 698.817 267.38 698.817ZM281.01 698.481C278.182 698.481 276.866 697.249 276.866 694.449V686.021H274.598V683.585H276.866V680.085H279.834V683.585H283.782V686.021H279.834V694.225C279.834 695.625 280.422 696.045 281.654 696.045H283.782V698.481H281.01ZM286.064 698.481V694.953H289.676V698.481H286.064Z" fill="black"/>
</g>
<defs>
<filter id="filter0_ii_281_9881" x="0" y="0" width="203.091" height="203.091" filterUnits="userSpaceOnUse" color-interpolation-filters="sRGB">
<feFlood flood-opacity="0" result="BackgroundImageFix"/>
<feBlend mode="normal" in="SourceGraphic" in2="BackgroundImageFix" result="shape"/>
<feColorMatrix in="SourceAlpha" type="matrix" values="0 0 0 0 0 0 0 0 0 0 0 0 0 0 0 0 0 0 127 0" result="hardAlpha"/>
<feOffset/>
<feGaussianBlur stdDeviation="33.4031"/>
<feComposite in2="hardAlpha" operator="arithmetic" k2="-1" k3="1"/>
<feColorMatrix type="matrix" values="0 0 0 0 0 0 0 0 0 0 0 0 0 0 0 0 0 0 0.04 0"/>
<feBlend mode="normal" in2="shape" result="effect1_innerShadow_281_9881"/>
<feColorMatrix in="SourceAlpha" type="matrix" values="0 0 0 0 0 0 0 0 0 0 0 0 0 0 0 0 0 0 127 0" result="hardAlpha"/>
<feOffset/>
<feGaussianBlur stdDeviation="11.3571"/>
<feComposite in2="hardAlpha" operator="arithmetic" k2="-1" k3="1"/>
<feColorMatrix type="matrix" values="0 0 0 0 0 0 0 0 0 0 0 0 0 0 0 0 0 0 0.05 0"/>
<feBlend mode="normal" in2="effect1_innerShadow_281_9881" result="effect2_innerShadow_281_9881"/>
</filter>
<filter id="filter1_ii_281_9881" x="538.383" y="538.383" width="203.091" height="203.091" filterUnits="userSpaceOnUse" color-interpolation-filters="sRGB">
<feFlood flood-opacity="0" result="BackgroundImageFix"/>
<feBlend mode="normal" in="SourceGraphic" in2="BackgroundImageFix" result="shape"/>
<feColorMatrix in="SourceAlpha" type="matrix" values="0 0 0 0 0 0 0 0 0 0 0 0 0 0 0 0 0 0 127 0" result="hardAlpha"/>
<feOffset/>
<feGaussianBlur stdDeviation="33.4031"/>
<feComposite in2="hardAlpha" operator="arithmetic" k2="-1" k3="1"/>
<feColorMatrix type="matrix" values="0 0 0 0 0 0 0 0 0 0 0 0 0 0 0 0 0 0 0.04 0"/>
<feBlend mode="normal" in2="shape" result="effect1_innerShadow_281_9881"/>
<feColorMatrix in="SourceAlpha" type="matrix" values="0 0 0 0 0 0 0 0 0 0 0 0 0 0 0 0 0 0 127 0" result="hardAlpha"/>
<feOffset/>
<feGaussianBlur stdDeviation="11.3571"/>
<feComposite in2="hardAlpha" operator="arithmetic" k2="-1" k3="1"/>
<feColorMatrix type="matrix" values="0 0 0 0 0 0 0 0 0 0 0 0 0 0 0 0 0 0 0.05 0"/>
<feBlend mode="normal" in2="effect1_innerShadow_281_9881" result="effect2_innerShadow_281_9881"/>
</filter>
<linearGradient id="paint0_linear_281_9881" x1="345.49" y1="52.8344" x2="528.468" y2="776.153" gradientUnits="userSpaceOnUse">
<stop/>
<stop offset="0.341346" stop-opacity="0.1"/>
<stop offset="0.600962" stop-opacity="0"/>
<stop offset="1"/>
</linearGradient>
<linearGradient id="paint1_linear_281_9881" x1="181.293" y1="219.89" x2="716.393" y2="478.304" gradientUnits="userSpaceOnUse">
<stop/>
<stop offset="0.495192" stop-opacity="0"/>
<stop offset="1"/>
</linearGradient>
<clipPath id="clip0_281_9881">
<rect width="741" height="741" fill="white"/>
</clipPath>
</defs>
</svg>
