<svg width="741" height="420" viewBox="0 0 741 420" fill="none" xmlns="http://www.w3.org/2000/svg">
<path d="M256.398 312.852C255.506 311.96 254.06 311.96 253.168 312.852L238.633 327.387C237.741 328.279 237.741 329.725 238.633 330.617C239.525 331.509 240.971 331.509 241.863 330.617L254.783 317.697L267.702 330.617C268.594 331.509 270.04 331.509 270.932 330.617C271.824 329.725 271.824 328.279 270.932 327.387L256.398 312.852ZM254.783 384.507L257.067 384.507L257.067 314.467L254.783 314.467L252.499 314.467L252.499 384.507L254.783 384.507Z" fill="#F87317"/>
<path d="M333.542 199.164C332.65 198.272 331.204 198.272 330.312 199.164L315.778 213.698C314.886 214.59 314.886 216.036 315.778 216.928C316.67 217.82 318.116 217.82 319.008 216.928L331.927 204.009L344.847 216.928C345.739 217.82 347.185 217.82 348.077 216.928C348.969 216.036 348.969 214.59 348.077 213.698L333.542 199.164ZM331.927 270.818L334.211 270.818L334.211 200.779L331.927 200.779L329.643 200.779L329.643 270.818L331.927 270.818Z" fill="#F87317"/>
<path d="M406.627 85.4752C405.735 84.5833 404.289 84.5833 403.397 85.4752L388.863 100.01C387.971 100.902 387.971 102.348 388.863 103.24C389.754 104.132 391.201 104.132 392.092 103.24L405.012 90.3201L417.932 103.24C418.824 104.132 420.27 104.132 421.162 103.24C422.054 102.348 422.054 100.902 421.162 100.01L406.627 85.4752ZM405.012 157.13L407.296 157.13L407.296 87.0902L405.012 87.0902L402.728 87.0902L402.728 157.13L405.012 157.13Z" fill="#F87317"/>
<path d="M177.637 40.6035V253.768C177.637 260.495 183.091 265.949 189.818 265.949H211.134" stroke="#C2C2C2" stroke-width="3.0452" stroke-linecap="round" stroke-dasharray="14.21 14.21"/>
<path d="M88.3115 42.6338V368.471C88.3115 375.198 93.7651 380.652 100.492 380.652H162.412" stroke="#C2C2C2" stroke-width="3.0452" stroke-linecap="round" stroke-dasharray="14.21 14.21"/>
<path d="M260.873 40.6035L260.873 140.08C260.873 146.807 266.327 152.261 273.054 152.261H291.325" stroke="#C2C2C2" stroke-width="3.0452" stroke-linecap="round" stroke-dasharray="14.21 14.21"/>
<path d="M118.762 38.5742H387.755" stroke="#C2C2C2" stroke-width="3.0452" stroke-linecap="round" stroke-dasharray="14.21 14.21"/>
<rect x="138.049" y="343.095" width="383.696" height="76.1301" rx="12.1808" fill="url(#paint0_linear_281_9909)"/>
<path d="M164.5 390.427V373.177H170.939C174.874 373.177 177.207 375.193 177.207 378.546C177.207 381.923 174.874 383.964 170.939 383.964H167.124V390.427H164.5ZM167.124 381.583H170.866C173.247 381.583 174.486 380.538 174.486 378.546C174.486 376.578 173.247 375.582 170.866 375.582H167.124V381.583ZM184.348 390.718C180.655 390.718 178.225 388.07 178.225 383.964C178.225 379.858 180.655 377.21 184.348 377.21C188.041 377.21 190.47 379.858 190.47 383.964C190.47 388.07 188.041 390.718 184.348 390.718ZM184.348 388.483C186.534 388.483 187.798 386.807 187.798 383.964C187.798 381.121 186.534 379.445 184.348 379.445C182.161 379.445 180.898 381.121 180.898 383.964C180.898 386.807 182.161 388.483 184.348 388.483ZM197.908 390.718C194.215 390.718 191.785 388.07 191.785 383.964C191.785 379.858 194.215 377.21 197.908 377.21C201.601 377.21 204.03 379.858 204.03 383.964C204.03 388.07 201.601 390.718 197.908 390.718ZM197.908 388.483C200.094 388.483 201.358 386.807 201.358 383.964C201.358 381.121 200.094 379.445 197.908 379.445C195.721 379.445 194.458 381.121 194.458 383.964C194.458 386.807 195.721 388.483 197.908 388.483ZM209.084 390.427C207.383 390.427 206.266 389.601 206.266 387.681V373.177H208.841V387.438C208.841 388.046 209.157 388.313 209.74 388.313H210.761V390.427H209.084ZM217.451 390.718C213.686 390.718 211.863 388.896 211.669 386.345L214.317 386.224C214.56 387.657 215.386 388.556 217.451 388.556C219.055 388.556 219.954 388.07 219.954 386.928C219.954 385.981 219.468 385.568 217.014 385.13C213.248 384.426 212.131 383.332 212.131 381.219C212.131 378.862 213.953 377.21 217.33 377.21C220.901 377.21 222.432 379.202 222.675 381.462L220.027 381.607C219.93 380.393 219.176 379.372 217.281 379.372C215.605 379.372 214.803 380.101 214.803 381.121C214.803 382.263 215.435 382.725 217.524 383.065C221.436 383.721 222.626 384.79 222.626 386.904C222.626 389.333 220.537 390.718 217.451 390.718Z" fill="black"/>
<path d="M229.655 384.45V382.215H242.021V384.45H229.655ZM254.751 390.718C250.985 390.718 249.163 388.896 248.969 386.345L251.617 386.224C251.86 387.657 252.686 388.556 254.751 388.556C256.355 388.556 257.254 388.07 257.254 386.928C257.254 385.981 256.768 385.568 254.314 385.13C250.548 384.426 249.431 383.332 249.431 381.219C249.431 378.862 251.253 377.21 254.63 377.21C258.201 377.21 259.732 379.202 259.975 381.462L257.327 381.607C257.23 380.393 256.476 379.372 254.581 379.372C252.905 379.372 252.103 380.101 252.103 381.121C252.103 382.263 252.735 382.725 254.824 383.065C258.736 383.721 259.926 384.79 259.926 386.904C259.926 389.333 257.837 390.718 254.751 390.718ZM262.097 390.427V373.177H264.672V379.372C265.353 377.89 266.762 377.21 268.463 377.21C271.281 377.21 272.812 379.226 272.812 382.118V390.427H270.236V382.798C270.236 380.49 269.434 379.372 267.782 379.372C265.887 379.372 264.672 380.587 264.672 382.846V390.427H262.097ZM279.325 390.718C276.628 390.718 274.903 389.431 274.903 387.195C274.903 384.984 276.191 383.794 279.033 383.235L283.479 382.385C283.479 380.393 282.532 379.396 280.685 379.396C279.033 379.396 278.11 380.15 277.77 381.559L275.122 381.389C275.608 378.813 277.624 377.21 280.685 377.21C284.184 377.21 286.055 379.178 286.055 382.531V387.56C286.055 388.192 286.249 388.386 286.735 388.386H287.197V390.427C287.027 390.475 286.638 390.5 286.249 390.5C284.767 390.5 283.892 389.941 283.698 388.434C283.042 389.795 281.341 390.718 279.325 390.718ZM279.738 388.677C282.07 388.677 283.479 387.22 283.479 385.155V384.328L279.689 385.057C278.134 385.349 277.576 385.956 277.576 386.952C277.576 388.07 278.353 388.677 279.738 388.677ZM288.885 390.427V377.501H291.242L291.315 379.955C291.801 378.254 292.821 377.501 294.4 377.501H295.64V379.809H294.4C292.432 379.809 291.461 380.757 291.461 382.798V390.427H288.885ZM302.309 390.718C298.543 390.718 296.187 388.046 296.187 383.964C296.187 379.882 298.543 377.21 302.236 377.21C305.759 377.21 308.14 379.712 308.14 384.061V384.717H298.859C298.981 387.244 300.268 388.507 302.333 388.507C303.84 388.507 304.86 387.754 305.273 386.539L307.946 386.709C307.266 389.115 305.152 390.718 302.309 390.718ZM298.859 382.774H305.419C305.249 380.49 303.986 379.396 302.236 379.396C300.39 379.396 299.151 380.587 298.859 382.774ZM314.856 390.718C311.527 390.718 309.462 388.119 309.462 383.964C309.462 379.834 311.551 377.21 314.856 377.21C316.629 377.21 318.111 377.987 318.816 379.324V373.177H321.391V390.427H318.986L318.913 388.483C318.184 389.892 316.654 390.718 314.856 390.718ZM315.536 388.483C317.65 388.483 318.816 386.807 318.816 383.964C318.816 381.097 317.65 379.445 315.536 379.445C313.471 379.445 312.135 381.146 312.135 383.964C312.135 386.734 313.471 388.483 315.536 388.483ZM323.879 394.241L325.094 390.427H323.758V387.365H326.892V390.062L325.361 394.241H323.879ZM334.668 390.427V377.501H337.025L337.073 379.761C337.754 377.987 339.236 377.21 341.009 377.21C343.9 377.21 345.382 379.299 345.382 382.118V390.427H342.807V382.895C342.807 380.611 342.103 379.372 340.305 379.372C338.482 379.372 337.243 380.611 337.243 382.895V390.427H334.668ZM351.896 390.718C349.199 390.718 347.474 389.431 347.474 387.195C347.474 384.984 348.761 383.794 351.604 383.235L356.05 382.385C356.05 380.393 355.103 379.396 353.256 379.396C351.604 379.396 350.681 380.15 350.341 381.559L347.692 381.389C348.178 378.813 350.195 377.21 353.256 377.21C356.755 377.21 358.626 379.178 358.626 382.531V387.56C358.626 388.192 358.82 388.386 359.306 388.386H359.768V390.427C359.597 390.475 359.209 390.5 358.82 390.5C357.338 390.5 356.463 389.941 356.269 388.434C355.613 389.795 353.912 390.718 351.896 390.718ZM352.309 388.677C354.641 388.677 356.05 387.22 356.05 385.155V384.328L352.26 385.057C350.705 385.349 350.146 385.956 350.146 386.952C350.146 388.07 350.924 388.677 352.309 388.677ZM365.321 390.427C362.867 390.427 361.725 389.358 361.725 386.928V379.615H359.757V377.501H361.725V374.464H364.301V377.501H367.726V379.615H364.301V386.734C364.301 387.949 364.811 388.313 365.88 388.313H367.726V390.427H365.321ZM369.463 375.631V373.055H372.136V375.631H369.463ZM369.512 390.427V377.501H372.087V390.427H369.512ZM378.431 390.427L373.717 377.501H376.463L379.986 387.803L383.508 377.501H386.278L381.541 390.427H378.431ZM392.771 390.718C389.005 390.718 386.648 388.046 386.648 383.964C386.648 379.882 389.005 377.21 392.698 377.21C396.221 377.21 398.602 379.712 398.602 384.061V384.717H389.321C389.442 387.244 390.73 388.507 392.795 388.507C394.301 388.507 395.322 387.754 395.735 386.539L398.407 386.709C397.727 389.115 395.613 390.718 392.771 390.718ZM389.321 382.774H395.881C395.711 380.49 394.447 379.396 392.698 379.396C390.851 379.396 389.612 380.587 389.321 382.774ZM409.203 390.427C407.502 390.427 406.385 389.601 406.385 387.681V373.177H408.96V387.438C408.96 388.046 409.276 388.313 409.859 388.313H410.879V390.427H409.203ZM412.517 375.631V373.055H415.19V375.631H412.517ZM412.566 390.427V377.501H415.141V390.427H412.566ZM429.187 394.071H426.611V388.677C425.907 389.941 424.449 390.718 422.797 390.718C419.031 390.718 417.257 387.608 417.257 383.964C417.257 380.32 419.007 377.21 422.797 377.21C424.522 377.21 425.955 377.987 426.708 379.469L426.757 377.501H429.187V394.071ZM423.258 388.483C425.348 388.483 426.611 386.952 426.611 383.964C426.611 380.976 425.324 379.445 423.258 379.445C421.193 379.445 419.93 381.121 419.93 383.964C419.93 386.807 421.193 388.483 423.258 388.483ZM436.607 390.718C433.983 390.718 432.355 388.896 432.355 385.811V377.501H434.93V385.155C434.93 387.511 435.732 388.556 437.384 388.556C439.255 388.556 440.372 387.293 440.372 385.082V377.501H442.948V390.427H440.542L440.518 388.313C439.838 389.892 438.477 390.718 436.607 390.718ZM445.748 375.631V373.055H448.42V375.631H445.748ZM445.796 390.427V377.501H448.372V390.427H445.796ZM455.881 390.718C452.553 390.718 450.488 388.119 450.488 383.964C450.488 379.834 452.577 377.21 455.881 377.21C457.655 377.21 459.137 377.987 459.842 379.324V373.177H462.417V390.427H460.012L459.939 388.483C459.21 389.892 457.679 390.718 455.881 390.718ZM456.562 388.483C458.675 388.483 459.842 386.807 459.842 383.964C459.842 381.097 458.675 379.445 456.562 379.445C454.496 379.445 453.16 381.146 453.16 383.964C453.16 386.734 454.496 388.483 456.562 388.483ZM465.109 375.631V373.055H467.782V375.631H465.109ZM465.158 390.427V377.501H467.733V390.427H465.158ZM474.967 390.427C472.513 390.427 471.371 389.358 471.371 386.928V379.615H469.403V377.501H471.371V374.464H473.947V377.501H477.372V379.615H473.947V386.734C473.947 387.949 474.457 388.313 475.526 388.313H477.372V390.427H474.967ZM479.958 394.071V391.957H481.537C482.412 391.957 482.752 391.714 482.995 391.107L483.408 390.038H482.606L477.941 377.501H480.662L484.209 387.657L487.587 377.501H490.332L485.181 391.933C484.647 393.415 483.724 394.071 481.901 394.071H479.958Z" fill="black" fill-opacity="0.36"/>
<rect x="211.134" y="229.406" width="383.696" height="75.1151" rx="12.1808" fill="url(#paint1_linear_281_9909)"/>
<path d="M237.585 276.737V259.487H248.81V261.892H240.209V266.922H248.518V269.254H240.209V274.332H249.004V276.737H237.585ZM251.637 276.737V263.812H253.994L254.043 266.071C254.723 264.298 256.205 263.52 257.978 263.52C260.87 263.52 262.352 265.61 262.352 268.428V276.737H259.776V269.206C259.776 266.922 259.072 265.683 257.274 265.683C255.452 265.683 254.213 266.922 254.213 269.206V276.737H251.637ZM266.059 276.737V265.926H264.261V263.812H266.059V262.986C266.059 260.848 267.225 259.487 269.752 259.487H272.06V261.601H270.116C269.096 261.601 268.634 262.16 268.634 263.132V263.812H271.865V265.926H268.634V276.737H266.059ZM278.574 277.029C274.881 277.029 272.451 274.381 272.451 270.275C272.451 266.169 274.881 263.52 278.574 263.52C282.267 263.52 284.696 266.169 284.696 270.275C284.696 274.381 282.267 277.029 278.574 277.029ZM278.574 274.794C280.76 274.794 282.024 273.117 282.024 270.275C282.024 267.432 280.76 265.756 278.574 265.756C276.387 265.756 275.124 267.432 275.124 270.275C275.124 273.117 276.387 274.794 278.574 274.794ZM286.813 276.737V263.812H289.17L289.243 266.266C289.729 264.565 290.749 263.812 292.328 263.812H293.567V266.12H292.328C290.36 266.12 289.389 267.068 289.389 269.108V276.737H286.813ZM300.237 277.029C296.52 277.029 294.115 274.356 294.115 270.275C294.115 266.193 296.52 263.52 300.237 263.52C303.371 263.52 305.582 265.221 306.02 268.209L303.323 268.355C303.055 266.679 301.865 265.756 300.237 265.756C298.05 265.756 296.787 267.432 296.787 270.275C296.787 273.117 298.05 274.794 300.237 274.794C301.889 274.794 303.08 273.87 303.323 272L306.02 272.145C305.606 275.109 303.396 277.029 300.237 277.029ZM313.204 277.029C309.438 277.029 307.082 274.356 307.082 270.275C307.082 266.193 309.438 263.52 313.131 263.52C316.654 263.52 319.035 266.023 319.035 270.372V271.028H309.754C309.876 273.555 311.163 274.818 313.228 274.818C314.735 274.818 315.755 274.065 316.168 272.85L318.841 273.02C318.16 275.425 316.047 277.029 313.204 277.029ZM309.754 269.084H316.314C316.144 266.8 314.881 265.707 313.131 265.707C311.285 265.707 310.046 266.897 309.754 269.084ZM325.04 277.029C322.343 277.029 320.618 275.741 320.618 273.506C320.618 271.295 321.906 270.105 324.748 269.546L329.194 268.695C329.194 266.703 328.247 265.707 326.4 265.707C324.748 265.707 323.825 266.46 323.485 267.869L320.837 267.699C321.323 265.124 323.339 263.52 326.4 263.52C329.899 263.52 331.77 265.488 331.77 268.841V273.87C331.77 274.502 331.964 274.696 332.45 274.696H332.912V276.737C332.742 276.786 332.353 276.81 331.964 276.81C330.482 276.81 329.607 276.251 329.413 274.745C328.757 276.106 327.056 277.029 325.04 277.029ZM325.453 274.988C327.785 274.988 329.194 273.53 329.194 271.465V270.639L325.404 271.368C323.849 271.659 323.291 272.267 323.291 273.263C323.291 274.381 324.068 274.988 325.453 274.988ZM340.92 277.029C339.122 277.029 337.689 276.203 336.96 274.794L336.887 276.737H334.482V259.487H337.057V265.634C337.713 264.516 339.122 263.52 340.92 263.52C344.297 263.52 346.411 266.144 346.411 270.275C346.411 274.405 344.297 277.029 340.92 277.029ZM340.507 274.794C342.475 274.794 343.738 273.069 343.738 270.275C343.738 267.432 342.499 265.756 340.531 265.756C338.345 265.756 337.057 267.432 337.057 270.275C337.057 273.069 338.345 274.794 340.507 274.794ZM351.477 276.737C349.776 276.737 348.659 275.911 348.659 273.992V259.487H351.234V273.749C351.234 274.356 351.55 274.624 352.133 274.624H353.153V276.737H351.477ZM360.184 277.029C356.419 277.029 354.062 274.356 354.062 270.275C354.062 266.193 356.419 263.52 360.112 263.52C363.635 263.52 366.016 266.023 366.016 270.372V271.028H356.734C356.856 273.555 358.144 274.818 360.209 274.818C361.715 274.818 362.736 274.065 363.149 272.85L365.821 273.02C365.141 275.425 363.027 277.029 360.184 277.029ZM356.734 269.084H363.294C363.124 266.8 361.861 265.707 360.112 265.707C358.265 265.707 357.026 266.897 356.734 269.084ZM379.119 277.029C375.402 277.029 372.997 274.356 372.997 270.275C372.997 266.193 375.402 263.52 379.119 263.52C382.253 263.52 384.464 265.221 384.902 268.209L382.205 268.355C381.938 266.679 380.747 265.756 379.119 265.756C376.933 265.756 375.669 267.432 375.669 270.275C375.669 273.117 376.933 274.794 379.119 274.794C380.771 274.794 381.962 273.87 382.205 272L384.902 272.145C384.489 275.109 382.278 277.029 379.119 277.029ZM392.086 277.029C388.393 277.029 385.964 274.381 385.964 270.275C385.964 266.169 388.393 263.52 392.086 263.52C395.779 263.52 398.209 266.169 398.209 270.275C398.209 274.381 395.779 277.029 392.086 277.029ZM392.086 274.794C394.273 274.794 395.536 273.117 395.536 270.275C395.536 267.432 394.273 265.756 392.086 265.756C389.9 265.756 388.636 267.432 388.636 270.275C388.636 273.117 389.9 274.794 392.086 274.794ZM403.263 276.737C401.562 276.737 400.444 275.911 400.444 273.992V259.487H403.02V273.749C403.02 274.356 403.335 274.624 403.919 274.624H404.939V276.737H403.263ZM409.396 276.737C407.696 276.737 406.578 275.911 406.578 273.992V259.487H409.153V273.749C409.153 274.356 409.469 274.624 410.052 274.624H411.073V276.737H409.396ZM416.545 277.029C413.849 277.029 412.124 275.741 412.124 273.506C412.124 271.295 413.411 270.105 416.254 269.546L420.7 268.695C420.7 266.703 419.752 265.707 417.906 265.707C416.254 265.707 415.331 266.46 414.99 267.869L412.342 267.699C412.828 265.124 414.845 263.52 417.906 263.52C421.405 263.52 423.275 265.488 423.275 268.841V273.87C423.275 274.502 423.47 274.696 423.956 274.696H424.417V276.737C424.247 276.786 423.858 276.81 423.47 276.81C421.988 276.81 421.113 276.251 420.919 274.745C420.263 276.106 418.562 277.029 416.545 277.029ZM416.958 274.988C419.291 274.988 420.7 273.53 420.7 271.465V270.639L416.91 271.368C415.355 271.659 414.796 272.267 414.796 273.263C414.796 274.381 415.574 274.988 416.958 274.988ZM429.971 276.737C427.517 276.737 426.375 275.668 426.375 273.239V265.926H424.407V263.812H426.375V260.775H428.95V263.812H432.376V265.926H428.95V273.044C428.95 274.259 429.461 274.624 430.53 274.624H432.376V276.737H429.971ZM439.459 277.029C435.693 277.029 433.336 274.356 433.336 270.275C433.336 266.193 435.693 263.52 439.386 263.52C442.909 263.52 445.29 266.023 445.29 270.372V271.028H436.009C436.13 273.555 437.418 274.818 439.483 274.818C440.989 274.818 442.01 274.065 442.423 272.85L445.095 273.02C444.415 275.425 442.301 277.029 439.459 277.029ZM436.009 269.084H442.568C442.398 266.8 441.135 265.707 439.386 265.707C437.539 265.707 436.3 266.897 436.009 269.084ZM447.413 276.737V263.812H449.77L449.843 266.266C450.329 264.565 451.349 263.812 452.928 263.812H454.167V266.12H452.928C450.96 266.12 449.989 267.068 449.989 269.108V276.737H447.413ZM459.184 277.029C456.487 277.029 454.762 275.741 454.762 273.506C454.762 271.295 456.05 270.105 458.892 269.546L463.338 268.695C463.338 266.703 462.391 265.707 460.544 265.707C458.892 265.707 457.969 266.46 457.629 267.869L454.981 267.699C455.467 265.124 457.483 263.52 460.544 263.52C464.043 263.52 465.914 265.488 465.914 268.841V273.87C465.914 274.502 466.108 274.696 466.594 274.696H467.056V276.737C466.886 276.786 466.497 276.81 466.108 276.81C464.626 276.81 463.751 276.251 463.557 274.745C462.901 276.106 461.2 277.029 459.184 277.029ZM459.597 274.988C461.929 274.988 463.338 273.53 463.338 271.465V270.639L459.548 271.368C457.993 271.659 457.434 272.267 457.434 273.263C457.434 274.381 458.212 274.988 459.597 274.988ZM471.397 276.737C469.696 276.737 468.578 275.911 468.578 273.992V259.487H471.154V273.749C471.154 274.356 471.469 274.624 472.052 274.624H473.073V276.737H471.397Z" fill="black"/>
<rect x="284.219" y="115.718" width="383.696" height="75.1151" rx="12.1808" fill="url(#paint2_linear_281_9909)"/>
<path d="M310.671 163.05V145.8H321.871V148.205H313.294V153.453H321.434V155.785H313.294V163.05H310.671ZM327.441 163.341C324.744 163.341 323.019 162.054 323.019 159.818C323.019 157.608 324.307 156.417 327.15 155.858L331.596 155.008C331.596 153.016 330.648 152.019 328.802 152.019C327.15 152.019 326.226 152.773 325.886 154.182L323.238 154.012C323.724 151.436 325.74 149.833 328.802 149.833C332.3 149.833 334.171 151.801 334.171 155.154V160.183C334.171 160.815 334.366 161.009 334.851 161.009H335.313V163.05C335.143 163.098 334.754 163.123 334.366 163.123C332.883 163.123 332.009 162.564 331.814 161.058C331.158 162.418 329.458 163.341 327.441 163.341ZM327.854 161.3C330.187 161.3 331.596 159.843 331.596 157.778V156.952L327.806 157.68C326.251 157.972 325.692 158.579 325.692 159.575C325.692 160.693 326.469 161.3 327.854 161.3ZM341.887 163.341C338.122 163.341 336.299 161.519 336.105 158.968L338.753 158.847C338.996 160.28 339.822 161.179 341.887 161.179C343.491 161.179 344.39 160.693 344.39 159.551C344.39 158.604 343.904 158.191 341.45 157.753C337.684 157.049 336.567 155.955 336.567 153.842C336.567 151.485 338.389 149.833 341.766 149.833C345.337 149.833 346.868 151.825 347.111 154.085L344.463 154.23C344.366 153.016 343.612 151.995 341.717 151.995C340.041 151.995 339.239 152.724 339.239 153.744C339.239 154.886 339.871 155.348 341.96 155.688C345.872 156.344 347.062 157.413 347.062 159.527C347.062 161.956 344.973 163.341 341.887 163.341ZM353.715 163.05C351.261 163.05 350.119 161.981 350.119 159.551V152.238H348.151V150.124H350.119V147.087H352.695V150.124H356.12V152.238H352.695V159.357C352.695 160.572 353.205 160.936 354.274 160.936H356.12V163.05H353.715ZM358.222 166.864L359.437 163.05H358.1V159.989H361.235V162.685L359.704 166.864H358.222ZM378.122 148.254V145.678H380.794V148.254H378.122ZM370.323 163.05V152.238H368.525V150.124H370.323V149.298C370.323 147.16 371.489 145.8 374.016 145.8H376.324V147.913H374.38C373.36 147.913 372.898 148.472 372.898 149.444V150.124H376.129V152.238H372.898V163.05H370.323ZM378.17 163.05V150.124H380.746V163.05H378.17ZM384.042 163.05V150.124H386.398L386.447 152.384C387.127 150.61 388.609 149.833 390.383 149.833C393.274 149.833 394.756 151.922 394.756 154.741V163.05H392.181V155.518C392.181 153.234 391.476 151.995 389.678 151.995C387.856 151.995 386.617 153.234 386.617 155.518V163.05H384.042ZM401.27 163.341C398.573 163.341 396.848 162.054 396.848 159.818C396.848 157.608 398.135 156.417 400.978 155.858L405.424 155.008C405.424 153.016 404.477 152.019 402.63 152.019C400.978 152.019 400.055 152.773 399.715 154.182L397.066 154.012C397.552 151.436 399.569 149.833 402.63 149.833C406.129 149.833 407.999 151.801 407.999 155.154V160.183C407.999 160.815 408.194 161.009 408.68 161.009H409.141V163.05C408.971 163.098 408.583 163.123 408.194 163.123C406.712 163.123 405.837 162.564 405.643 161.058C404.987 162.418 403.286 163.341 401.27 163.341ZM401.683 161.3C404.015 161.3 405.424 159.843 405.424 157.778V156.952L401.634 157.68C400.079 157.972 399.52 158.579 399.52 159.575C399.52 160.693 400.298 161.3 401.683 161.3ZM413.482 163.05C411.781 163.05 410.664 162.224 410.664 160.304V145.8H413.239V160.061C413.239 160.669 413.555 160.936 414.138 160.936H415.159V163.05H413.482ZM425.275 163.05C423.575 163.05 422.457 162.224 422.457 160.304V145.8H425.032V160.061C425.032 160.669 425.348 160.936 425.931 160.936H426.952V163.05H425.275ZM428.59 148.254V145.678H431.262V148.254H428.59ZM428.638 163.05V150.124H431.214V163.05H428.638ZM445.259 166.694H442.683V161.3C441.979 162.564 440.521 163.341 438.869 163.341C435.103 163.341 433.33 160.231 433.33 156.587C433.33 152.943 435.079 149.833 438.869 149.833C440.594 149.833 442.027 150.61 442.781 152.092L442.829 150.124H445.259V166.694ZM439.331 161.106C441.42 161.106 442.683 159.575 442.683 156.587C442.683 153.599 441.396 152.068 439.331 152.068C437.265 152.068 436.002 153.744 436.002 156.587C436.002 159.43 437.265 161.106 439.331 161.106ZM452.679 163.341C450.055 163.341 448.427 161.519 448.427 158.434V150.124H451.002V157.778C451.002 160.134 451.804 161.179 453.456 161.179C455.327 161.179 456.445 159.916 456.445 157.705V150.124H459.02V163.05H456.615L456.59 160.936C455.91 162.515 454.55 163.341 452.679 163.341ZM461.82 148.254V145.678H464.492V148.254H461.82ZM461.869 163.05V150.124H464.444V163.05H461.869ZM471.954 163.341C468.625 163.341 466.56 160.742 466.56 156.587C466.56 152.457 468.649 149.833 471.954 149.833C473.727 149.833 475.209 150.61 475.914 151.947V145.8H478.489V163.05H476.084L476.011 161.106C475.282 162.515 473.752 163.341 471.954 163.341ZM472.634 161.106C474.748 161.106 475.914 159.43 475.914 156.587C475.914 153.72 474.748 152.068 472.634 152.068C470.569 152.068 469.232 153.769 469.232 156.587C469.232 159.357 470.569 161.106 472.634 161.106ZM485.04 163.341C482.343 163.341 480.618 162.054 480.618 159.818C480.618 157.608 481.906 156.417 484.749 155.858L489.195 155.008C489.195 153.016 488.247 152.019 486.401 152.019C484.749 152.019 483.825 152.773 483.485 154.182L480.837 154.012C481.323 151.436 483.34 149.833 486.401 149.833C489.899 149.833 491.77 151.801 491.77 155.154V160.183C491.77 160.815 491.965 161.009 492.45 161.009H492.912V163.05C492.742 163.098 492.353 163.123 491.965 163.123C490.483 163.123 489.608 162.564 489.413 161.058C488.758 162.418 487.057 163.341 485.04 163.341ZM485.453 161.3C487.786 161.3 489.195 159.843 489.195 157.778V156.952L485.405 157.68C483.85 157.972 483.291 158.579 483.291 159.575C483.291 160.693 484.068 161.3 485.453 161.3ZM498.466 163.05C496.012 163.05 494.87 161.981 494.87 159.551V152.238H492.902V150.124H494.87V147.087H497.445V150.124H500.871V152.238H497.445V159.357C497.445 160.572 497.955 160.936 499.024 160.936H500.871V163.05H498.466ZM502.608 148.254V145.678H505.28V148.254H502.608ZM502.656 163.05V150.124H505.232V163.05H502.656ZM513.47 163.341C509.777 163.341 507.348 160.693 507.348 156.587C507.348 152.481 509.777 149.833 513.47 149.833C517.163 149.833 519.593 152.481 519.593 156.587C519.593 160.693 517.163 163.341 513.47 163.341ZM513.47 161.106C515.657 161.106 516.92 159.43 516.92 156.587C516.92 153.744 515.657 152.068 513.47 152.068C511.284 152.068 510.02 153.744 510.02 156.587C510.02 159.43 511.284 161.106 513.47 161.106ZM521.71 163.05V150.124H524.066L524.115 152.384C524.795 150.61 526.277 149.833 528.051 149.833C530.942 149.833 532.424 151.922 532.424 154.741V163.05H529.849V155.518C529.849 153.234 529.144 151.995 527.346 151.995C525.524 151.995 524.285 153.234 524.285 155.518V163.05H521.71Z" fill="black"/>
<rect x="357.304" y="2.03125" width="383.696" height="75.1151" rx="12.1808" fill="url(#paint3_linear_281_9909)"/>
<path d="M383.755 49.3633V32.1132H390.194C394.13 32.1132 396.462 34.1297 396.462 37.4826C396.462 40.8597 394.13 42.9006 390.194 42.9006H386.379V49.3633H383.755ZM386.379 40.5196H390.121C392.502 40.5196 393.741 39.4748 393.741 37.4826C393.741 35.5146 392.502 34.5185 390.121 34.5185H386.379V40.5196ZM403.603 49.6548C399.91 49.6548 397.48 47.0066 397.48 42.9006C397.48 38.7945 399.91 36.1463 403.603 36.1463C407.296 36.1463 409.726 38.7945 409.726 42.9006C409.726 47.0066 407.296 49.6548 403.603 49.6548ZM403.603 47.4196C405.79 47.4196 407.053 45.7432 407.053 42.9006C407.053 40.0579 405.79 38.3815 403.603 38.3815C401.416 38.3815 400.153 40.0579 400.153 42.9006C400.153 45.7432 401.416 47.4196 403.603 47.4196ZM417.163 49.6548C413.47 49.6548 411.041 47.0066 411.041 42.9006C411.041 38.7945 413.47 36.1463 417.163 36.1463C420.856 36.1463 423.286 38.7945 423.286 42.9006C423.286 47.0066 420.856 49.6548 417.163 49.6548ZM417.163 47.4196C419.35 47.4196 420.613 45.7432 420.613 42.9006C420.613 40.0579 419.35 38.3815 417.163 38.3815C414.977 38.3815 413.713 40.0579 413.713 42.9006C413.713 45.7432 414.977 47.4196 417.163 47.4196ZM428.339 49.3633C426.639 49.3633 425.521 48.5372 425.521 46.6178V32.1132H428.097V46.3749C428.097 46.9823 428.412 47.2495 428.995 47.2495H430.016V49.3633H428.339ZM443.753 49.6548C441.955 49.6548 440.521 48.8288 439.792 47.4196L439.719 49.3633H437.314V32.1132H439.89V38.26C440.546 37.1424 441.955 36.1463 443.753 36.1463C447.13 36.1463 449.243 38.7702 449.243 42.9006C449.243 47.0309 447.13 49.6548 443.753 49.6548ZM443.34 47.4196C445.308 47.4196 446.571 45.6946 446.571 42.9006C446.571 40.0579 445.332 38.3815 443.364 38.3815C441.177 38.3815 439.89 40.0579 439.89 42.9006C439.89 45.6946 441.177 47.4196 443.34 47.4196ZM455.254 49.6548C452.557 49.6548 450.832 48.3671 450.832 46.1319C450.832 43.921 452.12 42.7305 454.962 42.1717L459.408 41.3213C459.408 39.3291 458.461 38.3329 456.614 38.3329C454.962 38.3329 454.039 39.0861 453.699 40.4953L451.05 40.3252C451.536 37.7498 453.553 36.1463 456.614 36.1463C460.113 36.1463 461.984 38.1143 461.984 41.4671V46.4964C461.984 47.1281 462.178 47.3224 462.664 47.3224H463.126V49.3633C462.955 49.4119 462.567 49.4362 462.178 49.4362C460.696 49.4362 459.821 48.8774 459.627 47.371C458.971 48.7316 457.27 49.6548 455.254 49.6548ZM455.667 47.614C457.999 47.614 459.408 46.1562 459.408 44.0911V43.265L455.618 43.9939C454.063 44.2854 453.504 44.8928 453.504 45.889C453.504 47.0066 454.282 47.614 455.667 47.614ZM469.7 49.6548C465.934 49.6548 464.112 47.8326 463.917 45.2816L466.566 45.1601C466.809 46.5935 467.635 47.4925 469.7 47.4925C471.303 47.4925 472.202 47.0066 472.202 45.8647C472.202 44.9171 471.716 44.5041 469.263 44.0668C465.497 43.3622 464.379 42.2689 464.379 40.1551C464.379 37.7984 466.201 36.1463 469.578 36.1463C473.15 36.1463 474.681 38.1386 474.924 40.3981L472.275 40.5439C472.178 39.3291 471.425 38.3086 469.53 38.3086C467.853 38.3086 467.052 39.0375 467.052 40.0579C467.052 41.1998 467.683 41.6615 469.773 42.0016C473.684 42.6576 474.875 43.7266 474.875 45.8404C474.875 48.27 472.785 49.6548 469.7 49.6548ZM482.366 49.6548C478.601 49.6548 476.244 46.9823 476.244 42.9006C476.244 38.8188 478.601 36.1463 482.294 36.1463C485.816 36.1463 488.197 38.6488 488.197 42.9977V43.6537H478.916C479.038 46.1805 480.326 47.4439 482.391 47.4439C483.897 47.4439 484.918 46.6907 485.331 45.4759L488.003 45.646C487.323 48.0513 485.209 49.6548 482.366 49.6548ZM478.916 41.7101H485.476C485.306 39.4262 484.043 38.3329 482.294 38.3329C480.447 38.3329 479.208 39.5234 478.916 41.7101ZM494.913 49.6548C491.584 49.6548 489.519 47.0552 489.519 42.9006C489.519 38.7702 491.609 36.1463 494.913 36.1463C496.687 36.1463 498.169 36.9238 498.873 38.26V32.1132H501.449V49.3633H499.043L498.97 47.4196C498.242 48.8288 496.711 49.6548 494.913 49.6548ZM495.593 47.4196C497.707 47.4196 498.873 45.7432 498.873 42.9006C498.873 40.0336 497.707 38.3815 495.593 38.3815C493.528 38.3815 492.192 40.0822 492.192 42.9006C492.192 45.6703 493.528 47.4196 495.593 47.4196ZM512.857 49.3633C511.156 49.3633 510.039 48.5372 510.039 46.6178V32.1132H512.614V46.3749C512.614 46.9823 512.93 47.2495 513.513 47.2495H514.534V49.3633H512.857ZM521.565 49.6548C517.799 49.6548 515.442 46.9823 515.442 42.9006C515.442 38.8188 517.799 36.1463 521.492 36.1463C525.015 36.1463 527.396 38.6488 527.396 42.9977V43.6537H518.115C518.236 46.1805 519.524 47.4439 521.589 47.4439C523.095 47.4439 524.116 46.6907 524.529 45.4759L527.201 45.646C526.521 48.0513 524.407 49.6548 521.565 49.6548ZM518.115 41.7101H524.674C524.504 39.4262 523.241 38.3329 521.492 38.3329C519.645 38.3329 518.406 39.5234 518.115 41.7101ZM529.519 49.3633V36.4378H531.876L531.924 38.6974C532.605 36.9238 534.087 36.1463 535.86 36.1463C538.752 36.1463 540.234 38.2357 540.234 41.0541V49.3633H537.658V41.8315C537.658 39.5477 536.954 38.3086 535.156 38.3086C533.334 38.3086 532.095 39.5477 532.095 41.8315V49.3633H529.519ZM547.695 49.6548C544.366 49.6548 542.301 47.0552 542.301 42.9006C542.301 38.7702 544.391 36.1463 547.695 36.1463C549.469 36.1463 550.951 36.9238 551.655 38.26V32.1132H554.231V49.3633H551.825L551.752 47.4196C551.024 48.8288 549.493 49.6548 547.695 49.6548ZM548.375 47.4196C550.489 47.4196 551.655 45.7432 551.655 42.9006C551.655 40.0336 550.489 38.3815 548.375 38.3815C546.31 38.3815 544.974 40.0822 544.974 42.9006C544.974 45.6703 546.31 47.4196 548.375 47.4196ZM556.923 34.5671V31.9917H559.596V34.5671H556.923ZM556.972 49.3633V36.4378H559.547V49.3633H556.972ZM562.844 49.3633V36.4378H565.201L565.25 38.6974C565.93 36.9238 567.412 36.1463 569.186 36.1463C572.077 36.1463 573.559 38.2357 573.559 41.0541V49.3633H570.984V41.8315C570.984 39.5477 570.279 38.3086 568.481 38.3086C566.659 38.3086 565.42 39.5477 565.42 41.8315V49.3633H562.844ZM581.628 53.2992C578.542 53.2992 576.55 51.8172 575.991 49.5819L578.664 49.4119C579.004 50.5052 579.806 51.1612 581.628 51.1612C583.766 51.1612 584.956 50.2865 584.956 48.4157V46.545C584.325 47.8569 582.867 48.7073 581.19 48.7073C577.935 48.7073 575.627 46.1562 575.627 42.4389C575.627 38.746 577.886 36.1463 581.093 36.1463C582.94 36.1463 584.422 37.0452 585.053 38.4787V36.4378H587.532V48.3429C587.532 51.5256 585.248 53.2992 581.628 53.2992ZM581.603 46.5207C583.62 46.5207 584.932 44.9657 584.956 42.4146C585.005 39.8879 583.644 38.3329 581.603 38.3329C579.514 38.3329 578.299 39.9122 578.299 42.4146C578.299 44.9414 579.563 46.5207 581.603 46.5207Z" fill="black"/>
<path d="M601.443 49.6548C597.75 49.6548 595.321 47.0066 595.321 42.9006C595.321 38.7945 597.75 36.1463 601.443 36.1463C605.136 36.1463 607.566 38.7945 607.566 42.9006C607.566 47.0066 605.136 49.6548 601.443 49.6548ZM601.443 47.4196C603.63 47.4196 604.893 45.7432 604.893 42.9006C604.893 40.0579 603.63 38.3815 601.443 38.3815C599.256 38.3815 597.993 40.0579 597.993 42.9006C597.993 45.7432 599.256 47.4196 601.443 47.4196ZM609.683 49.3633V36.4378H612.039L612.088 38.6974C612.768 36.9238 614.25 36.1463 616.024 36.1463C618.915 36.1463 620.397 38.2357 620.397 41.0541V49.3633H617.822V41.8315C617.822 39.5477 617.117 38.3086 615.319 38.3086C613.497 38.3086 612.258 39.5477 612.258 41.8315V49.3633H609.683ZM629.24 49.3633V32.1132H635.436C639.566 32.1132 641.704 33.5466 641.704 36.778C641.704 38.746 640.514 40.1551 638.497 40.4467C640.975 40.7382 642.433 42.3175 642.433 44.6256C642.433 47.784 640.246 49.3633 636.359 49.3633H629.24ZM631.864 39.4748H635.387C637.695 39.4748 639.007 38.5759 639.007 36.9723C639.007 35.2716 637.768 34.4699 635.387 34.4699H631.864V39.4748ZM631.864 47.0066H636.286C638.449 47.0066 639.736 46.1076 639.736 44.3826C639.736 42.6819 638.449 41.7101 636.286 41.7101H631.864V47.0066ZM644.976 34.5671V31.9917H647.649V34.5671H644.976ZM645.025 49.3633V36.4378H647.6V49.3633H645.025ZM654.833 49.3633C652.38 49.3633 651.238 48.2943 651.238 45.8647V38.5516H649.27V36.4378H651.238V33.4008H653.813V36.4378H657.239V38.5516H653.813V45.6703C653.813 46.8851 654.323 47.2495 655.392 47.2495H657.239V49.3633H654.833ZM664.321 49.6548C660.604 49.6548 658.199 46.9823 658.199 42.9006C658.199 38.8188 660.604 36.1463 664.321 36.1463C667.455 36.1463 669.666 37.847 670.104 40.8354L667.407 40.9812C667.14 39.3048 665.949 38.3815 664.321 38.3815C662.135 38.3815 660.871 40.0579 660.871 42.9006C660.871 45.7432 662.135 47.4196 664.321 47.4196C665.973 47.4196 667.164 46.4964 667.407 44.6256L670.104 44.7713C669.691 47.7355 667.48 49.6548 664.321 49.6548ZM677.288 49.6548C673.595 49.6548 671.166 47.0066 671.166 42.9006C671.166 38.7945 673.595 36.1463 677.288 36.1463C680.981 36.1463 683.411 38.7945 683.411 42.9006C683.411 47.0066 680.981 49.6548 677.288 49.6548ZM677.288 47.4196C679.475 47.4196 680.738 45.7432 680.738 42.9006C680.738 40.0579 679.475 38.3815 677.288 38.3815C675.102 38.3815 673.838 40.0579 673.838 42.9006C673.838 45.7432 675.102 47.4196 677.288 47.4196ZM685.479 34.5671V31.9917H688.152V34.5671H685.479ZM685.528 49.3633V36.4378H688.103V49.3633H685.528ZM691.4 49.3633V36.4378H693.757L693.806 38.6974C694.486 36.9238 695.968 36.1463 697.742 36.1463C700.633 36.1463 702.115 38.2357 702.115 41.0541V49.3633H699.54V41.8315C699.54 39.5477 698.835 38.3086 697.037 38.3086C695.215 38.3086 693.976 39.5477 693.976 41.8315V49.3633H691.4Z" fill="black" fill-opacity="0.36"/>
<g filter="url(#filter0_ii_281_9909)">
<rect y="0.000976562" width="161.396" height="161.396" rx="18.767" fill="#F97316"/>
<rect x="1.68628" y="1.68726" width="158.023" height="158.023" rx="17.0807" stroke="white" stroke-opacity="0.42" stroke-width="3.37256"/>
<path d="M104.218 117.333H100.497C100.107 117.333 99.7416 117.135 99.5348 116.801L81.565 87.904C81.1435 87.2281 80.4836 87.1565 80.2212 87.1565C79.9588 87.1565 79.2909 87.2281 78.8774 87.904L60.9076 116.801C60.7008 117.135 60.3351 117.333 59.9455 117.333H56.2243C55.3337 117.333 54.7931 116.355 55.2622 115.6L74.2737 85.0413C75.5618 82.9659 77.7881 81.7334 80.2291 81.7334C82.6702 81.7334 84.8965 82.9659 86.1846 85.0413L105.196 115.6C105.665 116.355 105.125 117.333 104.234 117.333H104.218Z" fill="white"/>
<path d="M114.451 117.334H110.73C110.34 117.334 109.975 117.135 109.768 116.801L82.6621 73.2174C82.1214 72.3507 81.2388 71.8577 80.2211 71.8577C79.2033 71.8577 78.3128 72.3507 77.78 73.2174L50.6742 116.801C50.4675 117.135 50.1017 117.334 49.7121 117.334H45.9909C45.1003 117.334 44.5597 116.356 45.0288 115.6L73.1683 70.3548C74.6949 67.8977 77.3268 66.4346 80.2211 66.4346C81.6682 66.4346 83.0438 66.8003 84.2603 67.4762C85.4689 68.1521 86.5105 69.1302 87.2738 70.3548L115.413 115.6C115.883 116.356 115.342 117.334 114.451 117.334Z" fill="white"/>
<path d="M124.676 117.333H120.955C120.566 117.333 120.2 117.134 119.993 116.8L83.7592 58.53C82.9799 57.2815 81.6918 56.5659 80.2208 56.5659C78.7498 56.5659 77.4618 57.2815 76.6826 58.53L40.4486 116.8C40.2419 117.134 39.8761 117.333 39.4865 117.333H35.7653C34.8748 117.333 34.3341 116.355 34.8032 115.6L72.0787 55.6594C73.8042 52.8842 76.762 51.1985 80.0221 51.1348C83.457 51.0633 86.6534 52.8922 88.4743 55.8105L125.654 115.592C126.123 116.347 125.583 117.325 124.692 117.325L124.676 117.333Z" fill="white"/>
<path d="M134.909 117.333H131.187C130.798 117.333 130.432 117.135 130.225 116.801L84.8553 43.8434C83.8376 42.2053 82.1519 41.267 80.2197 41.267C78.2876 41.267 76.602 42.2053 75.5842 43.8434L30.2143 116.801C30.0075 117.135 29.6418 117.333 29.2521 117.333H25.531C24.6404 117.333 24.0997 116.355 24.5688 115.6L70.9804 40.9728C72.9841 37.7603 76.4349 35.8359 80.2277 35.8359C84.0205 35.8359 87.4713 37.7523 89.475 40.9728L135.887 115.6C136.356 116.355 135.815 117.333 134.924 117.333H134.909Z" fill="white"/>
</g>
<defs>
<filter id="filter0_ii_281_9909" x="0" y="0.000976562" width="161.396" height="161.396" filterUnits="userSpaceOnUse" color-interpolation-filters="sRGB">
<feFlood flood-opacity="0" result="BackgroundImageFix"/>
<feBlend mode="normal" in="SourceGraphic" in2="BackgroundImageFix" result="shape"/>
<feColorMatrix in="SourceAlpha" type="matrix" values="0 0 0 0 0 0 0 0 0 0 0 0 0 0 0 0 0 0 127 0" result="hardAlpha"/>
<feOffset/>
<feGaussianBlur stdDeviation="26.5454"/>
<feComposite in2="hardAlpha" operator="arithmetic" k2="-1" k3="1"/>
<feColorMatrix type="matrix" values="0 0 0 0 0 0 0 0 0 0 0 0 0 0 0 0 0 0 0.04 0"/>
<feBlend mode="normal" in2="shape" result="effect1_innerShadow_281_9909"/>
<feColorMatrix in="SourceAlpha" type="matrix" values="0 0 0 0 0 0 0 0 0 0 0 0 0 0 0 0 0 0 127 0" result="hardAlpha"/>
<feOffset/>
<feGaussianBlur stdDeviation="9.02543"/>
<feComposite in2="hardAlpha" operator="arithmetic" k2="-1" k3="1"/>
<feColorMatrix type="matrix" values="0 0 0 0 0 0 0 0 0 0 0 0 0 0 0 0 0 0 0.05 0"/>
<feBlend mode="normal" in2="effect1_innerShadow_281_9909" result="effect2_innerShadow_281_9909"/>
</filter>
<linearGradient id="paint0_linear_281_9909" x1="329.897" y1="343.095" x2="329.897" y2="419.225" gradientUnits="userSpaceOnUse">
<stop stop-color="#DFDFDF"/>
<stop offset="1" stop-color="#DFDFDF"/>
</linearGradient>
<linearGradient id="paint1_linear_281_9909" x1="402.982" y1="229.406" x2="402.982" y2="304.521" gradientUnits="userSpaceOnUse">
<stop stop-color="#DFDFDF"/>
<stop offset="1" stop-color="#DFDFDF"/>
</linearGradient>
<linearGradient id="paint2_linear_281_9909" x1="476.067" y1="115.718" x2="476.067" y2="190.833" gradientUnits="userSpaceOnUse">
<stop stop-color="#DFDFDF"/>
<stop offset="1" stop-color="#DFDFDF"/>
</linearGradient>
<linearGradient id="paint3_linear_281_9909" x1="549.152" y1="2.03125" x2="549.152" y2="77.1463" gradientUnits="userSpaceOnUse">
<stop stop-color="#DFDFDF"/>
<stop offset="1" stop-color="#DFDFDF"/>
</linearGradient>
</defs>
</svg>
