<svg width="741" height="497" viewBox="0 0 741 497" fill="none" xmlns="http://www.w3.org/2000/svg">
<g clip-path="url(#clip0_281_9858)">
<path d="M2.26953 118.03C151.498 75.6688 309.663 136.823 427.81 235.398C486.812 284.626 610.937 390.359 738.73 390.359" stroke="#B5B5B5" stroke-width="4.53905" stroke-linecap="round"/>
<line x1="3.4043" y1="233.193" x2="741" y2="233.193" stroke="#F97417" stroke-width="3.40429" stroke-dasharray="12.48 12.48"/>
<line x1="426.104" y1="497.026" x2="426.104" y2="0.000335619" stroke="#F97417" stroke-width="3.40429" stroke-dasharray="12.48 12.48"/>
<ellipse cx="426.103" cy="233.761" rx="17.5888" ry="18.1562" fill="#F97417"/>
<path d="M454.132 452.401V435.293H448.028V432.521H463.26V435.293H457.156V452.401H454.132ZM463.356 452.401L469.964 442.433L463.412 432.521H466.968L471.868 440.081L476.684 432.521H480.212L473.66 442.377L480.296 452.401H476.74L471.812 444.729L466.884 452.401H463.356ZM482.258 452.401V432.521H485.282V452.401H482.258ZM489.053 452.401V432.521H495.437C501.653 432.521 505.153 436.105 505.153 442.489C505.153 448.845 501.737 452.401 495.605 452.401H489.053ZM492.077 449.629H495.437C499.833 449.629 502.017 447.277 502.017 442.489C502.017 437.645 499.833 435.293 495.437 435.293H492.077V449.629ZM507.853 441.733V438.205H511.493V441.733H507.853ZM507.853 452.401V448.873H511.493V452.401H507.853ZM524.426 452.401C524.426 446.241 527.03 440.165 531.258 435.293H520.142V432.521H534.45V435.097C529.718 440.473 527.506 445.569 527.506 452.401H524.426ZM542.129 452.737C537.845 452.737 535.073 449.657 535.073 444.953C535.073 440.249 537.845 437.169 542.129 437.169C545.741 437.169 548.289 439.129 548.793 442.573L545.685 442.741C545.377 440.809 544.005 439.745 542.129 439.745C539.609 439.745 538.153 441.677 538.153 444.953C538.153 448.229 539.609 450.161 542.129 450.161C544.033 450.161 545.405 449.097 545.685 446.941L548.793 447.109C548.317 450.525 545.769 452.737 542.129 452.737ZM556.843 452.849C553.399 452.849 551.271 451.057 550.459 448.341L553.511 448.145C553.959 449.405 555.051 450.105 556.843 450.105C559.727 450.105 561.323 448.173 561.631 443.581C560.567 445.177 558.887 446.017 556.787 446.017C552.895 446.017 550.179 443.273 550.179 439.185C550.179 434.817 553.119 432.073 557.263 432.073C562.415 432.073 564.739 435.657 564.739 441.453C564.739 448.201 562.611 452.849 556.843 452.849ZM557.207 443.413C559.727 443.413 561.463 441.873 561.463 439.185C561.463 436.609 559.895 434.761 557.319 434.761C554.799 434.761 553.287 436.553 553.287 439.157C553.287 441.761 554.883 443.413 557.207 443.413ZM569.147 452.401V439.941H567.075V437.505H569.147V436.553C569.147 434.089 570.491 432.521 573.403 432.521H576.063V434.957H573.823C572.647 434.957 572.115 435.601 572.115 436.721V437.505H575.839V439.941H572.115V452.401H569.147ZM576.022 452.401V448.873H579.634V452.401H576.022ZM581.423 452.401V448.873H585.035V452.401H581.423ZM586.824 452.401V448.873H590.436V452.401H586.824ZM599.701 452.849C595.109 452.849 592.561 450.525 592.393 447.053L595.501 446.885C595.725 449.153 597.349 450.077 599.701 450.077C602.081 450.077 604.069 449.153 604.069 446.745C604.069 444.365 602.305 443.245 599.673 443.245H598.021V440.613H599.673C601.801 440.613 603.397 439.829 603.397 437.729C603.397 435.881 602.193 434.845 599.757 434.845C597.349 434.845 596.173 435.853 595.949 437.449L592.841 437.281C593.205 434.173 595.641 432.073 599.757 432.073C604.013 432.073 606.533 434.173 606.533 437.505C606.533 439.605 605.329 441.061 603.089 441.761C605.665 442.461 607.205 444.309 607.205 446.857C607.205 450.637 604.181 452.849 599.701 452.849ZM614.261 452.737C611.153 452.737 609.165 451.253 609.165 448.677C609.165 446.129 610.649 444.757 613.925 444.113L619.049 443.133C619.049 440.837 617.957 439.689 615.829 439.689C613.925 439.689 612.861 440.557 612.469 442.181L609.417 441.985C609.977 439.017 612.301 437.169 615.829 437.169C619.861 437.169 622.017 439.437 622.017 443.301V449.097C622.017 449.825 622.241 450.049 622.801 450.049H623.333V452.401C623.137 452.457 622.689 452.485 622.241 452.485C620.533 452.485 619.525 451.841 619.301 450.105C618.545 451.673 616.585 452.737 614.261 452.737ZM614.737 450.385C617.425 450.385 619.049 448.705 619.049 446.325V445.373L614.681 446.213C612.889 446.549 612.245 447.249 612.245 448.397C612.245 449.685 613.141 450.385 614.737 450.385ZM632.669 452.849C627.713 452.849 624.605 448.873 624.605 442.489C624.605 436.105 627.713 432.073 632.669 432.073C637.653 432.073 640.761 436.077 640.761 442.489C640.761 448.845 637.653 452.849 632.669 452.849ZM632.669 450.077C635.861 450.077 637.625 447.389 637.625 442.489C637.625 437.561 635.861 434.845 632.669 434.845C629.505 434.845 627.741 437.561 627.741 442.489C627.741 447.389 629.505 450.077 632.669 450.077ZM652.158 452.401V448.257H642.134V445.681L651.794 432.521H655.182V445.513H657.618V448.257H655.182V452.401H652.158ZM645.578 445.513H652.158V436.721L645.578 445.513Z" fill="black"/>
<path d="M455.532 488.737C451.192 488.737 449.092 486.637 448.868 483.697L451.92 483.557C452.2 485.209 453.152 486.245 455.532 486.245C457.38 486.245 458.416 485.685 458.416 484.369C458.416 483.277 457.856 482.801 455.028 482.297C450.688 481.485 449.4 480.225 449.4 477.789C449.4 475.073 451.5 473.169 455.392 473.169C459.508 473.169 461.272 475.465 461.552 478.069L458.5 478.237C458.388 476.837 457.52 475.661 455.336 475.661C453.404 475.661 452.48 476.501 452.48 477.677C452.48 478.993 453.208 479.525 455.616 479.917C460.124 480.673 461.496 481.905 461.496 484.341C461.496 487.141 459.088 488.737 455.532 488.737ZM470.13 488.737C465.79 488.737 463.074 485.657 463.074 480.953C463.074 476.249 465.79 473.169 470.046 473.169C474.106 473.169 476.85 476.053 476.85 481.065V481.821H466.154C466.294 484.733 467.778 486.189 470.158 486.189C471.894 486.189 473.07 485.321 473.546 483.921L476.626 484.117C475.842 486.889 473.406 488.737 470.13 488.737ZM466.154 479.581H473.714C473.518 476.949 472.062 475.689 470.046 475.689C467.918 475.689 466.49 477.061 466.154 479.581ZM484.463 488.401C481.635 488.401 480.319 487.169 480.319 484.369V475.941H478.051V473.505H480.319V470.005H483.287V473.505H489.363V470.005H492.331V473.505H496.279V475.941H492.331V484.145C492.331 485.545 492.919 485.965 494.151 485.965H496.279V488.401H493.479C490.651 488.401 489.363 487.169 489.363 484.369V475.941H483.287V484.145C483.287 485.545 483.875 485.965 485.107 485.965H487.235V488.401H484.463ZM501.946 488.401C499.986 488.401 498.698 487.449 498.698 485.237V468.521H501.666V484.957C501.666 485.657 502.03 485.965 502.702 485.965H503.878V488.401H501.946ZM511.981 488.737C507.641 488.737 504.925 485.657 504.925 480.953C504.925 476.249 507.641 473.169 511.897 473.169C515.957 473.169 518.701 476.053 518.701 481.065V481.821H508.005C508.145 484.733 509.629 486.189 512.009 486.189C513.745 486.189 514.921 485.321 515.397 483.921L518.477 484.117C517.693 486.889 515.257 488.737 511.981 488.737ZM508.005 479.581H515.565C515.369 476.949 513.913 475.689 511.897 475.689C509.769 475.689 508.341 477.061 508.005 479.581ZM526.441 488.737C522.605 488.737 520.225 485.741 520.225 480.953C520.225 476.193 522.633 473.169 526.441 473.169C528.485 473.169 530.193 474.065 531.005 475.605V468.521H533.973V488.401H531.201L531.117 486.161C530.277 487.785 528.513 488.737 526.441 488.737ZM527.225 486.161C529.661 486.161 531.005 484.229 531.005 480.953C531.005 477.649 529.661 475.745 527.225 475.745C524.845 475.745 523.305 477.705 523.305 480.953C523.305 484.145 524.845 486.161 527.225 486.161ZM549.584 488.401C546.756 488.401 545.44 487.169 545.44 484.369V475.941H543.172V473.505H545.44V470.005H548.408V473.505H552.356V475.941H548.408V484.145C548.408 485.545 548.996 485.965 550.228 485.965H552.356V488.401H549.584ZM560.519 488.737C556.263 488.737 553.463 485.685 553.463 480.953C553.463 476.221 556.263 473.169 560.519 473.169C564.775 473.169 567.575 476.221 567.575 480.953C567.575 485.685 564.775 488.737 560.519 488.737ZM560.519 486.161C563.039 486.161 564.495 484.229 564.495 480.953C564.495 477.677 563.039 475.745 560.519 475.745C557.999 475.745 556.543 477.677 556.543 480.953C556.543 484.229 557.999 486.161 560.519 486.161ZM576.844 488.401V468.521H583.984C588.744 468.521 591.208 470.173 591.208 473.897C591.208 476.165 589.836 477.789 587.512 478.125C590.368 478.461 592.048 480.281 592.048 482.941C592.048 486.581 589.528 488.401 585.048 488.401H576.844ZM579.868 477.005H583.928C586.588 477.005 588.1 475.969 588.1 474.121C588.1 472.161 586.672 471.237 583.928 471.237H579.868V477.005ZM579.868 485.685H584.964C587.456 485.685 588.94 484.649 588.94 482.661C588.94 480.701 587.456 479.581 584.964 479.581H579.868V485.685ZM594.979 471.349V468.381H598.059V471.349H594.979ZM595.035 488.401V473.505H598.003V488.401H595.035ZM606.339 488.401C603.511 488.401 602.195 487.169 602.195 484.369V475.941H599.927V473.505H602.195V470.005H605.163V473.505H609.111V475.941H605.163V484.145C605.163 485.545 605.751 485.965 606.983 485.965H609.111V488.401H606.339ZM617.273 488.737C612.989 488.737 610.217 485.657 610.217 480.953C610.217 476.249 612.989 473.169 617.273 473.169C620.885 473.169 623.433 475.129 623.937 478.573L620.829 478.741C620.521 476.809 619.149 475.745 617.273 475.745C614.753 475.745 613.297 477.677 613.297 480.953C613.297 484.229 614.753 486.161 617.273 486.161C619.177 486.161 620.549 485.097 620.829 482.941L623.937 483.109C623.461 486.525 620.913 488.737 617.273 488.737ZM632.217 488.737C627.961 488.737 625.161 485.685 625.161 480.953C625.161 476.221 627.961 473.169 632.217 473.169C636.473 473.169 639.273 476.221 639.273 480.953C639.273 485.685 636.473 488.737 632.217 488.737ZM632.217 486.161C634.737 486.161 636.193 484.229 636.193 480.953C636.193 477.677 634.737 475.745 632.217 475.745C629.697 475.745 628.241 477.677 628.241 480.953C628.241 484.229 629.697 486.161 632.217 486.161ZM641.657 471.349V468.381H644.737V471.349H641.657ZM641.713 488.401V473.505H644.681V488.401H641.713ZM648.481 488.401V473.505H651.197L651.253 476.109C652.037 474.065 653.745 473.169 655.789 473.169C659.121 473.169 660.829 475.577 660.829 478.825V488.401H657.861V479.721C657.861 477.089 657.049 475.661 654.977 475.661C652.877 475.661 651.449 477.089 651.449 479.721V488.401H648.481Z" fill="#969696"/>
<path d="M453.04 202.754C451.08 202.754 449.792 201.802 449.792 199.59V182.874H452.76V199.31C452.76 200.01 453.124 200.318 453.796 200.318H454.972V202.754H453.04ZM456.86 185.702V182.734H459.94V185.702H456.86ZM456.916 202.754V187.858H459.884V202.754H456.916ZM476.071 206.954H473.103V200.738C472.291 202.194 470.611 203.09 468.707 203.09C464.367 203.09 462.323 199.506 462.323 195.306C462.323 191.106 464.339 187.522 468.707 187.522C470.695 187.522 472.347 188.418 473.215 190.126L473.271 187.858H476.071V206.954ZM469.239 200.514C471.647 200.514 473.103 198.75 473.103 195.306C473.103 191.862 471.619 190.098 469.239 190.098C466.859 190.098 465.403 192.03 465.403 195.306C465.403 198.582 466.859 200.514 469.239 200.514ZM484.622 203.09C481.598 203.09 479.722 200.99 479.722 197.434V187.858H482.69V196.678C482.69 199.394 483.614 200.598 485.518 200.598C487.674 200.598 488.962 199.142 488.962 196.594V187.858H491.93V202.754H489.158L489.13 200.318C488.346 202.138 486.778 203.09 484.622 203.09ZM495.157 185.702V182.734H498.237V185.702H495.157ZM495.213 202.754V187.858H498.181V202.754H495.213ZM506.835 203.09C502.999 203.09 500.619 200.094 500.619 195.306C500.619 190.546 503.027 187.522 506.835 187.522C508.879 187.522 510.587 188.418 511.399 189.958V182.874H514.367V202.754H511.595L511.511 200.514C510.671 202.138 508.907 203.09 506.835 203.09ZM507.619 200.514C510.055 200.514 511.399 198.582 511.399 195.306C511.399 192.002 510.055 190.098 507.619 190.098C505.239 190.098 503.699 192.058 503.699 195.306C503.699 198.498 505.239 200.514 507.619 200.514ZM521.917 203.09C518.809 203.09 516.821 201.606 516.821 199.03C516.821 196.482 518.305 195.11 521.581 194.466L526.705 193.486C526.705 191.19 525.613 190.042 523.485 190.042C521.581 190.042 520.517 190.91 520.125 192.534L517.073 192.338C517.633 189.37 519.957 187.522 523.485 187.522C527.517 187.522 529.673 189.79 529.673 193.654V199.45C529.673 200.178 529.897 200.402 530.457 200.402H530.989V202.754C530.793 202.81 530.345 202.838 529.897 202.838C528.189 202.838 527.181 202.194 526.957 200.458C526.201 202.026 524.241 203.09 521.917 203.09ZM522.393 200.738C525.081 200.738 526.705 199.058 526.705 196.678V195.726L522.337 196.566C520.545 196.902 519.901 197.602 519.901 198.75C519.901 200.038 520.797 200.738 522.393 200.738ZM537.389 202.754C534.561 202.754 533.245 201.522 533.245 198.722V190.294H530.977V187.858H533.245V184.358H536.213V187.858H540.161V190.294H536.213V198.498C536.213 199.898 536.801 200.318 538.033 200.318H540.161V202.754H537.389ZM542.163 185.702V182.734H545.243V185.702H542.163ZM542.219 202.754V187.858H545.187V202.754H542.219ZM554.681 203.09C550.425 203.09 547.625 200.038 547.625 195.306C547.625 190.574 550.425 187.522 554.681 187.522C558.937 187.522 561.737 190.574 561.737 195.306C561.737 200.038 558.937 203.09 554.681 203.09ZM554.681 200.514C557.201 200.514 558.657 198.582 558.657 195.306C558.657 192.03 557.201 190.098 554.681 190.098C552.161 190.098 550.705 192.03 550.705 195.306C550.705 198.582 552.161 200.514 554.681 200.514ZM564.177 202.754V187.858H566.893L566.949 190.462C567.733 188.418 569.441 187.522 571.485 187.522C574.817 187.522 576.525 189.93 576.525 193.178V202.754H573.557V194.074C573.557 191.442 572.745 190.014 570.673 190.014C568.573 190.014 567.145 191.442 567.145 194.074V202.754H564.177ZM592.12 202.754C589.292 202.754 587.976 201.522 587.976 198.722V190.294H585.708V187.858H587.976V184.358H590.944V187.858H594.892V190.294H590.944V198.498C590.944 199.898 591.532 200.318 592.764 200.318H594.892V202.754H592.12ZM596.95 202.754V182.874H599.918V190.014C600.702 188.306 602.326 187.522 604.286 187.522C607.534 187.522 609.298 189.846 609.298 193.178V202.754H606.33V193.962C606.33 191.302 605.406 190.014 603.502 190.014C601.318 190.014 599.918 191.414 599.918 194.018V202.754H596.95ZM612.441 202.754V187.858H615.157L615.241 190.686C615.801 188.726 616.977 187.858 618.797 187.858H620.225V190.518H618.797C616.529 190.518 615.409 191.61 615.409 193.962V202.754H612.441ZM627.911 203.09C623.571 203.09 620.855 200.01 620.855 195.306C620.855 190.602 623.571 187.522 627.827 187.522C631.887 187.522 634.631 190.406 634.631 195.418V196.174H623.935C624.075 199.086 625.559 200.542 627.939 200.542C629.675 200.542 630.851 199.674 631.327 198.274L634.407 198.47C633.623 201.242 631.187 203.09 627.911 203.09ZM623.935 193.934H631.495C631.299 191.302 629.843 190.042 627.827 190.042C625.699 190.042 624.271 191.414 623.935 193.934ZM642.818 203.09C638.478 203.09 636.378 200.99 636.154 198.05L639.206 197.91C639.486 199.562 640.438 200.598 642.818 200.598C644.666 200.598 645.702 200.038 645.702 198.722C645.702 197.63 645.142 197.154 642.314 196.65C637.974 195.838 636.686 194.578 636.686 192.142C636.686 189.426 638.786 187.522 642.678 187.522C646.794 187.522 648.558 189.818 648.838 192.422L645.786 192.59C645.674 191.19 644.806 190.014 642.622 190.014C640.69 190.014 639.766 190.854 639.766 192.03C639.766 193.346 640.494 193.878 642.902 194.27C647.41 195.026 648.782 196.258 648.782 198.694C648.782 201.494 646.374 203.09 642.818 203.09ZM651.284 202.754V182.874H654.252V190.014C655.036 188.306 656.66 187.522 658.62 187.522C661.868 187.522 663.632 189.846 663.632 193.178V202.754H660.664V193.962C660.664 191.302 659.74 190.014 657.836 190.014C655.652 190.014 654.252 191.414 654.252 194.018V202.754H651.284ZM673.071 203.09C668.815 203.09 666.015 200.038 666.015 195.306C666.015 190.574 668.815 187.522 673.071 187.522C677.327 187.522 680.127 190.574 680.127 195.306C680.127 200.038 677.327 203.09 673.071 203.09ZM673.071 200.514C675.591 200.514 677.047 198.582 677.047 195.306C677.047 192.03 675.591 190.098 673.071 190.098C670.551 190.098 669.095 192.03 669.095 195.306C669.095 198.582 670.551 200.514 673.071 200.514ZM685.951 202.754C683.991 202.754 682.703 201.802 682.703 199.59V182.874H685.671V199.31C685.671 200.01 686.035 200.318 686.707 200.318H687.883V202.754H685.951ZM695.146 203.09C691.31 203.09 688.93 200.094 688.93 195.306C688.93 190.546 691.338 187.522 695.146 187.522C697.19 187.522 698.898 188.418 699.71 189.958V182.874H702.678V202.754H699.906L699.822 200.514C698.982 202.138 697.218 203.09 695.146 203.09ZM695.93 200.514C698.366 200.514 699.71 198.582 699.71 195.306C699.71 192.002 698.366 190.098 695.93 190.098C693.55 190.098 692.01 192.058 692.01 195.306C692.01 198.498 693.55 200.514 695.93 200.514Z" fill="#969696"/>
<line x1="1.70214" x2="1.70214" y2="402.841" stroke="#B5B5B5" stroke-width="3.40429"/>
<line x1="741" y1="404.543" y2="404.543" stroke="#B5B5B5" stroke-width="3.40429"/>
</g>
<defs>
<clipPath id="clip0_281_9858">
<rect width="741" height="497" fill="white"/>
</clipPath>
</defs>
</svg>
